<?xml version="1.0" encoding="utf-8"?>
<!-- Generator: Adobe Illustrator 16.0.0, SVG Export Plug-In . SVG Version: 6.00 Build 0)  -->
<!DOCTYPE svg PUBLIC "-//W3C//DTD SVG 1.1//EN" "http://www.w3.org/Graphics/SVG/1.1/DTD/svg11.dtd">
<svg version="1.1" id="Layer_1" xmlns:sketch="http://www.bohemiancoding.com/sketch/ns"
	 xmlns="http://www.w3.org/2000/svg" xmlns:xlink="http://www.w3.org/1999/xlink" x="0px" y="0px" width="412px" height="209px"
	 viewBox="0 0 412 209" enable-background="new 0 0 412 209" xml:space="preserve">
<title>doghouse</title>
<description>Created with Sketch (http://www.bohemiancoding.com/sketch)</description>
<path id="Shape_1_" sketch:type="MSShapeGroup" opacity="0.2" fill="#658447" enable-background="new    " d="M167.587,193.188
	c39.714-0.074,101.962-1.839,101.962-1.839c-0.08-2.718,70.01-5.855-26.443-11.194c-17.262-0.956-33.988-1.526-49.815-1.811
	c-4.317-0.077-8.271-0.428-12.446-0.464c-2.766-0.025-8.716-1.885-11.809,0.241c-1.908,1.312,0,0-1.638,0.001
	c-59.085,0.037-59.115,6.173-58.299,7.324c1.135,1.6,11.792,4.665,11.792,4.665S127.874,193.262,167.587,193.188z"/>
<g id="Page-1" sketch:type="MSPage">
	<g id="doghouse" transform="translate(1.000000, 0.000000)" sketch:type="MSLayerGroup">
		<path id="Shape_25_" sketch:type="MSShapeGroup" fill="#FFFFFF" d="M398.411,193.454c0,0-7.655,7.97-10.993,3.38
			C384.08,192.243,394.211,193.17,398.411,193.454L398.411,193.454z"/>
		<path id="Shape_26_" sketch:type="MSShapeGroup" fill="#FFFFFF" d="M398.399,193.197c0,0-10.875,1.441-10.7-4.258
			C387.877,183.239,395.273,190.334,398.399,193.197L398.399,193.197z"/>
		<path id="Shape_27_" sketch:type="MSShapeGroup" fill="#FFFFFF" d="M398.393,193.718c0,0-8.323-7.092-4.194-10.841
			C398.324,179.126,398.306,189.449,398.393,193.718L398.393,193.718z"/>
		<path id="Shape_28_" sketch:type="MSShapeGroup" fill="#FFFFFF" d="M398.64,193.686c0,0-2.323-10.884,3.173-11.169
			C407.313,182.233,401.124,190.291,398.64,193.686L398.64,193.686z"/>
		<path id="Shape_29_" sketch:type="MSShapeGroup" fill="#FFFFFF" d="M398.17,191.397c0,0,7.771-8.086,11.161-3.428
			C412.721,192.627,402.434,191.687,398.17,191.397L398.17,191.397z"/>
		<path id="Shape_30_" sketch:type="MSShapeGroup" fill="#FFFFFF" d="M398.184,191.659c0,0,11.043-1.464,10.862,4.319
			C408.865,201.763,401.357,194.563,398.184,191.659L398.184,191.659z"/>
		<path id="Shape_31_" sketch:type="MSShapeGroup" fill="#FFFFFF" d="M398.19,191.131c0,0,8.451,7.194,4.258,11
			C398.257,205.935,398.278,195.462,398.19,191.131L398.19,191.131z"/>
		<path id="Shape_32_" sketch:type="MSShapeGroup" fill="#FFFFFF" d="M397.938,191.166c0,0,2.36,11.039-3.224,11.328
			C389.135,202.783,395.417,194.608,397.938,191.166L397.938,191.166z"/>
		<path id="Shape_33_" sketch:type="MSShapeGroup" fill="#D8AA3C" d="M399.556,190.479c0.755,1.307,0.639,0.757,0.689,2.482
			c0.051,1.728-0.074,2.505-1.773,2.556c-1.702,0.05-3.104-0.684-3.155-2.412c-0.029-1.025-0.264-2.029,0.545-2.519
			C396.429,190.241,399.32,190.069,399.556,190.479L399.556,190.479z"/>
		<path id="Shape_34_" sketch:type="MSShapeGroup" fill="#FFFFFF" d="M379.165,199.909c0,0-8.163-2.186-6.463-6.248
			C374.405,189.6,377.725,196.917,379.165,199.909L379.165,199.909z"/>
		<path id="Shape_35_" sketch:type="MSShapeGroup" fill="#FFFFFF" d="M379.329,199.801c0,0-5.155-6.915-1.37-8.988
			C381.747,188.737,379.985,196.554,379.329,199.801L379.329,199.801z"/>
		<path id="Shape_36_" sketch:type="MSShapeGroup" fill="#FFFFFF" d="M378.988,200.001c0,0,1.399-8.451,5.444-7.062
			S381.738,198.296,378.988,200.001L378.988,200.001z"/>
		<path id="Shape_37_" sketch:type="MSShapeGroup" fill="#FFFFFF" d="M379.105,200.156c0,0,6.195-5.79,8.513-2.124
			C389.932,201.698,382.281,200.554,379.105,200.156L379.105,200.156z"/>
		<path id="Shape_38_" sketch:type="MSShapeGroup" fill="#FFFFFF" d="M380.414,198.953c0,0,8.284,2.221,6.561,6.345
			C385.249,209.42,381.876,201.991,380.414,198.953L380.414,198.953z"/>
		<path id="Shape_39_" sketch:type="MSShapeGroup" fill="#FFFFFF" d="M380.249,199.062c0,0,5.231,7.021,1.39,9.126
			C377.798,210.293,379.584,202.361,380.249,199.062L380.249,199.062z"/>
		<path id="Shape_40_" sketch:type="MSShapeGroup" fill="#FFFFFF" d="M380.595,198.861c0,0-1.419,8.577-5.523,7.166
			C370.966,204.615,377.805,200.592,380.595,198.861L380.595,198.861z"/>
		<path id="Shape_41_" sketch:type="MSShapeGroup" fill="#FFFFFF" d="M380.477,198.702c0,0-6.286,5.875-8.637,2.152
			C369.488,197.133,377.254,198.297,380.477,198.702L380.477,198.702z"/>
		<path id="Shape_42_" sketch:type="MSShapeGroup" fill="#D8AA3C" d="M381.551,199.551c-0.56,1.021-0.245,0.73-1.353,1.43
			c-1.107,0.7-1.661,0.914-2.354-0.235c-0.691-1.149-0.756-2.395,0.352-3.096c0.659-0.414,1.222-0.964,1.852-0.597
			C380.493,197.311,381.726,199.229,381.551,199.551L381.551,199.551z"/>
		<path id="Shape_10_" sketch:type="MSShapeGroup" fill="#FFFFFF" d="M8.853,187.829c0,0-7.278,4.294-8.986,0.234
			C-1.839,184.002,5.709,186.761,8.853,187.829L8.853,187.829z"/>
		<path id="Shape_9_" sketch:type="MSShapeGroup" fill="#FFFFFF" d="M8.89,187.636c0,0-8.545-1.166-7.374-5.32
			C2.691,178.159,7.033,184.894,8.89,187.636L8.89,187.636z"/>
		<path id="Shape_8_" sketch:type="MSShapeGroup" fill="#FFFFFF" d="M8.794,188.021c0,0-5.05-6.92-1.225-8.833
			C11.395,177.275,9.504,184.863,8.794,188.021L8.794,188.021z"/>
		<path id="Shape_7_" sketch:type="MSShapeGroup" fill="#FFFFFF" d="M8.987,188.045c0,0,0.209-8.477,4.449-7.562
			C17.673,181.4,11.496,186.058,8.987,188.045L8.987,188.045z"/>
		<path id="Shape_6_" sketch:type="MSShapeGroup" fill="#FFFFFF" d="M9.046,186.268c0,0,7.389-4.355,9.124-0.235
			C19.902,190.15,12.239,187.354,9.046,186.268L9.046,186.268z"/>
		<path id="Shape_5_" sketch:type="MSShapeGroup" fill="#FFFFFF" d="M9.008,186.462c0,0,8.675,1.187,7.486,5.402
			C15.304,196.079,10.896,189.247,9.008,186.462L9.008,186.462z"/>
		<path id="Shape_4_" sketch:type="MSShapeGroup" fill="#FFFFFF" d="M9.107,186.074c0,0,5.127,7.022,1.244,8.962
			C6.467,196.976,8.387,189.277,9.107,186.074L9.107,186.074z"/>
		<path id="Shape_3_" sketch:type="MSShapeGroup" fill="#FFFFFF" d="M8.911,186.048c0,0-0.212,8.602-4.515,7.67
			C0.092,192.789,6.364,188.062,8.911,186.048L8.911,186.048z"/>
		<path id="Shape_2_" sketch:type="MSShapeGroup" fill="#D8AA3C" d="M10.268,185.875c0.337,1.115,0.35,0.687,0.073,1.967
			c-0.275,1.281-0.512,1.825-1.817,1.516c-1.305-0.312-2.238-1.139-1.962-2.42c0.166-0.76,0.167-1.548,0.871-1.739
			C7.929,185.06,10.162,185.525,10.268,185.875L10.268,185.875z"/>
	</g>
</g>
<g id="Shape_1_copy">
	<g>
		<path fill="none" stroke="#9E8071" stroke-width="2" stroke-miterlimit="10" d="M178.865,164.898l-9.533-2.462l-39.673-0.922
			l-21.22-3.383c0,0,6.151,10.918,4.921,16.607c-1.23,5.689-7.689,13.069,2.152,13.223c9.841,0.154,5.229-7.688,5.536-10.763
			c0.307-3.076,2.768-7.074,2.768-7.074l11.072-5.227l21.835,2.767c0,0,0.461,4.613,9.841,7.688c9.38,3.076,0.616,0.617,0.616,0.617
			s-5.997,12.915,2.152,13.223c8.15,0.308,6.151-11.994,6.151-11.994L178.865,164.898z"/>
	</g>
</g>
<rect x="411.168" y="-0.287" fill="#3F7CBF" width="0.832" height="0.573"/>
<g id="Shape_2">
	<g>
		<path fill="#CAAF7F" d="M178.865,164.898l-9.533-2.462l-39.673-0.922l-21.22-3.383c0,0,6.151,10.918,4.921,16.607
			c-1.23,5.689-7.689,13.069,2.152,13.223c9.841,0.154,5.229-7.688,5.536-10.763c0.307-3.076,2.768-7.074,2.768-7.074l11.072-5.227
			l21.835,2.767c0,0,0.461,4.613,9.841,7.688c9.38,3.076,0.616,0.617,0.616,0.617s-5.997,12.915,2.152,13.223
			c8.15,0.308,6.151-11.994,6.151-11.994L178.865,164.898z M142.413,143.678c0,0-3.026-3.788-4.45-4.921
			c-1.345-1.07,10.764-1.539,10.764-1.539s-7.099-6.307-5.535-6.457c4.779-0.462,6.458-2.461,6.458-2.461s-1.667-4.151-3.997-5.843
			l-72.276-0.615c0,0-4.523,4.921-6.761,5.844c-2.237,0.923,6.158,2.153,6.158,2.153s-2.473,2.733-6.109,4.92
			c-2.557,1.538,10.098,1.846,10.098,1.846s-2.032,2.922-3.103,4.305c-1.1,1.423,14.175,0.309,14.175,0.309l40.595,2.152
			L142.413,143.678z"/>
	</g>
</g>
<g id="Shape_18">
	<g>
		<path fill="#A88A60" d="M170.255,162.131l-60.893-3.384c0,0,6.458,9.072,14.147,7.382c7.688-1.692,12.917-3.385,12.917-3.385
			l21.528,4.306c0,0,16.145,2.769,17.836,0.308C177.483,164.898,170.255,162.131,170.255,162.131z"/>
	</g>
</g>
<g id="Shape_3">
	<g>
		<path fill="#EBDAAC" d="M191.168,32.347c-17.121-1.239-39.574,19.615-27.679,33.831c6.304,7.534,10.148,4.92,22.143,18.452
			s3.383,31.984,3.383,31.984l5.228,3.075c11.225-34.597-4.45-46.987-16.599-53.907c-12.039-6.858-0.478-18.968,6.143-18.979
			c9.379-0.017,14.867,8.335,23.68,2.46C213.926,44.957,208.614,33.611,191.168,32.347z"/>
	</g>
</g>
<g id="Shape_6">
	<g>
		<path fill="#DFBC7D" d="M191.168,32.347c-6.116-0.442-12.905,1.942-18.573,5.828l6.512,0.929l-2.932,4.285l5.458-0.278
			l-3.229,5.655h0.001c1.808-1.218,3.745-1.961,5.38-1.963c9.379-0.017,14.867,8.335,23.68,2.46
			C213.926,44.957,208.614,33.611,191.168,32.347z"/>
	</g>
	<g>
		<path fill="none" stroke="#C7942C" stroke-miterlimit="10" d="M191.168,32.347c-6.116-0.442-12.905,1.942-18.573,5.828
			l6.512,0.929l-2.932,4.285l5.458-0.278l-3.229,5.655h0.001c1.808-1.218,3.745-1.961,5.38-1.963
			c9.379-0.017,14.867,8.335,23.68,2.46C213.926,44.957,208.614,33.611,191.168,32.347z"/>
	</g>
</g>
<g id="Shape_1">
	<g>
		<path fill="#EBDAAC" d="M168.409,118.152c-20.315,8.453-27.371-3.076-27.371-3.076l-39.673,32.6c0,0,4.152,9.072,7.074,10.763
			c4.407,2.553,10.457,5.537,10.457,5.537s3.229,7.074,4.613,12.916c1.384,5.844-1.538,11.379-1.538,11.379
			s-3.075,3.691,3.691,4.614c6.765,0.921,6.765-2.768,6.765-2.768s1.243-6.123,1.863-12.488c0.608-6.242,0.597-12.73,0.597-12.73
			c11.84,7.38,36.289,0,36.289,0s6.306,11.993,10.765,12.608s6.458-2.461,1.537,7.381c-4.92,9.841,7.997,12.148,9.227,5.536
			s6.765-37.98,8.611-53.206C203.162,121.996,191.321,108.617,168.409,118.152z"/>
	</g>
</g>
<g id="Ellipse_1">
	<g>
		<path fill="#EBDAAC" d="M141.112,84.561c-5.357,3.751-8.261,11.934-8.261,11.934c-24.25-10.261-42.451-5.228-42.451-5.228
			c-2.996-8.625-5.675-12.243-6.803-13.495c-6.6,10.417-11.321,22.348-12.699,31.373c-4.571,29.949,12.604,37.582,33.372,40.347
			c20.777,2.765,40.153,0.299,41.963-31.071C146.763,109.223,145.002,96.351,141.112,84.561z"/>
	</g>
</g>
<g id="Shape_20">
	<g>
		<path fill="#A98860" d="M169.332,185.856c-0.553,2.275,0.308,3.384,0.308,3.384l-2.46-0.615c-1.476-1.845-0.924-4.614-0.924-4.614
			c-1.229,1.908,0.308,4.307,0.308,4.307c1.538,1.477,3.999,0.923,3.999,0.923C169.271,189.24,169.332,185.856,169.332,185.856z
			 M126.104,189.504c-0.842,2.275-0.122,3.384-0.122,3.384l-2.382-0.616c-1.242-1.845-0.337-3.689-0.337-3.689
			c-1.472,1.905-0.239,3.382-0.239,3.382c1.35,1.478,3.881,0.924,3.881,0.924C125.613,192.888,126.104,189.504,126.104,189.504z
			 M114.538,184.495c-0.921,2.276-0.239,3.384-0.239,3.384l-2.36-0.616c-1.178-1.844-0.178-4.611-0.178-4.611
			c-1.538,1.906-0.387,4.306-0.387,4.306c1.299,1.475,3.849,0.922,3.849,0.922C113.93,187.879,114.538,184.495,114.538,184.495z
			 M186.862,190.427c-0.554,2.275,0.228,3.518,0.228,3.518l-2.38-0.75c-1.477-1.846-0.922-4.612-0.922-4.612
			c-1.231,1.905,0.308,4.306,0.308,4.306c1.537,1.475,3.997,1.186,3.997,1.186C186.801,194.073,186.862,190.427,186.862,190.427z"/>
	</g>
</g>
<g id="Shape_21">
	<g>
		<path fill="#E1CD98" d="M147.189,120.305c0,0,3.178,34.958-45.208,28.908c0,0,4.203,8.407,6.458,9.534
			c2.255,1.128,10.764,5.536,10.764,5.536s-11.05-6.055-11.379-8.305c-1.286-8.771,15.776-3.307,26.756-6.15
			C158.138,143.728,160.414,125.737,147.189,120.305z"/>
	</g>
</g>
<g id="Shape_22">
	<g>
		<path fill="#A7865F" d="M170.255,155.979c-0.141-10.641-3.599,9.567,7.074,18.453
			C177.328,174.432,170.397,166.621,170.255,155.979z"/>
	</g>
</g>
<g id="Shape_23">
	<g>
		<path fill="#A7865F" d="M134.26,159.219c-0.087-0.291-0.183-0.56-0.295-0.78C133.965,158.438,134.087,158.743,134.26,159.219z
			 M134.26,159.219c0.75,2.508,0.628,7.217,0.628,7.217C136.354,165.502,134.92,161.036,134.26,159.219z"/>
	</g>
</g>
<g id="Shape_5">
	<g>
		<path fill="#77B9E6" d="M150.264,121.549c-0.311-1.239-3.415-1.86-3.415-1.86c-0.932,37.191-44.093,29.754-44.093,29.754
			c-2.173,0.93,0.932,2.478,0.932,2.478C151.507,156.26,150.264,121.549,150.264,121.549z"/>
	</g>
</g>
<g id="Shape_7">
	<g>
		<path fill="#EBDAAC" d="M143.192,130.761c4.779-0.462,6.458-2.461,6.458-2.461s-1.667-4.151-3.997-5.843l-72.276-0.615
			c0,0-4.523,4.921-6.761,5.844c-2.237,0.923,6.158,2.153,6.158,2.153s-2.473,2.733-6.109,4.92
			c-2.557,1.538,10.098,1.846,10.098,1.846s-2.032,2.922-3.103,4.305c-1.1,1.423,14.175,0.309,14.175,0.309l40.595,2.152
			l13.984,0.308c0,0-3.026-3.788-4.45-4.921c-1.345-1.07,10.764-1.539,10.764-1.539S141.628,130.911,143.192,130.761z"/>
	</g>
</g>
<g id="Shape_4">
	<g>
		<path fill="#36A855" d="M127.507,108.312c-11.687-0.617-11.071,11.07-11.071,11.07s14.146-0.308,18.145,3.383
			C134.58,122.765,139.193,108.926,127.507,108.312z M91.382,104.555c-12.066-2.23-11.854,12.154-11.854,12.154
			c5.253-2.574,19.521,1.135,19.521,1.135S103.45,106.785,91.382,104.555z"/>
	</g>
</g>
<g id="Shape_15">
	<g>
		<path fill="#F1E5C5" d="M108.132,115.999c-2.768-0.308-4.921,3.075-4.921,3.075c4.921,0.461,8.919,1.23,8.919,1.23
			S110.9,116.305,108.132,115.999z M91.832,91.703c0,0-3.075,1.845,2.153,1.538c5.228-0.308,33.215,2.153,37.213,4.612
			C135.195,100.315,124.277,89.858,91.832,91.703z"/>
	</g>
</g>
<g id="Shape_16">
	<g>
		<path fill="#F1E5C5" d="M177.636,116.613c-13.378,8.15-26.449,4.613-26.449,4.613c6.458,7.996,23.834-0.306,31.062-2.152
			c7.227-1.845,16.607,10.456,16.607,10.456C191.936,111.387,177.636,116.613,177.636,116.613z M89.372,143.985
			c22.478,9.321,36.598,1.229,36.598,1.229C108.262,150.373,89.372,143.985,89.372,143.985z"/>
	</g>
</g>
<g id="Shape_17">
	<g>
		<path fill="#F1E5C5" d="M166.564,48.955c10.506-14.563,3.076-7.074,3.076-7.074s-15.07,15.224-2.769,26.449
			C166.872,68.33,159.799,58.336,166.564,48.955z"/>
	</g>
</g>
<g id="Ellipse_2">
	<g>
		<path fill="#8B5142" d="M101.365,119.688c5.075,15.07,11.687,0.924,11.687,0.924C108.746,117.536,101.365,119.688,101.365,119.688
			z"/>
	</g>
</g>
<g id="Ellipse_3">
	<g>
		<path fill="#9F8052" d="M82.914,81.555c0,0-5.075,9.226-6.152,12.917l2.769-1.845l-0.308,3.689l6.152-3.075l-1.231-2.461
			l2.46,0.923l-1.538-3.383l1.845,0.616C86.911,88.937,84.912,82.323,82.914,81.555z M139.193,88.628l-3.69,8.303l2.769-0.307
			l-0.923,1.845h3.383l-1.538,2.153l3.075,1.229l0.308-2.151C142.576,99.7,140.731,85.398,139.193,88.628z"/>
	</g>
</g>
<g id="Shape_9">
	<g>
		<path fill="#84301B" d="M106.594,128.916c0,0-3.537,5.228-7.381,3.997c0,0,7.689,8.918,13.532,0.923
			C112.745,133.836,106.902,132.452,106.594,128.916z"/>
	</g>
</g>
<g id="Ellipse_4">
	<g>
		<path fill="#FAF9DB" d="M79.528,116.709c1.208-0.592,2.896-0.85,4.776-0.898c-0.299-0.908-0.467-1.877-0.467-2.887
			c0-3.895,2.417-7.219,5.829-8.572C79.344,103.742,79.528,116.709,79.528,116.709z M124.845,108.406
			c-8.92,1.158-8.41,10.976-8.41,10.976s1.58-0.033,3.828,0.058c-0.287-0.891-0.445-1.84-0.445-2.826
			C119.818,113.031,121.863,109.935,124.845,108.406z"/>
	</g>
</g>
<g id="Shape_10">
	<g>
		<path fill="#CB5027" d="M111.823,133.836c0,0-5.406,0.254-6.986,2.951c2.26,0.739,4.891,0.567,7.281-2.169
			C112.127,134.334,112.04,134.069,111.823,133.836z"/>
	</g>
</g>
<g id="Shape_8">
	<g>
		<path fill="#9D8862" d="M106.457,128.015c-3.37,7.503-13.762,3.502-13.762,3.502c11.087,5.275,13.689-2.272,13.689-2.272
			c3.077,7.883,12.695,4.141,12.695,4.141C109.552,135.594,106.457,128.015,106.457,128.015z"/>
	</g>
</g>
<g id="Shape_11">
	<g>
		<path fill="#16311D" d="M92.044,104.663c-1.004,1.253-2.533,3.648-2.669,6.753c-0.097,2.18,0.699,3.778,1.583,4.877
			c1.376,0.227,2.108,0.344,3.123,0.479c0.943-1.384,2.21-3.549,2.34-5.44c0.138-2.022-0.46-4.18-1.605-5.804
			C93.963,105.099,93.07,104.875,92.044,104.663z M131.161,109.105c-0.823-0.483-1.685-0.538-2.76-0.679
			c-1.08,1.186-2.758,3.479-3.091,6.57c-0.234,2.168,0.458,3.815,1.271,4.969c1.359,0.312,1.888,0.348,2.893,0.549
			c1.028-1.321,2.624-3.275,2.873-5.154C132.614,113.351,132.202,110.799,131.161,109.105z"/>
	</g>
</g>
<g id="Shape_24">
	<g>
		<path fill="#DD8D7A" d="M103.361,120.259c-0.05,0.015-0.1,0.03-0.15,0.046c0,0,4.219,3.834,7.996,0.616
			C111.207,120.921,107.359,119.073,103.361,120.259z"/>
	</g>
</g>
<g id="Shape_12">
	<g>
		<path fill="#C4A879" d="M81.301,100.946c4.409-4.171,10.204-2.209,10.204-2.209C82.315,92.988,76.892,105.116,81.301,100.946z
			 M82.298,123.07c-0.509,0-0.922,0.415-0.922,0.925s0.413,0.923,0.922,0.923c0.51,0,0.923-0.413,0.923-0.923
			S82.808,123.07,82.298,123.07z M90.448,120.921c-0.424,0-0.768,0.344-0.768,0.768s0.344,0.769,0.768,0.769
			c0.425,0,0.77-0.345,0.77-0.769S90.873,120.921,90.448,120.921z M96.445,125.533c-0.509,0-0.922,0.413-0.922,0.922
			c0,0.51,0.413,0.924,0.922,0.924s0.922-0.414,0.922-0.924C97.367,125.946,96.954,125.533,96.445,125.533z M116.435,127.379
			c-0.509,0-0.923,0.412-0.923,0.921c0,0.511,0.414,0.923,0.923,0.923s0.922-0.412,0.922-0.923
			C117.358,127.791,116.945,127.379,116.435,127.379z M125.354,124.609c-0.509,0-0.922,0.412-0.922,0.924
			c0,0.51,0.413,0.922,0.922,0.922c0.51,0,0.923-0.412,0.923-0.922C126.277,125.021,125.864,124.609,125.354,124.609z
			 M130.581,130.145c-0.509,0-0.922,0.415-0.922,0.923c0,0.511,0.414,0.924,0.922,0.924c0.51,0,0.923-0.413,0.923-0.924
			C131.505,130.56,131.092,130.145,130.581,130.145z"/>
	</g>
</g>
<g id="Shape_13">
	<g>
		<path fill="#C4A879" d="M125.969,102.881c0,0,9.375,1.037,10.677,3.633C137.948,109.106,140.344,101.841,125.969,102.881z"/>
	</g>
</g>
<g id="Shape_14">
	<g>
		<path fill="#C4A879" d="M84.487,83.207c-0.499-0.81-1.035-1.446-1.573-1.652c0,0-5.075,9.226-6.152,12.917l2.769-1.845
			l-0.308,3.689l4.717-2.357l-2.871-2.871l3.075-1.537l-1.538-3.69l2.152,0.615L84.487,83.207z M139.193,88.628l-2.029,4.566
			l2.337-0.876l-0.922,3.077l1.845-0.308l-0.615,2.767h2.153l-1.23,3.076l-0.083,0.275l1.62,0.647l0.308-2.151
			C142.576,99.7,140.731,85.398,139.193,88.628z"/>
	</g>
</g>
<g id="Shape_19">
	<g>
		<path fill="#E8B937" d="M116.974,155.824c-0.425-1.623-1.976-2.953-3.596-3.181c-0.446-0.452-1.195-1.469-0.633-2.815h-1.23
			c0,0-1.384,1.999,0.308,2.769l0.427,0.071c-1.382,0.308-2.141,1.603-1.734,3.156c0.467,1.785,2.292,3.23,4.075,3.23
			S117.441,157.609,116.974,155.824z"/>
	</g>
</g>
<path fill="#FFFFFF" d="M130.045,110.347c0,0-1.65,2.896-0.43,4.781S131.254,111.18,130.045,110.347z"/>
<path fill="#FFFFFF" d="M93.942,106.85c0,0-1.65,2.896-0.43,4.781S95.151,107.683,93.942,106.85z"/>
</svg>
