<?xml version="1.0" encoding="utf-8"?>
<!-- Generator: Adobe Illustrator 16.0.0, SVG Export Plug-In . SVG Version: 6.00 Build 0)  -->
<!DOCTYPE svg PUBLIC "-//W3C//DTD SVG 1.1//EN" "http://www.w3.org/Graphics/SVG/1.1/DTD/svg11.dtd">
<svg version="1.1" id="Layer_1" xmlns="http://www.w3.org/2000/svg" xmlns:xlink="http://www.w3.org/1999/xlink" x="0px" y="0px"
	 width="288px" height="208px" viewBox="0 0 288 208" enable-background="new 0 0 288 208" xml:space="preserve">
<g id="Layer_3">
	<path opacity="0.1" enable-background="new    " d="M86.638,167.277c0,0,100.676,5.322,76.446,12.326
		c-24.232,7.004-24.232,5.446-9.154,9.726c15.077,4.278,2.829,3.389-31.729,9.495c-34.558,6.105-34.511,2.758-25.354,6.848
		c9.159,4.092-46.986,3.502-61.185-14.242C21.462,173.684,18.27,165.182,86.638,167.277"/>
</g>
<g>
	<ellipse opacity="0.1" fill="#231F20" enable-background="new    " cx="268.25" cy="197.498" rx="19.75" ry="2.619"/>
	<g>
		<g>
			<path fill="#FFFFFF" d="M93.116,18.203c3.891,0,10.482,1.829,10.482,6.772s-6.591,6.772-10.482,6.772
				c-3.89,0-10.482-1.829-10.482-6.772S89.226,18.203,93.116,18.203z"/>
			<path fill="#FFFFFF" d="M121.783,19.028c3.025,0,8.549,1.318,8.549,5.266s-5.524,5.266-8.549,5.266s-8.549-1.318-8.549-5.266
				S118.758,19.028,121.783,19.028z"/>
		</g>
		<g enable-background="new    ">
			<g>
				<g>
					<path fill="#CC7272" d="M132.85,75.625c0.07-1.375-1.266-13.25-3.635-13.25c-1.118,0-2.587,0.953-3.373,1.358
						c-0.885,0.295-0.029,1.7-0.251,2.469c-0.759,2.667-2.193,12.615,1.021,13.944c3.787,1.479,5.312,0.438,6.238-3.271
						C133,76.275,132.836,75.893,132.85,75.625z"/>
					<path fill="#F08787" d="M130.259,65.429C130.262,65.453,130.262,65.453,130.259,65.429 M129.881,63.719
						c0.926,3.634,0.918,7.604,1.043,11.327C130.924,71.141,131.604,67.403,129.881,63.719"/>
					<path fill="#F08787" d="M126.079,65.13C126.079,65.142,126.079,65.142,126.079,65.13 M125.925,64.302
						c0.253,1.257,0.303,3.081,0.118,4.12c-0.154,1.14-0.54,2.323-0.584,3.498c-0.096,0.75-0.144,1.526-0.092,2.281
						c0.099,1.683,2.062,3.363,2.062,4.717c-0.386-0.711-0.744-1.419-1.065-2.161c-0.991-1.531-0.447-4.064-0.153-5.874
						C126.607,68.445,125.925,66.588,125.925,64.302"/>
					<path fill="#F9CD3D" d="M96.105,99.195C96.113,99.218,96.113,99.218,96.105,99.195 M96.133,94.399
						c-0.93,1.201-1.375,4.467,0.307,5.255c-2.497,0,1.062-7.083,1.812-5.584C97.479,93.774,96.72,93.645,96.133,94.399"/>
					<path fill="#F9CD3D" d="M96.531,94.252c-1.624,0.919-2.219,4.586-0.147,5.235c-3.643,0,2.134-6.373,2.134-5.276
						C97.713,93.973,97.286,93.83,96.531,94.252"/>
					<path fill="#80A3AC" d="M113.203,91.401c-1.542-0.38-1.837-2.298-4.14-2.298c-2.06,0.004-3.844,0.686-5.857,0.917
						c-0.359-0.114-2.357-0.875-2.905-0.875c-0.648,0.009-1.217,0.456-1.361,1.082c-4.335-1.163-0.104,0.153-2.137-0.98
						c-3.351-1.867-7.515-1.676-11.002-3.445c-3.171-1.609-7.226-2.079-9.785-4.27c-1.942-1.666-4.292-0.479-3.517,2.1
						c0.638,2.135-2.48,3.164-0.861,5.84c1.11,1.834,3.348,2.824,5.398,2.962c0.841,0.061,1.75-0.96,2.345-0.73
						c0.949,0.368,1.992,0.537,2.996,0.659c3.724,0.441,7.234,2.649,11.117,2.513c0.947-0.035,2.927,0.178,3.271-1.038
						c1.328,0.209,3.592-0.138,2.739-2.118c2.624,0.262,2.876,3.638,5.043,3.612c1.651-0.02,3.41-1.118,5.44-0.872
						C111.424,94.632,114.247,91.922,113.203,91.401C113.102,91.376,113.205,91.402,113.203,91.401z"/>
					<g>
						<path fill="#F9CD3D" d="M103.605,95.389c-1.945-4.662-9.888-3.682-10.116,1.692
							C93.139,104.862,106.851,103.078,103.605,95.389C103.493,95.121,103.838,95.941,103.605,95.389z"/>
						<path fill="#F9CD3D" d="M100.068,102.226C100.049,102.231,100.001,102.244,100.068,102.226
							C100.066,102.227,100.057,102.229,100.068,102.226z"/>
					</g>
				</g>
			</g>
		</g>
		<g>
			<path fill="#D48F63" d="M149.025,14.897c1.618-3.981-3.476-10.424-6.396-12.61c-0.067,0,0.699,1.344,0.085,0.16
				c-0.226-0.19-0.191-0.216,0.048,0.284c-0.545-0.334-0.535-0.391-0.316-0.082c-0.16-0.107-0.307-0.229-0.441-0.363
				c-0.109,0.107-0.042,0.242,0.201,0.405c-3.626-2.656-10.315-1.43-13.449,1.052c-3.328,2.634-3.167,5.734-3.538,5.365
				c-1.106-1.101-3.025-1.684-4.167-2.054c-1.656-0.529-2.794,0.092-4.511-0.091c-1.463-0.643-6.15,1.24-6.807,0.685
				c-2.125-1.794-4.14-4.33-6.927-4.646c-4.236-1.009-12.206-1.852-16.661,7.173c-2.357-4.924-4.186-6.77-6.878-8.397
				c-2.687-1.615-5.134,0.329-7.739,0.909c-4.378,0.978-7.62,2.589-12.059,3.015c-3.575,0.344-6.126,1.682-7.24,5.129
				c-1.171,3.762-2.257,7.91-2.797,11.796C49.3,23.59,48.208,27.5,48.169,31.79c-0.326,1.877-1.473,9.114,0.822,12.063
				c1.926,2.475,3.899,1.667,5.217,1.667c-1.141,0.97,2.158-0.087,3.586-1.246c3.658-2.792,5.208-5.856,8.454-9.726
				c1.799-2.146,3.312-4.153,4.295-6.779c1.029-2.747,0.139-7.167,1.272-9.826c0.985,1.558,2.226,7.737,2.174,9.415
				c-0.147,3.401-2.009,7.38-1.527,10.648c0.07-0.13,0.145-0.256,0.225-0.38c-0.023,0.522,0.042,1.032,0.198,1.531
				c-0.152-0.089-0.302-0.183-0.448-0.281c-0.018,0.369-0.354,0.738-0.425,1.109c-0.001,0.004,0.379,2.16,0.37,2.595
				c-0.036,1.739-0.174,3.183-0.137,4.93c0.052,2.525,1.787,6.156,3.032,8.298c1.651,2.841,0.811,6.854,1.08,10.054
				c0.154,1.785,1.241,4.613-0.137,5.88c-1.367,1.257-1.358,3.711-0.805,5.335c-0.003-0.075-0.028-0.136-0.075-0.182
				c-0.214,3.828,2.455,5.603,6.062,6.857c2.089,1.253,5.15,0.922,7.243,2.157c2.717,1.575,5.357,2.64,8.447,3.415
				c1.683,0.424,3.429,0.434,5.15,0.346c0.865-0.042,1.729-0.102,2.592-0.18c2.922-0.271,0.243,0.168,1.849,0.57
				c2.709,0.701,3.217-1.26,3.474-3.333c-0.041,0.271,0.253-3.715,0.2-3.352c0.216-1.63,1.322-3.746,0.639-5.364
				c0.664-1.447,0.502-2.95,1.182-4.389c0.504-1.069,2.806-1.314,3.807-1.959c2.85,0.681,6.042-2.296,7.635-4.337
				c1.889-2.42,3.419-3.19,6.19-4.129c-1.31,0.868,0.924-0.012,1.093-0.082c1.196-0.492,2.147-1.329,2.89-2.377
				c0.031-0.036-3.359,1.663-0.128,0.065c2.043-1.789,3.189-3.428,4.758-5.745c1.074-1.613,1.337-6.755,0.549-8.751
				c0.225,0.548-1.139-2.452-3.326-4.23c-1.841-2.908-0.521-0.41-3.095-5.284c-0.69-1.307-0.352-2.241-0.179-3.64
				c0.261-2.11-0.865-2.243,0.422-3.485c0.986,1.957,4.232,5.458,6.728,5.186c3.603-0.394,7.385-2.838,8.574-6.561
				C149.515,23.893,147.395,18.893,149.025,14.897C149.146,14.599,148.887,15.237,149.025,14.897z M75.798,77.897
				C75.722,77.736,75.806,77.893,75.798,77.897C75.79,77.88,75.8,77.896,75.798,77.897z M86.318,19.851
				c0.914-0.019,0.308,0.027-0.748,0.433C85.82,20.139,86.069,19.995,86.318,19.851C86.458,19.848,86.066,19.991,86.318,19.851z
				 M85.101,21.783C85.638,21.75,85.008,22.104,85.101,21.783C85.187,21.778,85.084,21.839,85.101,21.783z M102.521,24.669
				c-0.669,2.473-0.611,3.787-2.745,4.085c-2.728,0.36-6.757,1.263-9.387,1.994c-3.394-0.431-4.571-0.157-5.773-3.454
				c-1.402-3.847,1.111-5.652,4.61-5.781c3.606-0.141,7.009-0.779,10.565-1.254c-0.586-0.11-0.878-0.01-0.877,0.302
				c1.9,0.233,1.95-0.369,2.828,1.556c-0.354-0.778,0.448,2.605,0.67,1.759C102.291,24.323,102.524,24.66,102.521,24.669z
				 M128.646,20.304C128.843,20.628,128.062,20.27,128.646,20.304C128.671,20.346,128.57,20.299,128.646,20.304z M120.16,17.419
				c1.305-0.504,2.73-0.729,4.097-1.013c-0.107,0.575,0.213,1.026,0.677,1.304c-1.7-0.27-3.43-0.368-5.124,0.012
				c0.362-0.05,0.139,0.004-0.669,0.165C119.481,17.73,119.82,17.575,120.16,17.419C120.471,17.299,119.82,17.572,120.16,17.419z
				 M114.23,20.729c-0.102-0.525,0.51-0.492,0.817-0.499C114.537,20.926,114.265,21.092,114.23,20.729z M114.285,21.131
				c0.169-0.035,0.338-0.069,0.507-0.104c-1.019,0.491,0.528,0.175,1.177,0.077c-0.526,0.293-1.023,0.614-1.568,0.876
				C114.362,21.697,114.323,21.414,114.285,21.131C114.453,21.095,114.329,21.413,114.285,21.131z M127.18,28.82
				C126.814,28.846,127.244,28.507,127.18,28.82C127.125,28.824,127.19,28.772,127.18,28.82z M129.467,25.088
				c-1.237,4.014-8.336,4.247-11.899,3.192c-2.917-0.864-3.083,0.121-3.067-3.236c0.009-1.963-0.334-3.196,1.626-3.74
				c0.94-0.26,1.206-0.544,2.129-0.537c2.479,0.021,4.379-0.057,6.834-0.433C128.283,20.796,129.688,20.835,129.467,25.088
				C129.441,25.172,129.492,24.598,129.467,25.088z"/>
			<path fill="#D48F63" d="M130.668,185.492c0.374-1.876-2.789-4.952-4.59-4.44c-3.382,0.917-7.316-1.714-8.792-4.749
				c-4.756-9.785-5.899-20.697-6.211-31.563c-0.182-6.35,0.839-11.863,2.243-18.03c1.229-5.422,3.903-10.966,2.783-16.661
				c-0.817-4.146-2.604-8.078-3.311-12.228c-0.577-0.792-1.969-3.454-2.743-2.978c-1.375,0.846-5.303,0.029-7.187,0.121
				c0.595,1.426,0.353,4.789-0.904,5.947c-0.469,0.439-3.675,2.18-3.755,1.621c-3.917-0.546-4.5-4.977-4.208-7.788
				c-2.402-0.444-3.307,0.358-5.269-0.952c-1.196-0.481-1.864,0.069-3.102-0.093c-0.631-0.269-2.279-0.979-2.33-1
				c-1.812-0.789-3.631-1.41-5.55-1.884c-0.515-0.126-3.563-2.443-3.977-3.111c-0.557-0.824-0.722-0.919-1.856-0.666
				c-1.849,0.415-1.452,0.693-2.526,2.373c-2.955,4.583-4.885,8.288-6.993,13.324c0.079-0.19-0.487,0.939-0.406,0.75
				c-1.012,1.07-1.727,2.322-2.678,3.446c-0.788,0.926-1.261,1.101-2.273,1.811c-2.906,2.01-4.4,4.878-6.403,7.626
				c-2.19,3.006-5.522,5.979-6.974,9.508c-1.499,3.644-2.982,6.705-4.527,10.369c0.546-1.271,0.504-1.204-0.126,0.2
				c-0.513,1.059-1.121,2.068-1.629,3.128c-1.025,2.158-2.271,4.209-3.24,6.396c-1.918,4.356-3.464,8.784-4.438,13.443
				c-0.914,4.372-1.691,8.909-1.498,13.389c0.044,1.681,0.003,5.259,1.285,6.602c-1.905-0.583-4.894-0.539-6.076-0.396
				c-3.007,0.332-6.729,0.831-9.097,2.783c-3.255,2.094-7.564,6.412-4.434,10.455c1.738,3.85,9.292,6.162,13.387,6.716
				c-0.275-0.035,0.077,0.023,0.221,0.04c-2.099-1.647-4.977-4.311-4.999-7.034c-0.023-2.853-0.142-6.083,3.248-7.149
				c2.732-0.859,5.917-2.28,8.783-1.02c1.18,0.436,3.062,0.906,4.711,0.595c0.879-0.166,0.362-0.481,0.575-0.149
				c0.982,1.474,2.635,2.022,3.448,3.658c0.662,1.822-0.767,3.535,0.562,5.318c0.597,0.817,2.83,0.629,3,1.08
				c0.586,1.538,1.838,1.605,3.183,1.432c2.196-0.308,2.81-1.036,3.854-2.861c0.479-0.853,1.951-1.689,1.287-2.818
				c-0.692-1.168-0.959-2.586-1.855-3.676c5.466-0.321,10.436-1.872,15.766-3.222c2.76,0.583,5.769,0.899,8.337-0.177
				c0.868,3.616,0.841,7.347,1.683,11.018c0.387,1.688,0.226,4.346,0.047,5.922c-0.147,1.293,0.059,3.464,0.75,4.678
				c1.609,2.756,15.578,4.192,14.373-0.52c-0.257-1.004-1.541-2.993-1.631-4.127c-0.079-0.985-3.509-4.23-3.93-5.388
				c-0.736-2.021-1.433-4.056-1.983-6.137c-0.26-0.968-0.529-3.239-0.797-4.147c-0.531-1.801,0.301-8.386,0.301-10.344
				c1.092,0.198,2.244,0.326,3.373,0.395c1.794,0.141,17.904-2.52-0.689-7.332c-0.915-0.252-2.005-1.082-2.803-1.221
				c-0.144-2.107,6.991-4.017,8.282-4.867c4.595-0.248,6.317-5.888,9.623-8.092c1.519,4.798,2.906,9.552,5.265,14.03
				c1.429,2.685-0.914,6.203,1.099,8.938c1.415,1.899,3.986,3.114,5.034,5.377c0.351,0.758,0.935,2.106,1.834,2.292
				c0.108,1.072-0.564,3.635,0.312,4.39c0.892,0.769,4.022,0.479,5.084,0.572c1.602,0.139,1.532,0.188,3.005,0.467
				C123.076,189.157,132.31,188.355,130.668,185.492C130.688,185.396,130.714,185.572,130.668,185.492z M29.644,179.427
				C29.618,179.394,29.591,179.321,29.644,179.427C29.631,179.41,29.645,179.428,29.644,179.427z M41.701,188.156
				C41.603,187.383,41.712,187.991,41.701,188.156C41.686,188.037,41.705,188.096,41.701,188.156z M82.239,169.171
				C82.131,169.265,82.153,169.138,82.239,169.171C82.218,169.189,82.219,169.163,82.239,169.171z"/>
		</g>
		<g enable-background="new    ">
			<g>
				<g>
					<path fill="#BA7D58" d="M67.555,167.094c-2.871,1.416,0.844,7.059,2.234,8.127c-1.283-2.565-2.832-4.589-2.444-7.693
						C67.35,167.465,67.45,167.094,67.555,167.094"/>
					<path fill="#BA7D58" d="M67.437,169.418c0.18,1.434,1.474,6.953,3.058,7.745c-0.497-1.091-0.821-2.263-1.113-3.447
						C69.062,172.466,67.437,170.542,67.437,169.418"/>
					<path fill="#BA7D58" d="M67.465,170.671L67.465,170.671L67.465,170.671C67.465,170.67,67.465,170.67,67.465,170.671
						 M67.852,172.158C67.848,172.146,67.848,172.146,67.852,172.158 M67.334,169.287c0.077,3.393,1.947,5.953,3.873,8.624
						c0-1.549-2.69-4.229-3.356-5.752c0.267,0.446,0.138-0.05-0.387-1.487c0-0.001,0-0.002,0-0.003
						C67.348,171.105,67.334,169.357,67.334,169.287"/>
					<path fill="#BA7D58" d="M67.349,169.697c2.012,4.452,1.628,9.957,3.802,14.305c-0.203-2.377-0.089-5.349-1.06-7.582
						c-0.384-0.812-0.458-2.98-0.947-4.215C69,171.842,67.349,169.975,67.349,169.697"/>
					<path fill="#BA7D58" d="M67.891,171.479c2.312,3.608,3.562,7.897,4.539,12.059C73.256,182.505,69.825,171.479,67.891,171.479"
						/>
					<path fill="#BA7D58" d="M64.88,164.039c-2.353,2.922-3.265,9.702-6.691,11.415c1.936-1.187,3.208-4.082,4.369-5.944
						C62.752,169.2,64.923,164.039,64.88,164.039"/>
					<polyline fill="#BA7D58" points="91.581,155.796 91.583,155.792 91.581,155.796 					"/>
					<polyline fill="#BA7D58" points="91.573,155.803 91.581,155.796 91.573,155.803 					"/>
					<polyline fill="#BA7D58" points="91.571,155.805 91.573,155.803 91.571,155.805 					"/>
					<path fill="#BA7D58" d="M87.65,161.854C87.63,161.864,87.63,161.864,87.65,161.854 M91.336,160.148
						c-0.972,0.486-9.549,3.979-9.094,4.971c1.438-0.919,3-1.496,4.495-2.305C88.007,162.263,90.034,160.148,91.336,160.148"/>
					<path fill="#BA7D58" d="M84.17,153.518c-2.108,3.848-1.867,7.417-1.867,11.733C84.059,161.586,82.597,157.294,84.17,153.518"/>
					<path fill="#BA7D58" d="M85.659,159.688c-1.57,1.602-3.33,2.889-3.131,5.426C83.792,163.795,84.478,161.193,85.659,159.688"/>
					<path fill="#BA7D58" d="M94.842,157.488c-3.117,2.034-6.873,3.092-9.679,5.609C88.47,163.098,92.473,159.384,94.842,157.488"/>
					<path fill="#BA7D58" d="M98.385,154.055C98.388,154.052,98.388,154.052,98.385,154.055 M99.004,152.854
						c-0.024,0.117-0.236,1.201-0.619,1.201l0,0C97.676,155.069,99.004,153.05,99.004,152.854"/>
					<path fill="#BA7D58" d="M99.282,153.79C99.266,153.802,99.266,153.802,99.282,153.79 M98.842,153.85
						c-0.133,0.112-0.265,0.224-0.398,0.336c-0.151,0.059,0.965-0.492,1.163-0.492C99.342,153.652,99.087,153.704,98.842,153.85"/>
					<path fill="#BA7D58" d="M76.054,56.694C76.054,56.69,76.054,56.69,76.054,56.694 M75.857,56.225
						c-0.011-0.027,0.532,1.261,0.462,1.097c1.779,2.668,0.78,6.997,0.558,9.991c-0.297,3.957-0.508,7.604-1.626,11.467
						c1.329-2.659,2.872-5.245,3.131-8.296c0.257-3.03-0.639-5.783-0.868-8.654C77.375,60.637,77.103,56.848,75.857,56.225"/>
					<path fill="#BA7D58" d="M76.032,56.274c0.898,3.705,0.322,8.24,1.688,11.719c-0.794-1.588,0.351-4.937,0.134-6.726
						C77.671,59.754,76.032,57.609,76.032,56.274"/>
					<path fill="#BA7D58" d="M75.703,56.864c0.73,4.859,1.843,10.146,1.843,15.064c0.36-2.502,0.218-5.085,0.008-7.594
						c-0.11-1.338-0.257-2.69-0.576-3.997C76.83,59.729,75.631,56.05,75.703,56.864"/>
					<path fill="#BA7D58" d="M75.805,56.728c2.242,7.472,1.419,14.174,1.059,21.752c0-1.563,1.153-3.509,1.467-5.089
						c0.342-1.725,0.475-4.565,0.579-5.669c0.265-1.987-0.299-4.402-0.948-6.272C77.57,60.313,75.805,57.797,75.805,56.728"/>
					<path fill="#BA7D58" d="M76.258,57.459c1.323,5.095,3.608,11.423,3.608,16.712c-0.023-2.854,0.214-5.786-0.23-8.619
						c-0.288-1.781-0.873-3.565-1.613-5.208C77.741,59.717,76.258,58.027,76.258,57.459"/>
					<path fill="#BA7D58" d="M82.051,70.225C82.047,70.223,82.047,70.223,82.051,70.225 M76.378,57.126
						c1.149,2.078,2.275,4.239,3.27,6.395c0.253,2.262,2.511,4.786,2.511,6.955C80.356,65.178,80.556,61.304,76.378,57.126"/>
					<path fill="#BA7D58" d="M76.254,57.143c1.413,3.183,3.509,6.35,4.472,9.721c-0.538-1.831-0.819-3.705-1.665-5.436
						C78.558,60.409,76.254,58.143,76.254,57.143"/>
					<path fill="#BA7D58" d="M79.834,67.453L79.834,67.453L79.834,67.453 M76.552,57.894c1.953,2.717,2.627,6.455,3.299,9.703
						C79.851,64.3,79.679,59.81,76.552,57.894"/>
					<path fill="#BA7D58" d="M76.105,56.862c0.242,0.634,0.513,1.188,0.631,1.852c0.045,0.09-0.059-0.376-0.059-0.496
						c-0.144-0.195,0.31,0.456,0.258,0.066C76.875,57.858,76.105,57.131,76.105,56.862"/>
					<path fill="#BA7D58" d="M75.992,56.758c0.11,0.608,0.402,1.111,0.875,1.508C77.061,58.363,75.739,56.374,75.992,56.758"/>
					<path fill="#BA7D58" d="M76.701,58.07c0.001,0.001,0.001,0.003,0.001,0.003S76.703,58.071,76.701,58.07 M75.984,56.646
						c0.122,0.593,0.391,1.107,0.806,1.542C76.574,58.188,75.984,55.643,75.984,56.646"/>
					<path fill="#BA7D58" d="M75.768,56.732c0.038,0.075,0.746,1.137,0.746,1.306C76.45,57.825,75.906,56.87,75.768,56.732"/>
					<path fill="#BA7D58" d="M75.75,56.55c0.194,0.536,0.448,1.041,0.761,1.517C76.511,58.054,75.75,56.42,75.75,56.55"/>
					<path fill="#BA7D58" d="M75.75,56.577c-0.757-1.594,0.57,1.028,0.728,1.107c-0.486-0.297-0.729-0.667-0.728-1.11
						C75.75,56.574,75.75,56.576,75.75,56.577"/>
					<path fill="#BA7D58" d="M75.794,56.699c0.266,0.393,0.531,0.785,0.797,1.177C76.593,57.878,75.769,56.648,75.794,56.699"/>
					<path fill="#BA7D58" d="M76.888,57.963C76.892,57.965,76.892,57.965,76.888,57.963 M75.871,56.56
						c0.259,0.46,1.018,2.413,1.018,1.404C76.616,57.627,75.871,56.655,75.871,56.56"/>
					<polyline fill="#BA7D58" points="9.172,186.457 9.176,186.449 9.172,186.457 					"/>
					<g>
						<path fill="#BA7D58" d="M73.049,181.68c-0.241-3.853-2.264-6.844-3.496-10.516c-0.534-1.716-1.615-0.99-1.822-3.131
							c-0.129-1.441-1.004-0.912-1.385-1.808c-0.476-1.061,1.786-2.286-0.109-2.685c-0.596-0.168-1.141-0.624-0.862-1.322
							c-0.102-0.302-2.663-4.451-2.114-4.451c-1.498,0.855-0.995,3.494-0.275,5.215c0.823,4.663-2.775,7.845-5.1,11.476
							c-2.44,3.36-10.881,2.87-14.809,5.293c-3.289,0.458,1.135,3.682,2.037,4.021c-0.092-0.034,4.767,2.062,3.404,2.336
							c0.774,0.161,0.022,0.013,0.684,0.228c-0.667,0.278-0.906,0.281,0.878,0.072c-1.651,0.778,0.235,0.011,0.571-0.017
							c1.353-0.023,2.732,0.133,4.082,0.034c2.512-0.431,4.875-1.695,7.326-2.351c2.47-0.675,4.476-0.239,6.949-0.182
							c0.794,0,1.578-0.151,2.378-0.199C73.095,183.616,73.143,183.328,73.049,181.68C73.031,181.391,73.07,182.049,73.049,181.68z
							 M64.225,160.686C64.12,160.541,64.226,160.686,64.225,160.686C64.211,160.666,64.226,160.686,64.225,160.686z"/>
						<path fill="#BA7D58" d="M99.647,153.492c0.461-0.163-0.921-0.247,0.304-0.247c-1.11,0.211-2.135,0.964-2.649,1.969
							c-0.025,0.068,0.663-1.698,0.598-1.567c0.249-0.194,0.345-0.403,0.288-0.627c-0.46,0-1.574,2.404-2.02,2.916
							c-1.1,1.269-2.162,2.276-3.553,3.211c-1.605,0.562-3.118,1.158-4.672,1.877c-0.927,0.43-2.294,1.787-3.146,1.787
							c2.746-2.567,5.188-5.27,7.865-7.904c-1.072,0-4.118,3.317-4.83,3.884c-1.8,1.438-3.841,3.18-4.951,5.217
							c0.164-2.95,3.577-7.887,5.264-10.206c-1.555,1.555-2.924,3.415-4.024,5.318c0.82-2.559,1.655-5.096,3.049-7.42
							c0,0.837-2.755,3.63-3.229,4.562c0.391-4.044,3.335-7.849,6.304-10.373c-1.817,1.154-3.546,2.409-4.915,4.089
							c0.314-0.671,1.657-3.708,2.563-3.708c-2.925,2.55-5.646,5.819-5.393,9.994c0.139,2.177,1.104,6.746-0.135,8.651
							c0.291-0.194,0.167-0.113,0.078,0.269c2.582-2.262,6.797-4.368,9.953-5.891c-1.424,0.954-1.417,0.851-0.821,0.622
							c-0.082,0.047-1.397,0.819-1.463,0.885c0.78-0.431,1.559-0.87,2.363-1.255c-0.516,0.409-0.59,0.396-0.178,0.259
							c-1.384,0.858,0.919-0.021,1.099-0.09c1.686-0.643,2.795-1.938,4.049-3.168c-0.333-0.167-0.74,0.423-1.075,0.652
							c0.243-0.438,0.475-0.838,0.669-1.319C97.199,155.335,99.812,153.412,99.647,153.492
							C99.697,153.475,99.627,153.502,99.647,153.492z"/>
						<path fill="#BA7D58" d="M32.73,171.514c-0.375,0.955-0.631,1.935-0.803,2.944c-0.198,1.139,0.584,1.812,0.584,2.808
							c0.01-3.385,1.432-6.371,2.085-9.707C34.196,167.559,32.884,171.123,32.73,171.514C32.48,172.15,33.265,170.154,32.73,171.514
							z"/>
						<path fill="#BA7D58" d="M34.7,146.094c-3.626,3.936-10.62,33.506-3.778,33.984c-3.316,0-0.141-15.928,0.049-17.424
							C31.128,161.294,33.298,146.094,34.7,146.094C34.534,146.51,34.702,146.094,34.7,146.094z"/>
						<path fill="#BA7D58" d="M28.949,179.352c-5.118-1.204-9.603-0.338-14.376,1.857c-4.424,1.906-8.252,7.856-5.009,12.242
							c-1.067-4.903,3.462-10.049,7.654-11.921c4.129-1.799,8.033-2.313,12.481-1.841C29.702,179.689,29.189,179.44,28.949,179.352z
							"/>
					</g>
					<path fill="#BA7D58" d="M19.759,180.415c-0.164,0.089-0.328,0.178-0.492,0.267C19.367,180.636,19.759,180.493,19.759,180.415"
						/>
					<path fill="#BA7D58" d="M12.098,185.611c-0.518,0.547-0.955,1.152-1.311,1.816c0.549-0.823,1.163-1.602,1.824-2.337
						C12.44,185.265,12.269,185.438,12.098,185.611"/>
					<g>
						<path fill="#8C5F42" d="M63.742,159.16c-0.193-0.667-0.559-1.331-0.8-1.985c-0.168,0,0.394,1.109,0.382,1.086
							c-0.409-0.671-0.355-0.656-0.232-0.144c-0.097-0.161-0.167-0.334-0.213-0.518c-0.001,0-0.002,0-0.003,0
							C62.784,159.214,64.572,162.026,63.742,159.16z"/>
						<path fill="#8C5F42" d="M66.451,164.883c0.058-0.426-0.092-1.346-0.225-1.346c-0.927,0-0.227,2.317-0.239,2.484
							c0-0.406,0.218-0.022,0.313-0.37C66.313,166.164,66.415,165.12,66.451,164.883C66.473,164.721,66.443,164.934,66.451,164.883z
							"/>
						<path fill="#8C5F42" d="M69.317,172.121c-0.412-1.346-0.959-2.372-1.881-3.453c0.164-0.557,0.194-2.759-0.871-1.756
							c-0.918,0.864,0.827,2.879,0.93,3.163c0,0.144-0.096-1.048-0.067-0.674C67.779,169.952,69.448,172.436,69.317,172.121z"/>
					</g>
					<path fill="#8C5F42" d="M68.785,171.678C68.792,171.69,68.792,171.69,68.785,171.678 M67.977,170.627
						C67.983,170.643,67.983,170.643,67.977,170.627 M66.835,168.318c1.242,2.258,2.166,4.732,3.176,7.102
						C70.011,172.84,67.914,170.476,66.835,168.318"/>
					<path fill="#8C5F42" d="M70.764,176.904c0.608,1.741,1.155,3.262,1.482,5.104c0-0.485,0.095-0.989,0.076-1.484
						c0.249,0.579,0.413,1.184,0.494,1.812c0-3.062-1.312-6.598-3.289-8.958C70.215,174.065,70.447,175.991,70.764,176.904
						C70.979,177.52,70.564,176.328,70.764,176.904z"/>
					<path fill="#8C5F42" d="M72.969,182.378c0.078-0.544-2.808,1.057-2.808,1.114C69.632,185.351,74.402,182.774,72.969,182.378
						C72.983,182.279,73.163,182.432,72.969,182.378z"/>
					<path fill="#8C5F42" d="M78.133,64.165c0.054-2.324-0.048-4.905-1.562-6.812c1.203,1.984-0.426-0.766-0.435-0.699
						c-0.518-0.839-0.213-0.387-0.448-0.866c0.246,0,0.354,3.43,0.36,3.688c0.014,0.13-0.316-2.864-0.316-2.721
						c0.334,5.088,1.015,10.25,1.015,15.348c0.002-1.1-0.033-2.178,0.124-3.268c-0.042,0.723-0.078,1.445-0.106,2.168
						c0.029-0.141,0.415-1.631,0.454-1.779c-0.051,0.899-0.09,1.798-0.117,2.698C77.102,69.5,78.775,66.646,78.133,64.165
						C78.157,63.105,78.157,64.259,78.133,64.165z M76.736,67.992c-0.022-1.013-0.118-2.021-0.195-3.031
						C76.666,65.967,76.742,66.978,76.736,67.992C76.733,67.88,76.736,67.905,76.736,67.992z"/>
					<path fill="#8C5F42" d="M69.751,172.826c1.034,3.601,2.433,7.225,2.947,10.947C72.251,180.239,69.751,176.227,69.751,172.826"
						/>
					<g>
						<path fill="#8C5F42" d="M138.659,17.022C138.667,17.031,138.794,17.2,138.659,17.022
							C138.677,17.041,138.677,17.046,138.659,17.022z"/>
						<path fill="#8C5F42" d="M140.656,23.031c-0.024-0.809-0.28-1.672-0.28-2.438c-0.635-1.587-2.188-6.016-4.177-6.016
							c-5.339-0.028-2.228,7.38-3.403,10.478c0.853-1.253,0.186-0.262,0.395-0.576c-1.199,2.326,1.08-0.884,1.331-1.264
							c0.017,0.826,0.05,1.66,0.009,2.485c0-0.673,0.296-1.559,0.447-2.218c0.015,1.177-0.02,2.356-0.02,3.533
							c0.584-1.549,1.059-3.122,1.209-4.775c-0.111,1.053-0.16,2.099-0.294,3.155c0-0.764,0.967-1.91,1.025-2.828
							c0.163,1.379,0.256,2.93,0.256,4.31c0.236-1.051,0.693-2.003,0.788-3.087c0.318,0.975,0.603,3.841,0.684,0.465
							c0.116,0.607,0.305,1.199,0.449,1.8c-0.071-0.035,0.157-3.408,0.115-3.813c0.122,0.378,0.248,3.256,0.569,1.408
							c0.451,2.377,0.486-1.126,0.432-1.654C140.375,22.329,140.529,22.673,140.656,23.031
							C140.653,22.932,140.6,22.879,140.656,23.031z M135.848,16.433C135.843,16.207,136.484,16.593,135.848,16.433
							C135.847,16.389,135.941,16.457,135.848,16.433z M136.273,16.57C136.412,16.709,135.847,16.284,136.273,16.57
							C136.281,16.578,136.229,16.54,136.273,16.57z M136.331,17.098C136.514,17.337,136.368,17.142,136.331,17.098
							C136.35,17.123,136.325,17.091,136.331,17.098z M136.05,19.622c-0.075-0.51-0.447-2.598-0.297-2.851
							c0.903,1.807,0.663,3.463,0.431,5.286C136.24,21.251,136.165,20.418,136.05,19.622
							C136.045,19.589,136.135,20.212,136.05,19.622z"/>
						<path fill="#8C5F42" d="M100.431,28.765c-2.251,2.835-6.816,3.055-10.023,4.347c2.177,0,5.012-0.16,7.093-0.962
							C97.945,31.978,101.045,28.765,100.431,28.765C100.096,29.187,100.432,28.765,100.431,28.765z"/>
						<path fill="#8C5F42" d="M126.861,28.311c-2.456,0.946-4.799,1.538-7.384,2.019c4.078,0,5.952,0.077,9.281-2.895
							C128.46,27.435,127.129,28.207,126.861,28.311C126.219,28.558,127.562,28.039,126.861,28.311z"/>
					</g>
					<g>
						<path fill="#8C5F42" d="M81.807,202.85c-0.121,0,0.393,3.842,0.393,4.101C82.409,205.509,82.247,204.234,81.807,202.85
							C81.806,202.85,82.025,203.536,81.807,202.85z"/>
						<path fill="#8C5F42" d="M86.824,201.234c0,2.087,0.787,4.056,0.693,6.193C87.517,205.056,87.88,203.686,86.824,201.234
							C86.824,201.232,87.2,202.107,86.824,201.234z"/>
						<path fill="#8C5F42" d="M125.654,188.295c0.073-1.573-0.486-2.788-1.516-3.936c0.598,0,1.5,4.696,1.5,5.394
							C125.611,189.267,125.616,188.78,125.654,188.295C125.665,188.053,125.645,188.447,125.654,188.295z"/>
						<path fill="#8C5F42" d="M100.073,144.814c-1.891,2.395-3.41,6.138-0.747,8.67C98.139,151.11,98.688,147.015,100.073,144.814z"
							/>
						<path fill="#8C5F42" d="M56.821,175.424c-3.576,1.277-6.731,3.627-10.22,4.945c0,0.784,11.762-5.345,11.96-5.467
							C58.028,175.033,57.342,175.235,56.821,175.424C56.318,175.604,57.392,175.217,56.821,175.424z"/>
						<path fill="#8C5F42" d="M63.283,158.07C63.287,158.084,63.286,158.07,63.283,158.07
							C63.284,158.072,63.287,158.07,63.283,158.07z"/>
						<path fill="#8C5F42" d="M69.929,175.479c0.162,0.603,0.659,1.625,0.917,2.406c0-1.485-0.56-3.199-1.042-4.595
							c-0.803-1.605-2.304-4.301-2.445-6.248c-0.429,0.142-0.53,0.581-0.304,1.317c-0.281-0.163-0.41-3.039-0.574-3.692
							c-0.609-2.429-2.611-4.122-3.195-6.591c0.095,0.942-0.048,1.068-0.431,0.379c0,4.893,1.23,9.995,1.135,14.999
							c0-3.412,1.101-6.771,0.586-10.204c1.19,3.239,1.906,6.985,2.749,10.316c-0.086-0.794-0.089-1.584-0.133-2.379
							c0.153,1.363,0.815,2.648,1.293,3.887c0-1.212-0.417-2.566-0.576-3.793C68.665,172.609,69.347,174.064,69.929,175.479
							C69.943,175.533,69.868,175.33,69.929,175.479z M67.006,168.809C66.959,168.304,67.019,168.621,67.006,168.809
							C66.998,168.72,67.011,168.736,67.006,168.809z M67.673,169.829C67.67,169.825,67.682,169.838,67.673,169.829
							C67.673,169.829,67.674,169.83,67.673,169.829z"/>
						<path fill="#8C5F42" d="M88.433,161.766c-0.359-0.395-4.16,1.582-4.936,1.92c0.323-0.496,1.527-1.448,0.079-0.429
							c0.131-0.336,0.167-0.438,0.106-0.306c0.392-0.925,0.751-1.837,1.298-2.686c-0.523,0.522-0.946,1.105-1.297,1.753
							c-0.103-0.618,1.083-2.267,1.304-2.573c0,0.375-1.274,1.52-1.524,1.914c0.056-0.364,0.38-3.734,0.578-3.734
							c-0.298,0.722-0.614,1.45-0.855,2.195c0.05-0.941,0.287-6.549,0.384-6.549c-1.417,2.833-2.095,8.857-1.272,12.043
							c1.326-1.209,2.399-1.056,3.797-1.912c0.683-0.407,2.202-1.805,3.161-1.805C88.821,161.987,88.547,162.044,88.433,161.766z"/>
						<path fill="#8C5F42" d="M44.161,190.412c-0.175,0.59-0.646,3.525-1.478,3.734C44.354,193.473,44.241,192.093,44.161,190.412z"
							/>
						<path fill="#8C5F42" d="M47.718,192.426c0.042-0.427-0.072-0.729-0.342-0.908c0.054,0.524,0.795,3.06,0.214,3.641
							C48.072,194.176,48.069,193.511,47.718,192.426C47.619,192.118,47.78,192.617,47.718,192.426z"/>
					</g>
				</g>
			</g>
		</g>
		<g id="Layer_2">
			<g>
				<g enable-background="new    ">
					<g>
						<g>
							<path fill="#4B3324" d="M121.326,40.115c-2.329-4.675-6.632-4.738-10.963-4.738c-3.272,0-8.129,2.764-7.828,6.54
								c0.268,3.358,5.41,7.13,7.072,2.487c0.661,1.62,2.62,2.124,4.17,1.532c1.435-0.547,1.732,1.102,3.421,0.296
								C119.711,45.018,123.145,43.802,121.326,40.115C120.982,39.424,121.765,41.005,121.326,40.115z M109.662,44.24
								c0.254-0.95,0.213-0.027,0.507,0.431C109.976,44.559,109.807,44.416,109.662,44.24
								C109.703,44.085,109.793,44.365,109.662,44.24z"/>
							<path fill="#714D37" d="M122.301,23.603c0.263,0,0.493,0.624,0.032,0.624C121.919,24.227,121.863,23.603,122.301,23.603
								 M119.734,24.669c0,2.425,3.765,2.424,3.765,0S119.734,22.245,119.734,24.669"/>
							<path fill="#714D37" d="M122.301,23.603c0.263,0,0.493,0.624,0.032,0.624C121.921,24.227,121.864,23.603,122.301,23.603
								 M119.768,24.054c0,2.424,3.763,2.424,3.763,0C123.531,21.631,119.768,21.631,119.768,24.054"/>
							<path fill="#674632" d="M120.932,25.205C120.948,25.224,120.948,25.224,120.932,25.205 M120.229,24.694
								C120.242,24.895,120.229,24.727,120.229,24.694 M121.156,22.274c-1.577,0.327-1.514,2.998-0.504,3.832
								c1.408,1.187,2.006-0.45,2.208-0.463c-1.068,0.093-2.38-0.144-2.067-1.522C120.846,23.944,121.99,22.036,121.156,22.274"/>
							<path fill="#EDA070" d="M128.081,182.932c1.238,1.043,1.427,2.653,1.764,4.168
								C129.314,186.038,130.55,182.932,128.081,182.932"/>
							<path fill="#EDA070" d="M41.875,187.102c0.173,0.349,0.347,0.349,0.52,0C42.222,186.758,42.048,186.758,41.875,187.102"/>
							<path fill="#EDA070" d="M43.951,185.639c-2.578,1.188,0.526,9.309,2.261,7.15c-0.03,0.385-0.195,1.489-0.221,1.51
								c0.81-1.634,1.526-3.068,1.452-4.933C47.393,187.838,45.903,184.677,43.951,185.639"/>
							<path fill="#EDA070" d="M49.492,190.8C49.491,190.795,49.491,190.795,49.492,190.8 M48.531,189.105
								C48.554,189.134,48.554,189.134,48.531,189.105 M43.71,186.42c2.568,1.27,4.496,1.837,5.794,4.508
								c-0.467-0.934-0.107-1.894-0.962-2.783C47.409,186.967,45.296,186.42,43.71,186.42"/>
							<path fill="#EDA070" d="M41.298,184.936C41.325,184.995,41.325,184.995,41.298,184.936 M40.563,183.188
								c0.275,2.689,0.683,5.744,1.305,8.369c-0.604-1.209,0.59-3.866-0.036-5.457C41.447,185.12,40.954,184.15,40.563,183.188"/>
							<path fill="#EDA070" d="M41.314,190.374C41.326,190.459,41.326,190.459,41.314,190.374 M40.204,185.589
								C40.222,185.64,40.222,185.64,40.204,185.589 M39.459,182.938c0.005,1.641,1.213,3.122,1.44,4.482
								c0.098,0.637,0.215,1.273,0.267,1.646c0.044,0.312,0.222,2.435,0.435,3.192c-0.354-1.771,1.028-3.558,0.318-5.478
								C41.498,185.605,39.459,184.195,39.459,182.938"/>
							<g>
								<path fill="#EDA070" d="M114.359,187.842c-0.355,0.237,2.905,0.586,3.124,0.572
									C116.468,188.414,115.427,187.842,114.359,187.842C114.356,187.844,114.868,187.842,114.359,187.842z"/>
								<path fill="#EDA070" d="M96.272,35.997c1.58-1.045,2.871-2.394,3.971-3.932c-1.387,3.583-4.25,6.453-5.587,10.082
									c0-0.759,4.55-4.42,5.251-5.31c2.052-2.606,1.898-5.32,2.324-8.142c0.121-0.475,0.181-0.954,0.181-1.437
									c-0.399,0.628-0.774,1.287-1.074,1.969c0.139-0.254,0.139-0.45-0.001-0.588c-1.244,2.69-3.97,4.149-6.108,5.774
									c-1.11,0.829-4.523,3.508-5.912,3.508C91.801,37.288,94.016,37.448,96.272,35.997
									C96.399,35.913,96.057,36.135,96.272,35.997z"/>
								<path fill="#EDA070" d="M86.467,16.9c2.153-3.796,4.216-3.586,8.18-3.586c-1.859-1.247-4.41-2.324-6.562-1.073
									c-1.003,0.583-1.689,1.624-2.078,2.696c-0.202,0.558-0.44,3.681-0.754,3.838C85.685,18.167,86.089,17.542,86.467,16.9
									C86.776,16.355,86.098,17.546,86.467,16.9z"/>
								<path fill="#EDA070" d="M123.761,13.979c1.181-0.152,4.848,0.307,4.848,2.169c-0.708-4.045-4.534-4.067-7.037-1.628
									C121.611,14.441,123.701,13.988,123.761,13.979C124.321,13.907,123.016,14.094,123.761,13.979z"/>
								<path fill="#EDA070" d="M117.012,29.103C117.042,29.121,117.119,29.178,117.012,29.103
									C117.015,29.104,117.029,29.115,117.012,29.103z"/>
								<path fill="#EDA070" d="M117.295,33.783c0.84,0.736,2.159,1.188,2.913,1.942c-1.54-2.015-3.091-4.058-4.434-6.211
									c1.347,1.438,3.14,2.19,5.169,2.382c-1.022-0.49-1.809-1.124-2.694-1.842c-0.493-0.4-3.491-3.359-3.972-3.359
									c-0.324,0.321-0.167,0.748,0.468,1.279c-0.226-0.337-0.452-0.675-0.678-1.013c0-0.001-0.001-0.001-0.003-0.001
									C114.42,29.629,115.229,31.964,117.295,33.783C117.599,34.05,116.656,33.22,117.295,33.783z"/>
								<path fill="#EDA070" d="M69.453,4.599c-7.665,4.051-6.838,12.797-3.83,19.789c0-3.21,0.404-6.328,0.572-9.527
									c0.116-1.98-0.121-4.125,0.593-6.019C67.073,8.222,68.875,4.599,69.453,4.599C68.632,5.033,69.455,4.599,69.453,4.599z"/>
								<path fill="#EDA070" d="M146.688,11.173c0-4.018-2.458-7.099-6.57-6.992c4.685,0,5.37,10.302,5.711,13.306
									C145.828,15.427,146.682,13.304,146.688,11.173C146.688,10.85,146.686,11.835,146.688,11.173z"/>
								<path fill="#EDA070" d="M69.49,3.743c-3.299,0-6.479,0.505-9.493,1.737c-1.39,0.58-2.825,1.208-4.033,2.121
									c-0.462,0.35-2.752,3.918-2.744,3.918c1.172-1.009,2.263-2.053,3.73-2.625c-4.776,4.672-3.111,10.983-2.479,16.785
									c0-3.517,1.014-8.156,2.32-11.416C58.058,7.787,64.549,6.311,69.49,3.743C69.493,3.743,68.063,4.485,69.49,3.743z"/>
								<path fill="#EDA070" d="M89.582,58.305c-2.376-1.738-5.024-2.856-5.127-6.103c-0.045-1.62-0.096-3.273,0.142-4.883
									c0.215-1.208,1.877-2.936,1.877-3.898c-3.563,1.894-4.998,5.751-4.792,9.716c0.235,4.733,5.423,4.716,8.724,6.004
									C90.407,58.75,90.132,58.471,89.582,58.305C89.431,58.195,89.904,58.54,89.582,58.305z"/>
								<path fill="#EDA070" d="M86.474,43.419C86.471,43.419,86.479,43.424,86.474,43.419
									C86.475,43.419,86.476,43.421,86.474,43.419z"/>
								<path fill="#EDA070" d="M137.209,43.667c-4.184-3.301-4.002-6.978-5.972-6.978c0,2.807,2.971,7.171,4.152,9.681
									c1.711,4.627-0.864,9.333-3.394,13.129c4.128-2.767,9.113-7.665,6.978-13.194C138.834,45.946,137.59,43.967,137.209,43.667z
									"/>
								<path fill="#EDA070" d="M110.393,60.33c0.313-0.481,0.586-0.983,0.819-1.507c0.443,2.216,1.333,5.021,3.607,6.137
									c3.52,1.716,5.832-1.08,9.118-1.08c-3.774-0.425-7.373,0.086-8.949-3.925c-0.443-1.132-2.752-12.678-3.284-12.678
									c-0.583,3.142-1.098,7.209-2.118,9.745c-0.572,1.455-0.839,2.915-2.119,3.964c-0.785,0.565-3.671,1.956-4.66,1.626
									C105.876,63.116,108.508,63.155,110.393,60.33z"/>
								<path fill="#EDA070" d="M77.442,123.534c-0.188-2.442-3.07-4.544-2.057-6.31c1.289-2.305,2.894-5.167,1.354-7.773
									c-0.22-0.372-1.642-1.503-1.583-1.688c0.55-1.146,1.328-2.162,1.865-3.317c2.561-5.423-3.014-4.384-6.214-4.528
									c1.259-0.925,2.663-1.68,3.996-2.49c-0.055-0.165-4.91,1.613-5.24,1.775c-3.282,1.627,4.716,2.883,5.283,2.926
									c-0.704,2.156-3.703,3.844-3.422,6.341c0.095,1.361,1.089,1.83,1.625,2.902c0.403,1.249-1.21,3.312-1.662,4.377
									c-0.769,1.812-1.185,3.951,0.452,5.436c1.858,1.685,2.022,2.764,2.316,5.386c0.602,5.37,1.083,10.771,1.575,16.153
									C75.73,136.34,77.913,129.954,77.442,123.534C77.402,123.014,77.514,124.52,77.442,123.534z"/>
								<path fill="#EDA070" d="M102.72,119.325c-1.733-0.475-4.623,4.415-5.174,5.519c1.341-0.99,2.665-2.004,3.979-3.029
									c-2.05,2.051-1.851,4.551-2.548,6.977c-1.155,3.984-2.632,9.215-4.469,12.889c2.502-3.881,6.399-8.028,7.657-12.57
									c0.453-1.622,0.064-2.653,0.788-4.237C103.583,123.496,105.054,119.991,102.72,119.325
									C102.624,119.299,102.984,119.4,102.72,119.325z"/>
								<path fill="#EDA070" d="M87.695,199.98c-0.334-0.263-0.668-0.526-1.003-0.789c0.568,0.194,1.129,0.405,1.685,0.633
									c-0.545,0-5.052-4.36-4.029-2.653c-4.917-2.633-2.708-14.049-2.464-17.941c0.364-5.824,0.058-11.655-0.146-17.482
									c-0.215-6.146,0.548-11.287,2.328-17.162c-1.331,3.991-4.101,6.981-4.832,11.34c-0.844,5.15-0.926,10.503-1.033,15.714
									c-0.091,5.066,0.198,10.225,0.913,15.242c0.742,5.208-0.594,8.868-1.902,13.879c-0.1,0.199,1.273-1.836,1.153-1.658
									c-0.548,1.276-0.067,4.754,1.607,2.63c0.129,0.67,1.242,2.306,1.242,2.862c-0.328-1.507-0.474-2.872-0.363-4.418
									c0.207,0.541,1.709,2.349,1.709,2.826c-0.338-0.942-0.711-1.891-0.994-2.853c0.697,0.93,2.685,2.58,3.727,3.101
									c-0.826-1.594,0.622-0.11,0.947,0.038C88.68,204.404,89.376,201.383,87.695,199.98
									C87.368,199.71,88.25,200.443,87.695,199.98z"/>
								<path fill="#EDA070" d="M128.917,182.869c-0.806-1.29-2.193-1.342-3.52-1.637c-2.275-0.532-3.221,0.229-5.404-1.375
									c-5.8-5.8-5.94-13.805-7.239-21.83c-1.674-10.34-2.509-22.404,0.471-32.646c-0.002-0.002-0.005-0.003-0.008-0.001
									c-5.148,8.318-7.435,21.933-5.477,31.458c1.092,5.338,2.287,10.487,4.05,15.636c0.913,2.697,1.72,5.493,3.586,7.715
									c1.851,2.206,4.735,2.706,6.987,4.363c0.421,0-1.885-2.034-1.906-2.051c1.855,1.267,2.535,2.514,3.681,4.415
									c0.271-0.161,0.182-0.46-0.267-0.898c0.268,0.438,0.952,1.738,0.952,2.214c-0.099-1.829-0.714-3.562-1.821-4.988
									c1.91,0.48,3.736,1.554,4.356,3.604c-0.172-1.874-1.348-3.678-3.261-4.236c1.278,0.08,2.269,0.017,3.51,0.457
									c0.015-0.078-0.046-0.126-0.182-0.145c1.106,0.418,1.7,1.485,1.7,2.68C129.289,184.615,129.495,183.78,128.917,182.869
									C128.787,182.661,129.081,183.128,128.917,182.869z M115.882,175.921C115.849,175.781,115.938,176,115.882,175.921
									C115.878,175.906,115.887,175.928,115.882,175.921z M123.29,181.562C122.323,181.268,124.123,181.329,123.29,181.562
									C123.184,181.529,123.377,181.537,123.29,181.562z M125.468,182.248C125.2,182.16,125.733,182.258,125.468,182.248
									C125.441,182.239,125.494,182.249,125.468,182.248z"/>
								<path fill="#EDA070" d="M59.133,158.727c-0.343-1.886-1.15-3.339-2.742-3.383c-1.045-0.029-0.969-0.078-1.113,0.312
									c0.519-0.469,1.762,0.443,1.994,0.892c0.771,2.073,0.187,5.504-0.077,7.666c-0.677,4.338-2.971,7.817-5.564,11.252
									c0.278-0.833,2.849-2.355,3.525-3.038c1.295-1.308,2.419-2.838,3.196-4.512C59.685,165.044,59.699,161.793,59.133,158.727
									C59.036,158.195,59.244,159.329,59.133,158.727z"/>
								<path fill="#EDA070" d="M49.228,189.27c-1.267-2.249-1.634-3.516-4.156-4.867c-1.372-0.733-2.771-1.228-4.026-2.147
									c-0.187-0.352-1.357-3.996-1.311-3.996c-0.09,0,0.892,3.491,1.021,3.792c-1.221-0.993-1.344-1.554-1.723-3.064
									c-0.12,0.067-0.13,0.203-0.032,0.407c-0.144-0.441-0.233-0.894-0.268-1.357c-0.001,0-0.003,0-0.005,0
									c0.069,1.477,0.105,3.151,0.584,4.567c-0.583-0.857-0.639-1.076-0.898-1.945c0.192,2.926,2.573,4.601,2.707,7.277
									c0.065,1.17-0.158,3.533,0.526,4.425c0.064,0.084,4.128,0.73,2.215,1.688c0.387-1.438,0.754-2.82,0.798-4.321
									c0.003-0.112,1.121-0.474,1.273-0.979c0.663,1.413,1.048,1.779,0.331,3.215c-1.192-8.658,0.051-0.258-0.061-0.405
									c-0.093,0.672-0.038,0.499-0.125,0.866c0.013-0.438-0.073-0.843-0.258-1.212c-0.42,0.21,0.02,3.099,0.011,3.465
									C45.831,192.218,51.467,193.297,49.228,189.27C49.171,189.169,49.403,189.584,49.228,189.27z M46.311,188.031
									c0.244,0.178,0.29,0.455,0.378,0.724C46.562,188.514,46.437,188.272,46.311,188.031
									C46.321,188.039,46.445,188.269,46.311,188.031z"/>
								<path fill="#EDA070" d="M38.411,180.648C38.413,180.648,38.419,180.648,38.411,180.648
									C38.412,180.648,38.414,180.648,38.411,180.648z"/>
								<path fill="#EDA070" d="M46.097,194.055C46.102,194.046,46.101,194.047,46.097,194.055
									C46.097,194.054,46.097,194.054,46.097,194.055z"/>
								<path fill="#EDA070" d="M46.101,194.044C46.101,194.046,46.096,194.049,46.101,194.044
									C46.101,194.045,46.1,194.045,46.101,194.044z"/>
								<path fill="#EDA070" d="M13.111,188.324C13.137,188.255,13.201,188.097,13.111,188.324
									C13.112,188.32,13.126,188.286,13.111,188.324z"/>
								<path fill="#EDA070" d="M25.728,179.854c-5.035-0.406-10.913,3.817-12.639,8.524c-0.759,2.277,0.191,2.157,0.698,3.944
									c0.396,1.42,3.98,2.493,3.98,3.652c-1.146-1.753-1.879-3.119-2.479-5.01c-0.347-1.106-1.223-0.456-1.131-1.355
									c0.259-1.196,1.054-2.262,1.755-3.23c3.24-3.813,7.784-6.23,12.929-5.641C27.974,180.738,26.711,179.935,25.728,179.854
									C25.534,179.838,26.323,179.902,25.728,179.854z M13.626,191.663C13.571,191.615,13.616,191.655,13.626,191.663
									C13.618,191.656,13.626,191.663,13.626,191.663z M13.723,191.754C13.721,191.754,13.776,191.814,13.723,191.754
									C13.725,191.754,13.73,191.762,13.723,191.754z"/>
								<path fill="#EDA070" d="M105.919,36.003c2.44-2.894,7.55-1.802,10.912-1.802c-4.604-2.083-9.653-2.579-11.708,2.769
									C105.52,37.104,105.786,36.781,105.919,36.003C106.211,35.657,105.654,36.324,105.919,36.003z"/>
								<path fill="#EDA070" d="M107.919,31.408c2.904-0.358,5.47,0.871,8.027,2.039c-1.475-2.949-6.931-4.266-9.374-1.823
									C107.021,31.552,107.47,31.48,107.919,31.408C108.636,31.32,107.468,31.473,107.919,31.408z"/>
							</g>
							<path fill="#674632" d="M95.214,25.357c0.286-1.23-0.667-2.177-1.831-2.296C87.383,23.677,95.857,30.865,95.214,25.357
								C95.245,25.223,95.222,25.424,95.214,25.357z"/>
						</g>
					</g>
				</g>
				<g>
					<path fill="#FFFFFF" d="M93.782,24.451c-0.26,0.04-0.392,0.484-0.095,0.59C94.32,25.263,94.242,24.409,93.782,24.451
						C93.725,24.46,93.884,24.442,93.782,24.451z"/>
					<path display="none" fill="#FFFFFF" d="M122.557,23.722c-0.287-0.39-0.553,0.004-0.541,0.264
						C122.033,24.415,122.921,24.227,122.557,23.722C122.496,23.639,122.604,23.787,122.557,23.722z"/>
				</g>
				<g>
					<path d="M94.57,15.876c-4.951,0.2-12.135,3.024-11.349,9.14c0.754,5.862,5.324,6.957,10.159,6.957
						c-3.539,0.024-7.045-1.919-7.991-5.546c-0.449-1.724-0.136-3.134,0.623-4.276c2.673-0.513,5.489-0.683,8.164-0.833
						c0.635-0.036,3.981-0.503,6.149-0.584c0.784,1.175,1.135,2.783,0.914,4.854c-0.205,1.291-0.718,2.32-1.436,3.133
						c-0.675,0.026-1.35,0.069-2.022,0.144c-3.216,0.378-6.15,1.553-9.408,1.553c1.846,0.582,3.826,0.354,5.709,0.058
						c1.767-0.275,3.882-1.451,5.694-1.722c-1.651,1.846-4.374,2.548-7,2.548c3.104,0.994,5.618,0.286,7.385-1.256
						c-2.54,2.897-6.425,4.829-9.593,6.825c2.903,0,10.234-4.638,10.676-7.99C104.771,24.207,103.417,15.521,94.57,15.876z
						 M95.913,20.206c-2.231,0.09-4.382,0.454-6.585,0.786c-1.006,0.152-2.201,0.741-3.306,1.143
						c1.452-2.169,4.542-3.354,7.265-3.775c2.972-0.339,5.412,0.315,6.792,2.053C98.717,20.18,97.346,20.149,95.913,20.206z"/>
					<path d="M124.114,30.167c-0.543,0.12-1.103,0.199-1.674,0.23C123.047,30.398,123.602,30.312,124.114,30.167z"/>
					<path d="M123.115,29.666c0.26-0.004,0.515-0.012,0.756-0.026C123.61,29.64,123.36,29.651,123.115,29.666z"/>
					<path d="M121.363,26.985c3.634,0.128,3.966-5.199,0.575-4.86C119.497,22.368,118.668,26.881,121.363,26.985z M119.916,24.825
						c0.656,1.108-0.039-0.31,0.224-0.572c0.525-0.319,0.499-1.425,2.033-1.273C125.552,23.619,120.674,28.869,119.916,24.825z"/>
					<path d="M110.726,33.65c-4.648,0.126-10.023,3.112-9.325,8.498c0.961,7.132,11.488,5.943,7.676-0.695
						c0,1.175,1.029,2.363,0.181,3.547c-1.003,1.149-2.788,1.563-4.06,0.66c-3.583-3.015-1.785-8.461,2.617-9.64
						c3.96-1.043,8.916-1.154,11.702,2.26c2.288,3.167,1.488,6.055-1.788,7.467c-2.514,1.115-4.014-1.571-2.939-3.192
						c-1.147,1.085-1.831,2.684-0.216,4.179c1.913,1.795,6.19-0.428,7.313-2.222c1.788-2.897-0.064-6.761-2.237-8.776
						c-0.603-0.554-1.292-0.961-2.031-1.266c-0.24-0.272-0.442-0.506-0.529-0.641c-0.718-1.11-1.267-2.604-2.084-3.632
						c-0.438-0.52-0.859-1.656-1.186-2.901c0.132,0.172,0.27,0.34,0.421,0.5c0.47,2.228,2.212,4.354,4.682,4.354
						c-1.53-0.978-3.173-2.175-4.069-3.776c0.162,0.137,0.327,0.273,0.502,0.401c2.958,2.159,4.83,1.072,7.758,0.891
						c-2.095,0.037-4.744-0.258-6.493-1.535c2.628,0.816,5.357,1.024,8.044,0.53c-2.561,0.054-6.506-0.736-8.621-1.025
						c-0.607-0.608-1.046-1.383-1.214-2.373c-0.152-1.471,0.382-2.83,1.295-3.959c1.469-0.243,3.774-0.154,4.612-0.289
						c2.188-0.276,4.307-0.528,6.496-0.391c1.988,3.177,0.918,8.404-3.121,9.543c3.618-0.8,6.439-3.522,5.982-7.646
						c-0.438-3.956-4.369-7.118-8.313-6.792c-4.099,0.294-8.589,3.601-9.034,7.902c-0.066,0.672,0.005,1.294,0.169,1.877
						c-0.052,3.306,1.701,6.205,3.904,8.686C114.868,33.601,112.663,33.602,110.726,33.65z M122.345,18.147
						c2.313-0.075,3.931,0.961,4.875,2.454c-1.271-0.248-2.597-0.726-3.942-0.695c-2.409,0.056-4.813,0.453-7.067,1.301
						C117.719,19.408,120.187,18.216,122.345,18.147z"/>
					<path d="M114.79,42.555c0.422-0.399,0.905-0.731,1.363-0.959C115.506,41.788,115.067,42.138,114.79,42.555z"/>
					<path d="M100.735,32.574c-1.116,2.791-2.955,5.175-4.362,7.823c1.239-2.478,4.012-4.009,5.026-6.697
						c0.042-0.101,2.152-7.855,1.665-7.855C101.83,27.77,101.589,30.44,100.735,32.574z"/>
					<path d="M127.419,33.038c0.845-0.02,1.726-0.505,2.531-0.875c-2.398,0.606-5.381,0.821-7.64,0.821
						C124.007,33.015,125.722,33.083,127.419,33.038z"/>
					<path d="M124.666,28.662c1.017-0.021,1.816-0.174,2.19-0.548C126.132,28.357,125.4,28.527,124.666,28.662z"/>
					<path d="M130.921,17.969c0.138-0.194,0.279-0.394,0.423-0.594C131.086,17.595,130.921,17.808,130.921,17.969z"/>
					<path d="M134.636,0.212c-4.218,0.974-8.564,4.463-9.396,8.792c-3.167-3.396-9.497-4.091-13.641-2.809
						c-1.567,0.48-4.28-2.434-5.941-3.145c-2.744-1.175-5.678-1.137-8.602-1.033c-5.147,0.181-8.509,2.449-10.331,7.35
						c2.219-2.219,2.927-4.535,6.285-5.517c3.312-0.969,8.19-0.092,11.372,1.091c1.765,0.817,4.794,4.225,6.797,3.788
						c2.981-0.657,4.893-1.963,8.252-1.479c1.879,0.164,4.126,0.738,5.789,1.857c-0.021,0.117-0.05,0.231-0.065,0.349
						c0-0.004,0.045-0.139,0.106-0.322c0.09,0.062,0.187,0.118,0.273,0.183c-0.077-0.092-0.165-0.174-0.246-0.263
						c0.162-0.482,0.412-1.218,0.381-1.141c2.251-4.955,10.115-6.957,14.89-5.763c4.767,1.216,6.871,8.157,7.509,12.527
						c0.624,5.186,0.58,13.063-3.25,17.007c-1.743,1.795-4.018,2.408-6.465,2.116c-2.946-0.467-4.371-2.75-5.508-5.187
						c0.326-4.036,0.225-7.865,0.214-11.893c0.122-0.132,0.252-0.275,0.389-0.42c0.601-0.156,1.153-0.161,1.441,0.133
						c1.258,1.852,1.044,5.349,1.044,7.507c0.411-1.805,1.947-8.401-1.15-8.76c0.594-0.329,1.243-0.421,1.915,0.055
						c1.287,1.074,2.193,4.12,3.528,4.787c-0.687-2.003-1.988-6.918-5.055-5.837c-0.458,0.162-1.023,0.593-1.456,1.107
						c-1.038,0.336-1.745,1.205-2.372,2.081c0.402-0.345,1.037-0.708,1.676-0.939c-0.63,4.585-1.366,9.299-1.702,13.908
						c-0.037,0.5-0.053,0.965-0.059,1.414c-0.396,0.021-0.839,0.19-1.309,0.406c0.459-0.116,0.902-0.243,1.308-0.39
						c-0.052,4.226,1.25,6.34,3.868,9.892c0-1.067-1.667-2.904-2.101-3.874c-0.881-2.215-0.606-5.143-0.327-7.572
						c1.094,2.629,3.313,4.811,6.107,5.215c6.849,1.001,10.204-5.116,10.938-10.969C151.014,14.496,148.436-2.991,134.636,0.212z
						 M133.102,16.407c-0.023,0.099-0.04,0.197-0.042,0.292c0-0.093-0.001-0.184-0.001-0.277
						C133.072,16.417,133.087,16.412,133.102,16.407z"/>
					<g>
						<path d="M128.743,181.564c-2.382-1.169-4.878-0.221-7.145-1.158c-0.252-0.099-0.554-0.258-0.87-0.451
							c-0.566-0.535-1.19-1.058-1.653-1.627c-1.263-1.793-2.142-3.961-3.009-5.971c-2.024-4.849-2.561-10.099-3.317-15.248
							c-0.207-1.684-0.751-12.839-0.588-21.003c0.502-2.603,0.998-5.991,1.279-6.915c1.169-3.835,2.387-7.729,2.774-11.739
							c0.378-3.928,0.016-8.01-0.888-11.841c-0.3-1.253-0.959-3.664-1.873-5.767c0.519,0.533,1.007,1.078,1.414,1.666
							c-0.812-1.431-2.268-4.197-3.212-5.879c2.789-1.223,3.461-4.061,1.469-5.614c-0.346-0.353-0.777-0.637-1.27-0.83
							c0.04-0.035,0.067-0.081,0.066-0.149c-0.246-0.006-0.421-0.007-0.569-0.007c-0.116-0.028-0.233-0.053-0.354-0.07
							c0.02-1.48,0.009-2.961,0.049-4.44c0.072-3.236,0.374-6.389,0.738-9.599c-1.823,4.677-2.485,9.148-2.435,14.125
							c-0.098,0.023-0.198,0.052-0.298,0.081c-6.813,0.284-12.232-0.979-18.767-3.334c-3.256-1.174-6.616-1.992-9.857-3.215
							c-1.833-0.778-3.335-2.652-5.09-3.684c0.799-3.731,1.786-7.468,1.83-11.287c0.033-2.352-0.149-4.822-0.447-7.154
							c-0.158-1.239-0.982-2.729-1.05-3.943c0.627,0.659,1.322,1.291,2.108,1.882c-1.17-1.17-2.101-2.443-2.851-3.784
							c1.557-1.556,3.591-2.265,5.728-2.614c-0.173,1.638,0.301,3.22,1.945,4.407c0.125,0.092,0.258,0.164,0.386,0.25
							c-0.488,0.406-0.851,0.794-0.959,1.117c0.353-0.374,0.696-0.718,1.041-1.063c1.747,1.162,3.717,1.833,5.688,2.528
							c-0.677,1.191-0.904,2.641-1.548,3.759c0.788-1.081,1.644-2.277,2.585-3.38c0.562,0.208,1.117,0.431,1.664,0.674
							c1.487,2.048,4.654,4.377,6.097,4.698c3.48,0.765,9.433,1.647,12.295-0.849c0.641-0.558,1.107-1.181,1.458-1.845
							c0.228,0.538,0.526,1.049,0.923,1.519c2.042,2.423,6.151,2.011,8.95,1.873c0.95-0.043,2.301-0.252,3.69-0.583
							c-2.47,2.464-5.082,4.956-7.811,6.091c-6.085,2.55-16.769,3.916-23.044,1.462c-2.194-0.995-6.847-3.128-7.88-5.419
							c-0.419-1.088-0.766-8.812-2.937-8.812c2.004,4.197-0.338,9.503,3.974,12.414c4.28,2.889,7.348,4.713,12.635,4.779
							c10.456,0.124,19.753-1.477,25.511-10.625c0.123-0.032,0.246-0.065,0.369-0.098c-0.785,3.766-2.521,7.339-2.085,11.254
							c0.147,1.573,0.885,3.135,2.318,3.914c1.66,0.897,2.883,0.931,4.197,0.705c-2.63,0.182-4.662-1.918-5.054-4.719
							c-0.465-2.857,0.625-7.647,0.641-11.159c1.587-0.433,3.132-1.016,4.101-1.696c-0.805,0.489-1.886,0.33-2.773,0.322
							c-1.827-0.028-3.465,0.99-5.321,0.864c-2.408-0.193-5.471-0.12-7.53-1.601c-1.219-1.021-1.713-2.886-1.888-4.868
							c0.053-1.195,0.022-2.413,0.066-3.589c0.051-1.395,0.03-2.782-0.009-4.168c-0.007-0.396-0.017-0.791-0.033-1.186
							c-0.021-0.599-0.039-1.197-0.062-1.794c1.08,0.49,2.876,0.648,3.677,0.648c-1.199-0.958-2.299-0.783-3.46-0.953
							c-0.053-0.005-0.138-0.041-0.232-0.084c-0.052-1.361-0.098-2.722-0.098-4.085c-0.033,0.182-0.056,0.376-0.083,0.564
							c-0.004-0.234-0.02-0.468-0.02-0.702c-0.207,1.302-0.335,2.604-0.433,3.906c-0.06-0.027-0.114-0.048-0.157-0.059
							c0.047,0.11,0.094,0.225,0.136,0.327c-0.171,2.381-0.244,4.764-0.483,7.155c-0.143,1.431-0.389,3.026-0.414,4.594
							c-0.361,1.178-0.855,2.261-1.547,3.188c-2.345,2.932-5.982,1.514-9.218,1.831c-4.09,0.409-6.564-2.161-9.156-4.954
							c1.341-1.363,2.841-2.429,4.542-2.674c-1.904,0-4.153,1.025-5.616,2.21c-0.056,0.045-0.093,0.102-0.146,0.149
							c-0.777-0.383-1.603-0.646-2.433-0.974c-0.912-0.411-1.915-0.952-2.786-1.587c1.15-0.763,2.408-1.465,2.966-1.809
							c2.325-1.427,4.787-2.706,7.248-3.872c-4.409,1.113-7.348,2.862-10.318,5.605c-1.131-0.845-2.017-1.851-2.142-2.941
							c-0.038-0.278-0.074-0.555-0.105-0.831c0.968-0.099,1.94-0.146,2.887-0.182c0.002,0.016,0.008,0.038,0.008,0.05
							c0.001-0.019,0.002-0.032,0.003-0.051c0.646-0.024,1.28-0.045,1.889-0.074c-0.462-0.114-0.934-0.228-1.409-0.336
							c0.004-0.01,0.01-0.019,0.014-0.03c-0.006,0.013-0.01,0.02-0.015,0.03c-0.147-0.034-0.295-0.062-0.443-0.094
							c0.155-1.475,0.615-0.397,0.458,0.064c0.154-0.33,0.47-1.235-0.247-1.106c-0.513,0.1-0.484,0.584-0.39,1.005
							c-0.939-0.194-1.889-0.337-2.831-0.349c-0.011-0.586,0.038-1.17,0.213-1.755c0.261-0.871,1.568-2.363,1.568-3.135
							c-1.126,1.311-2.29,3.121-2.799,4.959c-2.481,0.354-4.151,2.067-5.958,3.791c-1.686-3.013-2.365-6.412-2.111-10.066
							c0.084-1.241,0.541-9.586,0.883-14.779c0.365,3.286,1.095,6.756,1.095,9.991c0.338-3.654,0.985-7.958,0.28-11.578
							c-0.161-1.552-0.447-3.063-0.877-4.547c0.02-0.569-0.026-1.166-0.221-1.833c-0.521-1.771-1.42-3.005-2.407-4.446
							c-0.059-0.868-0.087-1.734-0.09-2.6c0.131-0.554,0.273-1.187,0.393-1.612c-0.172,0.163-0.297,0.394-0.384,0.661
							c0.004-0.107-0.002-0.216,0.003-0.323c-0.286,1.701-0.843,3.579-0.96,5.189c-0.161,2.104-0.153,4.324-0.765,6.363
							c-1.383,4.776-4.418,8.682-7.344,12.579c-2.661,3.545-6.995,9.621-12.139,5.897c-3.146-2.629-2.26-9.971-1.898-13.591
							c0.617-5.923,2.698-11.268,4.079-17.008c0.435-1.83,0.553-3.744,2.442-4.624c2.439-0.938,4.957-1.632,7.41-2.528
							c4.353-1.574,9.106-3.623,13.8-3.714c5.139-0.12,7.476,4.307,10.029,8.136C84.048,4.833,81.148-0.417,74.714,0.067
							c-4.971,0.374-9.664,2.776-14.347,4.286c-3.768,1.229-8.472,1.583-9.55,6.052c-1.098,4.706-2.513,9.389-3.014,14.203
							c-0.527,4.931-0.083,9.959-0.458,14.914c-0.38,4.704,2.364,7.232,7.063,7.005c4.787-0.212,7.529-5.02,10.099-8.389
							c2.67-3.5,5.122-6.599,6.59-10.866c1.008-2.929,0.761-5.965,0.538-9.008c0.041,0.133,0.083,0.263,0.124,0.396
							c0.806,3.051,1.393,6.138,1.736,9.276c-2.321,9.612-4.913,21.124,2.176,28.574c0.698,7.462-1.041,14.462-2.026,21.729
							c-0.368-0.062-0.751-0.074-1.153-0.022c-2.185,0.298-3.469,3.99-3.488,5.856c-0.008,1.142,0.586,2.131,1.413,2.98
							c-2.778,4.403-5.414,9.015-7.921,13.626c-0.703,0.968-1.395,1.955-2.098,2.967c-2.284,3.299-5.726,5.508-8.164,8.694
							c-5.315,6.934-10.473,14.367-14.257,22.262c-3.369,7.027-7.061,14.337-8.92,21.947c-1.026,4.126-1.74,8.282-1.671,12.549
							c0.05,3.068-0.126,7.264,1.783,9.9c-1.176-1.854-0.6-5.9-0.521-7.742c0.182-4.153,0.562-8.309,1.546-12.36
							c1.908-7.773,5.271-15.04,8.75-22.219c3.82-7.879,8.771-15.224,14.171-22.109c2.539-3.236,5.986-5.747,8.175-9.238
							c0.376-0.593,1.245-2.481,2.25-4.519c0.579-0.754,1.248-1.64,0.941-1.235c0.927-1.236,2.235-3.188,3.195-5.03
							c0.029-0.029,0.056-0.058,0.086-0.087c-0.015,0-0.033,0.014-0.048,0.016c0.165-0.319,0.322-0.635,0.462-0.943
							c0.703-1.554,2.107-4.102,2.618-6.114c0.939,0.854,2.08,1.556,2.995,2.113c3.898,2.388,8.06,4.283,12.556,5.207
							c2.248,0.453,4.499,0.898,6.751,1.327c-0.43,4.042,2.522,8.865,7.341,7.029c-0.541,0.185-0.743,0.415-0.605,0.688
							c2.592-2.351,4.175-3.57,3.889-7.041c0.286,0.014,0.674,0.007,1.23-0.011c1.75-0.053,3.592-0.189,5.312-0.645
							c0.371,0.701,0.859,1.327,1.396,1.919c2.633,5.936,3.432,12.397,3.105,18.922c-0.217,4.344-1.369,8.495-2.301,12.693
							c-2.982,7.807-2.598,18.407-1.406,26.136c0.511,5.096,1.076,10.936,3.118,15.666c0.925,2.147,2.135,4.179,3.438,6.117
							c0.359,0.53,0.866,0.955,1.405,1.343c0.708,1.021,1.577,1.628,2.57,2.017c1.206,0.473,2.592,0.633,4.087,0.845
							c1.383,0.202,5.672,2.543,4.898,5.122c-0.464,0.824-3.642,1.174-4.445,1.535c-2.282,0.888-5.711-0.211-8.197-0.187
							c-1.418,0.009-3.079,0.087-4.177-1.041c-0.591-0.853,0.135-2.331-0.079-3.329c-0.167-1.083-1.269-2.258-2.438-3.364
							c-0.172-0.191-0.331-0.354-0.371-0.389c-0.79-1.064-1.531-2.671-2.787-3.188c-0.611-0.251-1.048-0.474-1.351-1.096
							c-0.104-0.263-0.188-0.554-0.281-0.833c-0.217-1.22-0.595-3.344-0.714-4.75c0.015-0.399,0.017-0.785-0.007-1.146
							c0.001-0.009,0.003-0.018,0.005-0.026c0.096,0.399,0.167,0.849,0.167,1.232c0.041-0.503,0-0.977-0.074-1.438
							c0.005-0.003,0.007-0.015,0.013-0.017h-0.015c-0.31-1.908-1.413-3.54-1.956-5.453c-0.774-2.733-1.627-5.762-2.715-8.369
							c-0.421-1.687-1.507-3.283-1.774-5.066c-0.343-2.891,0.905-5.684,2.169-8.221c-1.664,2.725-3.434,5.404-3.213,8.732
							c0.075,1.134,0.474,2.24,0.917,3.33c-0.26,0.049-0.495,0.1-0.53,0.097c-1.347,0.528-2.057,2.266-2.857,3.369
							c-1.166,1.599-2.511,1.822-4.276,2.741c-2.14,0.675-4.51,2.055-6.613,3.447c-1.151,0.434-2.27,1.008-2.716,1.661
							c-0.023-4.493,0.019-9.188,1.547-13.264c1.91-5.03,5.278-9.173,9.135-12.845c-4.437,4.099-8.642,8.192-10.413,14.173
							c-1.038,3.708-0.762,7.452-0.499,11.201c-0.481,3.888-0.324,7.879-0.652,11.786c-0.225,2.697-0.248,5.764,0.32,8.594
							c0.109,2.254,0.401,4.473,1.062,6.789c0.533,1.878,1.546,3.588,2.709,5.141c1.067,1.418,2.493,2.049,3.132,3.593
							c-0.118,3.489,3.425,5.958-1.833,6.542c-0.429,0.051-1.002,0.127-1.619,0.188c-0.263-0.082-0.384-0.054-0.156,0.015
							c-0.77,0.07-1.595,0.106-2.303,0.023c-0.124-0.027-0.343-0.075-0.646-0.142c0.531-0.045-2.559-0.248-4.295-1.277
							c-0.776-0.29-1.877-2.128-2.423-3.725c0.003-0.67,0.024-1.326,0.051-1.974c0.066-0.162,0.137-0.322,0.214-0.479
							c-0.077,0-0.135,0.023-0.196,0.045c0.078-1.824,0.157-3.604-0.121-5.516c-0.368-2.557-0.8-5.097-1.138-7.651
							c0.028,0.072,0.05,0.145,0.078,0.217c-0.036-0.128-0.066-0.263-0.1-0.394c-0.07-0.54-0.143-1.08-0.203-1.621
							c-0.021,0.195-0.021,0.39-0.037,0.584c-0.141-0.684-0.251-1.336-0.321-1.812c-0.011-0.086-0.022-0.165-0.034-0.249
							c0.019-0.031,0.049-0.055,0.065-0.087c-0.026,0.01-0.047,0.019-0.073,0.028c-0.323-2.43-0.712-4.325-1.487-6.704
							c-0.075-0.229-3.383-7.275-3.623-8.436c-0.261,3.413,1.731,7.02,3.061,10.143c0.571,1.768,1.06,3.478,1.593,5.175
							c-0.491,0.194-0.612,0.252-0.354,0.171c-2.739,1.11-7.248-0.625-10.264-0.547c-2.173,0.084-4.191,1.586-6.117,2.475
							c-1.89,0.801-3.764,0.79-5.722,1.167c1.175-0.074,4.422,0.109,4.921-0.011c2.186-0.532,4.185-1.948,6.385-2.289
							c2.063-0.22,9.178,0.97,11.243-0.674c0.219,0.688,0.454,1.377,0.701,2.063c-0.027,0.41-0.122,1.783-0.067,1.71
							c-0.005,4.164,0.874,8.316,1.335,12.475c-0.146,0.254-0.152,0.675-0.061,1.179c0.039-0.149,0.081-0.298,0.13-0.445
							c0.045,0.468,0.09,0.935,0.12,1.402c-0.113-0.338-0.197-0.66-0.25-0.957c-0.611,2.306-0.057,4.715,2.471,5.707
							c1.162,0.595,2.726,0.464,4.243,0.331c2.264,0.955,6.661,1.391,8.57-0.107c2.008-1.659-1.656-5.35-1.656-7.289
							c-0.021,0.113-0.038,0.225-0.051,0.336c-0.405-1.287-1.221-2.098-2.265-3.371c-1.261-1.801-1.894-3.818-2.572-5.879
							c-0.614-1.841-1.17-3.824-1.558-5.828c-0.165-3.081,0.09-6.285,0.317-9.412c0.025-0.348,0.038-0.696,0.051-1.045
							c1.568,1.23,6.833,0.901,8.027,0.399c1.899-0.771,5.699-1.922,3.202-4.896c-1.332-1.611-3.859-2.841-6.055-2.922
							c-1.174-0.067-5.438-0.808-5.515-1.084c0,0,0,0,0,0c-0.001-0.146-0.002-0.293-0.002-0.439
							c0.282-0.192,0.642-0.454,1.045-0.746c1.042-0.443,2.883-0.912,3.072-0.956c1.833-0.395,3.466-1.902,5.31-2.421
							c1.073-0.264,3.704-1.177,4.371-2.173c1.118-1.614,1.285-4.406,3.248-5.162c0.336,0.82,0.69,1.631,0.945,2.435
							c1.358,4.363,3.544,8,5.31,12.139l-0.079,0.904c0,0.086,0.013,0.181,0.015,0.269c-0.186,1.104-0.138,2.147,0.076,3.182
							c-0.064,1.172-0.061,2.312,0.25,3.229c0.455,1.306,1.507,1.246,2.469,1.936c0.118,0.098,0.229,0.206,0.345,0.308
							c0.906,1.715,3.203,4.32,3.918,5.73c0.338,1.169-0.591,2.525,0.087,3.685c1.112,1.808,4.371,1.694,6.113,1.66
							c2.182-0.03,13.514,1.486,13.16-2.865C131.748,184.864,130.254,182.31,128.743,181.564z M90.685,58.632
							c0.016,0.122,0.043,0.247,0.086,0.377c-0.067-0.063-0.103-0.098-0.088-0.086c-0.055-0.044-0.115-0.072-0.171-0.113
							C90.569,58.75,90.627,58.692,90.685,58.632z M102.747,98.407c-0.125,0.885-0.489,1.622-0.99,2.207
							c-1.15,0.996-2.868,1.457-4.438,1.285c-0.919-0.294-1.765-0.925-2.344-1.962c-1.043-1.639-1.059-4.191,0.109-5.788
							c1.4-1.417,3.535-1.9,5.428-0.818C102.079,94.348,103.05,96.35,102.747,98.407z M107.021,94.806
							c-0.017,0-0.034,0.001-0.051,0.001c-0.221-0.073-0.43-0.162-0.608-0.284c0,0.11,0.024,0.202,0.051,0.293
							c-1.055-0.002-2.11-0.06-3.1-0.093c-0.795-2.071-2.83-3.625-5.118-3.509c-2.452,0.089-3.947,1.367-4.653,3.065
							c-5.719-0.824-12.705-2.148-17.785-5.521c-1.382-1.45-2.654-3.032-3.047-4.959c-0.317-3.279,1.923-2.615,4.083-1.764
							c1.109,0.937,2.218,2.051,3.208,2.722c2.476,0.96,5.058,1.554,7.619,2.232c5.579,1.475,10.16,3.6,16.06,3.352
							c0.975-0.041,2.441-0.426,3.94-0.733c-0.514,0.188-1.019,0.365-1.497,0.483c2.037-0.29,5.226-0.576,6.202,1.141
							c0.213,0.629,0.137,1.198-0.116,1.698C110.78,93.839,108.827,94.463,107.021,94.806z M110.97,94.203
							c-0.013,0.002-0.027,0.003-0.041,0.006c0.321-0.247,0.674-0.552,1.015-0.861C111.689,93.675,111.359,93.965,110.97,94.203z
							 M92.996,172.4c-1.338,1.408-8.261,2.359-10.379,1.646c0.07-2.439-0.126-4.894-0.351-7.326c0-0.138-0.001-0.275-0.002-0.413
							C84.015,167.39,94.869,169.201,92.996,172.4z"/>
						<path d="M72.041,12.039c-0.034,0.218-0.057,0.437-0.081,0.655l-0.812,0.516c0.223-0.121,0.658-0.415,0.909-0.544
							c-0.017,0.004-0.033,0.005-0.049,0.01C72.024,12.459,72.041,12.244,72.041,12.039z"/>
						<path d="M71.87,13.772c0.04-0.24,0.071-0.473,0.098-0.705c0.397-0.162,0.851-0.311,1.279-0.415
							c1.474,0.337,2.963,1.834,3.468,3.172c-0.104-0.477-0.228-0.967-0.392-1.428c0.689,0.811,1.398,1.468,2.903,1.664
							c-0.834-0.834-1.869-0.934-2.585-2.182c-0.662-1.153-1.349-2.569-2.888-2.177c-0.627,0.166-1.186,0.534-1.696,0.964
							c-0.049,0.043-0.112,0.224-0.182,0.473c0.015-0.015,0.025-0.037,0.041-0.05C71.895,13.316,71.881,13.544,71.87,13.772z"/>
					</g>
					<path d="M67.781,7.052c-1.576,1.461-2.571,3.296-2.868,5.642c-0.335,2.41,0.424,4.538,0.706,6.771
						C65.436,16.014,65.579,9.886,67.781,7.052z"/>
					<path d="M69.557,5.703c-0.71,0.237-1.288,0.72-1.776,1.349C68.31,6.562,68.902,6.114,69.557,5.703z"/>
					<path d="M65.619,19.465c0.03,0.563,0.067,1.062,0.106,1.455C65.725,20.427,65.679,19.944,65.619,19.465z"/>
					<path d="M114.867,101.51c0.222,0.389,0.4,0.69,0.501,0.829C115.224,102.05,115.052,101.777,114.867,101.51z"/>
					<path d="M106.124,90.092c-0.346,0.049-0.662,0.099-0.925,0.138C105.486,90.23,105.8,90.172,106.124,90.092z"/>
					<path d="M111.348,46.48c-0.023-0.08,0.021-0.096,0.104-0.076C111.268,45.969,111.095,45.612,111.348,46.48z"/>
					<path d="M95.422,52.992c0.3-0.396,0.001-1.142-0.323-0.588c-0.022,0.176-0.044,0.353-0.067,0.529
						c0-0.006,0.202-0.627,0.331-0.541c0.122,0.331,0.151,0.188-0.006,0.68C95.357,53.086,95.422,52.954,95.422,52.992z"/>
					<path d="M97.613,49.309c0.018-0.091,0.179-0.68-0.173-0.633c-0.237,0.213-0.272,0.47-0.108,0.771
						c0-0.184,0.016-0.538,0.148-0.631C97.554,48.743,97.613,49.322,97.613,49.309z"/>
					<path d="M100.669,53.288c0.01,0.069,0.041,0.143,0.125,0.227C100.726,53.443,100.695,53.366,100.669,53.288z"/>
					<path d="M101.353,52.839c-0.238-0.113-0.461-0.089-0.668,0.071c-0.06,0.135-0.054,0.259-0.016,0.377
						C100.628,52.995,101.146,52.839,101.353,52.839z"/>
					<path d="M97.511,58.002c0.665-0.045-0.2-0.349,0.079-0.585c-0.204,0.102-0.795-0.12-0.861-0.185
						C96.694,57.207,97.503,58.002,97.511,58.002z M97.358,57.647C97.826,57.959,97.285,57.757,97.358,57.647L97.358,57.647z"/>
					<path d="M90.246,52.981c0.001,0.006,0.003,0.019,0.005,0.023C90.33,53.021,90.312,53.006,90.246,52.981z"/>
					<path d="M89.781,53.26c-0.068-0.146-0.09-0.283-0.071-0.412C89.458,52.821,89.315,52.888,89.781,53.26z"/>
					<path d="M89.876,52.508c-0.094,0.106-0.148,0.22-0.166,0.341c0.186,0.021,0.428,0.091,0.536,0.133
						C90.213,52.835,90.159,52.403,89.876,52.508z"/>
					<path d="M90.497,50.035c-0.134-0.071-0.245-0.156-0.278-0.254c-0.009-0.026,0.055-0.068,0.13-0.074
						c-0.166-0.35-0.345-0.622-0.32,0.074c0.26,0.436,0.643,0.596,1.148,0.482c-0.042,0-0.337-0.067-0.592-0.184
						C90.641,50.351,90.589,50.245,90.497,50.035z"/>
					<path d="M90.349,49.707c0.053,0.112,0.104,0.229,0.148,0.329c0.029,0.015,0.058,0.03,0.088,0.044
						c-0.004-0.019-0.005-0.03-0.01-0.052C90.575,49.756,90.451,49.698,90.349,49.707z"/>
					<path d="M121.767,56.525c-0.73,0.101-1.075,0.803-1.075,1.462c0.575-1.011,1.565-1.79,1.565-0.366
						C122.393,57.193,122.478,56.386,121.767,56.525z"/>
					<path d="M122.893,53.954c-0.025,0.081-0.048,0.162-0.095,0.246C122.862,54.136,122.888,54.049,122.893,53.954z"/>
					<path d="M122.01,53.424c-0.178,0.423,0.2,0.588,0.2,1.019c-0.098-1.828,0.707-1.032,0.683-0.489
						C123.144,53.14,122.39,52.538,122.01,53.424z"/>
					<path d="M125.703,49.521c0.174,0-0.374,0.766-0.392,0.772c-0.044,0.028,1.179-0.984,0.396-0.984
						c-0.271,0.194-0.428,0.456-0.473,0.787C125.274,50.016,125.562,49.61,125.703,49.521z"/>
					<path d="M131.11,54.607c0.076,0.128-0.766,0.777-0.814,0.813c0.817-0.175,1.257-1.362,0.626-1.061
						c-0.203,0.09-0.8,0.479-0.86,0.539C130.673,54.747,131.022,54.65,131.11,54.607z"/>
					<path d="M132.464,51c0.264-0.207,0.718-1.088-0.002-1.006c-0.292,0.033-0.888,0.625-0.917,0.663
						C133.889,49.607,131.957,51,132.464,51z"/>
					<path d="M131.096,45.72c-0.298,0.086-0.349,0.389-0.589,0.509c1.085-0.556,0.834-0.017,0.361,0.934
						C130.868,47.292,132.189,45.401,131.096,45.72z"/>
					<path d="M126.47,44.274c-0.048,0.269-0.333,0.737-0.406,0.817c0.039-0.204,0.11-0.941,0.351-1.001
						c0.017,0.006,0.023,0.023,0.033,0.036c-0.058-0.251-0.212-0.372-0.327-0.175c-0.445,0.763,0.182,0.918-0.537,1.599
						C126.298,45.193,126.488,44.65,126.47,44.274z"/>
					<path d="M126.448,44.126c0.01,0.046,0.019,0.094,0.021,0.148C126.482,44.207,126.473,44.159,126.448,44.126z"/>
					<path d="M134.7,57.164c-0.128-0.074-0.574-0.325-0.753-0.112c-0.464,0.515,0.438,0.145,0.257,0.372
						C134.287,57.273,134.568,57.221,134.7,57.164z"/>
					<path d="M136.452,50.9c-0.16-0.342-0.41-0.441-0.713-0.011c-0.503,0.731,1.242,0.31,0.885,0.31
						C135.191,51.15,136.233,50.689,136.452,50.9z"/>
					<path d="M136.452,50.9c0.014,0.029,0.028,0.058,0.041,0.091C136.492,50.951,136.475,50.922,136.452,50.9z"/>
					<path d="M122.933,62.061c-0.102,0.023-0.209,0.043-0.341,0.05C122.733,62.111,122.84,62.09,122.933,62.061z"/>
					<path d="M122.933,62.061c0.852-0.193,0.724-0.885,0.778-0.932C123.34,61.417,123.42,61.909,122.933,62.061z"/>
					<path d="M123.734,61.376C123.607,61.603,123.692,61.5,123.734,61.376L123.734,61.376z"/>
					<path d="M118.295,50.758c-0.508,0.714,0.284,0.952,0.729,0.991C118.427,51.749,118.805,50.024,118.295,50.758z M118.554,51.487
						c-0.187-0.142-0.209-0.464-0.004-0.629C118.646,50.948,118.597,51.28,118.554,51.487z"/>
					<path d="M106.401,58.018c0.011,0.061,0.028,0.105,0.037,0.174C106.438,58.131,106.423,58.074,106.401,58.018z"/>
					<path d="M106.401,58.018c-0.115-0.622-0.332-0.857-0.937-0.76c-1.079,0.193-0.078,1.426,0.559,1.426
						C104.479,57.073,106.138,57.342,106.401,58.018z"/>
					<path d="M94.603,46.485c-0.128-0.097-0.295-0.18-0.403,0.01c0.089,0.245,0.269,0.359,0.539,0.344c0,0-0.322-0.161-0.426-0.276
						C94.338,46.559,94.486,46.49,94.603,46.485z"/>
					<path d="M94.603,46.485c0.057,0.043,0.107,0.087,0.139,0.115C94.741,46.501,94.677,46.482,94.603,46.485z"/>
					<path d="M130.475,63.941c-0.093-0.288-0.179-0.536-0.254-0.728C130.221,63.384,130.325,63.644,130.475,63.941z"/>
					<path d="M133.378,73.192c-0.124-1.823-2.205-8.271-2.736-10.025c-0.242-0.787-0.761,0.107-0.167,1.094
						c2.277,5.989,3.96,16.724-1.729,16.724C132.852,81.179,133.593,76.366,133.378,73.192z"/>
					<path d="M129.463,76.875c0-0.412,1.467-7.492,0-7.492C128.982,71.975,129.881,71,129.463,76.875z"/>
					<path d="M129.816,89.557c0-0.027,0.008-0.066,0.005-0.089C129.792,89.454,129.796,89.496,129.816,89.557z"/>
					<path d="M129.752,92.59c1.389,0.45,0.31-2.507,0.336-2.897c0,0.399-0.212,0.045-0.271-0.136
						C129.809,90.238,128.92,92.312,129.752,92.59z M129.974,90.928c-0.002,0.169-0.013,0.842-0.057,0.976
						C129.936,91.578,129.955,91.253,129.974,90.928z"/>
					<path d="M127.045,84.137c-0.102,0.767-0.17,1.887-0.558,2.551c0-0.855,0.153-1.759,0.292-2.59
						C124.836,87.913,127.666,88.106,127.045,84.137z"/>
					<path d="M87.21,62.991c-0.189,0.26-0.376,0.515-0.557,0.758C86.876,63.525,87.052,63.265,87.21,62.991z"/>
					<path d="M88.004,50.218c0.38,0-5.3-6.605-5.3-6.765C84.16,45.989,85.859,48.224,88.004,50.218z"/>
					<path d="M146.562,51.222c-1.876-1.063-3.567-1.63-6.068-1.446c0.148-2.079-0.256-4.025-1.394-5.497
						c2.31-0.5,4.664-0.795,7.31-0.825c-1.971,0-3.816-0.997-5.884-0.844c-0.823,0.06-1.721,0.237-2.632,0.494
						c-0.712-0.523-1.58-0.931-2.622-1.191c0.55,0.495,1.033,1.019,1.462,1.562c-1.941,0.7-3.833,1.76-5.095,3.022
						c2.069-0.734,3.992-1.355,5.907-1.847c0.977,1.65,1.411,3.464,1.216,5.351c-0.681,0.123-1.352,0.267-2.05,0.441
						c0.605,0,1.284-0.018,2-0.033c-0.134,0.884-0.405,1.783-0.826,2.687c-0.826-0.194-1.695-0.309-2.662-0.292
						c-1.014-0.003-2.021,0.073-3.023,0.23c1.726,0,3.455,0.519,5.169,1.07c-0.938,1.754-1.856,3.933-3.125,5.697
						c-1.273-0.187-2.574-0.215-3.871-0.215c-0.604,0.013-1.207,0.047-1.809,0.092c0.485-0.538,0.784-1.8-0.101-1.125
						c-0.455,0.337-0.068,0.729,0.27,0.859c-0.107,0.157-0.089,0.074-0.222,0.269c-0.048,0.004-0.097,0.003-0.146,0.007
						c0.045,0,0.094,0.002,0.139,0.002c-0.026,0.039-0.047,0.067-0.086,0.131c0.046-0.033,0.088-0.083,0.132-0.13
						c1.561,0.016,3.432,0.24,5.266,0.671c-1.237,1.521-2.804,2.61-4.992,2.61c0.443,0.034,0.883,0.009,1.319-0.045
						c-0.103,0.089-0.215,0.176-0.337,0.262c0.119-0.072,0.232-0.158,0.337-0.262c1.697-0.208,3.327-1.044,4.775-2.278
						c1.878,0.538,3.635,1.299,4.863,2.291c0.078,0.063-0.654-0.941-0.576-0.879c-1.044-0.975-1.527-1.236-2.123-1.492
						c-0.497-0.214-1.004-0.377-1.517-0.509c1.513-1.469,2.789-3.357,3.666-5.372c1.319,0.397,2.624,0.711,3.904,0.711
						c-1.22-0.674-2.339-1.284-3.494-1.747c0.391-1.085,0.657-2.188,0.788-3.265C142.521,50.39,144.75,50.535,146.562,51.222z
						 M128.593,59.189c-0.169-0.208-0.041-0.49,0.249-0.49c0.267,0.047,0.001,0.543-0.063,0.646
						C128.596,59.151,128.534,59.099,128.593,59.189z"/>
					<path d="M125.474,55.179c0,0.678,1.054,0.679,1.054,0C126.528,54.498,125.474,54.498,125.474,55.179z"/>
					<path d="M133.421,17.036c0.139-0.032,0.262-0.041,0.385-0.051C133.686,16.978,133.558,16.99,133.421,17.036z"/>
					<path d="M133.806,16.985c1.655,0.099,1.813,4.849,1.813,5.656C135.781,20.988,136.379,16.77,133.806,16.985z"/>
					<path d="M73,15.43c1.458,1.32,1.99,2.64,2.186,3.019C74.708,16.279,73.349,15.796,73,15.43z"/>
					<path d="M75.77,16.191c-0.135-0.21-0.274-0.408-0.419-0.587c-0.13-0.572-0.323-1.28-0.28-1.156
						c-0.476-1.351-1.41-1.22-2.296-1.716c0.982,0.69,1.54,1.374,2.049,2.312c-0.546-0.495-1.207-0.86-2.128-1.167
						c0.45,0.3,1.527,0.975,2.397,1.692c0.108,0.22,0.217,0.449,0.331,0.699c0.064,0.064,0.037-0.143-0.024-0.436
						C75.535,15.952,75.657,16.072,75.77,16.191z"/>
					<path d="M89.427,12.751c-2.571,0.435-3.274,3.36-4.019,5.391c1.24-3.72,4.036-4.855,7.448-4.488
						C91.75,13.406,90.72,12.538,89.427,12.751z"/>
					<path d="M92.856,13.654c0.18,0.04,0.361,0.068,0.547,0.068C93.219,13.694,93.037,13.674,92.856,13.654z"/>
					<path d="M124.512,13.65c-0.973-0.282-1.458-0.173-1.457,0.327c2.129,0.092,3.236,0.35,4.75,1.864
						C126.993,14.446,126.243,13.435,124.512,13.65z"/>
					<path d="M29.168,178.997c0.094,0.148,0.196,0.287,0.314,0.405C29.371,179.272,29.269,179.135,29.168,178.997z"/>
					<path d="M97.17,141.329c4.615-5.642,9.277-12.045,10.241-19.45C105.229,128.577,101.251,135.553,97.17,141.329z"/>
					<path d="M48.589,185.372c0.072-0.055,0.051-0.05-0.012-0.008c-1.356-0.914-2.892-1.495-4.23-2.501
						c-0.205-0.161-0.932-0.737-1.493-1.322c2.446,3.196,7.327,4.248,7.634,8.863c0.168,2.762-2.784,5.164-5.394,5.164
						c-1.775,0.229-1.393-0.884-2.383-1.416c0.088,0.019,0.174,0.033,0.265,0.054c-0.116-0.231-0.893-0.224-1.753-0.356
						c0.438,0.119,0.935,0.191,1.46,0.297c0.598,2.097,2.596,2.102,4.407,1.676c2.209-0.498,2.318-1.651,3.804-2.883
						c2.007-1.385,0.289-5.128-0.959-6.445C49.521,186.056,49.065,185.694,48.589,185.372z"/>
					<path d="M42.854,181.541c-0.259-0.339-0.5-0.694-0.696-1.089C42.158,180.732,42.468,181.139,42.854,181.541z"/>
					<path d="M39.514,191.932c-0.145-1.359,0.767-2.283,0.274-3.66c-0.856-2.469-4.014-3.072-4.385-5.951
						c-0.014-0.105-0.073-0.766-0.058-1.178c-0.286,1.418-0.022,2.371,0.479,3.161c-0.074,0.006-0.149,0.01-0.224,0.021
						c0.075-0.007,0.15-0.012,0.226-0.018c0.801,1.26,2.182,2.127,2.827,3.877c0.467,1.474-0.407,2.898,0.239,4.321
						c0.422,0.908,1.424,1.205,2.332,1.345C40.386,193.622,39.754,193.201,39.514,191.932z"/>
					<path d="M35.345,181.143c0.022-0.109,0.036-0.213,0.065-0.328C35.369,180.842,35.352,180.974,35.345,181.143z"/>
					<path d="M31.954,178.775c0.875-5.286,2.767-9.706,4.646-14.668C33.36,168.906,31.614,172.879,31.954,178.775z"/>
					<path d="M12.748,183.146c3.811-2.88,10.359-4.94,15.162-3.979c0.012,0.003,0.023,0.004,0.036,0.003
						c-0.544,0,1.135,0.262,1.5,0.262c-2.164-0.837-4.384-1.097-6.694-0.978c-5.293,0.28-14.795,4.577-14.751,10.94
						c0.051,7.21,9.976,8.471,15.148,9.791c-1.457-1.457-5.932-2-7.898-2.826C9.196,193.485,6.466,188.037,12.748,183.146z"/>
					<path d="M33.01,184.342c-2.137-0.27-3.176-1.5-5.643-1.389c-4.213,0.146-9.467,2.573-10.03,7.154
						c-0.37,3.074,0.918,4.753,3.258,6.633c0.919,0.735,1.869,2.069,2.974,2.441c-0.205-0.82-2.007-2.299-2.63-2.923
						c-1.957-1.883-2.678-3.182-2.519-5.959c0.386-5.09,7.422-6.659,11.597-6.282c0.463,0.077,2.052,0.72,2.933,0.776
						c0.914,0.064,1.778-0.351,2.65-0.47C34.739,184.392,33.865,184.462,33.01,184.342z"/>
					<path d="M50.597,186.421c-0.244,0.015-0.405,0.04-0.427,0.083C50.313,186.472,50.455,186.448,50.597,186.421z"/>
					<path d="M67.131,163.275c-0.362-0.309-0.78-0.159-1.17-0.391c-0.222-0.592,0.078-1.628-0.708-1.941
						c-0.853-0.361-1.769-1.768-2.043-2.878c0.179,1.313,0.406,3.207,1.67,3.63c0.284,0.845-0.129,1.866,0.988,2.187
						c1.334,0.396-0.746,3.874,1.481,3.204c0.032,0.755-0.146,1.261,0.36,1.87c0.167,0.3-0.224-0.568-0.19-0.749
						c0.222-1.778,0.521-1.138-0.688-1.631C66.572,166.423,67.727,164.051,67.131,163.275z M65.893,162.801
						C66.006,162.938,65.931,162.864,65.893,162.801L65.893,162.801z"/>
					<path d="M98.721,153.876c0.025-0.01,0.048-0.027,0.074-0.036C98.716,153.867,98.706,153.875,98.721,153.876z"/>
					<polygon points="68.404,167.66 68.404,167.668 68.406,167.66 					"/>
					<path d="M68.4,167.838c0.004-0.057-0.002-0.113,0.003-0.17C68.376,167.675,68.38,167.74,68.4,167.838z"/>
					<path d="M60.491,171.121c-1.353,2.43-3.742,3.55-6.088,4.826c-1.375,0.75-7.743,2.016-8.318,3.166
						c5.504-1.192,12.933-2.431,15.467-8.207c1.147-2.692,1.444-5.191,1.463-7.721c0.049-0.722,0.06-1.438,0.005-2.146
						c0.319-1.58,0.282-3.045-0.206-4.453c-0.005-0.274-0.02-0.323-0.024-0.067c-0.318-0.892-0.799-1.764-1.516-2.627
						c-2.021-2.434-4.329-4.301-6.948-6.062c-1.516-1.021-4.066-3.113-5.571-5.291c0.956,2.179,2.162,4.131,4.242,5.662
						c2.689,1.969,5.229,3.463,7.313,6.113c0.393,0.551,0.726,1.114,1.022,1.685c0.306,2.061,0.368,4.145,0.615,5.911
						c0.165,1.167,0.066,3.492,0.037,5.326C61.654,168.591,61.181,169.898,60.491,171.121z"/>
					<path d="M121.578,24.049c-1.012,0.157-0.209,1.8,0.447,0.958c0.149-0.178,0.178-0.413,0.117-0.607
						c0.09,0.07,0.217,0.085,0.384-0.018c0.5-0.324-0.205-0.893-0.209-0.893c-0.264,0.149-0.354,0.463-0.306,0.694
						C121.909,24.081,121.765,24.021,121.578,24.049z M122.233,23.618l0.018-0.001c0.394,0.134,0.268,0.82-0.118,0.516
						C122.138,24.137,122.021,23.73,122.233,23.618z"/>
					<path d="M93.484,22.821c-2.434,0.25-3.281,4.749-0.577,4.86C96.542,27.801,96.872,22.478,93.484,22.821z M91.46,25.52
						c0.609,1.036,0.058-0.243,0.223-0.573c0.513-0.281,0.505-1.425,2.033-1.272C97.104,24.333,92.21,29.553,91.46,25.52z"/>
					<path d="M93.867,24.339c-0.222,0.121-0.316,0.353-0.317,0.561c-0.101-0.095-0.241-0.151-0.425-0.123
						c-1.007,0.154-0.221,1.798,0.447,0.957c0.11-0.135,0.153-0.304,0.144-0.462c0.088,0.051,0.208,0.051,0.355-0.04
						C94.566,24.911,93.873,24.339,93.867,24.339z M93.682,24.982c-0.029-0.029-0.051-0.375,0.097-0.533
						C94.196,24.6,94.041,25.3,93.682,24.982z"/>
				</g>
			</g>
			<path fill="#3E3615" d="M252.07,172.279c17.144,0,17.145,26.584,0,26.584C234.929,198.863,234.93,172.279,252.07,172.279z"/>
			<path fill="#F4CE12" d="M252.07,174.162c14.277,0,14.277,22.141,0,22.141S237.793,174.162,252.07,174.162z"/>
			<path fill="#FDED19" d="M257.363,176.447c-5.693-0.812-12.264,1.065-13.969,7.191
				C240.25,176.715,252.963,173.392,257.363,176.447z"/>
			<path fill="#DFAB26" d="M260.783,180.85c-1.991,8.37-8.934,12.969-17.137,8.871c2.549,4.157,7.301,6.673,12.085,4.763
				c3.442-1.374,5.575-4.312,5.952-7.975C261.765,185.728,262.014,181.143,260.783,180.85z"/>
			<path fill="#DFAB26" d="M100.4,97.978c1.436-2.902-1.062-3.579-3.399-2.717c-1.06,0.391-0.137,3.897-0.035,4.986
				c0.401,0.06,1.21-0.032,1.58-0.196c-0.222-0.431-0.091-1.042-0.311-1.474c0.963-0.344,1.613,0.241,1.925,1.188
				c0.345-0.123,0.911-0.518,1.146-0.798C101.024,98.659,100.749,98.201,100.4,97.978z M99.042,97.505
				c-0.847,0.316-1.869-0.877-1.216-1.372C99.142,95.569,99.39,96.462,99.042,97.505z"/>
		</g>
	</g>
	<path fill="#D48F63" d="M88.719,200.562"/>
</g>
</svg>
