<?xml version="1.0" encoding="utf-8"?>
<!-- Generator: Adobe Illustrator 16.0.0, SVG Export Plug-In . SVG Version: 6.00 Build 0)  -->
<!DOCTYPE svg PUBLIC "-//W3C//DTD SVG 1.1//EN" "http://www.w3.org/Graphics/SVG/1.1/DTD/svg11.dtd">
<svg version="1.1" id="Layer_1" xmlns:sketch="http://www.bohemiancoding.com/sketch/ns"
	 xmlns="http://www.w3.org/2000/svg" xmlns:xlink="http://www.w3.org/1999/xlink" x="0px" y="0px" width="275px" height="95px"
	 viewBox="0 0 275 95" enable-background="new 0 0 275 95" xml:space="preserve">
<title>contactbone</title>
<description>Created with Sketch (http://www.bohemiancoding.com/sketch)</description>
<g id="Shape_1_copy" opacity="0.1">
	<g>
		<path d="M275,87.108c0,0-17.532-20.487-23-32.207c0,0,7.434-10.009,19-31.425c0,0-16.5,1.024-39,15.524
			c0,0-3.427-2.515-16.873-5.061c-1.208-5.659,3.763-15.673,5.426-18.461C218.465,16.69,211,12,211,12
			c-7.066,2.455-9.686-2.991-9.686-2.991c-4.069,2.537-10.961-1.361-10.961-1.361c-4.098,3.597-8.521,0.826-12.988-0.356
			c-8.535,1.354-13.928-2.502-13.928-2.502c-7.58,2.97-13.017,0.701-13.017,0.701c-5.567,2.496-14.016,0.675-14.016,0.675
			c-4.083,3.066-13.958-1.443-13.958-1.443c-10.548,1.829-11.019,0.757-11.019,0.757c-5.596,3.555-13.017,0.702-13.017,0.702
			S97.5,2.977,95.444,5.039c-2.057,2.062-10.99-0.302-10.99-0.302c-3.54,1.492-12.018,0.729-12.018,0.729
			c-2.57,2.579-6.964-1.251-6.964-1.251c-7.594,3.5-15.741,26.939-15.741,26.939c-0.061,0.217-0.032,0.43,0.07,0.638
			C14.563,36.679,2,59,2,59s13.817,12.549,49.573,20.41C53.117,83.063,57.558,92.596,62,93l2-1l2,1l2-1l3,2l1-2l2,2l1-1l2,1l2-1l1,1
			c0,0-0.551-0.694-1.211-1.75c1.092,0.728,2.178,1.157,3.198,1.11l1.845-1.264l2.118,0.718l1.845-1.263l3.245,1.572l0.718-2.118
			l2.254,1.709l0.854-1.127l2.118,0.718l0.822-0.563c1.325,1.03,2.66,1.675,3.898,1.618l1.845-1.264l2.117,0.718l1.846-1.263
			l3.244,1.572l0.719-2.118l2.254,1.709l0.854-1.127l2.118,0.718l1.447-0.991c1.212,0.879,2.425,1.416,3.557,1.364l1.845-1.264
			l2.117,0.718l1.846-1.263l3.244,1.572l0.719-2.118l2.254,1.709l0.854-1.127l2.118,0.718l1.845-1.264l1.127,0.854
			c0,0-3.097-2.945-4.18-6.118c13.866-0.671,29.006-2.038,45.5-4.277L186,90l2-1l2,1l1-2l2,2l2-3c0,0,0.15,2.174,1,2s4-3,4-3l2,2
			l2-2c0,0-3.214-5.807-3.222-8.196c10.948-1.835,22.418-4.025,34.469-6.639C235.247,71.165,251,82.608,275,87.108z M221,15
			c0.203-0.496-0.006-0.263-0.447,0.478C220.745,15.365,220.909,15.222,221,15z"/>
	</g>
</g>
<g id="Shape_4">
	<g>
		<path fill="#27576C" d="M222.677,32.042c-11.348-8.27,0.437-25.62-2.596-22.987c-2.137,1.855-7.817-2.072-7.817-2.072
			c-7.118,2.301-10.661-2.244-10.661-2.244C197.479,7.188,192,4.567,192,4.567c-5.982,1.426-8.886,0.214-13.326-1.064
			c-8.562,1.169-14.87-0.804-14.87-0.804c-7.643,2.805-13.028,0.419-13.028,0.419c-5.62,2.375-14.027,0.371-14.027,0.371
			c-4.149,2.977-13.923-1.746-13.923-1.746c-10.585,1.6-11.032,0.518-11.032,0.518c-5.155,1.955-11.029,0.419-11.029,0.419
			s-2.536-2.846-4.942-1.206c-2.605,1.776-10.98-0.54-10.98-0.54C81.269,2.349,72.81,1.402,72.81,1.402
			C70.185,3.924,65.875,0,65.875,0c-7.668,3.334-16.322,26.592-16.322,26.592C46.563,36.519,228.624,36.377,222.677,32.042z
			 M148.396,76.422l-25.855,2.229l-25.625-3.978c0,0,0.775,1.67,2.038,3.954l-25.478-3.954c0,0,0.313,0.674,0.86,1.742L51,71
			c0,0,6.489,17.202,12.979,17.796l2.36-1.187l2.36,1.187l2.36-1.187l3.54,2.373l1.18-2.373l2.36,2.373l1.18-1.187l2.36,1.187
			l1.531-0.77c1.498,1.34,3.037,2.221,4.513,2.246l2.267-1.357l2.44,1.009l2.267-1.357l3.704,2.104l1.003-2.452l2.527,2.19
			l1.09-1.27l2.44,1.008l2.185-1.308c0.217,0.16,0.435,0.309,0.652,0.445l0.693,0.601c0,0-0.128-0.141-0.331-0.378
			c0.842,0.474,1.682,0.752,2.503,0.766l2.266-1.357l2.44,1.009l2.268-1.357l3.703,2.104l1.003-2.452l2.528,2.19l1.09-1.27
			l2.44,1.008l0.823-0.493c1.834,1.011,3.604,1.548,5.094,1.21l1.882-1.858l2.608,0.401l1.884-1.858l4.094,1.164l0.396-2.62
			l2.972,1.527l0.761-1.494l2.608,0.399l1.883-1.855l1.485,0.764C155.39,86.619,147.606,81.453,148.396,76.422z"/>
	</g>
</g>
<g id="Shape_10">
	<g>
		<path fill="#27576C" d="M201,69c1.229-1.361-21,4-21,4l6,11l2-1l2,1l1-2l2,2l2-3c0,0,0.15,2.174,1,2s4-3,4-3l2,2l2-2
			C204,80,199.771,70.361,201,69z"/>
	</g>
</g>
<g id="Shape_9">
	<g>
		<path fill="#184255" d="M67.67,26.267c2.412,5.153,5.462,0,5.462,0s-1.333-14.152,2.73-21.7
			C75.863,4.567,65.258,21.114,67.67,26.267z M74.279,25.403c1.304,3.433,2.896,1.053,3.353,0.246
			c0.055,0.219,0.121,0.429,0.209,0.619c2.412,5.153,5.462,0,5.462,0s-1.333-14.152,2.731-21.7c0,0-7.229,11.284-8.388,18.117
			c-0.079-3.677,0.07-10.247,1.859-14.342C79.505,8.341,72.74,21.351,74.279,25.403z M94.62,24.403c1.539,4.051,3.484,0,3.484,0
			s-0.85-11.128,1.742-17.062C99.847,7.341,93.082,20.351,94.62,24.403z M84.449,25.403c1.539,4.051,3.484,0,3.484,0
			s-0.012-0.154-0.027-0.424c0.034,0.097,0.063,0.198,0.105,0.289c2.412,5.153,5.462,0,5.462,0s-1.333-14.152,2.731-21.7
			c0,0-7.288,11.376-8.402,18.201c-0.032-3.776,0.223-9.651,1.873-13.426C89.676,8.341,82.911,21.351,84.449,25.403z M99.199,26.267
			c2.412,5.153,5.462,0,5.462,0s-1.333-14.152,2.731-21.7C107.393,4.567,96.787,21.114,99.199,26.267z M105.808,25.403
			c1.539,4.051,3.484,0,3.484,0s-0.012-0.154-0.027-0.424c0.034,0.097,0.063,0.198,0.105,0.289c2.412,5.153,5.462,0,5.462,0
			s-1.333-14.152,2.731-21.7c0,0-7.288,11.376-8.402,18.201c-0.032-3.776,0.223-9.651,1.873-13.426
			C111.034,8.341,104.27,21.351,105.808,25.403z M115.979,24.403c1.304,3.433,2.896,1.053,3.353,0.246
			c0.055,0.219,0.121,0.429,0.209,0.619c2.412,5.153,5.462,0,5.462,0s-1.333-14.152,2.731-21.7c0,0-7.229,11.285-8.388,18.118
			c-0.079-3.677,0.07-10.247,1.859-14.343C121.205,7.341,114.44,20.351,115.979,24.403z M126.149,24.403
			c1.206,3.176,2.659,1.375,3.231,0.448c0.041,0.531,0.142,1.012,0.331,1.417c2.412,5.153,5.462,0,5.462,0s-1.333-14.152,2.731-21.7
			c0,0-7.131,11.13-8.365,17.977c-0.117-3.42-0.104-10.764,1.835-15.202C131.375,7.341,124.611,20.351,126.149,24.403z
			 M136.32,26.403c1.539,4.051,3.484,0,3.484,0s-0.045-0.595-0.083-1.575c0.047,0.153,0.097,0.302,0.161,0.439
			c2.412,5.153,5.463,0,5.463,0s-1.333-14.152,2.731-21.7c0,0-7.294,11.385-8.404,18.208c0.022-3.756,0.363-8.976,1.874-12.434
			C141.546,9.341,134.781,22.351,136.32,26.403z M157.229,4.567c0,0-4.817,7.52-7.22,14c0.224-2.891,0.71-5.942,1.707-8.226
			c0,0-6.765,13.01-5.227,17.062c1.319,3.474,2.935,0.995,3.369,0.217c2.229,2.711,4.639-1.353,4.639-1.353
			S153.165,12.115,157.229,4.567z M166.383,4.567c0,0-4.434,6.92-6.915,13.205c0.283-1.97,0.725-3.878,1.402-5.43
			c0,0-6.765,13.01-5.226,17.062c1.538,4.051,3.483,0,3.483,0s-0.051-0.665-0.089-1.751c2.223,2.649,4.612-1.384,4.612-1.384
			S162.318,12.115,166.383,4.567z M209.246,25.721c0.145-4.569,0.801-10.246,2.905-14.154c0,0-7.231,11.287-8.39,18.12
			c-0.079-3.677,0.07-10.249,1.859-14.345c0,0-5.477,10.535-5.45,15.596c-0.214-3.694-0.484-14.222,2.826-20.371
			c0,0-7.229,11.283-8.389,18.116c-0.079-3.677,0.07-10.246,1.859-14.342c0,0-5.049,9.713-5.428,14.967
			c-0.213-3.306-0.625-14.374,2.804-20.741c0,0-7.129,11.127-8.365,17.974c-0.116-3.42-0.104-10.762,1.836-15.199
			c0,0-5.47,10.522-5.451,15.587c-0.214-3.703-0.48-14.219,2.827-20.361c0,0-4.926,7.688-7.3,14.215
			c0.174-3.227,0.648-6.835,1.787-9.441c0,0-5.47,10.522-5.451,15.587c-0.214-3.703-0.48-14.219,2.827-20.361
			c0,0-7.286,11.374-8.402,18.198c-0.032-3.777,0.224-9.649,1.873-13.424c0,0-6.766,13.01-5.227,17.062c1.538,4.051,3.484,0,3.484,0
			s-0.012-0.153-0.027-0.421c0.034,0.096,0.062,0.196,0.104,0.286c2.413,5.153,5.463,0,5.463,0s-0.021-0.221-0.049-0.623
			c0.036,0.276,0.092,0.533,0.178,0.758c1.083,2.851,2.364,1.69,3.03,0.752c2.316,3.604,4.978-0.888,4.978-0.888
			s-0.021-0.221-0.049-0.623c0.036,0.276,0.092,0.533,0.178,0.758c1.206,3.175,2.658,1.376,3.231,0.449
			c0.04,0.531,0.141,1.012,0.33,1.416c2.19,4.677,4.904,0.866,5.388,0.121c0.029,0.378,0.093,0.722,0.204,1.015
			c1.304,3.433,2.896,1.054,3.353,0.246c0.055,0.219,0.12,0.429,0.209,0.618c2.413,5.153,5.463,0,5.463,0s-0.021-0.225-0.05-0.631
			c0.037,0.28,0.094,0.539,0.18,0.767c1.304,3.434,2.896,1.052,3.352,0.245c0.055,0.219,0.121,0.429,0.21,0.619
			c2.412,5.153,5.463,0,5.463,0s-0.037-0.396-0.079-1.079c0.156,0.56,0.344,1.116,0.595,1.66c2.45,5.3,5.548,0,5.548,0
			s-1.354-14.56,2.771-22.324C220.41,8.118,211.174,16.5,209.246,25.721z M61.198,30.059c0,0-1.489-15,3.051-23
			c0,0-11.848,17.538-9.153,23C57.79,35.521,61.198,30.059,61.198,30.059z M62.479,25.651c1.719,4.294,3.893,0,3.893,0
			s-0.95-11.794,1.946-18.084C68.317,7.567,60.76,21.356,62.479,25.651z M183.487,68.406c-1.004,3.443,6.316,13.404,6.316,13.404
			c-2.896-4.59-3.179-13.731-3.179-13.731S184.491,64.963,183.487,68.406z M188.693,67.336c-1.076,3.421,6.034,13.533,6.034,13.533
			c-2.798-4.649-2.89-13.795-2.89-13.795S189.77,63.915,188.693,67.336z M58.405,72.1c0,0-3.4-2.798-3.46,1.321
			c-0.06,4.119,11.369,12.911,11.369,12.911C61.59,82.135,58.405,72.1,58.405,72.1z M63.195,70.951c0,0-3.4-2.798-3.46,1.321
			s11.369,12.911,11.369,12.911C66.381,80.986,63.195,70.951,63.195,70.951z M69.183,70.951c0,0-3.399-2.798-3.459,1.321
			c-0.061,4.119,11.369,12.911,11.369,12.911C72.369,80.986,69.183,70.951,69.183,70.951z M193.639,66.407
			c-1.003,3.442,6.319,13.402,6.319,13.402c-2.896-4.589-3.181-13.73-3.181-13.73S194.643,62.964,193.639,66.407z M76.25,73.502
			c0,0-3.398-2.798-3.459,1.321C72.73,78.942,84.16,87.734,84.16,87.734C79.436,83.537,76.25,73.502,76.25,73.502z M81.04,72.353
			c0,0-3.398-2.797-3.459,1.322C77.52,77.793,88.95,86.586,88.95,86.586C84.226,82.388,81.04,72.353,81.04,72.353z M87.029,72.353
			c0,0-3.399-2.797-3.46,1.322c-0.061,4.118,11.37,12.911,11.37,12.911C90.214,82.388,87.029,72.353,87.029,72.353z M93.78,74.511
			c0,0-3.398-2.797-3.46,1.322c-0.061,4.118,11.37,12.909,11.37,12.909C96.966,84.546,93.78,74.511,93.78,74.511z M98.57,73.362
			c0,0-3.398-2.798-3.459,1.321c-0.062,4.119,11.369,12.909,11.369,12.909C101.756,83.397,98.57,73.362,98.57,73.362z
			 M104.559,73.362c0,0-3.399-2.798-3.459,1.321s11.368,12.909,11.368,12.909C107.744,83.397,104.559,73.362,104.559,73.362z
			 M113.375,75.434c0,0-3.398-2.798-3.459,1.321s11.369,12.911,11.369,12.911C116.561,85.469,113.375,75.434,113.375,75.434z
			 M118.166,74.284c0,0-3.398-2.797-3.459,1.322c-0.061,4.118,11.369,12.911,11.369,12.911
			C121.352,84.319,118.166,74.284,118.166,74.284z M124.153,74.284c0,0-3.398-2.797-3.459,1.322
			c-0.061,4.118,11.369,12.911,11.369,12.911C127.339,84.319,124.153,74.284,124.153,74.284z M130.4,73.937
			c0,0-3.398-2.797-3.459,1.321c-0.061,4.119,11.369,12.909,11.369,12.909C133.586,83.972,130.4,73.937,130.4,73.937z
			 M135.191,72.788c0,0-3.399-2.798-3.459,1.321c-0.061,4.119,11.368,12.909,11.368,12.909
			C138.377,82.823,135.191,72.788,135.191,72.788z M141.179,72.788c0,0-3.399-2.798-3.459,1.321s11.369,12.909,11.369,12.909
			C144.364,82.823,141.179,72.788,141.179,72.788z"/>
	</g>
</g>
<g id="Shape_1">
	<g>
		<linearGradient id="SVGID_1_" gradientUnits="userSpaceOnUse" x1="145.6299" y1="83.8418" x2="130.1979" y2="3.3752">
			<stop  offset="0" style="stop-color:#86AEBC"/>
			<stop  offset="1" style="stop-color:#FFFFFF"/>
		</linearGradient>
		<path fill="url(#SVGID_1_)" d="M256.178,46.5c0,0,1.078-14.014,15.072-27.728c0,0-13.782,2-38.75,12.864
			c0,0-97.112-12.641-179.25-5.636C19.023,28.919,2,55,2,55s44.211,44.75,206.523,13.247c8.484-1.646,19.727-2.565,30.727-0.682
			c0,0,9.75,8.935,33.75,13.435C273,81,254.163,56.334,256.178,46.5z"/>
	</g>
</g>
<g id="Ellipse_1">
	<g>
		<path fill="#6F99A5" d="M36,36c7,15.999,0,30.001,0,30C49.5,49.5,36,36,36,36z"/>
	</g>
</g>
<g id="Shape_5">
	<g>
		<path fill="#749FAA" d="M49.516,51.118C56.823,34.981,39,40.137,39,40.137c18.4-2.494,8.119,10.757,8.119,10.757
			c12.354,14.672-6.496,8.068-6.496,8.068C59.473,68.341,49.516,51.118,49.516,51.118z"/>
	</g>
</g>
<g id="Shape_6">
	<g>
		<path fill="#719AA5" d="M257.468,28.212c0,0-16.189,5.615-22.52,11.504c-2.941,2.271,0.514,2.231,3.287,0.091
			C238.235,39.808,249.985,31.216,257.468,28.212z M237.022,55.471c-1.209-1.005-2.027,1.235-0.079,2.853
			c0,0,11.246,9.587,21.868,12.022C258.812,70.346,244.209,63.162,237.022,55.471z M256.604,61.01c0,0-13.015-5.107-19.441-10.529
			c-2.145-0.912-2.91,0.783-0.056,1.997C237.106,52.478,247.15,59.248,256.604,61.01z M237.261,46.915
			c6.72-5.057,19.995-9.433,19.995-9.433c-9.536,1.233-19.939,7.438-19.939,7.438C234.414,45.98,234.361,47.976,237.261,46.915z
			 M247.861,50.063c-4.287-0.384-7.353-1.63-7.353-1.63C240.568,50.68,247.861,50.063,247.861,50.063z M251.287,45.165
			c0,0-7.573-1.19-8.255,1.196C243.032,46.361,249.361,44.825,251.287,45.165z"/>
	</g>
</g>
<g id="Shape_2">
	<g>
		<path fill="#547A8A" d="M25.681,45.281C26.9,44.16,28.078,43.018,29,42c0,0-2.57,0.47-5.112,1.995
			C22.603,43.217,21.014,42.516,19,42l3.383,3.045C20.715,46.404,19.304,48.319,19,51c0,0,2.476-1.977,5.164-4.353L29,51
			C29,51,28.799,47.986,25.681,45.281z"/>
	</g>
</g>
<linearGradient id="SVGID_2_" gradientUnits="userSpaceOnUse" x1="65.7729" y1="64.0859" x2="58.6372" y2="26.878">
	<stop  offset="0" style="stop-color:#86AEBC"/>
	<stop  offset="1" style="stop-color:#FFFFFF"/>
</linearGradient>
<path opacity="0.4" fill="url(#SVGID_2_)" d="M58.294,30.399c0,0,6.953,3.7,3.494,8.78c0,0,7.565,2.857,2.053,6.985
	c0,0,7.754,6.668,0.327,9.525c0,0,5.407,8.332-1.328,9.723c0,0,4.312,7.906-1.052,8.775c0,0,5.014,2.649,4.16-7.067
	c0,0,4.464-4.763,1.438-9.525c0,0,2.856-11.044-0.135-12.431c0,0-0.037-5.985-2.892-6.954C64.359,38.21,65.562,29.875,58.294,30.399
	z"/>
<linearGradient id="SVGID_3_" gradientUnits="userSpaceOnUse" x1="71.6636" y1="19.312" x2="64.528" y2="-17.8951" gradientTransform="matrix(0.9954 -0.096 -0.0937 -0.9712 0.8893 63.6661)">
	<stop  offset="0" style="stop-color:#FBFDFD"/>
	<stop  offset="1" style="stop-color:#86AEBC"/>
</linearGradient>
<path opacity="0.4" fill="url(#SVGID_3_)" d="M66.125,71.461c0,0,6.574-4.261,2.654-8.862c0,0,7.263-3.501,1.389-6.979
	c0,0,7.095-7.222-0.566-9.281c0,0,4.601-8.612-2.233-9.316c0,0,3.552-8.093-1.87-8.421c0,0,4.742-3.054,4.803,6.464
	c0,0,4.891,4.197,2.325,9.113c0,0,3.877,10.451,1.03,12.085c0,0,0.524,5.816-2.227,7.03C71.43,63.293,73.409,71.272,66.125,71.461z"
	/>
<linearGradient id="SVGID_4_" gradientUnits="userSpaceOnUse" x1="76.7593" y1="65.2588" x2="69.6237" y2="28.0516">
	<stop  offset="0" style="stop-color:#86AEBC"/>
	<stop  offset="1" style="stop-color:#FFFFFF"/>
</linearGradient>
<path opacity="0.4" fill="url(#SVGID_4_)" d="M69.28,31.573c0,0,6.953,3.7,3.493,8.78c0,0,7.565,2.858,2.053,6.985
	c0,0,7.755,6.668,0.328,9.525c0,0,5.406,8.332-1.328,9.723c0,0,4.312,7.906-1.053,8.775c0,0,5.014,2.649,4.16-7.067
	c0,0,4.465-4.763,1.439-9.525c0,0,2.855-11.044-0.136-12.431c0,0-0.037-5.985-2.892-6.954C75.346,39.384,76.549,31.049,69.28,31.573
	z"/>
<linearGradient id="SVGID_5_" gradientUnits="userSpaceOnUse" x1="82.4863" y1="17.0337" x2="75.3507" y2="-20.1735" gradientTransform="matrix(0.9954 -0.096 -0.0937 -0.9712 0.8893 63.6661)">
	<stop  offset="0" style="stop-color:#FBFDFD"/>
	<stop  offset="1" style="stop-color:#86AEBC"/>
</linearGradient>
<path opacity="0.4" fill="url(#SVGID_5_)" d="M77.111,72.635c0,0,6.574-4.261,2.654-8.862c0,0,7.263-3.501,1.389-6.979
	c0,0,7.095-7.222-0.566-9.281c0,0,4.602-8.612-2.232-9.316c0,0,3.552-8.093-1.87-8.421c0,0,4.742-3.054,4.804,6.464
	c0,0,4.891,4.197,2.324,9.113c0,0,3.877,10.45,1.03,12.085c0,0,0.524,5.816-2.228,7.03C82.416,64.467,84.395,72.446,77.111,72.635z"
	/>
<linearGradient id="SVGID_6_" gradientUnits="userSpaceOnUse" x1="88.1851" y1="62.5586" x2="81.0493" y2="25.3506">
	<stop  offset="0" style="stop-color:#86AEBC"/>
	<stop  offset="1" style="stop-color:#FFFFFF"/>
</linearGradient>
<path opacity="0.4" fill="url(#SVGID_6_)" d="M80.706,28.871c0,0,6.953,3.7,3.493,8.78c0,0,7.565,2.858,2.053,6.985
	c0,0,7.755,6.668,0.328,9.525c0,0,5.406,8.332-1.328,9.723c0,0,4.312,7.906-1.053,8.775c0,0,5.014,2.649,4.16-7.067
	c0,0,4.465-4.763,1.439-9.525c0,0,2.855-11.044-0.136-12.431c0,0-0.037-5.985-2.892-6.954
	C86.771,36.682,87.975,28.347,80.706,28.871z"/>
<linearGradient id="SVGID_7_" gradientUnits="userSpaceOnUse" x1="94.1191" y1="18.6646" x2="86.9835" y2="-18.5426" gradientTransform="matrix(0.9954 -0.096 -0.0937 -0.9712 0.8893 63.6661)">
	<stop  offset="0" style="stop-color:#FBFDFD"/>
	<stop  offset="1" style="stop-color:#86AEBC"/>
</linearGradient>
<path opacity="0.4" fill="url(#SVGID_7_)" d="M88.537,69.933c0,0,6.574-4.261,2.654-8.862c0,0,7.263-3.501,1.389-6.979
	c0,0,7.095-7.222-0.566-9.281c0,0,4.602-8.612-2.232-9.316c0,0,3.552-8.093-1.87-8.421c0,0,4.742-3.054,4.804,6.464
	c0,0,4.891,4.197,2.324,9.113c0,0,3.877,10.45,1.03,12.085c0,0,0.524,5.816-2.228,7.03C93.842,61.765,95.82,69.744,88.537,69.933z"
	/>
<linearGradient id="SVGID_8_" gradientUnits="userSpaceOnUse" x1="99.4229" y1="65.208" x2="92.2871" y2="28">
	<stop  offset="0" style="stop-color:#86AEBC"/>
	<stop  offset="1" style="stop-color:#FFFFFF"/>
</linearGradient>
<path opacity="0.4" fill="url(#SVGID_8_)" d="M91.944,31.521c0,0,6.953,3.7,3.493,8.78c0,0,7.565,2.858,2.053,6.985
	c0,0,7.755,6.668,0.328,9.525c0,0,5.406,8.332-1.328,9.723c0,0,4.312,7.906-1.053,8.775c0,0,5.014,2.649,4.16-7.067
	c0,0,4.465-4.763,1.439-9.525c0,0,2.855-11.044-0.136-12.431c0,0-0.037-5.985-2.892-6.954
	C98.009,39.332,99.212,30.996,91.944,31.521z"/>
<linearGradient id="SVGID_9_" gradientUnits="userSpaceOnUse" x1="105.0498" y1="14.8569" x2="97.914" y2="-22.351" gradientTransform="matrix(0.9954 -0.096 -0.0937 -0.9712 0.8893 63.6661)">
	<stop  offset="0" style="stop-color:#FBFDFD"/>
	<stop  offset="1" style="stop-color:#86AEBC"/>
</linearGradient>
<path opacity="0.4" fill="url(#SVGID_9_)" d="M99.775,72.582c0,0,6.574-4.261,2.654-8.862c0,0,7.263-3.501,1.389-6.979
	c0,0,7.095-7.222-0.566-9.281c0,0,4.602-8.612-2.232-9.316c0,0,3.552-8.093-1.87-8.421c0,0,4.742-3.054,4.804,6.464
	c0,0,4.891,4.197,2.324,9.113c0,0,3.877,10.45,1.03,12.085c0,0,0.524,5.816-2.228,7.03C105.08,64.414,107.058,72.394,99.775,72.582z
	"/>
<linearGradient id="SVGID_10_" gradientUnits="userSpaceOnUse" x1="111.6714" y1="65.2969" x2="104.5479" y2="28.1529">
	<stop  offset="0" style="stop-color:#86AEBC"/>
	<stop  offset="1" style="stop-color:#FFFFFF"/>
</linearGradient>
<path opacity="0.4" fill="url(#SVGID_10_)" d="M104.698,31.573c0,0,6.431,3.7,3.23,8.78c0,0,6.997,2.858,1.898,6.985
	c0,0,7.173,6.668,0.304,9.525c0,0,5,8.332-1.229,9.723c0,0,3.989,7.906-0.974,8.775c0,0,4.638,2.649,3.848-7.067
	c0,0,4.13-4.763,1.332-9.525c0,0,2.641-11.044-0.126-12.431c0,0-0.034-5.985-2.675-6.954
	C110.308,39.384,111.421,31.049,104.698,31.573z"/>
<linearGradient id="SVGID_11_" gradientUnits="userSpaceOnUse" x1="116.8633" y1="13.6548" x2="109.7289" y2="-23.5458" gradientTransform="matrix(0.9954 -0.096 -0.0937 -0.9712 0.8893 63.6661)">
	<stop  offset="0" style="stop-color:#FBFDFD"/>
	<stop  offset="1" style="stop-color:#86AEBC"/>
</linearGradient>
<path opacity="0.4" fill="url(#SVGID_11_)" d="M111.941,72.635c0,0,6.08-4.261,2.454-8.862c0,0,6.718-3.501,1.285-6.979
	c0,0,6.562-7.222-0.524-9.281c0,0,4.256-8.612-2.064-9.316c0,0,3.285-8.093-1.729-8.421c0,0,4.386-3.054,4.442,6.464
	c0,0,4.523,4.197,2.149,9.113c0,0,3.586,10.45,0.953,12.085c0,0,0.485,5.816-2.06,7.03
	C116.848,64.467,118.677,72.446,111.941,72.635z"/>
<linearGradient id="SVGID_12_" gradientUnits="userSpaceOnUse" x1="123.6714" y1="64.2969" x2="116.5479" y2="27.1529">
	<stop  offset="0" style="stop-color:#86AEBC"/>
	<stop  offset="1" style="stop-color:#FFFFFF"/>
</linearGradient>
<path opacity="0.4" fill="url(#SVGID_12_)" d="M116.698,30.573c0,0,6.431,3.7,3.23,8.78c0,0,6.997,2.858,1.898,6.985
	c0,0,7.173,6.668,0.304,9.525c0,0,5,8.332-1.229,9.723c0,0,3.989,7.906-0.974,8.775c0,0,4.638,2.649,3.848-7.067
	c0,0,4.13-4.763,1.332-9.525c0,0,2.641-11.044-0.126-12.431c0,0-0.034-5.985-2.675-6.954
	C122.308,38.384,123.421,30.049,116.698,30.573z"/>
<linearGradient id="SVGID_13_" gradientUnits="userSpaceOnUse" x1="128.9033" y1="13.4932" x2="121.7693" y2="-23.7058" gradientTransform="matrix(0.9954 -0.096 -0.0937 -0.9712 0.8893 63.6661)">
	<stop  offset="0" style="stop-color:#FBFDFD"/>
	<stop  offset="1" style="stop-color:#86AEBC"/>
</linearGradient>
<path opacity="0.4" fill="url(#SVGID_13_)" d="M123.941,71.635c0,0,6.08-4.261,2.454-8.862c0,0,6.718-3.501,1.285-6.979
	c0,0,6.562-7.222-0.524-9.281c0,0,4.256-8.612-2.064-9.316c0,0,3.285-8.093-1.729-8.421c0,0,4.386-3.054,4.442,6.464
	c0,0,4.523,4.197,2.149,9.113c0,0,3.586,10.45,0.953,12.085c0,0,0.485,5.816-2.06,7.03
	C128.848,63.467,130.677,71.446,123.941,71.635z"/>
<linearGradient id="SVGID_14_" gradientUnits="userSpaceOnUse" x1="136.6714" y1="63.2969" x2="129.5479" y2="26.1529">
	<stop  offset="0" style="stop-color:#86AEBC"/>
	<stop  offset="1" style="stop-color:#FFFFFF"/>
</linearGradient>
<path opacity="0.4" fill="url(#SVGID_14_)" d="M129.698,29.573c0,0,6.431,3.7,3.23,8.78c0,0,6.997,2.858,1.898,6.985
	c0,0,7.173,6.668,0.304,9.525c0,0,5,8.332-1.229,9.723c0,0,3.989,7.906-0.974,8.775c0,0,4.638,2.649,3.848-7.067
	c0,0,4.13-4.763,1.332-9.525c0,0,2.641-11.044-0.126-12.431c0,0-0.034-5.985-2.675-6.954
	C135.308,37.384,136.421,29.049,129.698,29.573z"/>
<linearGradient id="SVGID_15_" gradientUnits="userSpaceOnUse" x1="141.9395" y1="13.2344" x2="134.8051" y2="-23.9662" gradientTransform="matrix(0.9954 -0.096 -0.0937 -0.9712 0.8893 63.6661)">
	<stop  offset="0" style="stop-color:#FBFDFD"/>
	<stop  offset="1" style="stop-color:#86AEBC"/>
</linearGradient>
<path opacity="0.4" fill="url(#SVGID_15_)" d="M136.941,70.635c0,0,6.08-4.261,2.454-8.862c0,0,6.718-3.501,1.285-6.979
	c0,0,6.562-7.222-0.524-9.281c0,0,4.256-8.612-2.064-9.316c0,0,3.285-8.093-1.729-8.421c0,0,4.386-3.054,4.442,6.464
	c0,0,4.523,4.197,2.149,9.113c0,0,3.586,10.45,0.953,12.085c0,0,0.485,5.816-2.06,7.03
	C141.848,62.467,143.677,70.446,136.941,70.635z"/>
<linearGradient id="SVGID_16_" gradientUnits="userSpaceOnUse" x1="150.625" y1="62.0459" x2="143.9321" y2="27.1471">
	<stop  offset="0" style="stop-color:#86AEBC"/>
	<stop  offset="1" style="stop-color:#FFFFFF"/>
</linearGradient>
<path opacity="0.4" fill="url(#SVGID_16_)" d="M143.698,30.433c0,0,6.431,3.471,3.23,8.238c0,0,6.997,2.681,1.898,6.553
	c0,0,7.173,6.256,0.304,8.937c0,0,5,7.817-1.229,9.122c0,0,3.989,7.418-0.974,8.233c0,0,4.638,2.485,3.848-6.631
	c0,0,4.13-4.469,1.332-8.938c0,0,2.641-10.361-0.126-11.662c0,0-0.034-5.615-2.675-6.524
	C149.308,37.762,150.421,29.941,143.698,30.433z"/>
<linearGradient id="SVGID_17_" gradientUnits="userSpaceOnUse" x1="155.8135" y1="11.4443" x2="149.119" y2="-23.4626" gradientTransform="matrix(0.9954 -0.096 -0.0937 -0.9712 0.8893 63.6661)">
	<stop  offset="0" style="stop-color:#FBFDFD"/>
	<stop  offset="1" style="stop-color:#86AEBC"/>
</linearGradient>
<path opacity="0.4" fill="url(#SVGID_17_)" d="M150.941,68.958c0,0,6.08-3.997,2.454-8.314c0,0,6.718-3.285,1.285-6.549
	c0,0,6.562-6.775-0.524-8.708c0,0,4.256-8.08-2.064-8.741c0,0,3.285-7.593-1.729-7.901c0,0,4.386-2.866,4.442,6.064
	c0,0,4.523,3.938,2.149,8.55c0,0,3.586,9.805,0.953,11.339c0,0,0.485,5.457-2.06,6.596
	C155.848,61.295,157.677,68.781,150.941,68.958z"/>
<linearGradient id="SVGID_18_" gradientUnits="userSpaceOnUse" x1="164.6094" y1="61.2598" x2="158.0669" y2="27.1452">
	<stop  offset="0" style="stop-color:#86AEBC"/>
	<stop  offset="1" style="stop-color:#FFFFFF"/>
</linearGradient>
<path opacity="0.4" fill="url(#SVGID_18_)" d="M157.698,30.384c0,0,6.431,3.392,3.23,8.048c0,0,6.997,2.62,1.898,6.403
	c0,0,7.173,6.112,0.304,8.732c0,0,5,7.638-1.229,8.912c0,0,3.989,7.247-0.974,8.044c0,0,4.638,2.429,3.848-6.479
	c0,0,4.13-4.365,1.332-8.731c0,0,2.641-10.124-0.126-11.395c0,0-0.034-5.486-2.675-6.375
	C163.308,37.544,164.421,29.904,157.698,30.384z"/>
<linearGradient id="SVGID_19_" gradientUnits="userSpaceOnUse" x1="169.7607" y1="10.2793" x2="163.2198" y2="-23.827" gradientTransform="matrix(0.9954 -0.096 -0.0937 -0.9712 0.8893 63.6661)">
	<stop  offset="0" style="stop-color:#FBFDFD"/>
	<stop  offset="1" style="stop-color:#86AEBC"/>
</linearGradient>
<path opacity="0.4" fill="url(#SVGID_19_)" d="M164.941,68.024c0,0,6.08-3.906,2.454-8.124c0,0,6.718-3.209,1.285-6.397
	c0,0,6.562-6.62-0.524-8.508c0,0,4.256-7.894-2.064-8.54c0,0,3.285-7.418-1.729-7.72c0,0,4.386-2.799,4.442,5.925
	c0,0,4.523,3.848,2.149,8.354c0,0,3.586,9.579,0.953,11.078c0,0,0.485,5.331-2.06,6.444
	C169.848,60.537,171.677,67.852,164.941,68.024z"/>
<linearGradient id="SVGID_20_" gradientUnits="userSpaceOnUse" x1="176.9863" y1="60.2754" x2="170.8389" y2="28.2207">
	<stop  offset="0" style="stop-color:#86AEBC"/>
	<stop  offset="1" style="stop-color:#FFFFFF"/>
</linearGradient>
<path opacity="0.4" fill="url(#SVGID_20_)" d="M170.698,31.224c0,0,5.83,3.189,2.929,7.569c0,0,6.344,2.463,1.722,6.021
	c0,0,6.503,5.749,0.275,8.211c0,0,4.532,7.183-1.114,8.382c0,0,3.617,6.815-0.883,7.564c0,0,4.205,2.284,3.488-6.092
	c0,0,3.744-4.106,1.208-8.212c0,0,2.394-9.521-0.114-10.716c0,0-0.031-5.159-2.425-5.994
	C175.784,37.958,176.793,30.772,170.698,31.224z"/>
<linearGradient id="SVGID_21_" gradientUnits="userSpaceOnUse" x1="181.6318" y1="8.6792" x2="175.4809" y2="-23.3936" gradientTransform="matrix(0.9954 -0.096 -0.0937 -0.9712 0.8893 63.6661)">
	<stop  offset="0" style="stop-color:#FBFDFD"/>
	<stop  offset="1" style="stop-color:#86AEBC"/>
</linearGradient>
<path opacity="0.4" fill="url(#SVGID_21_)" d="M177.265,66.621c0,0,5.513-3.673,2.226-7.639c0,0,6.09-3.02,1.165-6.018
	c0,0,5.948-6.226-0.476-8.001c0,0,3.858-7.424-1.872-8.031c0,0,2.979-6.977-1.567-7.259c0,0,3.976-2.633,4.027,5.572
	c0,0,4.101,3.618,1.948,7.856c0,0,3.252,9.009,0.864,10.418c0,0,0.44,5.014-1.867,6.061
	C181.713,59.58,183.371,66.459,177.265,66.621z"/>
<linearGradient id="SVGID_22_" gradientUnits="userSpaceOnUse" x1="189.0098" y1="58.0986" x2="183.4149" y2="28.9257">
	<stop  offset="0" style="stop-color:#86AEBC"/>
	<stop  offset="1" style="stop-color:#FFFFFF"/>
</linearGradient>
<path opacity="0.4" fill="url(#SVGID_22_)" d="M183.698,31.581c0,0,4.879,2.908,2.451,6.901c0,0,5.309,2.246,1.44,5.49
	c0,0,5.442,5.241,0.23,7.486c0,0,3.793,6.549-0.933,7.642c0,0,3.027,6.214-0.738,6.897c0,0,3.519,2.082,2.919-5.555
	c0,0,3.133-3.743,1.011-7.486c0,0,2.003-8.681-0.096-9.771c0,0-0.026-4.704-2.029-5.465
	C187.954,37.721,188.799,31.169,183.698,31.581z"/>
<linearGradient id="SVGID_23_" gradientUnits="userSpaceOnUse" x1="192.9648" y1="7.8047" x2="187.3581" y2="-21.4306" gradientTransform="matrix(0.9954 -0.096 -0.0937 -0.9712 0.8893 63.6661)">
	<stop  offset="0" style="stop-color:#FBFDFD"/>
	<stop  offset="1" style="stop-color:#86AEBC"/>
</linearGradient>
<path opacity="0.4" fill="url(#SVGID_23_)" d="M189.193,63.854c0,0,4.613-3.349,1.862-6.964c0,0,5.097-2.753,0.975-5.486
	c0,0,4.979-5.677-0.397-7.295c0,0,3.229-6.768-1.566-7.322c0,0,2.492-6.361-1.312-6.618c0,0,3.326-2.401,3.37,5.08
	c0,0,3.432,3.298,1.63,7.163c0,0,2.722,8.214,0.724,9.498c0,0,0.368,4.571-1.562,5.526
	C192.916,57.435,194.304,63.706,189.193,63.854z"/>
<linearGradient id="SVGID_24_" gradientUnits="userSpaceOnUse" x1="200.4883" y1="56.3242" x2="195.442" y2="30.0117">
	<stop  offset="0" style="stop-color:#86AEBC"/>
	<stop  offset="1" style="stop-color:#FFFFFF"/>
</linearGradient>
<path opacity="0.4" fill="url(#SVGID_24_)" d="M195.698,32.406c0,0,4.4,2.623,2.211,6.225c0,0,4.788,2.025,1.299,4.951
	c0,0,4.909,4.728,0.208,6.752c0,0,3.421,5.907-0.841,6.893c0,0,2.73,5.604-0.666,6.222c0,0,3.174,1.878,2.633-5.011
	c0,0,2.825-3.376,0.911-6.752c0,0,1.807-7.83-0.086-8.812c0,0-0.023-4.242-1.83-4.929C199.537,37.944,200.299,32.035,195.698,32.406
	z"/>
<linearGradient id="SVGID_25_" gradientUnits="userSpaceOnUse" x1="204.0547" y1="6.4614" x2="198.9978" y2="-19.9069" gradientTransform="matrix(0.9954 -0.096 -0.0937 -0.9712 0.8893 63.6661)">
	<stop  offset="0" style="stop-color:#FBFDFD"/>
	<stop  offset="1" style="stop-color:#86AEBC"/>
</linearGradient>
<path opacity="0.4" fill="url(#SVGID_25_)" d="M200.654,61.515c0,0,4.161-3.021,1.68-6.281c0,0,4.598-2.483,0.879-4.948
	c0,0,4.491-5.12-0.358-6.581c0,0,2.912-6.104-1.412-6.604c0,0,2.247-5.737-1.184-5.969c0,0,3-2.166,3.04,4.582
	c0,0,3.095,2.975,1.47,6.46c0,0,2.455,7.408,0.653,8.566c0,0,0.332,4.123-1.41,4.984C204.012,55.725,205.264,61.382,200.654,61.515z
	"/>
<linearGradient id="SVGID_26_" gradientUnits="userSpaceOnUse" x1="211.5469" y1="56.9443" x2="206.7572" y2="31.9698">
	<stop  offset="0" style="stop-color:#86AEBC"/>
	<stop  offset="1" style="stop-color:#FFFFFF"/>
</linearGradient>
<path opacity="0.4" fill="url(#SVGID_26_)" d="M207,34.242c0,0,4.178,2.489,2.098,5.908c0,0,4.545,1.922,1.233,4.699
	c0,0,4.659,4.487,0.198,6.409c0,0,3.247,5.606-0.799,6.543c0,0,2.592,5.319-0.633,5.903c0,0,3.014,1.784,2.5-4.755
	c0,0,2.682-3.204,0.865-6.409c0,0,1.715-7.431-0.082-8.364c0,0-0.023-4.026-1.737-4.679C210.644,39.498,211.367,33.889,207,34.242z"
	/>
<linearGradient id="SVGID_27_" gradientUnits="userSpaceOnUse" x1="214.7646" y1="3.7939" x2="209.9648" y2="-21.2339" gradientTransform="matrix(0.9954 -0.096 -0.0937 -0.9712 0.8893 63.6661)">
	<stop  offset="0" style="stop-color:#FBFDFD"/>
	<stop  offset="1" style="stop-color:#86AEBC"/>
</linearGradient>
<path opacity="0.4" fill="url(#SVGID_27_)" d="M211.704,61.87c0,0,3.95-2.866,1.595-5.961c0,0,4.363-2.356,0.834-4.697
	c0,0,4.263-4.86-0.34-6.246c0,0,2.764-5.794-1.341-6.268c0,0,2.134-5.446-1.123-5.666c0,0,2.848-2.056,2.886,4.349
	c0,0,2.938,2.824,1.395,6.132c0,0,2.331,7.032,0.62,8.13c0,0,0.314,3.914-1.338,4.732C214.892,56.376,216.08,61.744,211.704,61.87z"
	/>
<linearGradient id="SVGID_28_" gradientUnits="userSpaceOnUse" x1="221.5469" y1="56.9443" x2="216.7571" y2="31.969">
	<stop  offset="0" style="stop-color:#86AEBC"/>
	<stop  offset="1" style="stop-color:#FFFFFF"/>
</linearGradient>
<path opacity="0.4" fill="url(#SVGID_28_)" d="M217,34.242c0,0,4.178,2.489,2.098,5.908c0,0,4.545,1.922,1.233,4.699
	c0,0,4.659,4.487,0.198,6.409c0,0,3.247,5.606-0.799,6.543c0,0,2.592,5.319-0.633,5.903c0,0,3.014,1.784,2.5-4.755
	c0,0,2.682-3.204,0.865-6.409c0,0,1.715-7.432-0.082-8.364c0,0-0.023-4.026-1.737-4.679C220.644,39.498,221.367,33.889,217,34.242z"
	/>
<linearGradient id="SVGID_29_" gradientUnits="userSpaceOnUse" x1="224.7178" y1="2.8105" x2="219.9179" y2="-22.2173" gradientTransform="matrix(0.9954 -0.096 -0.0937 -0.9712 0.8893 63.6661)">
	<stop  offset="0" style="stop-color:#FBFDFD"/>
	<stop  offset="1" style="stop-color:#86AEBC"/>
</linearGradient>
<path opacity="0.4" fill="url(#SVGID_29_)" d="M221.704,61.87c0,0,3.95-2.866,1.595-5.961c0,0,4.363-2.356,0.834-4.697
	c0,0,4.263-4.86-0.34-6.246c0,0,2.764-5.794-1.341-6.268c0,0,2.134-5.446-1.123-5.666c0,0,2.848-2.056,2.886,4.349
	c0,0,2.938,2.824,1.395,6.133c0,0,2.331,7.031,0.62,8.13c0,0,0.314,3.914-1.338,4.732C224.892,56.376,226.08,61.744,221.704,61.87z"
	/>
<linearGradient id="SVGID_30_" gradientUnits="userSpaceOnUse" x1="57.7837" y1="62.8516" x2="50.6839" y2="25.8315">
	<stop  offset="0" style="stop-color:#86AEBC"/>
	<stop  offset="1" style="stop-color:#FFFFFF"/>
</linearGradient>
<path opacity="0.4" fill="url(#SVGID_30_)" d="M51.809,29.055c0,0,5.396,3.7,2.711,8.78c0,0,5.871,2.858,1.593,6.985
	c0,0,6.018,6.668,0.255,9.525c0,0,4.195,8.332-1.031,9.723c0,0,3.347,7.906-0.817,8.775c0,0,3.891,2.649,3.229-7.067
	c0,0,3.465-4.763,1.117-9.525c0,0,2.216-11.044-0.105-12.431c0,0-0.029-5.985-2.244-6.954C56.516,36.866,57.45,28.53,51.809,29.055z
	"/>
<linearGradient id="SVGID_31_" gradientUnits="userSpaceOnUse" x1="62.7227" y1="21.6426" x2="55.5911" y2="-15.5432" gradientTransform="matrix(0.9954 -0.096 -0.0937 -0.9712 0.8893 63.6661)">
	<stop  offset="0" style="stop-color:#FBFDFD"/>
	<stop  offset="1" style="stop-color:#86AEBC"/>
</linearGradient>
<path opacity="0.4" fill="url(#SVGID_31_)" d="M57.886,70.116c0,0,5.102-4.261,2.06-8.862c0,0,5.636-3.501,1.078-6.979
	c0,0,5.506-7.222-0.439-9.281c0,0,3.571-8.612-1.732-9.316c0,0,2.756-8.093-1.452-8.421c0,0,3.68-3.054,3.728,6.464
	c0,0,3.795,4.197,1.804,9.113c0,0,3.009,10.45,0.799,12.085c0,0,0.407,5.816-1.729,7.03C62.003,61.948,63.539,69.928,57.886,70.116z
	"/>
</svg>
