<?xml version="1.0" encoding="utf-8"?><!DOCTYPE svg PUBLIC "-//W3C//DTD SVG 1.1//EN" "http://www.w3.org/Graphics/SVG/1.1/DTD/svg11.dtd"><svg version="1.1" baseProfile="full" xmlns="http://www.w3.org/2000/svg" xmlns:xlink="http://www.w3.org/1999/xlink" xmlns:ev="http://www.w3.org/2001/xml-events"   height="100px"   width="429px" ><defs><linearGradient id="PSgrad_0" x1="0%" x2="100%" y1="0%" y2="0%">  <stop offset="0%" stop-color="rgb(76,42,105)" stop-opacity="1" />  <stop offset="8%" stop-color="rgb(69,38,95)" stop-opacity="1" />  <stop offset="50%" stop-color="rgb(61,33,84)" stop-opacity="1" />  <stop offset="92%" stop-color="rgb(69,38,95)" stop-opacity="1" />  <stop offset="100%" stop-color="rgb(76,42,105)" stop-opacity="1" /></linearGradient><linearGradient id="PSgrad_1" x1="0%" x2="0%" y1="0%" y2="100%">  <stop offset="0%" stop-color="rgb(97,66,123)" stop-opacity="1" />  <stop offset="100%" stop-color="rgb(110,78,138)" stop-opacity="1" /></linearGradient><linearGradient id="PSgrad_2" x1="0%" x2="0%" y1="0%" y2="100%">  <stop offset="0%" stop-color="rgb(104,71,132)" stop-opacity="1" />  <stop offset="100%" stop-color="rgb(119,86,147)" stop-opacity="1" /></linearGradient><linearGradient id="PSgrad_3" x1="0%" x2="25.882%" y1="0%" y2="96.593%">  <stop offset="0%" stop-color="rgb(98,71,53)" stop-opacity="1" />  <stop offset="100%" stop-color="rgb(240,237,230)" stop-opacity="1" /></linearGradient><linearGradient id="PSgrad_4" x1="0%" x2="25.882%" y1="0%" y2="96.593%">  <stop offset="0%" stop-color="rgb(67,40,22)" stop-opacity="1" />  <stop offset="100%" stop-color="rgb(220,207,174)" stop-opacity="1" /></linearGradient><linearGradient id="PSgrad_5" x1="0%" x2="25.882%" y1="0%" y2="96.593%">  <stop offset="0%" stop-color="rgb(98,71,53)" stop-opacity="1" />  <stop offset="100%" stop-color="rgb(240,237,230)" stop-opacity="1" /></linearGradient><linearGradient id="PSgrad_6" x1="0%" x2="25.882%" y1="0%" y2="96.593%">  <stop offset="0%" stop-color="rgb(67,40,22)" stop-opacity="1" />  <stop offset="100%" stop-color="rgb(220,207,174)" stop-opacity="1" /></linearGradient></defs><path fill="rgb( 0, 0, 0 )" d="M417,2.01300000000001 C417,2.01300000000001 421,2.01300000000001 421,2.01300000000001 C421,2.01300000000001 417.09,23.29 417.09,23.29 C417.09,23.29 412.169,22.4 412.169,22.4 C412.169,22.4 417,2.01300000000001 417,2.01300000000001 Z "/><path fill="rgb( 0, 0, 0 )" d="M15,0.01300000000001 C15,0.01300000000001 11,0.01300000000001 11,0.01300000000001 C11,0.01300000000001 14.911,21.29 14.911,21.29 C14.911,21.29 19.831,20.4 19.831,20.4 C19.831,20.4 15,0.01300000000001 15,0.01300000000001 Z "/><path fill="rgb( 0, 0, 0 )" d="M9,18.013 C9,18.013 110.351,21.013 211,21.013 C314.316,21.013 421,18.013 421,18.013 C424.314,18.013 427,20.699 427,24.013 C427,24.013 429,37.708 429,52.013 C429,67.649 428,84.013 428,84.013 C428,87.327 424.314,91.013 421,91.013 C421,91.013 313.639,99.013 210,99.013 C198.117,99.013 186.229,98.929 174.503,98.78 C164.518,98.654 154.651,95.481 145.005,95.274 C138.558,95.135 132.21,97.981 125.992,97.816 C60.222,96.065 9,90.013 9,90.013 C5.68600000000001,90.013 1,87.327 1,84.013 C1,84.013 0,66.943 0,51.013 C0,37.077 3,24.013 3,24.013 C3,20.699 5.68600000000001,18.013 9,18.013 Z "/><path fill="rgb( 76, 42, 105 )" d="M9,15.013 C9,15.013 110.351,18.013 211,18.013 C314.316,18.013 421,15.013 421,15.013 C424.314,15.013 427,17.699 427,21.013 C427,21.013 429,34.708 429,49.013 C429,64.649 428,81.013 428,81.013 C428,84.327 424.314,88.013 421,88.013 C421,88.013 313.639,93.013 210,93.013 C198.117,93.013 186.229,92.929 174.503,92.78 C164.518,92.654 154.651,89.481 145.005,89.274 C138.558,89.135 132.21,91.981 125.992,91.816 C60.222,90.065 9,87.013 9,87.013 C5.68600000000001,87.013 1,84.327 1,81.013 C1,81.013 0,63.943 0,48.013 C0,34.077 3,21.013 3,21.013 C3,17.699 5.68600000000001,15.013 9,15.013 Z "/><path fill="url(#PSgrad_0)" d="M9,15.013 C9,15.013 110.351,18.013 211,18.013 C314.316,18.013 421,15.013 421,15.013 C424.314,15.013 427,17.699 427,21.013 C427,21.013 429,34.708 429,49.013 C429,64.649 428,81.013 428,81.013 C428,84.327 424.314,88.013 421,88.013 C421,88.013 313.639,93.013 210,93.013 C198.117,93.013 186.229,92.929 174.503,92.78 C164.518,92.654 154.651,89.481 145.005,89.274 C138.558,89.135 132.21,91.981 125.992,91.816 C60.222,90.065 9,87.013 9,87.013 C5.68600000000001,87.013 1,84.327 1,81.013 C1,81.013 0,63.943 0,48.013 C0,34.077 3,21.013 3,21.013 C3,17.699 5.68600000000001,15.013 9,15.013 Z "/><path fill="rgb( 49, 24, 70 )" d="M2.16,83.836 C1.476,83.029 1.04499999999999,82.11 1.011,81.134 C4.78399999999999,78.185 12.933,73.97 12.933,73.97 C27.794,71.382 9.482,82.314 9.482,82.314 C6.16900000000001,83.164 3.79599999999999,83.642 2.16,83.836 ZM27.629,80.669 C27.967,79.795 32.524,72.429 47.126,81.286 C47.793,81.691 46.82,85.044 45.432,88.878 C34.968,88.396 26.362,87.96 20.158,87.631 C23.459,84.008 27.5,81.006 27.629,80.669 ZM75.18,85.056 C77.237,81.873 47.286,79.704 62.212,78.78 C75.649,77.948 93.383,80.727 92.626,85.93 C92.43,87.274 79.247,88.691 78.175,90.258 C72.268,90.032 66.633,89.804 61.312,89.579 C64.307,87.945 74.285,86.441 75.18,85.056 ZM97.275,90.947 C101.911,86.106 106.956,81.374 110.533,77.659 C110.533,77.659 124.942,77.688 126.696,80.646 C127.055,81.251 114.443,83.78 114.82,84.465 C115.978,86.57 117.176,89.02 118.146,91.598 C110.975,91.393 104,91.174 97.275,90.947 ZM129.591,91.619 C128.609,89.226 128.122,86.788 128.654,84.608 C129.098,82.785 136.739,81.174 138.904,79.891 C141.221,78.517 138.21,77.524 143.214,77.191 C155.607,76.368 153.847,78.063 154.232,81.081 C154.531,83.423 159.753,86.579 157.632,89.897 C157.476,90.14 157.285,90.385 157.09,90.63 C153.029,89.955 148.998,89.359 145.005,89.274 C139.797,89.162 134.654,90.996 129.591,91.619 ZM194.833,92.966 C188.025,92.927 181.236,92.866 174.503,92.78 C173.779,92.771 173.056,92.742 172.333,92.703 C173.608,91.342 174.926,89.983 176.251,88.645 C180.089,84.772 170.989,81.021 173.895,78.003 C173.895,78.003 198.846,76.739 199.844,78.277 C200.652,79.524 190.375,83.419 191.41,85.337 C192.632,87.601 193.878,90.227 194.833,92.966 ZM273.712,88.957 C273.712,88.957 275.078,90.31 276.792,92.41 C274.041,92.456 271.274,92.501 268.494,92.543 C270.553,91.258 272.412,90.046 273.712,88.957 ZM360.717,90.31 C358.467,90.383 356.173,90.456 353.831,90.53 C357.551,86.283 361.414,82.204 364.239,78.919 C364.239,78.919 361.666,83.94 360.717,90.31 ZM270.555,82.848 C273.022,80.228 309.405,78.662 315.915,78.089 C328.762,76.959 333.778,79.187 334.274,83.164 C334.551,85.385 333.412,88.154 331.443,91.187 C321.355,91.464 310.723,91.729 299.708,91.967 C299.706,91.878 299.7,91.789 299.7,91.7 C299.701,88.51 268.321,85.219 270.555,82.848 ZM232.089,77.685 C253.696,75.785 253.152,83.383 246.201,92.824 C236.17,92.925 226.054,92.989 215.951,93.007 C215.296,85.592 218.64,78.868 232.089,77.685 ZM386.843,78.88 C411.42,76.887 413.449,82.603 409.976,88.492 C403.359,88.769 393.991,89.144 382.504,89.561 C384.45,84.361 386.843,78.88 386.843,78.88 Z "/><path fill="rgb( 104, 71, 132 )" d="M11,12.013 C11,12.013 110.351,17.013 211,17.013 C314.316,17.013 419,12.013 419,12.013 C422.314,12.013 425,14.699 425,18.013 C425,18.013 427,33.187 427,48.013 C427,62.172 425,76.013 425,76.013 C425,79.327 422.314,82.013 419,82.013 C419,82.013 313.639,87.013 210,87.013 C199.774,87.013 180.445,86.593 164.433,85.611 C156.731,85.139 149.797,83.768 145.011,83.705 C128.363,83.487 132.188,86.167 116.969,85.795 C56.429,84.315 11,82.013 11,82.013 C7.68600000000001,82.013 5,79.327 5,76.013 C5,76.013 2,63.134 2,49.513 C2,34.23 5,18.013 5,18.013 C5,14.699 7.68600000000001,12.013 11,12.013 Z "/><path fill="url(#PSgrad_1)" d="M11,12.013 C11,12.013 110.351,17.013 211,17.013 C314.316,17.013 419,12.013 419,12.013 C422.314,12.013 425,14.699 425,18.013 C425,18.013 427,33.187 427,48.013 C427,62.172 425,76.013 425,76.013 C425,79.327 422.314,82.013 419,82.013 C419,82.013 313.639,87.013 210,87.013 C199.774,87.013 180.445,86.593 164.433,85.611 C156.731,85.139 149.797,83.768 145.011,83.705 C128.363,83.487 132.188,86.167 116.969,85.795 C56.429,84.315 11,82.013 11,82.013 C7.68600000000001,82.013 5,79.327 5,76.013 C5,76.013 2,63.134 2,49.513 C2,34.23 5,18.013 5,18.013 C5,14.699 7.68600000000001,12.013 11,12.013 Z "/><path fill="rgb( 97, 64, 125 )" d="M5.60599999999999,15.399 C6.578,13.397 8.625,12.013 11,12.013 C11,12.013 66.382,14.8 136.335,16.212 C79.896,15.894 16.914,15.475 5.60599999999999,15.399 ZM423.498,29.2 C423.498,29.2 423.955,31.757 390.307,32.07 C383.427,32.135 353.869,29.899 346.076,29.966 C292.778,30.428 220.079,30.927 154.765,30.932 C118.384,30.934 82.589,36.539 55.421,36.142 C30.579,35.779 12.702,31.269 3.37200000000001,29.067 C3.51900000000001,27.853 3.66800000000001,26.708 3.81299999999999,25.649 C13.85,25.082 31.943,24.815 55.522,24.767 C146.742,24.582 319.77,27.662 423.498,29.2 ZM5.232,65.917 C5.232,65.917 4.77500000000001,63.376 38.444,63.064 C45.328,63 74.904,65.222 82.702,65.155 C136.031,64.697 208.774,64.2 274.128,64.196 C310.531,64.193 346.348,58.623 373.533,59.017 C398.829,59.384 416.916,64.022 426.108,66.165 C426.002,67.328 425.895,68.415 425.791,69.413 C415.879,70 397.502,70.274 373.432,70.323 C282.156,70.507 109.023,67.446 5.232,65.917 ZM126.605,52.907 C82.174,52.233 39.847,53.841 5.232,53.331 C5.232,53.331 3.65000000000001,52.89 2.041,52.282 C2.01499999999999,51.365 2,50.441 2,49.513 C2,49.338 2.001,49.163 2.00200000000001,48.987 C3.22800000000001,48.86 4.83799999999999,48.776 6.93899999999999,48.755 C21.125,48.611 66.166,50.42 88.007,50.236 C200.484,49.287 391.665,48.252 426.955,51.767 C426.934,52.675 426.906,53.577 426.873,54.469 C393.861,56.65 251.882,54.806 126.605,52.907 ZM340.773,44.976 C228.481,45.93 37.699,46.971 2.14400000000001,43.447 C2.185,42.527 2.23500000000001,41.612 2.291,40.706 C35.603,38.53 177.216,40.382 302.199,42.289 C346.603,42.967 388.904,41.349 423.498,41.862 C423.498,41.862 425.242,42.352 426.929,43.012 C426.958,44.071 426.979,45.137 426.99,46.204 C425.736,46.349 424.044,46.444 421.792,46.467 C407.614,46.611 362.601,44.791 340.773,44.976 ZM141.916,56.189 C198.427,56.742 259.899,58.772 303.999,59.582 C303.999,59.582 174.217,61.64 83.133,61.304 C62.296,61.228 43.484,59.881 28.715,59.501 C17.158,59.203 8.09200000000001,59.405 2.45099999999999,59.192 C2.387,58.47 2.328,57.738 2.27500000000001,56.994 C10.091,56.77 23.796,56.833 41.462,56.796 C68.183,56.742 103.928,55.818 141.916,56.189 ZM286.897,38.987 C230.42,38.431 168.986,36.388 124.912,35.573 C124.912,35.573 254.615,33.503 345.645,33.841 C366.469,33.918 385.269,35.272 400.03,35.655 C411.813,35.961 421.017,35.742 426.627,35.978 C426.668,36.698 426.707,37.429 426.744,38.169 C418.985,38.405 405.167,38.339 387.29,38.376 C360.586,38.431 324.861,39.36 286.897,38.987 ZM198.988,78.496 C209.715,78.22 405.174,79.513 423.774,79.637 C422.678,81.078 420.95,82.013 419,82.013 C419,82.013 399.633,82.932 369.353,83.981 C301.314,84.141 199.79,81.975 193.022,81.935 C183.018,81.876 98.674,81.079 198.988,78.496 ZM107.663,80.791 C60.888,85.313 35.961,79.647 35.961,79.647 C76.396,77.061 107.663,80.791 107.663,80.791 ZM4.61699999999999,74.215 C16.699,72.776 42.294,71.636 78.642,71.715 C94.175,71.749 111.29,74.131 129.473,74.269 C148.995,74.418 169.748,72.33 191.093,72.564 C271.518,73.445 360.355,74.799 423.506,75.636 C423.506,75.636 305.041,74.702 192.882,75.034 C172.005,75.096 151.347,77.411 131.712,77.386 C109.278,77.358 88.18,74.976 69.618,74.792 C39.169,74.492 18.036,78.126 5.27000000000001,77.798 C5.095,77.234 5,76.635 5,76.013 C5,76.013 4.84999999999999,75.366 4.61699999999999,74.215 ZM331.604,15.176 C350.109,14.659 366.691,14.101 380.305,13.6 C388.548,14.419 392.787,15.387 392.787,15.387 C366.471,17.081 344.049,16.08 331.604,15.176 ZM425.322,20.7 C413.801,22.218 387.714,23.449 350.133,23.367 C334.609,23.333 317.504,20.936 299.333,20.797 C279.822,20.647 259.082,22.748 237.75,22.512 C157.374,21.626 68.59,20.264 5.47800000000001,19.422 C5.47800000000001,19.422 123.871,20.361 235.963,20.027 C256.826,19.965 277.472,17.636 297.095,17.661 C319.515,17.689 340.6,20.086 359.151,20.27 C390.801,20.585 412.381,16.617 424.955,17.305 C424.982,17.538 425,17.773 425,18.013 C425,18.013 425.129,18.995 425.322,20.7 Z "/><path fill="url(#PSgrad_2)" d="M5.60599999999999,15.399 C6.578,13.397 8.625,12.013 11,12.013 C11,12.013 66.382,14.8 136.335,16.212 C79.896,15.894 16.914,15.475 5.60599999999999,15.399 ZM423.498,29.2 C423.498,29.2 423.955,31.757 390.307,32.07 C383.427,32.135 353.869,29.899 346.076,29.966 C292.778,30.428 220.079,30.927 154.765,30.932 C118.384,30.934 82.589,36.539 55.421,36.142 C30.579,35.779 12.702,31.269 3.37200000000001,29.067 C3.51900000000001,27.853 3.66800000000001,26.708 3.81299999999999,25.649 C13.85,25.082 31.943,24.815 55.522,24.767 C146.742,24.582 319.77,27.662 423.498,29.2 ZM5.232,65.917 C5.232,65.917 4.77500000000001,63.376 38.444,63.064 C45.328,63 74.904,65.222 82.702,65.155 C136.031,64.697 208.774,64.2 274.128,64.196 C310.531,64.193 346.348,58.623 373.533,59.017 C398.829,59.384 416.916,64.022 426.108,66.165 C426.002,67.328 425.895,68.415 425.791,69.413 C415.879,70 397.502,70.274 373.432,70.323 C282.156,70.507 109.023,67.446 5.232,65.917 ZM126.605,52.907 C82.174,52.233 39.847,53.841 5.232,53.331 C5.232,53.331 3.65000000000001,52.89 2.041,52.282 C2.01499999999999,51.365 2,50.441 2,49.513 C2,49.338 2.001,49.163 2.00200000000001,48.987 C3.22800000000001,48.86 4.83799999999999,48.776 6.93899999999999,48.755 C21.125,48.611 66.166,50.42 88.007,50.236 C200.484,49.287 391.665,48.252 426.955,51.767 C426.934,52.675 426.906,53.577 426.873,54.469 C393.861,56.65 251.882,54.806 126.605,52.907 ZM340.773,44.976 C228.481,45.93 37.699,46.971 2.14400000000001,43.447 C2.185,42.527 2.23500000000001,41.612 2.291,40.706 C35.603,38.53 177.216,40.382 302.199,42.289 C346.603,42.967 388.904,41.349 423.498,41.862 C423.498,41.862 425.242,42.352 426.929,43.012 C426.958,44.071 426.979,45.137 426.99,46.204 C425.736,46.349 424.044,46.444 421.792,46.467 C407.614,46.611 362.601,44.791 340.773,44.976 ZM141.916,56.189 C198.427,56.742 259.899,58.772 303.999,59.582 C303.999,59.582 174.217,61.64 83.133,61.304 C62.296,61.228 43.484,59.881 28.715,59.501 C17.158,59.203 8.09200000000001,59.405 2.45099999999999,59.192 C2.387,58.47 2.328,57.738 2.27500000000001,56.994 C10.091,56.77 23.796,56.833 41.462,56.796 C68.183,56.742 103.928,55.818 141.916,56.189 ZM286.897,38.987 C230.42,38.431 168.986,36.388 124.912,35.573 C124.912,35.573 254.615,33.503 345.645,33.841 C366.469,33.918 385.269,35.272 400.03,35.655 C411.813,35.961 421.017,35.742 426.627,35.978 C426.668,36.698 426.707,37.429 426.744,38.169 C418.985,38.405 405.167,38.339 387.29,38.376 C360.586,38.431 324.861,39.36 286.897,38.987 ZM198.988,78.496 C209.715,78.22 405.174,79.513 423.774,79.637 C422.678,81.078 420.95,82.013 419,82.013 C419,82.013 399.633,82.932 369.353,83.981 C301.314,84.141 199.79,81.975 193.022,81.935 C183.018,81.876 98.674,81.079 198.988,78.496 ZM107.663,80.791 C60.888,85.313 35.961,79.647 35.961,79.647 C76.396,77.061 107.663,80.791 107.663,80.791 ZM4.61699999999999,74.215 C16.699,72.776 42.294,71.636 78.642,71.715 C94.175,71.749 111.29,74.131 129.473,74.269 C148.995,74.418 169.748,72.33 191.093,72.564 C271.518,73.445 360.355,74.799 423.506,75.636 C423.506,75.636 305.041,74.702 192.882,75.034 C172.005,75.096 151.347,77.411 131.712,77.386 C109.278,77.358 88.18,74.976 69.618,74.792 C39.169,74.492 18.036,78.126 5.27000000000001,77.798 C5.095,77.234 5,76.635 5,76.013 C5,76.013 4.84999999999999,75.366 4.61699999999999,74.215 ZM331.604,15.176 C350.109,14.659 366.691,14.101 380.305,13.6 C388.548,14.419 392.787,15.387 392.787,15.387 C366.471,17.081 344.049,16.08 331.604,15.176 ZM425.322,20.7 C413.801,22.218 387.714,23.449 350.133,23.367 C334.609,23.333 317.504,20.936 299.333,20.797 C279.822,20.647 259.082,22.748 237.75,22.512 C157.374,21.626 68.59,20.264 5.47800000000001,19.422 C5.47800000000001,19.422 123.871,20.361 235.963,20.027 C256.826,19.965 277.472,17.636 297.095,17.661 C319.515,17.689 340.6,20.086 359.151,20.27 C390.801,20.585 412.381,16.617 424.955,17.305 C424.982,17.538 425,17.773 425,18.013 C425,18.013 425.129,18.995 425.322,20.7 Z "/><path fill="rgb( 133, 100, 161 )" d="M22.969,22.013 C22.969,25.326 20.282,28.013 16.969,28.013 C13.655,28.013 10.969,25.326 10.969,22.013 C10.969,18.7 13.655,16.013 16.969,16.013 C20.282,16.013 22.969,18.7 22.969,22.013 Z "/><path fill="rgb( 19, 21, 35 )" d="M21,22.013 C21,24.222 19.209,26.013 17,26.013 C14.791,26.013 13,24.222 13,22.013 C13,19.804 14.791,18.013 17,18.013 C19.209,18.013 21,19.804 21,22.013 Z "/><path fill="rgb( 133, 100, 161 )" d="M420.969,22.013 C420.969,25.326 418.282,28.013 414.969,28.013 C411.655,28.013 408.969,25.326 408.969,22.013 C408.969,18.7 411.655,16.013 414.969,16.013 C418.282,16.013 420.969,18.7 420.969,22.013 Z "/><path fill="rgb( 19, 21, 35 )" d="M419,22.013 C419,24.222 417.209,26.013 415,26.013 C412.791,26.013 411,24.222 411,22.013 C411,19.804 412.791,18.013 415,18.013 C417.209,18.013 419,19.804 419,22.013 Z "/><path fill="rgb( 235, 235, 235 )" d="M13.002,0.15600000000001 C13.002,0.15600000000001 16.498,0 16.498,0 C16.498,0 19.998,20.85 19.998,20.85 C19.998,20.85 19.115,21.974 18.237,22.014 C17.367,22.052 16.502,21.006 16.502,21.006 C16.502,21.006 13.002,0.15600000000001 13.002,0.15600000000001 Z "/><path fill="url(#PSgrad_3)" d="M13.002,0.15600000000001 C13.002,0.15600000000001 16.498,0 16.498,0 C16.498,0 19.998,20.85 19.998,20.85 C19.998,20.85 19.115,21.974 18.237,22.014 C17.367,22.052 16.502,21.006 16.502,21.006 C16.502,21.006 13.002,0.15600000000001 13.002,0.15600000000001 Z "/><path fill="rgb( 176, 157, 139 )" d="M16.314,19.886 C16.314,19.886 15.988,17.943 15.988,17.943 C15.988,17.943 19.147,15.78 19.147,15.78 C19.147,15.78 19.473,17.723 19.473,17.723 C19.473,17.723 16.314,19.886 16.314,19.886 ZM15.789,16.755 C15.789,16.755 15.461,14.806 15.461,14.806 C15.461,14.806 18.62,12.643 18.62,12.643 C18.62,12.643 18.947,14.593 18.947,14.593 C18.947,14.593 15.789,16.755 15.789,16.755 ZM15.262,13.615 C15.262,13.615 14.935,11.671 14.935,11.671 C14.935,11.671 18.094,9.509 18.094,9.509 C18.094,9.509 18.42,11.453 18.42,11.453 C18.42,11.453 15.262,13.615 15.262,13.615 ZM14.735,10.479 C14.735,10.479 14.408,8.533 14.408,8.533 C14.408,8.533 17.567,6.37 17.567,6.37 C17.567,6.37 17.894,8.31700000000001 17.894,8.31700000000001 C17.894,8.31700000000001 14.735,10.479 14.735,10.479 ZM14.208,7.342 C14.208,7.342 13.882,5.39500000000001 13.882,5.39500000000001 C13.882,5.39500000000001 17.041,3.233 17.041,3.233 C17.041,3.233 17.367,5.179 17.367,5.179 C17.367,5.179 14.208,7.342 14.208,7.342 ZM13.682,4.20700000000001 C13.682,4.20700000000001 13.355,2.259 13.355,2.259 C13.355,2.259 16.514,0.096 16.514,0.096 C16.514,0.096 16.841,2.045 16.841,2.045 C16.841,2.045 13.682,4.20700000000001 13.682,4.20700000000001 ZM13.155,1.069 C13.155,1.069 13.002,0.15600000000001 13.002,0.15600000000001 C13.002,0.15600000000001 14.592,0.08500000000001 14.592,0.08500000000001 C14.592,0.08500000000001 13.155,1.069 13.155,1.069 ZM16.548,21.058 C16.548,21.058 19.674,18.918 19.674,18.918 C19.674,18.918 19.998,20.85 19.998,20.85 C19.998,20.85 19.983,20.868 19.969,20.885 C19.969,20.885 18.352,21.992 18.352,21.992 C18.313,21.998 18.275,22.012 18.237,22.014 C17.482,22.047 16.733,21.266 16.548,21.058 Z "/><path fill="url(#PSgrad_4)" d="M16.314,19.886 C16.314,19.886 15.988,17.943 15.988,17.943 C15.988,17.943 19.147,15.78 19.147,15.78 C19.147,15.78 19.473,17.723 19.473,17.723 C19.473,17.723 16.314,19.886 16.314,19.886 ZM15.789,16.755 C15.789,16.755 15.461,14.806 15.461,14.806 C15.461,14.806 18.62,12.643 18.62,12.643 C18.62,12.643 18.947,14.593 18.947,14.593 C18.947,14.593 15.789,16.755 15.789,16.755 ZM15.262,13.615 C15.262,13.615 14.935,11.671 14.935,11.671 C14.935,11.671 18.094,9.509 18.094,9.509 C18.094,9.509 18.42,11.453 18.42,11.453 C18.42,11.453 15.262,13.615 15.262,13.615 ZM14.735,10.479 C14.735,10.479 14.408,8.533 14.408,8.533 C14.408,8.533 17.567,6.37 17.567,6.37 C17.567,6.37 17.894,8.31700000000001 17.894,8.31700000000001 C17.894,8.31700000000001 14.735,10.479 14.735,10.479 ZM14.208,7.342 C14.208,7.342 13.882,5.39500000000001 13.882,5.39500000000001 C13.882,5.39500000000001 17.041,3.233 17.041,3.233 C17.041,3.233 17.367,5.179 17.367,5.179 C17.367,5.179 14.208,7.342 14.208,7.342 ZM13.682,4.20700000000001 C13.682,4.20700000000001 13.355,2.259 13.355,2.259 C13.355,2.259 16.514,0.096 16.514,0.096 C16.514,0.096 16.841,2.045 16.841,2.045 C16.841,2.045 13.682,4.20700000000001 13.682,4.20700000000001 ZM13.155,1.069 C13.155,1.069 13.002,0.15600000000001 13.002,0.15600000000001 C13.002,0.15600000000001 14.592,0.08500000000001 14.592,0.08500000000001 C14.592,0.08500000000001 13.155,1.069 13.155,1.069 ZM16.548,21.058 C16.548,21.058 19.674,18.918 19.674,18.918 C19.674,18.918 19.998,20.85 19.998,20.85 C19.998,20.85 19.983,20.868 19.969,20.885 C19.969,20.885 18.352,21.992 18.352,21.992 C18.313,21.998 18.275,22.012 18.237,22.014 C17.482,22.047 16.733,21.266 16.548,21.058 Z "/><path fill="rgb( 235, 235, 235 )" d="M418.998,2.15600000000001 C418.998,2.15600000000001 415.502,2 415.502,2 C415.502,2 412.002,20.85 412.002,20.85 C412.002,20.85 412.885,21.974 413.763,22.014 C414.633,22.052 415.498,21.006 415.498,21.006 C415.498,21.006 418.998,2.15600000000001 418.998,2.15600000000001 Z "/><path fill="url(#PSgrad_5)" d="M418.998,2.15600000000001 C418.998,2.15600000000001 415.502,2 415.502,2 C415.502,2 412.002,20.85 412.002,20.85 C412.002,20.85 412.885,21.974 413.763,22.014 C414.633,22.052 415.498,21.006 415.498,21.006 C415.498,21.006 418.998,2.15600000000001 418.998,2.15600000000001 Z "/><path fill="rgb( 176, 157, 139 )" d="M418.365,5.56400000000001 C418.365,5.56400000000001 418.008,7.49000000000001 418.008,7.49000000000001 C418.008,7.49000000000001 414.88,5.349 414.88,5.349 C414.88,5.349 415.238,3.42400000000001 415.238,3.42400000000001 C415.238,3.42400000000001 418.365,5.56400000000001 418.365,5.56400000000001 ZM417.789,8.66800000000001 C417.789,8.66800000000001 417.431,10.593 417.431,10.593 C417.431,10.593 414.304,8.452 414.304,8.452 C414.304,8.452 414.662,6.527 414.662,6.527 C414.662,6.527 417.789,8.66800000000001 417.789,8.66800000000001 ZM417.212,11.772 C417.212,11.772 416.855,13.695 416.855,13.695 C416.855,13.695 413.728,11.554 413.728,11.554 C413.728,11.554 414.085,9.631 414.085,9.631 C414.085,9.631 417.212,11.772 417.212,11.772 ZM416.637,14.873 C416.637,14.873 416.279,16.801 416.279,16.801 C416.279,16.801 413.151,14.661 413.151,14.661 C413.151,14.661 413.51,12.732 413.51,12.732 C413.51,12.732 416.637,14.873 416.637,14.873 ZM416.06,17.976 C416.06,17.976 415.704,19.898 415.704,19.898 C415.704,19.898 412.576,17.757 412.576,17.757 C412.576,17.757 412.933,15.835 412.933,15.835 C412.933,15.835 416.06,17.976 416.06,17.976 ZM413.763,22.014 C413.725,22.012 413.687,21.998 413.648,21.992 C413.648,21.992 412.031,20.885 412.031,20.885 C412.017,20.868 412.002,20.85 412.002,20.85 C412.002,20.85 412.357,18.939 412.357,18.939 C412.357,18.939 415.453,21.058 415.453,21.058 C415.267,21.266 414.518,22.047 413.763,22.014 ZM418.583,4.38900000000001 C418.583,4.38900000000001 415.456,2.24900000000001 415.456,2.24900000000001 C415.456,2.24900000000001 415.502,2 415.502,2 C415.502,2 418.46,2.13200000000001 418.46,2.13200000000001 C418.46,2.13200000000001 418.941,2.461 418.941,2.461 C418.941,2.461 418.583,4.38900000000001 418.583,4.38900000000001 Z "/><path fill="url(#PSgrad_6)" d="M418.365,5.56400000000001 C418.365,5.56400000000001 418.008,7.49000000000001 418.008,7.49000000000001 C418.008,7.49000000000001 414.88,5.349 414.88,5.349 C414.88,5.349 415.238,3.42400000000001 415.238,3.42400000000001 C415.238,3.42400000000001 418.365,5.56400000000001 418.365,5.56400000000001 ZM417.789,8.66800000000001 C417.789,8.66800000000001 417.431,10.593 417.431,10.593 C417.431,10.593 414.304,8.452 414.304,8.452 C414.304,8.452 414.662,6.527 414.662,6.527 C414.662,6.527 417.789,8.66800000000001 417.789,8.66800000000001 ZM417.212,11.772 C417.212,11.772 416.855,13.695 416.855,13.695 C416.855,13.695 413.728,11.554 413.728,11.554 C413.728,11.554 414.085,9.631 414.085,9.631 C414.085,9.631 417.212,11.772 417.212,11.772 ZM416.637,14.873 C416.637,14.873 416.279,16.801 416.279,16.801 C416.279,16.801 413.151,14.661 413.151,14.661 C413.151,14.661 413.51,12.732 413.51,12.732 C413.51,12.732 416.637,14.873 416.637,14.873 ZM416.06,17.976 C416.06,17.976 415.704,19.898 415.704,19.898 C415.704,19.898 412.576,17.757 412.576,17.757 C412.576,17.757 412.933,15.835 412.933,15.835 C412.933,15.835 416.06,17.976 416.06,17.976 ZM413.763,22.014 C413.725,22.012 413.687,21.998 413.648,21.992 C413.648,21.992 412.031,20.885 412.031,20.885 C412.017,20.868 412.002,20.85 412.002,20.85 C412.002,20.85 412.357,18.939 412.357,18.939 C412.357,18.939 415.453,21.058 415.453,21.058 C415.267,21.266 414.518,22.047 413.763,22.014 ZM418.583,4.38900000000001 C418.583,4.38900000000001 415.456,2.24900000000001 415.456,2.24900000000001 C415.456,2.24900000000001 415.502,2 415.502,2 C415.502,2 418.46,2.13200000000001 418.46,2.13200000000001 C418.46,2.13200000000001 418.941,2.461 418.941,2.461 C418.941,2.461 418.583,4.38900000000001 418.583,4.38900000000001 Z "/><path fill="rgb( 131, 95, 162 )" d="M426.805,39.509 C426.925,42.283 427,45.154 427,48.013 C427,62.172 425,76.013 425,76.013 C425,79.327 422.314,82.013 419,82.013 C419,82.013 404.992,82.677 382.182,83.522 C395.056,82.718 418.729,81.102 420,80.013 C421.667,78.584 425.377,74.885 426.805,39.509 ZM368,77.013 C368,77.013 370,80.013 370,80.013 C370,80.013 372,78.013 372,78.013 C372,78.013 373.936,83.821 373.936,83.821 C333.599,85.253 271.497,87.013 210,87.013 C199.774,87.013 180.445,86.593 164.433,85.611 C156.731,85.139 149.797,83.768 145.011,83.705 C128.363,83.487 132.188,86.167 116.969,85.795 C56.429,84.315 11,82.013 11,82.013 C7.68600000000001,82.013 5,79.327 5,76.013 C5,76.013 2,63.134 2,49.513 C2,41.927 2.739,34.112 3.48400000000001,28.164 C3.65299999999999,28.106 3.82300000000001,28.052 4,28.013 C4,28.013 1.25,76.013 10,79.013 C18.75,82.013 53.75,84.013 55,83.013 C55,83.013 58.75,77.513 59,76.013 C59,76.013 62,81.013 62,81.013 C62,81.013 66,79.013 66,79.013 C66,79.013 67,83.013 67,83.013 C67,83.013 122.25,85.763 126,85.013 C129.75,84.263 144.5,80.013 163,85.013 C163,85.013 346.25,85.513 366,83.013 C366,83.013 368,77.013 368,77.013 Z "/><path fill="rgb( 65, 36, 90 )" d="M59.125,79.013 C59.125,79.013 55,86.013 55,86.013 C55,86.013 68,87.013 68,87.013 C68,87.013 64.625,81.013 64.625,81.013 C64.625,81.013 61.875,83.013 61.875,83.013 C61.875,83.013 59.125,79.013 59.125,79.013 Z "/><path fill="rgb( 67, 36, 92 )" d="M367.978,78.537 C367.978,78.537 366.413,85.781 366.413,85.781 C366.413,85.781 374.15,85.841 374.15,85.841 C374.15,85.841 371.444,80.127 371.444,80.127 C371.444,80.127 370.076,82.31 370.076,82.31 C370.076,82.31 367.978,78.537 367.978,78.537 Z "/></svg>