<?xml version="1.0" encoding="UTF-8" standalone="no"?>
<svg width="578px" height="14px" viewBox="0 0 578 14" version="1.1" xmlns="http://www.w3.org/2000/svg" xmlns:xlink="http://www.w3.org/1999/xlink" xmlns:sketch="http://www.bohemiancoding.com/sketch/ns">
    <title>Slice 1</title>
    <description>Created with Sketch (http://www.bohemiancoding.com/sketch)</description>
    <defs></defs>
    <g id="Page-1" stroke="none" stroke-width="1" fill="none" fill-rule="evenodd" sketch:type="MSPage">
        <g id="blogunderline" sketch:type="MSLayerGroup">
            <g id="Page-1" sketch:type="MSShapeGroup">
                <g id="underlinegrey" transform="translate(289.000000, 7.000000) scale(-1, 1) translate(-289.000000, -7.000000) ">
                    <path d="M519.546,0 C498.533,0 472.661,6 443.796,6 C422.161,6 398.844,0 374.632,0 C350.055,0 324.554,6 298.953,6 C273.369,6 247.684,1 222.718,1 C181.39,1 142.032,8 108.366,8 C46.245,8 2.5,1 2.5,1 C1.119,1 0,2.119 0,3.5 L0,4.5 C0,5.881 1.119,7 2.5,7 C2.5,7 46.137,14 108.129,14 C141.793,14 181.163,7 222.513,7 C247.541,7 273.294,12 298.946,12 C324.535,12 350.023,6 374.589,6 C398.772,6 422.063,12 443.677,12 C472.707,12 498.713,6 519.801,6 C554.192,6 575.5,11 575.5,11 C576.881,11 578,9.881 578,8.5 L578,7.5 C578,6.119 576.881,5 575.5,5 C575.5,5 565.25735,2.60831027 547.512959,1.13321075 C539.601071,0.475491737 530.197761,0 519.546,0 Z" id="Shape" fill="#EEAC92"></path>
                    <path d="M558.845,8.285 L559.36,2.36 C569.726,3.655 575.5,5 575.5,5 C576.881,5 578,6.119 578,7.5 L578,8.5 C578,9.881 576.881,11 575.5,11 C575.5,11 569.541,9.603 558.845,8.285 L558.845,8.285 Z M523.092,6.016 L522.547,0.013 C530.949,0.084 538.522,0.446 545.141,0.946 L544.35,6.878 C538.064,6.42 530.949,6.089 523.092,6.016 L523.092,6.016 L523.092,6.016 Z M476.629,3.914 C485.091,2.986 493.166,1.93 500.787,1.149 L502.255,7.021 C494.366,7.798 485.981,8.895 477.169,9.862 L476.629,3.914 L476.629,3.914 Z M429.465,11.282 L430.208,5.338 C434.804,5.743 439.336,6 443.796,6 C446.346,6 448.871,5.951 451.373,5.866 L452.564,11.819 C449.635,11.933 446.673,12 443.677,12 C439.015,12 434.275,11.72 429.465,11.282 L429.465,11.282 L429.465,11.282 Z M23,9.589 C9.934,8.191 2.5,7 2.5,7 C1.119,7 0,5.881 0,4.5 L0,3.5 C0,2.119 1.119,1 2.5,1 C2.5,1 9.933,2.188 23,3.584 L23,9.589 L23,9.589 Z M96.649,7.916 C100.475,7.97 104.381,8 108.366,8 C112.394,8 116.505,7.898 120.69,7.721 L120.189,13.731 C116.096,13.901 112.072,14 108.129,14 C104.077,14 100.109,13.969 96.221,13.913 L96.649,7.916 L96.649,7.916 Z M389.418,0.657 C396.719,1.257 403.92,2.187 411,3.106 L411,9.117 C403.68,8.166 396.23,7.201 388.675,6.601 L389.418,0.657 L389.418,0.657 Z M349.832,7.548 L348.575,1.685 C355.759,0.906 362.89,0.273 369.951,0.07 L371.071,6.044 C364.056,6.198 356.97,6.79 349.832,7.548 L349.832,7.548 L349.832,7.548 Z M310.235,11.646 L309.385,5.695 C315.939,5.333 322.479,4.687 328.991,3.953 L330.164,9.818 C323.546,10.574 316.898,11.253 310.235,11.646 L310.235,11.646 L310.235,11.646 Z M291,11.849 C283.759,11.588 276.516,11.012 269.291,10.344 L269.664,4.371 C276.766,5.027 283.883,5.59 291,5.848 L291,11.849 L291,11.849 Z M225.602,7.028 L225.201,1.017 C232.416,1.109 239.689,1.59 247,2.22 L247,8.232 C239.825,7.614 232.686,7.139 225.602,7.028 L225.602,7.028 L225.602,7.028 Z M141.283,6.392 C147.654,5.874 154.163,5.276 160.787,4.672 L162.043,10.536 C155.157,11.164 148.395,11.789 141.778,12.332 L141.283,6.392 L141.283,6.392 Z M179.696,3.015 C186.926,2.428 194.266,1.912 201.694,1.548 L202.438,7.501 C195.22,7.841 188.084,8.328 181.051,8.887 L179.696,3.015 L179.696,3.015 Z M41.573,11.328 L42.838,5.423 C50.894,6.062 59.97,6.656 69.904,7.113 L68.63,13.059 C58.672,12.586 49.598,11.978 41.573,11.328 L41.573,11.328 Z" id="Shape" fill="#DA9174"></path>
                </g>
            </g>
        </g>
    </g>
</svg>