<?xml version="1.0" encoding="UTF-8" standalone="no"?>
<svg width="288px" height="208px" viewBox="0 0 288 208" version="1.1" xmlns="http://www.w3.org/2000/svg" xmlns:xlink="http://www.w3.org/1999/xlink" xmlns:sketch="http://www.bohemiancoding.com/sketch/ns">
    <title>Slice 1</title>
    <description>Created with Sketch (http://www.bohemiancoding.com/sketch)</description>
    <defs>
        <linearGradient x1="0%" y1="100%" x2="0%" y2="0%" id="linearGradient-1">
            <stop stop-color="#3BA066" offset="0%"></stop>
            <stop stop-color="#10A34F" offset="68%"></stop>
            <stop stop-color="#279154" offset="100%"></stop>
        </linearGradient>
        <linearGradient x1="0%" y1="0%" x2="0%" y2="100%" id="linearGradient-2">
            <stop stop-color="#9A4D2A" offset="0%"></stop>
            <stop stop-color="#C17F44" offset="100%"></stop>
        </linearGradient>
        <linearGradient x1="40.7590183%" y1="92.05%" x2="47.9804758%" y2="0%" id="linearGradient-3">
            <stop stop-color="#942323" offset="33%"></stop>
            <stop stop-color="#B63737" offset="100%"></stop>
        </linearGradient>
        <linearGradient x1="58.0895291%" y1="0%" x2="41.1357341%" y2="29.237%" id="linearGradient-4">
            <stop stop-color="#5C3218" offset="0%"></stop>
            <stop stop-color="#6D3C1E" offset="100%"></stop>
        </linearGradient>
        <linearGradient x1="100.999999%" y1="100%" x2="0.999999978%" y2="0%" id="linearGradient-5">
            <stop stop-color="#984629" offset="0%"></stop>
            <stop stop-color="#37160A" offset="99.0099013%"></stop>
            <stop stop-color="#6A572C" offset="100%"></stop>
        </linearGradient>
        <linearGradient x1="0%" y1="0%" x2="0%" y2="100%" id="linearGradient-6">
            <stop stop-color="#73552B" offset="0%"></stop>
            <stop stop-color="#D5B78D" offset="100%"></stop>
        </linearGradient>
        <linearGradient x1="0%" y1="0%" x2="0%" y2="100%" id="linearGradient-7">
            <stop stop-color="#76582E" offset="0%"></stop>
            <stop stop-color="#CAAC82" offset="100%"></stop>
        </linearGradient>
        <radialGradient cx="0%" cy="0%" fx="0%" fy="0%" r="0%" id="radialGradient-8" stop-opacity="0.5">
            <stop stop-color="#8FCD40" offset="0%"></stop>
            <stop stop-color="#3BA066" offset="100%"></stop>
        </radialGradient>
    </defs>
    <g id="Page-1" stroke="none" stroke-width="1" fill="none" fill-rule="evenodd" sketch:type="MSPage">
        <g id="catbird" sketch:type="MSLayerGroup">
            <path d="M239.112,30 C239.112,30 237.112,38 231.112,46 C227.881,50.308 242.112,53 247.112,48 C252.112,43 239.112,30 239.112,30 L239.112,30 Z" id="Shape" fill="#1D6F3F" sketch:type="MSShapeGroup"></path>
            <path d="M187.112,192 C187.112,192 216.112,189.333 228.112,191 C240.112,192.667 255.112,189 255.112,189 C255.112,189 300.779,182.333 284.112,192 C267.445,201.667 267.112,192.333 248.112,194 C229.112,195.667 193.445,197.333 207.112,200 C207.112,200 155.779,194 184.112,192" id="Shape" opacity="0.388" fill="#5F8F1D" sketch:type="MSShapeGroup"></path>
            <path d="M245.112,1 C245.112,1 281.112,-9 276.112,43 C271.112,95 265.112,94 265.112,94 C265.112,94 261.905,94.704 260.06,94.31 C258.369,93.948 260.143,92.505 257.819,92.132 C256.605,91.937 254.317,92.891 251.112,92 C249.975,91.684 249.823,89.843 248.622,89.549 C246.009,88.909 246.253,90.042 243.311,88.605 C241.797,87.866 244.09,87.663 242.555,87.243 C239.716,86.467 238.121,86.745 236.176,86.18 C233.708,85.463 234.112,85 234.112,85 C234.112,85 258.112,74 258.112,59 C258.112,59 254.006,59.008 249.423,59.25 C243.475,59.564 236.723,56.9 237.112,43 C237.652,23.699 238.112,27 238.112,27 C238.112,27 230.112,24 220.112,36 C220.112,36 205.862,10.5 245.112,1 L245.112,1 Z" id="Shape" fill="#3BA066" sketch:type="MSShapeGroup"></path>
            <path d="M245.112,1 C245.112,1 281.112,-9 276.112,43 C271.112,95 265.112,94 265.112,94 C265.112,94 261.905,94.704 260.06,94.31 C258.369,93.948 260.143,92.505 257.819,92.132 C256.605,91.937 254.317,92.891 251.112,92 C249.975,91.684 249.823,89.843 248.622,89.549 C246.009,88.909 246.253,90.042 243.311,88.605 C241.797,87.866 244.09,87.663 242.555,87.243 C239.716,86.467 238.121,86.745 236.176,86.18 C233.708,85.463 234.112,85 234.112,85 C234.112,85 258.112,74 258.112,59 C258.112,59 254.006,59.008 249.423,59.25 C243.475,59.564 236.723,56.9 237.112,43 C237.652,23.699 238.112,27 238.112,27 C238.112,27 230.112,24 220.112,36 C220.112,36 205.862,10.5 245.112,1 L245.112,1 Z" id="Shape" fill="url(#linearGradient-1)" sketch:type="MSShapeGroup"></path>
            <path d="M240.036,37.151 C240.036,37.151 236.313,51.835 244.917,53.897 C248.591,54.778 251.771,50.843 252.097,45.646 C252.278,42.761 252.355,39.135 250.502,38.415 C249.34,37.964 249.257,41.697 247.58,40.909 C246.569,40.434 246.046,35.923 245.488,35.991 C243.821,36.195 243.851,39.481 242.354,39.826 C241.18,40.095 240.888,35.136 240.036,37.151 L240.036,37.151 Z" id="Shape" fill="#1BB55C" sketch:type="MSShapeGroup"></path>
            <path d="M266.112,38 C266.112,38 257.445,46.167 262.112,53 C266.779,59.833 258.779,48.333 266.112,38 L266.112,38 Z" id="Shape" fill="#19B059" sketch:type="MSShapeGroup"></path>
            <path d="M248.112,2 C248.112,2 257.112,-1.833 266.112,6 C266.112,6 250.779,3 249.112,5 C247.445,7 247.612,2.667 248.112,2 L248.112,2 Z" id="Shape" fill="#19B059" sketch:type="MSShapeGroup"></path>
            <path d="M243.112,22 C243.112,22 242.759,24.069 241.445,25.783 C240.43,27.107 237.439,28.218 237.112,28 C236.362,27.5 231.612,25.5 220.112,35 C220.112,35 230.362,18.25 243.112,22 L243.112,22 Z" id="Shape" fill="#B49B12" sketch:type="MSShapeGroup"></path>
            <path d="M243.043,82.772 C243.043,82.772 249.935,78.876 254.215,72.704 C258.021,67.214 260.379,63.113 260.379,63.113 C260.379,63.113 261.882,65.344 259.217,71.248 C257.698,74.615 253.473,79.851 250.233,84.855 C250.233,84.855 259.29,76.679 263.841,64.693 C263.841,64.693 265.243,67.096 262.96,73.949 C262.038,76.717 259.841,81.048 258.298,84.945 C258.298,84.945 260.716,82.644 262.676,79.034 C265.434,73.955 266.588,68.122 267.048,66.165 C267.048,66.165 268.745,71.124 268.188,75.809 C267.617,80.618 265.779,85.191 264.73,88.029 C264.73,88.029 262.391,89.978 259.693,89.292 C257.225,88.665 258.154,85.408 257.566,86.327 C256.898,87.369 254.044,88.895 252.456,88.521 C250.033,87.95 250.368,85.321 249.242,85.791 C247.929,86.34 244.684,85.904 243.742,85.298 C242.712,84.636 243.043,82.772 243.043,82.772 L243.043,82.772 Z" id="Shape" opacity="0.42" fill="#1C7B45" sketch:type="MSShapeGroup"></path>
            <path d="M257.748,14.103 C257.748,14.103 251.664,25.337 263.475,26.924 C275.287,28.512 266.103,-0.795 257.748,14.103 L257.748,14.103 Z" id="Shape" fill="#FFFFFF" sketch:type="MSShapeGroup"></path>
            <path d="M256.854,16.257 C257.279,14.971 257.748,14.103 257.748,14.103 C263.188,4.402 268.978,13.443 269.096,20.493 C265.901,18.35 261.655,16.827 256.854,16.257 L256.854,16.257 Z" id="Shape" fill="#867104" sketch:type="MSShapeGroup"></path>
            <path d="M256.854,15.257 C257.279,13.971 257.748,13.103 257.748,13.103 C263.188,3.402 268.978,12.443 269.096,19.493 C265.901,17.35 261.655,15.827 256.854,15.257 L256.854,15.257 Z" id="Shape" fill="#E6C410" sketch:type="MSShapeGroup"></path>
            <path d="M260.112,19 C261.217,19 262.112,20.343 262.112,22 C262.112,23.657 261.217,25 260.112,25 C259.007,25 258.112,23.657 258.112,22 C258.112,20.343 259.007,19 260.112,19 L260.112,19 Z" id="Shape" fill="#3F3A22" sketch:type="MSShapeGroup"></path>
            <path d="M270.761,57.499 C265.801,57.263 253.399,57.849 258.732,45.924 C261.456,39.834 263.062,36.836 263.986,35.35 C263.719,36.661 263.159,38.47 262.112,41 C260.455,45.005 259.026,49.894 259.694,51.918 C259.98,52.783 262.567,55.505 263.382,55.344 C263.791,55.263 264.259,51.212 264.774,51.351 C265.565,51.564 265.47,55.131 266.455,55.687 C267.096,56.048 268.09,56.121 269.066,55.26 C269.815,54.599 268.552,50.977 269.112,51 C269.112,51 270.611,55.396 271.628,54.846 C272.192,54.543 272.787,52.368 272.701,48.711 C272.651,46.607 272.707,44.012 273.112,41 C273.208,40.289 273.278,39.629 273.335,38.996 C273.624,40.625 273.851,42.109 274.112,43 C275.284,47.001 275.721,57.735 270.761,57.499 L270.761,57.499 Z" id="Shape" fill="#1C7542" sketch:type="MSShapeGroup"></path>
            <path d="M242.112,22 C242.112,22 226.912,20.2 219.112,36 C219.112,36 226.112,24.2 241.112,23 L242.112,22 L242.112,22 Z" id="Shape" fill="#65570C" sketch:type="MSShapeGroup"></path>
            <path d="M247.112,1 C247.112,1 248.112,10.25 243.112,22 C243.112,22 226.112,21.75 219.112,37 C219.112,37 212.555,24.858 220.596,14.113 C222.46,11.623 225.047,9.104 228.801,7.037 C237.707,2.133 242.418,0.749 247.112,1 L247.112,1 Z" id="Shape" fill="#D0B62C" sketch:type="MSShapeGroup"></path>
            <path d="M244.112,3 C244.112,3 219.112,8.2 218.112,25 C218.112,25 225.712,7.4 245.112,8 C245.112,8 245.112,3.4 244.112,3 L244.112,3 Z" id="Shape" fill="#F1DB66" sketch:type="MSShapeGroup"></path>
            <path d="M265.206,10.247 C265.206,10.247 262.368,6.118 258.112,13 C258.112,13 261.233,8.871 265.206,11.624 C265.206,11.624 269.462,14.376 265.206,10.247 L265.206,10.247 Z" id="Shape" fill="#FFEF98" sketch:type="MSShapeGroup"></path>
            <path d="M165.112,197 C165.112,197 169.112,190.333 166.112,184 C166.112,184 171.226,196.635 172.112,186 C172.445,182 168.112,178 168.112,178 C168.112,178 173.445,181 177.112,187 C182.28,195.457 187.112,193 187.112,193 C187.112,193 191.112,183.333 197.112,182 C197.112,182 187.779,194 199.112,189 C199.112,189 194.779,194 201.112,195 C204.382,195.516 201.203,194.525 204.87,196.192 C208.536,197.859 185.479,195.225 187.112,194 C187.112,194 171.779,193.667 165.112,197 L165.112,197 Z" id="Shape" fill="#608628" sketch:type="MSShapeGroup"></path>
            <path d="M259.112,62 C248.592,60.92 246.23,61.213 238.655,65.113 C234.511,67.248 229.949,70.789 228.336,73.325 C224.98,78.604 225.736,83.86 224.884,85.376 C222.875,88.952 225.254,98.704 219.433,101.358 C213.612,104.013 208.77,108.634 208.77,108.634 L211.981,108.056 L211.356,110.313 C211.356,110.313 199.03,115.193 195.654,121.872 C193.684,125.768 190.82,130.598 189.757,136.563 C189.178,145.684 191.537,143.577 190.699,146.787 C189.833,150.104 193.267,147.853 196.881,145.074 C196.881,145.074 200.263,144.068 193.348,150.213 C191.311,152.023 188.325,158.329 188.282,161.572 C188.216,166.653 188.465,168.759 188.932,170.765 C189.562,173.468 193.491,168.331 194.232,168.196 C194.898,168.074 195.115,169.909 195.115,169.909 C195.115,169.909 190.544,175.047 189.709,179.123 C189.292,181.162 189.596,186.073 190.544,188.739 C191.474,191.354 191.156,191.381 193.348,192.514 C196.971,194.387 196.093,194.115 201.298,195.083 C208.881,196.495 209.914,198.404 209.004,199.365 C209.004,199.365 200.131,197.083 195.115,197.652 C190.25,198.205 193.112,202 193.112,202 C193.112,202 195.527,203.202 196.112,205 C196.112,205 191.467,203.145 191.112,204 C190.674,205.054 191.838,206.895 190.112,208 C189.086,208.657 187.443,202.54 186.297,201.099 C185.823,202.199 184.314,203.453 180.112,204 C180.112,204 183.217,201.868 183.869,199.07 C180.772,197.138 176.182,195.974 174.852,200.101 C174.702,200.565 174.364,200.969 173.9,201.324 C172.489,203.162 166.112,208 166.112,208 C166.112,206.9 167.019,204.895 167.836,203.311 C165.181,203.722 162.798,203.784 162.798,203.784 C162.798,203.784 154.271,205.51 158.417,203.583 C163.215,201.352 167.434,201.085 168.617,200.222 C174.583,195.867 169.79,197.107 164.473,197.648 C162.136,197.885 158.888,198.731 157.776,197.652 C157.776,197.652 161.027,196.523 163.673,195.931 C165.67,195.485 168.898,192.978 170.555,192.021 C174.774,189.582 175.915,188.925 174.8,181.446 C172.668,167.141 175.718,168.086 170.384,162.202 C170.384,162.202 166.335,155.802 172.15,160.489 C177.966,165.175 178.526,143.091 177.45,136.362 C176.373,129.633 170.87,121.224 164.616,118.384 C160.631,116.574 161.389,115.055 166.383,116.958 C169.248,118.05 164.838,112.398 165.266,109.82 C165.694,107.243 162.771,105.377 156.2,99.688 C156.2,99.688 154.249,92.541 168.565,94.549 C182.882,96.558 172.982,97.975 172.982,97.975 C172.982,97.975 172.333,111.665 176.515,109.107 C180.696,106.55 189.107,100.925 176.515,112.533 C173.421,115.384 178.989,119.407 183.845,124.345 C185.498,122.903 188.151,120.975 191.928,116.302 C198.144,108.612 210.391,101.912 210.391,101.912 C210.391,101.912 216.625,98.2 218.081,94.101 C218.971,91.593 218.684,87.563 218.684,87.563 L215.877,84.854 L210.706,81.498 L208.524,76.533 L206.161,75.886 L205.495,72.792 L209.372,75.309 L213.695,79.889 L211.917,71.637 L211.654,65.255 L216.52,56.879 C216.52,56.879 222.417,57.157 218.257,59.781 C214.097,62.404 214.683,68.996 214.683,68.996 L219.369,64.938 L219.813,67.001 L216.198,70.866 C214.265,77.375 219.936,83.052 219.936,83.052 C222.703,80.411 222.285,76.638 223.691,69.518 C226.263,56.494 216.112,47 216.112,47 C216.112,47 217.709,42.669 223.112,54 C227.312,62.807 224.079,50.525 224.464,48.57 C224.804,46.846 226.042,48.988 226.042,48.988 C228.037,50.504 227.347,69.004 227.347,69.004 C228.351,66.838 232.113,64.055 241.008,60.036 C245.085,58.194 256.881,58.081 260.112,60 L259.112,62 L259.112,62 Z" id="Shape" fill="#754F36" sketch:type="MSShapeGroup"></path>
            <path d="M207.113,112.295 C203.214,114.324 197.735,117.755 195.654,121.872 C193.684,125.768 190.82,130.598 189.757,136.563 C189.178,145.684 191.537,143.577 190.699,146.787 C190.085,149.139 191.636,148.686 193.876,147.237 C188.928,152.277 188.112,151 188.112,151 C188.112,151 187.895,149.999 188.112,138 C188.475,117.975 201.941,113.339 207.113,112.295 L207.113,112.295 Z M189.27,171.39 C188.642,173.728 188.354,175.229 186.112,169 C183.266,161.093 187.696,157.094 189.938,155.65 C188.998,157.774 188.303,160.022 188.282,161.572 C188.216,166.653 188.465,168.759 188.932,170.765 C189.004,171.072 189.123,171.267 189.27,171.39 L189.27,171.39 Z M211.981,108.056 L211.588,109.476 L210.445,108.333 L211.981,108.056 L211.981,108.056 Z M190.006,178.063 C189.886,178.421 189.78,178.777 189.709,179.123 C189.292,181.162 189.596,186.073 190.544,188.739 C191.474,191.354 191.156,191.381 193.348,192.514 C196.971,194.387 196.093,194.115 201.298,195.083 C208.881,196.495 209.914,198.404 209.004,199.365 C209.004,199.365 200.131,197.083 195.115,197.652 C190.25,198.205 193.112,202 193.112,202 C193.112,202 195.527,203.202 196.112,205 C196.112,205 191.467,203.145 191.112,204 C190.674,205.054 191.838,206.895 190.112,208 C189.863,208.159 189.578,207.915 189.272,207.441 C190.645,193.684 186.915,191.141 186.112,186 C185.348,181.113 189.332,178.472 190.006,178.063 L190.006,178.063 Z M180.112,132 C180.112,124.333 171.112,116 171.112,116 C170.498,116.717 170.639,117.305 170.839,117.654 C169.67,116.151 168.957,113.939 169.112,111 C169.279,107.833 164.112,104 164.112,104 C162.147,97.711 171.92,96.984 176.192,96.961 C175.598,97.599 172.982,97.975 172.982,97.975 C172.982,97.975 172.333,111.665 176.515,109.107 C180.696,106.55 189.107,100.925 176.515,112.533 C173.421,115.384 178.989,119.407 183.845,124.345 C183.887,124.308 183.937,124.267 183.98,124.23 C183.026,125.984 182.112,131 182.112,131 C181.612,127.333 180.112,132 180.112,132 L180.112,132 Z M170.839,117.654 C170.929,117.771 171.016,117.892 171.112,118 C171.112,118 170.964,117.874 170.839,117.654 L170.839,117.654 Z M238.655,65.113 C234.511,67.248 229.949,70.789 228.336,73.325 C224.98,78.604 225.736,83.86 224.884,85.376 C222.875,88.952 225.254,98.704 219.433,101.358 C213.612,104.013 208.77,108.634 208.77,108.634 L209.625,108.48 C208.393,109.659 205.362,112.307 207.112,108 C209.279,102.667 213.279,106.667 220.112,99 C226.945,91.333 216.779,84.167 229.112,70 C241.445,55.833 259.112,61 259.112,61 L259.112,62 C248.592,60.92 246.23,61.213 238.655,65.113 L238.655,65.113 Z" id="Shape" fill="#553724" sketch:type="MSShapeGroup"></path>
            <path d="M185.112,136 C185.112,136 184.445,152.167 180.112,152 C177.941,151.917 182.612,154 185.112,136 L185.112,136 Z" id="Shape" fill="#553724" sketch:type="MSShapeGroup"></path>
            <path d="M187.112,125 C187.112,125 180.279,132.667 180.112,142 C179.945,151.333 179.445,158.5 181.112,160 C182.779,161.5 184.112,163 184.112,163 C184.112,163 182.779,161.833 182.112,159 C181.445,156.167 181.112,154 181.112,154 C181.112,154 179.945,140.333 183.112,135 C186.279,129.667 187.112,125 187.112,125 L187.112,125 Z" id="Shape" fill="#553724" sketch:type="MSShapeGroup"></path>
            <path d="M183.112,167 C183.112,167 179.81,161.396 177.112,165 C175.474,167.188 175.602,173.604 179.112,174 C181.419,174.26 184.612,172.667 184.112,171 C183.612,169.333 181.445,165.167 180.112,168 C178.779,170.833 180.279,171 182.112,171 C182.112,171 179.768,170.125 181.112,169 C182.456,167.875 183.112,171 183.112,171 C183.112,171 183.487,173.281 179.112,173 C175.787,172.786 178.018,164.875 179.112,165 C180.206,165.125 181.081,165.094 183.112,167 L183.112,167 Z" id="Shape" fill="#4B2F1D" sketch:type="MSShapeGroup"></path>
            <path d="M155.915,115.52 C155.915,115.52 156.043,109.922 149.166,111.44 C140.61,113.327 140.932,116.446 140.932,116.446 C140.932,116.446 143.389,116.159 147.537,119.089 C150.605,121.256 159.649,121.08 155.915,115.52 L155.915,115.52 Z" id="Shape" fill="#587E1C" sketch:type="MSShapeGroup"></path>
            <path d="M155.692,115.237 C155.692,115.237 148.729,111.951 141.412,115.876 C141.412,115.876 149.249,113.527 155.785,116.29 L155.692,115.237 L155.692,115.237 Z" id="Shape" fill="#3F5C15" sketch:type="MSShapeGroup"></path>
            <path d="M160.44,115.634 C160.44,115.634 156.93,111.272 152.649,116.865 C147.325,123.822 149.581,126 149.581,126 C149.581,126 151.275,124.196 156.335,123.763 C160.077,123.443 166.879,117.479 160.44,115.634 L160.44,115.634 Z" id="Shape" fill="#7FAE36" sketch:type="MSShapeGroup"></path>
            <path d="M160.087,115.561 C160.087,115.561 152.645,117.537 149.581,125.254 C149.581,125.254 154.059,118.407 160.837,116.307 L160.087,115.561 L160.087,115.561 Z" id="Shape" fill="#50731D" sketch:type="MSShapeGroup"></path>
            <path d="M179.112,177 C179.112,177 180.612,179.25 179.112,186 C177.612,192.75 183.862,179.5 179.112,177 L179.112,177 Z" id="Shape" fill="#4B2F1D" sketch:type="MSShapeGroup"></path>
            <path d="M117.112,81 L106.112,84 L108.112,90 C108.112,90 131.981,95.238 162.112,103 C162.112,103 190.752,91.763 197.112,92 L200.112,86 L152.112,73 L117.112,81 L117.112,81 Z" id="Shape" stroke="#432817" stroke-width="2" fill="#7A4724" sketch:type="MSShapeGroup"></path>
            <path d="M106.091797,84.1269531 C106.914245,84.3123779 137.673,88.868 162.112,96 C162.112,96 178.081,89.204 200.112,86" id="Shape" stroke="#432817" sketch:type="MSShapeGroup"></path>
            <path d="M110.112,57 C110.112,57 116.395,66.204 116.323,78.382 C116.316,79.562 116.25,79.77 116.112,81 C116.112,81 147.308,85.935 161.112,91 C161.112,91 180.577,83.667 192.112,84 C192.112,84 194.326,66.03 197.112,63 C199.898,59.97 134.112,30 134.112,30 C134.112,30 121.469,38.933 114.598,47.229 C111.493,50.978 107.975,53.801 110.112,57 L110.112,57 Z" id="Shape" fill="#AD6637" sketch:type="MSShapeGroup"></path>
            <path d="M110.112,57 C110.112,57 116.395,66.204 116.323,78.382 C116.316,79.562 116.25,79.77 116.112,81 C116.112,81 147.308,85.935 161.112,91 C161.112,91 180.577,83.667 192.112,84 C192.112,84 194.326,66.03 197.112,63 C199.898,59.97 134.112,30 134.112,30 C134.112,30 121.469,38.933 114.598,47.229 C111.493,50.978 107.975,53.801 110.112,57 L110.112,57 Z" id="Shape" stroke="#432817" stroke-width="2" fill="url(#linearGradient-2)" sketch:type="MSShapeGroup"></path>
            <path d="M162.896,73.297 C160.820731,81.0470151 161.126116,89.9619149 161.126116,89.9619149 C161.126116,89.9619149 174.972,86.008 188.206,83.717 C189.216,83.543 189.732797,83.5576647 190.985073,83.3482141 C191.93178,83.1898717 191.123303,83.1442882 191.749303,83.0712882 C191.749303,83.0712882 193.0851,69.695731 196.177873,63.2198661 C196.177873,63.2198661 166.279,60 166.112,61 C166.112,61 164.716935,66.4967875 162.896,73.297 Z" id="Shape" fill="#8F5026" sketch:type="MSShapeGroup"></path>
            <path d="M106.112,63 C106.112,63 111.953,50.412 119.748,42.868 C127.453,35.412 134.112,32 134.112,32 C134.112,32 137.992,34.815 147.112,43 C157.419,52.25 168.112,69 168.112,69 C168.112,69 188.888,62.749 201.112,64 L208.112,57 L200.112,53 L202.112,49 L190.112,43 L193.112,39 L182.112,36 L184.112,33 L176.112,29 C176.112,29 167.275,28.39 157.695,27.398 C147.068,26.298 135.525,24.728 134.112,23 C134.112,23 126.995,29.552 121.112,32 C117.166,33.642 121.112,35 121.112,35 C121.112,35 117.264,37.66 111.112,42 L112.112,43 C112.112,43 112.563,45.152 106.112,49 L107.112,50 C107.112,50 105.032,54.547 101.112,58 L106.112,63 L106.112,63 Z" id="Shape" fill="#AE3131" sketch:type="MSShapeGroup"></path>
            <path d="M119.748,42.868 C127.453,35.412 134.112,32 134.112,32 C134.112,32 137.992,34.815 147.112,43 C157.419,52.25 168.657647,70.7907372 168.657647,70.7907372 C168.657647,70.7907372 188.888,62.749 201.112,64 L208.112,57 L200.112,53 L202.112,49 L190.112,43 L193.112,39 L182.112,36 L184.112,33 L176.112,29 C176.112,29 167.275,28.39 157.695,27.398 C147.068,26.298 135.525,24.728 134.112,23 C134.112,23 126.995,29.552 121.112,32 C117.166,33.642 121.112,35 121.112,35 C121.112,35 117.264,37.66 111.112,42 L112.112,43 C112.112,43 112.563,45.152 106.112,49 L107.112,50 C107.112,50 105.032,54.547 101.112,58 L106.112,63 C106.112,63 111.953,50.412 119.748,42.868 Z" id="Shape" stroke="#602222" stroke-width="1.5" fill="url(#linearGradient-3)" sketch:type="MSShapeGroup"></path>
            <path d="M118.693,45.581 C113.893,51.804 111.845,58.45 111.112,59 C110.5516,59.4203004 110.408569,60.2439575 110.658508,60.892334 C110.908447,61.5407104 111.112,61.8903198 111.112,61.8903198 L106.767334,63.5841675 C106.767334,63.5841675 106.701345,63.112159 106.767334,62.4014282 C106.8364,61.6575573 107.048234,60.6503881 107.548611,59.5666594 C110.555325,53.0546509 118.475195,38.9411653 133.112,32 L134.112,32 C134.112,32 124.742,37.737 118.693,45.581 Z" id="Shape" stroke="#602222" fill="#711E1E" sketch:type="MSShapeGroup"></path>
            <path d="M146.112,31 L145.112,33 C145.112,33 146.885,34.985 148.858,36.081 C151.329,37.454 154.112,38 154.112,38 L153.112,41 C153.112,41 155.319,43.204 157.755,44.533 C160.759,46.171 163.112,48 163.112,48 L162.112,51 C162.112,51 162.876,53.824 165.348,55.38 C168.983,57.669 171.112,61 171.112,61 L168.112,70 C168.112,70 159.489,55.927 150.335,47.296 C142.03,39.466 133.872925,31.9287109 133.872925,31.9287109 L134.692627,23.6599121 C134.692627,23.6599121 138.93,27.663 146.112,31 Z" id="Shape" stroke="#5E1A1A" stroke-width="1.5" fill="#AE3131" sketch:type="MSShapeGroup"></path>
            <path d="M146.845947,31.1318359 C147.610168,31.4082031 183.112,34 183.112,34" id="Shape" stroke="#7A1718" sketch:type="MSShapeGroup"></path>
            <path d="M154.917236,37.9083252 C157.398193,38.7027588 192.112,40 192.112,40" id="Shape" stroke="#7A1718" sketch:type="MSShapeGroup"></path>
            <path d="M162.112,48 C162.112,48 172.211,46.518 182.131,47.027 C191.705,47.518 201.112,49 201.112,49" id="Shape" stroke="#7A1718" sketch:type="MSShapeGroup"></path>
            <path d="M192.495537,78 C187.453545,78 184.421485,78.6923411 179.528458,79.2854352 C173.421486,80.0256745 167.218973,81.2597608 161.112,82 C161.112,82 143.468583,77.1892907 117.901051,74.375796 C117.634477,74.3464617 117.489746,74.2884521 117.098755,74.2884521" id="Shape" stroke="#7A1718" opacity="0.302" sketch:type="MSShapeGroup"></path>
            <path d="M160.112,59 C160.112,59 120.112,55.6 112.112,57" id="Shape" stroke="#7A1718" opacity="0.302" sketch:type="MSShapeGroup"></path>
            <path d="M117.112,48 C117.112,48 130.512,45.6 152.112,48" id="Shape" stroke="#7A1718" opacity="0.302" sketch:type="MSShapeGroup"></path>
            <path d="M143.112,41 C143.112,41 132.312,39.2 124.112,41" id="Shape" stroke="#7A1718" opacity="0.302" sketch:type="MSShapeGroup"></path>
            <path d="M162.112,102.14509 C162.112,102.14509 183.075615,94.0835032 197.200615,91.6695032 L198.730748,86.7233538 C198.730748,86.7233538 183.656,88.1193047 162.112,96.4873047 L162.112,102.14509 Z" id="Shape" fill="url(#linearGradient-4)" sketch:type="MSShapeGroup"></path>
            <path d="M161.237305,92.0542687 C166.052832,91.4121984 176.106125,90.6995407 176.290597,90.6749444 C176.290597,90.6749444 180.531879,89.5662199 187.522879,87.8182199 C190.303879,87.1232199 196.538785,86.1188617 196.538785,86.1188617 L192.649971,84.9700056 C192.649971,84.9700056 186.455101,84.9656922 179.793387,86.436105 C172.161243,88.1207171 163.759572,90.4524315 161.089844,92.0542687 L161.237305,92.0542687 Z" id="Shape" fill="#65371B" sketch:type="MSShapeGroup"></path>
            <path d="M194.196152,69.0853794 C193.039853,68.7466392 172.444383,71.3742176 172.444383,71.3742176 C172.444383,71.3742176 165.426595,72.4919181 163.112,73 C163.112,73 137.212715,67.5872977 116.589603,66.2506422 C116.19576,66.2251159 116.227173,66.1454759 115.495239,66.4323731" id="Shape" stroke="#883E21" sketch:type="MSShapeGroup"></path>
            <path d="M170.112,61 C170.112,61 180.628,57.863 190.447,56.802 C199.047,55.872 207.112,57 207.112,57" id="Shape" stroke="#602222" sketch:type="MSShapeGroup"></path>
            <path d="M134.112,48 C134.112,48 126.791,50.265 127.112,57 C127.464,64.386 130.293,67.285 136.112,67 C140.635,66.778 143.668,61.925 143.112,57 C142.556,52.069 140.077,48.305 134.112,48 L134.112,48 Z" id="Shape" fill="#714528" sketch:type="MSShapeGroup"></path>
            <path d="M127.112,57 C127.464,64.386 130.293,67.285 136.112,67 C140.635,66.778 143.668,61.925 143.112,57 C142.556,52.069 140.077,48.305 134.112,48 C134.112,48 126.791,50.265 127.112,57 Z" id="Shape" stroke="#432817" stroke-width="2" fill="url(#linearGradient-5)" sketch:type="MSShapeGroup"></path>
            <path d="M130.677,56.999 C130.915,64.374 134.831,67.269 138.773,66.984 C141.837,66.763 144.51394,61.9160005 144.13794,56.9990005 C143.76094,52.0760005 141.459,48.317 137.418,48.012 C137.418,48.012 130.459,50.274 130.677,56.999 Z" id="Shape" fill="#25150A" sketch:type="MSShapeGroup"></path>
            <path d="M122.364872,74.9367821 L122.112,75 C122.112,75 115.779,76.333 122.112,80 L136.112,76 C136.112,76 139.112,72 134.112,72 L122.364872,74.9367821 Z" id="Shape" stroke="#442918" fill="#D9A774" sketch:type="MSShapeGroup"></path>
            <path d="M123.14885,75.9096133 C123.653412,76.4683838 124.182617,79.5682374 121.98523,79.9414063 C121.98523,79.9414063 117.313713,79.9096133 119.980713,75.9096133 C120.567932,75.1704776 122.216722,74.8773412 123.14885,75.9096133 Z" id="Shape" stroke="#442918" fill="#C18C56" sketch:type="MSShapeGroup"></path>
            <path d="M17.31,128.422 C17.31,128.422 3.974,118.777 0.987,122.589 C-2,126.401 2.583,118.48 17.31,128.422 L17.31,128.422 Z" id="Shape" fill="#B3A567" sketch:type="MSShapeGroup"></path>
            <path d="M17.702,127.248 C17.702,127.248 7.287,116.604 4.038,119.547 C0.79,122.49 6.091,116.126 17.702,127.248 L17.702,127.248 Z" id="Shape" fill="#B3A567" sketch:type="MSShapeGroup"></path>
            <path d="M17.727,126.845 C17.727,126.845 3.532,122.322 2.044,126.443 C0.555,130.563 2.252,122.46 17.727,126.845 L17.727,126.845 Z" id="Shape" fill="#B3A567" sketch:type="MSShapeGroup"></path>
            <path d="M62.605,133.222 C62.605,133.222 78.045,127.512 79.897,131.986 C81.748,136.459 79.466,127.599 62.605,133.222 L62.605,133.222 Z" id="Shape" fill="#B3A567" sketch:type="MSShapeGroup"></path>
            <path d="M62.543,131.986 C62.543,131.986 75.439,124.53 77.777,128.237 C80.114,131.943 76.719,124.391 62.543,131.986 L62.543,131.986 Z" id="Shape" fill="#B3A567" sketch:type="MSShapeGroup"></path>
            <path d="M62.628,131.591 C62.628,131.591 77.518,131.045 77.843,135.414 C78.168,139.783 78.714,131.522 62.628,131.591 L62.628,131.591 Z" id="Shape" fill="#B3A567" sketch:type="MSShapeGroup"></path>
            <path d="M56.385,191.373 C56.385,191.373 96.626,183.586 98.089,196.24 C99.553,208.894 16.143,206.947 27.118,196.24 C38.093,185.532 52.726,191.373 56.385,191.373 L56.385,191.373 Z" id="Shape" opacity="0.231" fill="#4C7A0E" sketch:type="MSShapeGroup"></path>
            <path d="M74.56,193.528 C71.686,193.987 77.987,198.955 67.95,198.265 C57.913,197.576 55.634,198.085 55.634,198.085 C55.634,198.085 55.988,199.356 54.156,204.152 C53.3970178,206.139357 52.0076111,206.978802 50.6404088,207.28037 C49.6587551,207.496897 48.7454825,208.216429 47.1119375,207.951781 C45.4783926,207.687132 45.3220015,206.713255 45.3220015,206.713255 C45.3220015,206.713255 41.82,207.511 43.834,200.607 C45.778,193.946 45.322,193.657 45.322,193.657 C45.322,193.657 41.395,198.096 29.498,192.291 C29.498,192.291 33.4,200.414 31.147,203.935 C30.856711,204.388665 30.5383791,204.721565 30.0335684,205.02484 C29.7387236,205.201973 30.2668353,205.520213 29.9358072,205.929259 C29.513161,206.451515 28.7003775,207.129637 27.626647,207.129637 C26.5529165,207.129637 26.1679068,207.003172 25.1088247,206.264525 C24.0497426,205.525877 24.2829505,205.362282 23.9612417,205.293822 C23.4993692,205.195534 22.9730098,205.539892 22.543049,205.378134 C20.5539238,204.629792 19.0198911,203.203907 18.992,201.116 C18.92,195.801 18.644,194.893 18.644,194.893 C18.644,194.893 17.791,164.22 22.953,153.695 C23.586,152.405 23.097,150.794 20.767,148.175 L9.941,141.942 L13.32,139.103 C13.23,138.898 13.141,138.695 13.057,138.49 L6.88,136.369 L11.556,133.806 C11.453,133.37 11.375,132.999 11.319,132.703 L6.533,130.146 L11.102,125.541 C11.186,124.746 11.3,123.95 11.444,123.158 C13.696,110.783 22.887,98.964 25.562,95.997 C25.562,95.997 29.14,102.333 28.15,107.537 C28.15,107.537 31.706,106.929 38.075,107.606 C37.869,107.467 38.6526807,107.065608 38.6486807,106.922608 L44.357,102.446 L44.932,106.034 L47.722,104.506 L47.418,108.018 L52.92,105.839 L49.979,109.124 L51.661,110.154 C51.661,110.154 51.145,110.103 50.316,110.009 C53.853,110.997 57.749,112.322 61.975,114.106 C61.975,114.106 66.099,106.046 69.664,105.114 C69.664,105.114 72.034,119.261 69.509,132.388 L73.193,137.671 L67.832,138.713 C67.735,138.988 67.634,139.261 67.532,139.533 L71.782,143.742 L65.866,143.231 C65.682,143.575 65.489,143.912 65.292,144.245 L67.007,147.754 L59.34,151.182 C59.784,151.098 59.958,151.173 59.594,151.537 C59.594,151.537 66.885,163.492 73.334,187.229 C73.334,187.229 83.783,187.246 91.643,190.579 C99.503,193.912 101.179,197.065 91.187,195.848 C81.196,194.631 77.434,193.068 74.56,193.528 Z" id="Shape" fill="#E0D397" sketch:type="MSShapeGroup"></path>
            <path d="M22.736,154.181 L24.701,155.602 L21.49,157.743 C21.858,156.414 22.271,155.215 22.736,154.181 L22.736,154.181 Z M17.267,118.686 C17.989,119.494 13.818,120.813 11.828,121.385 C12.338,119.211 13.042,117.072 13.871,115.003 C13.873,115.011 13.873,115.019 13.875,115.027 C14.292,116.442 16.59,117.928 17.267,118.686 L17.267,118.686 Z M18.976,176.14 L21.043,177.405 L18.872,178.062 C18.903,177.427 18.938,176.785 18.976,176.14 L18.976,176.14 Z M19.252,172.202 L22.302,173.09 L19.068,174.668 C19.123,173.848 19.185,173.025 19.252,172.202 L19.252,172.202 Z M19.867,166.269 L23.637,167.897 L19.367,170.869 C19.508,169.315 19.672,167.771 19.867,166.269 L19.867,166.269 Z M20.066,164.835 C20.329,163.022 20.638,161.288 21.001,159.686 L24.093,162.628 L20.066,164.835 L20.066,164.835 Z M6.533,130.146 L11.102,125.541 C11.186,124.746 11.3,123.95 11.444,123.158 C11.495,122.877 11.567,122.599 11.625,122.319 L15.78,125.636 C15.78,125.636 13.548,127.865 11.884,129.723 C11.296,130.38 16.931,132.813 16.931,132.813 L12.079,137.702 L19.036,139.188 L16.746,145.183 L17.236,146.142 L9.941,141.942 L13.32,139.103 C13.23,138.898 13.141,138.695 13.057,138.49 L6.88,136.369 L11.556,133.806 C11.453,133.37 11.375,132.999 11.319,132.703 L6.533,130.146 L6.533,130.146 Z M88.61,189.482 C89.644,189.8 90.664,190.164 91.643,190.579 C92.417,190.907 93.111,191.232 93.76,191.552 L91.339,194.092 L88.61,189.482 L88.61,189.482 Z M84.306,193.485 L81.748,187.956 C83.338,188.199 85.03,188.523 86.73,188.958 L84.306,193.485 L84.306,193.485 Z M80.884,187.826 L77.683,193.618 C76.446,193.438 75.459,193.384 74.56,193.528 C71.975,193.941 76.808,198.001 70.498,198.31 L68.33,193.875 L73.79,190.649 L73.334,187.229 C73.334,187.229 76.616,187.235 80.884,187.826 L80.884,187.826 Z M55.525,116.681 C55.263,114.065 54.88,112.35 54.429,111.277 C55.557,111.649 56.712,112.054 57.9,112.497 C56.537,113.898 55.525,116.681 55.525,116.681 L55.525,116.681 Z M43.745,107.236 C43.28,106.446 43.034,105.436 43.326,104.126 C43.689,102.495 40.5186122,107.752749 39.6776122,108.192749 C37.0886122,109.544749 34.578,113.103 34.578,113.103 C34.872,110.032 34.884,108.227 34.652,107.343 C35.682,107.391 36.822,107.473 38.075,107.606 C37.869,107.467 38.7352011,106.948054 38.7312011,106.805054 L44.357,102.446 L44.932,106.034 L47.3427734,104.770019 C46.3657734,105.879019 43.903,107.505 43.745,107.236 Z M33.105,107.293 L33.103,107.295 C31.607,108.819 29.589,115.206 29.53,111.974 C29.49,109.758 29.328,108.249 29.21,107.413 C30.042,107.339 31.355,107.265 33.105,107.293 L33.105,107.293 Z M30.402,194.47 C30.437,194.561 30.471,194.657 30.506,194.753 L30.149,195.001 L30.402,194.47 L30.402,194.47 Z M35.803,191.066 L36.722,194.89 C35.423,194.619 33.944,194.17 32.287,193.513 L35.803,191.066 L35.803,191.066 Z M39.463,195.255 L41.078,191.521 L43.71,194.649 C42.776,195.029 41.394,195.346 39.463,195.255 L39.463,195.255 Z M45.037,196.058 L45.094,196.292 L45.007,196.189 C45.016,196.147 45.028,196.098 45.037,196.058 L45.037,196.058 Z M48.6921386,112.292847 C48.8931884,111.082764 49.709,109.581 49.1,109.048 C48.949,108.916 47.058,109.713 46.386,109.699 C45.891,109.688 46.688,106.793 47.296,104.739 L47.722,104.506 L47.418,108.018 L52.92,105.839 L49.979,109.124 L51.9782714,109.124 C51.9782714,109.124 51.145,110.103 50.316,110.009 C50.768,110.136 51.243,110.284 51.708,110.422 C51.6983897,110.431152 51.6887839,110.440384 51.6791828,110.449696 C50.0143897,112.064381 48.492,116.074 48.492,116.074 C48.492,113.422242 48.405468,114.018266 48.6921386,112.292847 Z M55.698,155.625 L59.913,152.084 C60.347,152.849 61.212,154.435 62.356,156.813 L55.698,155.625 L55.698,155.625 Z M63.107,158.403 C63.858,160.028 64.707,161.974 65.608,164.174 L56.045,161.848 L63.107,158.403 L63.107,158.403 Z M68.622,172.087 L60.788,168.45 L66.079,165.325 C66.892,167.353 67.746,169.612 68.622,172.087 L68.622,172.087 Z M71.463,180.761 C71.997,182.517 72.53,184.341 73.059,186.255 L63.891,183.759 L71.463,180.761 L71.463,180.761 Z M62.741,176.582 L69.061,173.356 C69.722,175.265 70.39,177.281 71.062,179.44 L62.741,176.582 L62.741,176.582 Z M45.322,193.657 C45.322,193.657 45.091,193.91 44.594,194.214 L43.14,188.161 L45.625,190.145 L43.672,182.013 L46.233,183.119 L44.28,174.988 L46.765,176.972 C46.765,176.972 46.994,174.076 46.494,171.548 C46.206,171.589 45.875,171.392 45.539,170.673 C45.269,170.094 44.834,169.727 44.834,169.727 L42.533,171.298 L41.762,167.692 L39.922,170.188 L38.27,167.391 L36.086,170.741 L35.163,168.892 L32.71,172.219 L32.276,170.412 L31.625,170.769 C31.527,171.867 31.598,172.774 31.759,173.309 C32.106,174.459 32.851,174.001 32.851,174.001 L29.184,179.978 C29.162,177.736 29.218,175.327 29.411,172.819 C29.411,172.819 29.578,172.385 29.819,171.759 L29.487,171.941 L31.169,165.008 L32.083,167.371 C32.407,166.98 32.632,166.774 32.58,166.9 C32.455,167.202 32.348,167.502 32.249,167.801 L32.938,169.585 L34.545,163.53 L36.045,168.084 L38.037,163.832 L40.419,167.576 L43.14,164.272 L43.835,168.756 L46.288,165.429 L46.864,169.15 C46.899,169.216 46.937,169.264 46.971,169.337 C47.021,169.446 47.068,169.585 47.113,169.735 L49.435,166.586 L48.523,177.124 C48.523,177.124 48.124,176.78 47.713,176.142 C47.36,179.685 45.972,193.263 45.175,195.394 C45.491,193.773 45.322,193.657 45.322,193.657 L45.322,193.657 Z M47.338,170.725 C47.341,170.716 47.347,170.703 47.35,170.696 C47.345,170.704 47.342,170.711 47.337,170.721 C47.337,170.722 47.338,170.723 47.338,170.725 L47.338,170.725 Z M29.776,189.54 C29.524,187.36 29.263,184.351 29.194,180.859 L33.047,181.981 L29.776,189.54 L29.776,189.54 Z M31.096,193.017 C30.801,192.889 30.498,192.749 30.193,192.607 C30.095,192.001 29.944,190.986 29.786,189.633 L33.394,188.204 L31.096,193.017 L31.096,193.017 Z M29.726,189.656 L29.776,189.54 C29.779,189.57 29.783,189.603 29.786,189.633 L29.726,189.656 L29.726,189.656 Z M28.727,180.723 L29.184,179.978 C29.187,180.273 29.188,180.57 29.194,180.859 L28.727,180.723 L28.727,180.723 Z M67.832,138.713 C67.735,138.988 67.634,139.261 67.532,139.533 L71.782,143.742 L65.866,143.231 C65.682,143.575 65.489,143.912 65.292,144.245 L67.007,147.754 L60.157,150.817 L58.292,146.116 L63.643,145.694 L61.385,141.075 L67.691,139.85 L65.358,136.11 L69.981,133.855 L66.844,129.16 L70.195,127.833 C70.023,129.349 69.8,130.875 69.509,132.388 L73.193,137.671 L67.832,138.713 L67.832,138.713 Z" id="Shape" fill="#B3A567" sketch:type="MSShapeGroup"></path>
            <path d="M24.557,99.299 C24.557,99.299 19.271,107.017 18.579,108.445 C17.887,109.873 26.077,106.867 27.025,106.933 C27.025,106.933 26.606,99.682 24.557,99.299 L24.557,99.299 Z" id="Shape" opacity="0.8" fill="#BD7F35" sketch:type="MSShapeGroup"></path>
            <path d="M24.557,99.299 C24.557,99.299 19.271,107.017 18.579,108.445 C17.887,109.873 26.077,106.867 27.025,106.933 C27.025,106.933 26.606,99.682 24.557,99.299 L24.557,99.299 Z" id="Shape" fill="url(#linearGradient-6)" sketch:type="MSShapeGroup"></path>
            <path d="M22.407,151.14 C22.407,151.14 30.656,155.949 62.111,152.167 L62.908,153.97 C62.908,153.97 43.446,161.859 21.356,154.62 C21.356,154.62 20.485,150.695 22.407,151.14 L22.407,151.14 Z" id="Shape" fill="#AD3131" sketch:type="MSShapeGroup"></path>
            <path d="M40.433,155.89 C42.137,155.972 43.451,157.418 43.369,159.12 C43.287,160.821 41.84,162.135 40.136,162.053 C38.432,161.971 37.118,160.525 37.2,158.823 C37.282,157.121 38.729,155.808 40.433,155.89 L40.433,155.89 Z" id="Shape" fill="#C18608" sketch:type="MSShapeGroup"></path>
            <path d="M32.668,114.707 C32.668,114.707 29.134,110.509 22.998,113.872 C22.998,113.872 29.432,109.119 32.668,114.707 L32.668,114.707 Z" id="Shape" fill="#B3A567" sketch:type="MSShapeGroup"></path>
            <path d="M50.977,118.058 C50.977,118.058 60.6,115.35 63.057,121.755 C63.057,121.755 60.752,113.593 50.977,118.058 L50.977,118.058 Z" id="Shape" fill="#B3A567" sketch:type="MSShapeGroup"></path>
            <path d="M67.923,108.293 C67.923,108.293 63.636,114.136 63.334,116.084 C63.334,116.084 68.326,119.509 68.948,121.679 C68.948,121.679 69.344,109.949 67.923,108.293 L67.923,108.293 Z" id="Shape" opacity="0.8" fill="#BD7F35" sketch:type="MSShapeGroup"></path>
            <path d="M63.334,116.084 C63.334,116.084 68.326,119.509 68.948,121.679 C68.948,121.679 69.344,109.949 67.923,108.293 C67.923,108.293 63.636,114.136 63.334,116.084 Z" id="Shape" fill="url(#linearGradient-7)" sketch:type="MSShapeGroup"></path>
            <path d="M32.254,201.376 C32.254,201.376 27.111,194.621 29.335,173.697 C29.797,169.354 27.811,187.899 33.209,200.574 L32.254,201.376 L32.254,201.376 Z" id="Shape" fill="#B3A567" sketch:type="MSShapeGroup"></path>
            <path d="M45.17,195.414 C45.17,195.414 49.786,179.592 48.675,175.367 C47.565,171.143 46.57,192.88 43.487,194.384 L45.17,195.414 L45.17,195.414 Z" id="Shape" fill="#B3A567" sketch:type="MSShapeGroup"></path>
            <path d="M55.711,198.078 C55.711,198.078 58.181,181.172 57.254,176.903 C55.738,169.933 60.315,178.578 57.519,198.368 L55.711,198.078 L55.711,198.078 Z" id="Shape" fill="#B3A567" sketch:type="MSShapeGroup"></path>
            <path d="M60.978,129.089 C55.221,130.27 49.055,126.507 49.055,126.507 C49.598,124.621 51.005,122.017 52.403,121.133 C55.965,118.88 59.255,120.735 60.712,122.961 C62.412,125.558 60.978,129.089 60.978,129.089 L60.978,129.089 Z M22.195,122.554 C22.57,120.628 23.745,117.911 25.06,116.908 C28.411,114.352 31.857,115.759 33.503,117.849 C35.424,120.288 34.304,123.93 34.304,123.93 C28.673,125.609 22.195,122.554 22.195,122.554 L22.195,122.554 Z" id="Shape" fill="#FDFFDB" sketch:type="MSShapeGroup"></path>
            <path d="M34.304,123.93 C31.002,124.915 27.419,124.271 25.011,123.571 C23.984,121.685 23.744,119.461 24.519,117.429 C24.696,117.228 24.876,117.048 25.06,116.908 C28.411,114.352 31.857,115.759 33.503,117.849 C35.424,120.288 34.304,123.93 34.304,123.93 L34.304,123.93 Z" id="Shape" fill="#058914" sketch:type="MSShapeGroup"></path>
            <path d="M34.304,123.93 C31.002,124.915 27.419,124.271 25.011,123.571 C23.984,121.685 23.744,119.461 24.519,117.429 C24.696,117.228 24.876,117.048 25.06,116.908 C28.411,114.352 31.857,115.759 33.503,117.849 C35.424,120.288 34.304,123.93 34.304,123.93 L34.304,123.93 Z" id="Shape" fill="url(#radialGradient-8)" sketch:type="MSShapeGroup"></path>
            <path d="M60.978,129.089 C57.911,129.718 54.737,128.943 52.432,128.083 C51.364,126.226 51.126,123.999 52.034,122.015 C52.201,121.648 52.414,121.317 52.64,120.999 C56.11,118.973 59.287,120.784 60.712,122.961 C62.412,125.558 60.978,129.089 60.978,129.089 L60.978,129.089 Z" id="Shape" fill="#058914" sketch:type="MSShapeGroup"></path>
            <path d="M60.978,129.089 C57.911,129.718 54.737,128.943 52.432,128.083 C51.364,126.226 51.126,123.999 52.034,122.015 C52.201,121.648 52.414,121.317 52.64,120.999 C56.11,118.973 59.287,120.784 60.712,122.961 C62.412,125.558 60.978,129.089 60.978,129.089 L60.978,129.089 Z" id="Shape" fill="url(#radialGradient-8)" sketch:type="MSShapeGroup"></path>
            <path d="M61.163,124.538 C60.319,124.525 59.475,124.511 58.631,124.498 C59.281,124.468 59.931,124.437 60.581,124.407 C60.831,124.395 61.082,124.383 61.331,124.37 C61.347,124.427 61.364,124.483 61.377,124.539 C61.305,124.539 61.235,124.538 61.163,124.538 L61.163,124.538 Z M58.604,124.486 C58.613,124.49 58.622,124.494 58.631,124.498 C58.615,124.499 58.598,124.5 58.582,124.501 C58.589,124.496 58.597,124.491 58.604,124.486 L58.604,124.486 Z M59.324,123.017 C58.996,123.466 58.668,123.915 58.34,124.363 C58.666,123.754 58.993,123.145 59.32,122.536 C59.432,122.314 59.544,122.093 59.656,121.872 C59.677,121.842 59.691,121.806 59.712,121.775 C59.817,121.873 59.914,121.975 60.011,122.078 C59.79,122.398 59.572,122.717 59.324,123.017 L59.324,123.017 Z M58.684,123.085 C58.574,123.425 58.464,123.764 58.355,124.104 C58.443,123.747 58.477,123.233 58.508,122.979 C58.587,122.338 58.716,121.719 58.846,121.09 C58.976,121.176 59.099,121.268 59.221,121.362 C59.031,121.923 58.82,122.489 58.684,123.085 L58.684,123.085 Z M58.245,124.395 C58.25,124.387 58.253,124.371 58.257,124.363 C58.258,124.363 58.259,124.363 58.259,124.364 C58.261,124.36 58.262,124.352 58.263,124.348 C58.296,124.285 58.326,124.211 58.35,124.117 C58.32,124.212 58.289,124.306 58.258,124.401 C58.254,124.399 58.25,124.397 58.245,124.395 L58.245,124.395 Z M58.246,124.358 C58.245,124.138 58.243,123.919 58.242,123.7 C58.253,123.314 58.264,122.928 58.274,122.542 C58.284,122.354 58.242,122.037 58.392,121.865 C58.4,121.869 58.409,121.874 58.418,121.878 C58.575,122.198 58.382,123.898 58.263,124.348 C58.261,124.352 58.259,124.359 58.257,124.363 C58.254,124.361 58.25,124.359 58.246,124.358 L58.246,124.358 Z M58.355,124.104 C58.353,124.109 58.351,124.112 58.35,124.117 C58.352,124.112 58.353,124.108 58.355,124.104 L58.355,124.104 Z M58.325,121.52 C58.321,121.517 58.316,121.515 58.312,121.513 C58.299,121.495 58.286,121.476 58.273,121.458 C58.244,121.23 58.215,121.002 58.185,120.774 C58.184,120.754 58.187,120.735 58.186,120.715 C58.292,120.768 58.396,120.822 58.498,120.88 C58.468,121.149 58.416,121.391 58.325,121.52 L58.325,121.52 Z M58.099,122.89 C58.137,123.345 58.175,123.799 58.213,124.254 C58.209,124.252 58.205,124.25 58.2,124.248 C58.203,124.241 58.206,124.234 58.21,124.227 C58.124,123.784 58.038,123.34 57.952,122.897 C57.781,122.128 57.58,121.339 57.517,120.552 C57.514,120.518 57.504,120.466 57.498,120.423 C57.626,120.468 57.754,120.512 57.877,120.565 C58.032,121.327 58.041,122.109 58.099,122.89 L58.099,122.89 Z M57.753,123.297 L57.066,121.503 C56.974,121.227 56.729,120.829 56.802,120.536 C57.021,120.716 57.171,121.275 57.253,121.514 C57.477,122.167 57.701,122.82 57.909,123.482 C57.991,123.735 58.073,123.987 58.156,124.24 L58.108,124.168 C57.99,123.877 57.871,123.587 57.753,123.297 L57.753,123.297 Z M56.543,121.033 C56.796,121.554 57.05,122.075 57.303,122.596 C57.577,123.156 57.85,123.716 58.123,124.275 C57.822,123.8 57.521,123.324 57.221,122.848 C57.508,123.318 57.796,123.787 58.084,124.257 C57.779,123.847 57.475,123.437 57.171,123.027 C56.679,122.355 56.187,121.695 55.73,121.022 C55.54,120.743 55.323,120.444 55.219,120.139 C55.258,120.135 55.296,120.133 55.335,120.13 C55.742,120.553 56.015,121.02 56.33,121.464 C56.186,121.229 56.042,120.994 55.898,120.76 C55.766,120.558 55.634,120.337 55.505,120.118 C55.708,120.111 55.908,120.115 56.105,120.13 C56.272,120.43 56.429,120.737 56.543,121.033 L56.543,121.033 Z M56.953,122.976 C57.365,123.466 57.778,123.956 58.19,124.445 L56.909,123.284 C55.895,122.367 54.861,121.483 53.974,120.548 C53.947,120.52 53.899,120.468 53.863,120.43 C54.098,120.349 54.329,120.287 54.559,120.238 C55.46,121.114 56.206,122.058 56.953,122.976 L56.953,122.976 Z M52.949,120.825 C53.766,121.259 54.508,121.785 55.186,122.283 C55.729,122.673 56.272,123.064 56.815,123.454 L58.054,124.357 C58.053,124.36 58.051,124.364 58.049,124.367 C57.394,123.954 56.738,123.541 56.082,123.127 C54.947,122.366 53.719,121.689 52.841,120.885 C52.877,120.866 52.913,120.843 52.949,120.825 L52.949,120.825 Z M58.098,124.402 C58.081,124.391 58.065,124.379 58.049,124.367 C58.067,124.375 58.085,124.384 58.102,124.392 C58.101,124.395 58.099,124.399 58.098,124.402 L58.098,124.402 Z M54.89,123.911 C55.116,123.965 55.343,124.02 55.569,124.074 C55.576,124.082 55.584,124.089 55.591,124.097 C55.171,124.158 53.222,123.916 52.663,123.66 C52.668,123.649 52.673,123.639 52.678,123.628 C52.679,123.625 52.681,123.622 52.682,123.618 C53.34,123.588 54.153,123.767 54.89,123.911 L54.89,123.911 Z M52.044,122.805 C52.371,122.701 53.01,122.956 53.435,123.059 C54.45,123.305 55.522,123.691 56.572,123.985 C57.032,124.126 57.491,124.268 57.95,124.409 C57.97,124.423 57.991,124.437 58.011,124.45 C57.476,124.324 56.94,124.197 56.405,124.071 C55.517,123.89 54.675,123.636 53.769,123.416 C53.441,123.336 52.353,123.106 52.074,122.844 L52.044,122.805 L52.044,122.805 Z M53.497,124.223 C54.423,124.218 55.429,124.272 56.396,124.37 C56.872,124.405 57.347,124.441 57.823,124.477 C57.424,124.399 57.029,124.482 56.594,124.323 C56.603,124.314 56.612,124.306 56.622,124.298 C56.988,124.337 57.355,124.377 57.722,124.417 C57.809,124.428 58.1,124.493 58.095,124.477 C58.126,124.516 58.108,124.487 58.108,124.52 C57.62,124.456 57.088,124.594 56.63,124.629 C55.567,124.712 54.505,124.811 53.404,124.81 C53.187,124.81 51.888,124.77 51.795,124.505 C51.789,124.464 51.789,124.482 51.811,124.437 C52.238,124.168 52.929,124.225 53.497,124.223 L53.497,124.223 Z M52.776,125.692 C52.78,125.685 52.783,125.678 52.786,125.671 C52.821,125.486 53.809,125.299 54.022,125.248 C54.926,125.034 55.889,124.857 56.837,124.738 C57.243,124.67 57.648,124.601 58.054,124.533 C58.063,124.537 58.071,124.541 58.08,124.545 L56.532,124.95 C55.838,125.195 55.032,125.423 54.264,125.524 C53.883,125.575 53.222,125.847 52.776,125.692 L52.776,125.692 Z M54.2424619,126.533597 C53.8227062,126.716737 53.3578247,126.969573 52.8222744,126.951036 C52.8069487,126.935466 52.7924743,126.920637 52.778,126.905066 C52.8435602,126.602552 53.8618721,126.195494 54.1394387,126.080568 C55.0113043,125.721704 55.8780614,125.393981 56.7626985,125.064775 C57.2011857,124.900913 57.693313,124.773383 58.102,124.568 C57.7060844,124.775607 57.3101689,124.983956 56.9142533,125.191564 C56.0347248,125.663129 55.1603048,126.135436 54.2424619,126.533597 Z M56.957,125.563 C57.341,125.249 57.725,124.936 58.109,124.622 C57.791,124.979 57.473,125.336 57.155,125.692 C56.357,126.521 55.689,127.453 54.83,128.145 C54.616,128.317 54.411,128.522 54.17,128.65 C54.054,128.617 53.935,128.587 53.822,128.553 C54.601,127.311 55.881,126.396 56.957,125.563 L56.957,125.563 Z M55.602,128.49 C55.622,128.145 55.888,127.833 56.146,127.721 L56.221,127.769 C56.255,128.067 55.98,128.578 55.676,128.575 C55.652,128.547 55.627,128.518 55.602,128.49 L55.602,128.49 Z M57.119,127.63 C57.242,127.301 57.366,126.971 57.49,126.642 C57.729,125.98 57.968,125.317 58.207,124.655 C58.118,125.071 58.029,125.488 57.939,125.905 C57.791,126.846 57.534,127.773 57.333,128.738 C57.309,128.857 57.257,129.041 57.19,129.234 C57.033,129.218 56.874,129.207 56.719,129.187 C56.821,128.691 56.989,128.189 57.119,127.63 L57.119,127.63 Z M58.163,127.837 C58.181,127.479 58.138,127.063 58.266,126.699 C58.417,127.01 58.356,127.455 58.379,127.786 C58.412,128.287 58.425,128.797 58.442,129.307 C58.326,129.306 58.211,129.303 58.095,129.298 C58.109,128.817 58.137,128.335 58.163,127.837 L58.163,127.837 Z M58.327,124.496 C58.331,124.511 58.335,124.525 58.339,124.54 C58.321,124.508 58.33,124.535 58.327,124.496 L58.327,124.496 Z M58.315,124.453 C58.308,124.445 58.301,124.437 58.293,124.43 C58.303,124.409 58.312,124.388 58.322,124.367 C58.32,124.396 58.317,124.424 58.315,124.453 L58.315,124.453 Z M58.271,124.445 C58.257,124.438 58.244,124.432 58.231,124.426 C58.244,124.42 58.258,124.413 58.272,124.407 C58.271,124.42 58.271,124.432 58.271,124.445 L58.271,124.445 Z M58.223,126.301 C58.216,126.294 58.209,126.286 58.202,126.279 C58.229,125.795 58.148,125.246 58.244,124.748 C58.325,125.024 58.311,126.005 58.223,126.301 L58.223,126.301 Z M58.228,124.538 C58.214,124.532 58.201,124.526 58.188,124.52 C58.191,124.513 58.194,124.506 58.198,124.499 L58.228,124.538 L58.228,124.538 Z M58.136,124.634 C58.131,124.632 58.127,124.63 58.123,124.628 C58.127,124.618 58.132,124.607 58.137,124.597 C58.136,124.609 58.136,124.622 58.136,124.634 L58.136,124.634 Z M57.816,125.368 C57.404,125.939 56.954,127.437 56.413,127.63 C56.409,127.616 56.405,127.601 56.401,127.587 C56.351,127.327 56.667,126.876 56.819,126.671 C57.276,125.976 57.734,125.28 58.191,124.584 C58.066,124.846 57.941,125.107 57.816,125.368 L57.816,125.368 Z M60.016,128.343 C59.906,128.128 59.796,127.913 59.685,127.698 C59.234,126.686 58.783,125.674 58.331,124.662 C58.599,125.105 58.867,125.549 59.134,125.993 C59.742,126.917 60.318,127.869 60.807,128.824 C60.852,128.912 60.881,129.006 60.925,129.097 C60.756,129.131 60.586,129.149 60.417,129.174 C60.247,128.875 60.105,128.574 60.016,128.343 L60.016,128.343 Z M58.489,124.634 C59.111,124.956 59.734,125.279 60.356,125.601 C60.737,125.838 61.142,126.029 61.537,126.224 C61.534,126.304 61.533,126.385 61.528,126.463 C60.938,126.126 60.374,125.773 59.891,125.461 C59.424,125.185 58.956,124.91 58.489,124.634 L58.489,124.634 Z M61.426,124.786 C61.442,124.873 61.462,124.961 61.474,125.048 C60.871,124.954 60.25,124.826 59.648,124.73 C59.252,124.66 58.856,124.59 58.461,124.52 L61.161,124.751 C61.249,124.763 61.338,124.774 61.426,124.786 L61.426,124.786 Z M60.901,123.988 C60.087,124.144 59.272,124.3 58.458,124.456 C58.519,124.438 58.581,124.42 58.643,124.403 C59.234,124.219 59.826,124.035 60.418,123.852 C60.632,123.775 60.856,123.717 61.078,123.654 C61.119,123.749 61.164,123.844 61.199,123.94 C61.101,123.954 60.995,123.975 60.901,123.988 L60.901,123.988 Z M58.459,124.418 C58.678,124.314 58.897,124.21 59.115,124.105 C59.699,123.815 60.278,123.5 60.938,123.359 C60.948,123.377 60.96,123.394 60.969,123.412 C60.404,123.756 59.801,123.933 59.185,124.163 L58.459,124.418 L58.459,124.418 Z M59.537,123.746 C59.211,123.931 58.886,124.116 58.56,124.302 C58.801,124.127 59.041,123.953 59.281,123.778 C59.723,123.449 60.164,123.129 60.603,122.809 C60.639,122.86 60.678,122.91 60.712,122.961 C60.737,122.999 60.754,123.039 60.778,123.077 C60.365,123.309 59.945,123.529 59.537,123.746 L59.537,123.746 Z M60.203,122.294 C60.251,122.35 60.299,122.405 60.344,122.462 C60.337,122.468 60.329,122.477 60.322,122.483 C59.967,122.84 59.611,123.196 59.256,123.552 C58.982,123.812 58.708,124.072 58.435,124.331 C58.43,124.329 58.426,124.327 58.421,124.325 C58.833,123.857 59.246,123.388 59.658,122.919 C59.841,122.72 60.019,122.501 60.203,122.294 L60.203,122.294 Z M61.54,125.933 C61.139,125.769 60.513,125.532 60.34,125.354 C60.739,125.5 61.137,125.647 61.535,125.793 C61.537,125.84 61.539,125.887 61.54,125.933 L61.54,125.933 Z M60.235,126.742 C60.524,127.085 60.971,127.483 61.102,127.863 L61.066,127.872 C60.337,127.233 59.842,126.487 59.287,125.799 C59.002,125.44 58.717,125.08 58.433,124.721 C58.62,124.93 58.808,125.139 58.996,125.348 C59.403,125.823 59.84,126.275 60.235,126.742 L60.235,126.742 Z M58.423,124.603 C58.407,124.592 58.39,124.58 58.374,124.568 C58.392,124.576 58.41,124.585 58.427,124.593 C58.426,124.596 58.424,124.6 58.423,124.603 L58.423,124.603 Z M58.376,124.355 C58.376,124.367 58.375,124.38 58.375,124.392 C58.37,124.39 58.366,124.388 58.362,124.386 C58.366,124.376 58.371,124.365 58.376,124.355 L58.376,124.355 Z M58.446,124.551 C59.467,124.821 60.488,125.092 61.508,125.362 C61.516,125.443 61.524,125.523 61.529,125.604 C61.36,125.55 61.191,125.493 61.022,125.443 C60.418,125.239 59.814,125.035 59.211,124.832 C59.147,124.809 59.086,124.788 59.021,124.767 C58.854,124.711 58.687,124.655 58.521,124.599 C58.657,124.658 58.838,124.711 59.021,124.767 C59.084,124.789 59.147,124.81 59.211,124.832 C59.407,124.899 59.593,124.977 59.709,125.087 C59.707,125.09 59.706,125.093 59.704,125.097 C59.541,125.045 58.466,124.667 58.389,124.537 C58.428,124.556 58.468,124.574 58.508,124.592 C58.487,124.579 58.467,124.565 58.446,124.551 L58.446,124.551 Z M58.5,124.715 C59.106,125.202 59.712,125.689 60.318,126.176 C60.69,126.474 61.082,126.776 61.47,127.081 C61.459,127.169 61.446,127.255 61.433,127.34 C60.763,126.75 60.091,126.171 59.454,125.574 C59.136,125.287 58.818,125.001 58.5,124.715 L58.5,124.715 Z M58.31,124.778 C58.42,125.182 58.529,125.586 58.639,125.99 C58.891,126.891 59.143,127.785 59.354,128.704 C59.383,128.834 59.44,129.052 59.485,129.278 C59.351,129.287 59.216,129.297 59.082,129.301 C59.011,129.008 58.973,128.706 58.914,128.438 C58.742,127.642 58.685,126.832 58.513,126.02 C58.445,125.606 58.378,125.192 58.31,124.778 L58.31,124.778 Z M58.237,124.517 C57.961,124.348 57.221,124.009 56.794,123.886 C56.461,123.748 56.128,123.611 55.796,123.473 C55.21,123.223 54.624,122.972 54.039,122.721 C53.605,122.525 53.171,122.327 52.737,122.131 C52.486,121.964 52.433,121.991956 52.101,121.829956 C52.208,121.725956 52.294,121.434839 52.402,121.347839 C52.503,121.390839 52.302,121.453 52.402,121.496 C53.43,121.966 54.419,122.393 55.297,122.952 C55.825,123.235 56.353,123.517 56.881,123.8 C57.109,123.945 58.212,124.442 58.237,124.517 Z" id="Shape" fill="#22AC32" sketch:type="MSShapeGroup"></path>
            <path d="M33.603,121.014 C32.724,121 31.845,120.986 30.966,120.971 C31.643,120.938 32.32,120.906 32.997,120.873 C33.528,120.846 34.061,120.819 34.594,120.792 C34.601,120.87 34.605,120.945 34.61,121.021 C34.274,121.018 33.94,121.014 33.603,121.014 L33.603,121.014 Z M30.938,120.958 C30.948,120.963 30.957,120.967 30.966,120.971 L30.915,120.974 C30.923,120.969 30.93,120.963 30.938,120.958 L30.938,120.958 Z M33.689,119.534 C33.688,119.524 33.687,119.514 33.685,119.505 C33.832,119.377 34.013,119.245 34.211,119.117 C34.246,119.207 34.281,119.297 34.311,119.387 C34.123,119.471 33.889,119.575 33.689,119.534 L33.689,119.534 Z M31.909,120.16 C31.57,120.36 31.231,120.56 30.893,120.76 C31.143,120.572 31.393,120.384 31.643,120.196 C32.281,119.704 32.925,119.219 33.552,118.748 C33.67,118.659 33.79,118.568 33.913,118.479 C33.982,118.604 34.05,118.728 34.107,118.856 C33.419,119.343 32.644,119.756 31.909,120.16 L31.909,120.16 Z M31.021,119.449 C30.907,119.815 30.792,120.181 30.678,120.547 C30.77,120.163 30.805,119.608 30.838,119.334 C30.953,118.363 31.173,117.456 31.352,116.469 C31.367,116.389 31.388,116.277 31.414,116.154 C31.58,116.238 31.742,116.328 31.899,116.425 C31.701,117.424 31.255,118.394 31.021,119.449 L31.021,119.449 Z M30.564,120.86 C30.569,120.852 30.572,120.834 30.577,120.825 C30.578,120.826 30.578,120.826 30.579,120.826 C30.58,120.822 30.581,120.814 30.582,120.81 C30.617,120.742 30.649,120.661 30.675,120.558 C30.642,120.661 30.61,120.764 30.578,120.867 C30.573,120.864 30.569,120.862 30.564,120.86 L30.564,120.86 Z M30.565,120.82 C30.564,120.584 30.562,120.347 30.561,120.111 C30.572,119.696 30.583,119.28 30.595,118.864 C30.604,118.661 30.56,118.319 30.717,118.134 C30.726,118.139 30.735,118.143 30.744,118.148 C30.908,118.492 30.706,120.326 30.582,120.81 C30.58,120.814 30.579,120.821 30.577,120.825 C30.573,120.824 30.569,120.822 30.565,120.82 L30.565,120.82 Z M30.678,120.547 C30.677,120.551 30.676,120.554 30.675,120.558 C30.676,120.554 30.677,120.551 30.678,120.547 L30.678,120.547 Z M30.648,117.761 C30.643,117.759 30.638,117.757 30.634,117.755 C30.62,117.735 30.607,117.715 30.594,117.695 C30.563,117.449 30.532,117.203 30.502,116.958 C30.474,116.563 30.492,116.195 30.515,115.789 C30.631,115.826 30.744,115.868 30.857,115.911 C30.876,116.368 30.878,117.422 30.648,117.761 L30.648,117.761 Z M30.174,116.678 C30.345,117.516 30.35,118.379 30.412,119.238 C30.452,119.728 30.492,120.218 30.531,120.708 C30.526,120.706 30.522,120.704 30.517,120.702 C30.521,120.694 30.524,120.687 30.527,120.679 C30.438,120.202 30.348,119.724 30.259,119.246 C30.081,118.417 29.871,117.567 29.806,116.719 C29.786,116.464 29.66,115.957 29.721,115.607 C29.808,115.621 29.896,115.633 29.982,115.651 C30.103,115.977 30.129,116.457 30.174,116.678 L30.174,116.678 Z M30.052,119.677 C29.813,119.032 29.574,118.388 29.336,117.743 C29.24,117.447 28.985,117.017 29.062,116.701 C29.289,116.896 29.446,117.498 29.531,117.756 C29.765,118.459 29.998,119.163 30.214,119.877 C30.3,120.149 30.385,120.421 30.471,120.693 C30.455,120.667 30.438,120.641 30.422,120.615 C30.298,120.302 30.175,119.989 30.052,119.677 L30.052,119.677 Z M28.791,117.237 C29.055,117.799 29.319,118.361 29.583,118.922 C29.868,119.525 30.153,120.128 30.437,120.731 C30.124,120.219 29.81,119.706 29.497,119.193 C29.797,119.699 30.096,120.205 30.396,120.711 C30.079,120.27 29.762,119.828 29.445,119.386 C28.933,118.662 28.421,117.95 27.945,117.225 C27.72,116.883 27.432,116.517 27.355,116.141 C27.393,116.141 27.39,116.138 27.448,116.158 C27.93,116.639 28.217,117.187 28.569,117.702 C28.42,117.449 28.27,117.196 28.12,116.943 C27.878,116.561 27.643,116.141 27.433,115.721 C27.613,115.674 27.791,115.638 27.968,115.609 C27.99,115.648 28.015,115.7 28.036,115.734 C28.329,116.204 28.606,116.741 28.791,117.237 L28.791,117.237 Z M26.685,116.335 C27.643,117.291 28.429,118.326 29.219,119.331 C29.648,119.859 30.078,120.387 30.507,120.914 C30.062,120.497 29.617,120.08 29.173,119.662 C28.117,118.674 27.04,117.723 26.116,116.715 C26.046,116.638 25.942,116.526 25.828,116.398 C26.032,116.278 26.236,116.171 26.439,116.078 C26.521,116.166 26.603,116.254 26.685,116.335 L26.685,116.335 Z M27.378,118.584 C27.943,119.005 28.509,119.426 29.075,119.846 C29.505,120.171 29.935,120.495 30.365,120.819 C30.364,120.823 30.362,120.826 30.36,120.83 C29.677,120.385 28.995,119.939 28.312,119.494 C27.116,118.665 25.821,117.929 24.905,117.052 C24.933,117.028 24.96,116.998 24.987,116.975 C25.863,117.45 26.654,118.035 27.378,118.584 L27.378,118.584 Z M30.41,120.868 C30.394,120.855 30.377,120.843 30.36,120.83 C30.379,120.839 30.397,120.848 30.415,120.857 C30.414,120.86 30.412,120.864 30.41,120.868 L30.41,120.868 Z M27.493,119.305 C28.043,119.61 28.594,119.914 29.144,120.219 C29.381,120.375 30.53,120.91 30.556,120.992 C30.268,120.81 29.498,120.445 29.053,120.311 C28.706,120.163 28.36,120.015 28.013,119.867 L26.183,119.057 C25.732,118.844 25.28,118.632 24.828,118.42 C24.624,118.281 24.605,118.376004 24.327,118.242004 C24.413,118.118004 24.316602,118.015809 24.404602,117.903809 C24.455602,117.925809 24.428,117.714 24.479,117.736 C25.549,118.243 26.579,118.703 27.493,119.305 Z M27.07,120.338 C27.306,120.397 27.542,120.456 27.777,120.515 C27.785,120.523 27.792,120.531 27.8,120.539 C27.363,120.605 25.333,120.344 24.751,120.068 C24.756,120.057 24.761,120.045 24.766,120.034 C24.767,120.03 24.769,120.027 24.771,120.023 C25.455,119.99 26.302,120.183 27.07,120.338 L27.07,120.338 Z M24.106,119.147 C24.446,119.035 25.111,119.31 25.555,119.421 C26.612,119.686 27.728,120.102 28.822,120.418 C29.3,120.571 29.778,120.723 30.257,120.876 C30.278,120.89 30.299,120.905 30.321,120.92 C29.763,120.784 29.205,120.647 28.647,120.511 C27.723,120.316 26.846,120.042 25.903,119.805 C25.56,119.719 24.427,119.471 24.137,119.189 C24.127,119.175 24.116,119.161 24.106,119.147 L24.106,119.147 Z M26.4395518,120.674 C27.2398474,120.669 28.1081475,120.727 28.944104,120.833 C29.3546183,120.871 29.7651327,120.91 30.175647,120.948 C29.8314784,120.864 29.4897978,120.954 29.1149443,120.782 C29.1224082,120.773 29.1307014,120.764 29.1381653,120.755 C29.4549663,120.798 29.7717673,120.841 30.0885682,120.884 C30.1632072,120.895 30.4153211,120.966 30.4111745,120.948 C30.4377128,120.99 30.4219557,120.959 30.4219557,120.995 C30.0006601,120.926 29.5412158,121.074 29.1456292,121.113 C28.2275698,121.202 27.3103398,121.309 26.3591075,121.308 C26.1725101,121.307 25.0496082,121.265 24.9699933,120.979 C24.9641881,120.934 24.9641881,120.954 24.9832625,120.905 C25.3523107,120.615 25.9494225,120.677 26.4395518,120.674 L26.4395518,120.674 Z M24.869,122.257 C24.872,122.25 24.875,122.243 24.879,122.235 C24.915,122.036 25.944,121.834 26.166,121.779 C27.107,121.549 28.11,121.358 29.098,121.23 C29.52,121.156 29.942,121.083 30.365,121.009 C30.374,121.013 30.383,121.018 30.392,121.022 C29.855,121.167 29.317,121.313 28.78,121.458 C28.057,121.722 27.218,121.968 26.418,122.077 C26.021,122.132 25.332,122.425 24.869,122.257 L24.869,122.257 Z M25.568,123.245 C26.635,122.723 27.695,122.247 28.776,121.768 C29.313,121.531 29.915,121.345 30.415,121.047 C29.931,121.349 29.446,121.651 28.962,121.953 C27.945,122.601 26.929,123.244 25.872,123.803 C25.552,123.723 25.249,123.64 24.961,123.556 C25.215,123.417 25.448,123.304 25.568,123.245 L25.568,123.245 Z M29.223,122.119 C29.623,121.781 30.023,121.443 30.423,121.105 C30.091,121.489 29.76,121.874 29.429,122.258 C28.84,122.891 28.317,123.576 27.745,124.189 C27.486,124.147 27.23,124.104 26.982,124.055 C27.69,123.329 28.496,122.7 29.223,122.119 L29.223,122.119 Z M30.45,121.118 C30.446,121.116 30.441,121.114 30.436,121.111 L30.451,121.078 C30.451,121.091 30.451,121.104 30.45,121.118 L30.45,121.118 Z M28.643,124.3 C28.592,124.019 28.921,123.534 29.079,123.313 C29.555,122.563 30.031,121.814 30.507,121.064 C30.377,121.346 30.247,121.627 30.117,121.909 C29.7,122.508 29.242,124.047 28.698,124.318 C28.68,124.316 28.664,124.314 28.646,124.312 L28.643,124.3 L28.643,124.3 Z M29.391,124.346 C29.52,123.991 29.649,123.636 29.778,123.282 C30.026,122.568 30.275,121.854 30.524,121.14 C30.431,121.589 30.339,122.038 30.246,122.487 C30.148,123.129 30.006,123.768 29.861,124.412 C29.7,124.405 29.541,124.392 29.382,124.38 C29.385,124.369 29.388,124.358 29.391,124.346 L29.391,124.346 Z M30.586,123.343 C30.731,123.653 30.691,124.08 30.702,124.426 C30.628,124.426 30.554,124.426 30.481,124.425 C30.487,124.073 30.468,123.689 30.586,123.343 L30.586,123.343 Z M30.843,122.611 C30.772,122.165 30.702,121.719 30.632,121.273 L30.974,122.578 C31.138,123.185 31.285,123.795 31.438,124.403 C31.337,124.409 31.235,124.421 31.133,124.424 C31.044,123.823 30.967,123.219 30.843,122.611 L30.843,122.611 Z M30.65,120.969 C30.654,120.985 30.658,121 30.662,121.016 C30.643,120.982 30.653,121.011 30.65,120.969 L30.65,120.969 Z M30.637,120.922 C30.629,120.914 30.622,120.906 30.614,120.898 C30.624,120.875 30.634,120.853 30.644,120.83 C30.642,120.861 30.639,120.892 30.637,120.922 L30.637,120.922 Z M30.591,120.914 C30.577,120.907 30.563,120.9 30.549,120.894 C30.563,120.887 30.578,120.88 30.592,120.873 C30.591,120.887 30.591,120.9 30.591,120.914 L30.591,120.914 Z M30.541,122.914 C30.534,122.906 30.526,122.898 30.519,122.89 C30.547,122.369 30.463,121.777 30.563,121.24 C30.647,121.538 30.633,122.595 30.541,122.914 L30.541,122.914 Z M30.515,120.972 C30.525,120.986 30.536,121 30.546,121.014 C30.532,121.008 30.518,121.001 30.505,120.995 C30.508,120.987 30.511,120.98 30.515,120.972 L30.515,120.972 Z M30.654,121.148 C30.933,121.626 31.212,122.104 31.49,122.582 C31.849,123.147 32.191,123.722 32.518,124.3 C32.358,124.322 32.199,124.346 32.039,124.362 C31.578,123.291 31.116,122.219 30.654,121.148 L30.654,121.148 Z M31.649,122.373 C31.353,121.986 31.056,121.599 30.759,121.212 C30.955,121.437 31.15,121.662 31.346,121.887 C31.77,122.399 32.225,122.886 32.636,123.39 C32.835,123.633 33.099,123.904 33.299,124.177 C33.237,124.19 33.174,124.199 33.111,124.211 C32.557,123.62 32.12,122.977 31.649,122.373 L31.649,122.373 Z M30.829,121.205 C31.46,121.729 32.092,122.254 32.723,122.779 C33.192,123.168 33.692,123.561 34.176,123.962 C34.079,123.989 33.981,124.009 33.884,124.033 C33.186,123.398 32.487,122.774 31.823,122.13 C31.492,121.822 31.161,121.513 30.829,121.205 L30.829,121.205 Z M30.818,121.118 C31.466,121.465 32.114,121.812 32.762,122.16 C33.323,122.521 33.947,122.773 34.489,123.102 C34.474,123.189 34.459,123.273 34.444,123.348 C33.664,122.911 32.906,122.429 32.278,122.009 C31.791,121.712 31.305,121.415 30.818,121.118 L30.818,121.118 Z M32.746,121.894 C33.352,122.124 33.958,122.354 34.564,122.585 C34.557,122.647 34.549,122.705 34.541,122.764 C34.437,122.715 34.333,122.669 34.23,122.619 C33.888,122.455 32.963,122.124 32.746,121.894 L32.746,121.894 Z M34.626,121.383 C34.628,121.474 34.626,121.563 34.625,121.652 C33.787,121.568 32.889,121.363 32.025,121.221 C31.613,121.146 31.201,121.07 30.788,120.995 C31.726,121.078 32.664,121.161 33.601,121.244 C33.943,121.29 34.285,121.336 34.626,121.383 L34.626,121.383 Z M34.517,120.225 C34.113,120.306 33.703,120.371 33.33,120.421 C32.482,120.589 31.634,120.757 30.786,120.926 C30.85,120.907 30.914,120.887 30.978,120.868 C31.594,120.671 32.211,120.473 32.827,120.275 C33.345,120.083 33.89,119.939 34.425,119.78 C34.462,119.929 34.491,120.077 34.517,120.225 L34.517,120.225 Z M33.381,119.739 C33.396,119.755 33.411,119.772 33.427,119.788 C32.832,120.169 32.193,120.359 31.543,120.61 C31.291,120.702 31.039,120.794 30.787,120.885 C31.015,120.773 31.243,120.66 31.471,120.548 C32.082,120.233 32.688,119.89 33.381,119.739 L33.381,119.739 Z M30.749,121.085 C30.732,121.072 30.715,121.059 30.699,121.047 C30.717,121.056 30.735,121.065 30.754,121.073 C30.752,121.077 30.751,121.081 30.749,121.085 L30.749,121.085 Z M30.7,120.817 C30.7,120.83 30.7,120.844 30.699,120.857 C30.695,120.855 30.69,120.852 30.685,120.85 L30.7,120.817 L30.7,120.817 Z M30.774,121.029 C32.052,121.379 33.33,121.729 34.608,122.079 C34.602,122.176 34.595,122.271 34.587,122.363 C34.211,122.233 33.834,122.106 33.456,121.99 C32.827,121.77 32.198,121.55 31.57,121.33 C31.503,121.307 31.44,121.283 31.372,121.261 C31.199,121.201 31.025,121.14 30.851,121.079 C30.994,121.144 31.182,121.2 31.372,121.261 L31.57,121.33 C31.774,121.404 31.967,121.487 32.089,121.605 C32.087,121.609 32.085,121.613 32.084,121.617 C31.914,121.56 30.794,121.153 30.714,121.013 C30.755,121.033 30.796,121.053 30.838,121.073 C30.816,121.058 30.795,121.043 30.774,121.029 L30.774,121.029 Z M31.617,119.952 C31.332,120.232 31.046,120.512 30.761,120.792 C30.757,120.79 30.752,120.787 30.748,120.785 C31.177,120.28 31.606,119.775 32.035,119.27 C32.465,118.788 32.856,118.188 33.394,117.897 C33.408,117.904 33.421,117.91 33.435,117.917 C33.28,118.292 32.972,118.557 32.727,118.8 L31.617,119.952 L31.617,119.952 Z M29.02,116.342 C28.912,116.218 28.743,115.893 28.604,115.543 C28.722,115.538 28.839,115.536 28.955,115.539 C29.037,115.878 29.079,116.2 29.066,116.351 C29.051,116.348 29.036,116.345 29.02,116.342 L29.02,116.342 Z M31.688,119.375 C31.346,119.859 31.005,120.342 30.663,120.826 C31.003,120.169 31.343,119.513 31.684,118.856 C31.8,118.618 31.917,118.38 32.033,118.141 C32.283,117.784 32.477,117.385 32.678,116.998 C32.82,117.119 32.954,117.245 33.081,117.375 C32.617,118.06 32.19,118.744 31.688,119.375 L31.688,119.375 Z" id="Shape" fill="#22AC32" sketch:type="MSShapeGroup"></path>
            <path d="M56.242,120.138 C57.007,120.216 57.722,120.455 58.362,120.8 C61.172,124.961 56.431,129.009 56.431,129.009 C52.462,124.817 54.793,121.54 56.242,120.138 L56.242,120.138 Z" id="Shape" fill="#14321B" sketch:type="MSShapeGroup"></path>
            <path d="M28.359,124.277 C24.349,120.398 26.801,116.896 28.013,115.601 C28.398,115.542 28.775,115.526 29.143,115.546 C33.055,118.953 30.082,123.166 29.088,124.361 C28.841,124.339 28.6,124.308 28.359,124.277 L28.359,124.277 Z" id="Shape" fill="#14321B" sketch:type="MSShapeGroup"></path>
            <path d="M47.334,129.397 C47.334,129.397 40.748,126.4 37.446,127.543 C34.145,128.686 36.382,130.946 37.878,130.692 C39.375,130.438 40.699,128.924 39.851,130.668 C39.004,132.413 43.344,132.361 43.412,131.414 C43.48,130.468 44.192,130.617 45,132.184 C45.808,133.751 48.859,131.507 47.334,129.397 L47.334,129.397 Z" id="Shape" fill="#785122" sketch:type="MSShapeGroup"></path>
            <path d="M27.371,133.574 C27.371,133.574 30.313,135.444 33.713,135.726 C36.683,135.972 40.012,134.798 41.904,132.833 C41.904,132.833 40.793,138.152 54.212,138.841 C54.212,138.841 52.571,138.889 50.195,138.872 C48.391,138.858 45.866,137.897 45.396,137.913 C45.396,137.913 41.639,135.262 41.082,135.193 C39.672,135.019 38.806,136.468 33.696,136.28 C33.696,136.28 27.764,134.603 27.371,133.574 L27.371,133.574 Z" id="Shape" fill="#9C8F53" sketch:type="MSShapeGroup"></path>
            <path d="M34.112,136 C34.112,136 33.778,142.474 39.112,143 C44.446,143.526 46.112,138 46.112,138 C46.112,138 41.946,136.821 41.112,134 C41.112,134 40.358,136.271 34.112,136 L34.112,136 Z" id="Shape" fill="#37132E" sketch:type="MSShapeGroup"></path>
            <path d="M44.285,141.061 C43.188,142.232 41.53,143.239 39.112,143 C36.592,142.751 35.345,141.174 34.722,139.58 C37.829,138.929 41.795,138.744 44.285,141.061 L44.285,141.061 Z" id="Shape" fill="#CF6666" sketch:type="MSShapeGroup"></path>
            <path d="M27.192,131.929 C27.435,131.95 27.615,132.164 27.594,132.407 C27.573,132.649 27.359,132.829 27.116,132.808 C26.873,132.787 26.694,132.573 26.715,132.331 C26.736,132.088 26.949,131.908 27.192,131.929 L27.192,131.929 Z" id="Shape" fill="#9C8F53" sketch:type="MSShapeGroup"></path>
            <path d="M29.102,130.325 C29.345,130.346 29.525,130.559 29.504,130.802 C29.483,131.044 29.269,131.224 29.026,131.203 C28.784,131.182 28.604,130.968 28.625,130.726 C28.646,130.484 28.86,130.304 29.102,130.325 L29.102,130.325 Z" id="Shape" fill="#9C8F53" sketch:type="MSShapeGroup"></path>
            <path d="M25.586,130.021 C25.829,130.042 26.009,130.256 25.988,130.498 C25.967,130.741 25.753,130.92 25.51,130.899 C25.267,130.878 25.088,130.665 25.108,130.422 C25.129,130.18 25.343,130 25.586,130.021 L25.586,130.021 Z" id="Shape" fill="#9C8F53" sketch:type="MSShapeGroup"></path>
            <path d="M27.496,128.417 C27.739,128.438 27.919,128.651 27.898,128.894 C27.877,129.136 27.663,129.316 27.42,129.295 C27.177,129.274 26.998,129.06 27.019,128.818 C27.04,128.575 27.253,128.396 27.496,128.417 L27.496,128.417 Z" id="Shape" fill="#9C8F53" sketch:type="MSShapeGroup"></path>
            <path d="M52.458,136.765 C52.701,136.786 52.881,137 52.86,137.242 C52.839,137.485 52.625,137.664 52.382,137.643 C52.14,137.622 51.96,137.409 51.981,137.166 C52.002,136.924 52.216,136.744 52.458,136.765 L52.458,136.765 Z" id="Shape" fill="#9C8F53" sketch:type="MSShapeGroup"></path>
            <path d="M54.369,135.161 C54.611,135.182 54.791,135.395 54.77,135.638 C54.749,135.88 54.535,136.06 54.293,136.039 C54.05,136.018 53.87,135.804 53.891,135.562 C53.912,135.319 54.126,135.14 54.369,135.161 L54.369,135.161 Z" id="Shape" fill="#9C8F53" sketch:type="MSShapeGroup"></path>
            <path d="M50.852,134.857 C51.095,134.878 51.275,135.092 51.254,135.334 C51.233,135.577 51.019,135.756 50.776,135.735 C50.533,135.714 50.354,135.501 50.375,135.258 C50.396,135.016 50.609,134.836 50.852,134.857 L50.852,134.857 Z" id="Shape" fill="#9C8F53" sketch:type="MSShapeGroup"></path>
            <path d="M52.762,133.253 C53.005,133.273 53.185,133.487 53.164,133.73 C53.143,133.972 52.929,134.152 52.686,134.131 C52.444,134.11 52.264,133.896 52.285,133.654 C52.306,133.411 52.52,133.232 52.762,133.253 L52.762,133.253 Z" id="Shape" fill="#9C8F53" sketch:type="MSShapeGroup"></path>
            <path d="M24.342,200.693 C24.342,200.693 24.6311987,205.031997 25.1244506,205.673218 C25.6177026,206.314438 28.0104982,206.995667 29.1658937,206.128723 L28.957,201.092 L29.7332404,204.249072 L30.104,205.757 C30.104,205.757 27.636,209.197 23.95,205.226 L24.342,200.693 Z" id="Shape" opacity="0.502" fill="#644E41" sketch:type="MSShapeGroup"></path>
            <path d="M50.3989998,204.956932 C50.3626004,203.869835 50.2923808,203.440735 50.2559814,202.353638 C50.064149,203.343838 49.880187,204.419956 49.6883546,205.410156 C49.5904735,205.915399 49.4847219,206.334723 49.3868407,206.839966 C49.3868407,206.839966 46.8936768,207.631966 46.1472168,206.839966 C46.2148515,206.339531 46.0795821,205.679756 46.1472168,205.179321 C46.3088432,203.983434 46.6733737,202.946887 46.835,201.751 C46.4460374,202.755346 45.9890602,203.271899 45.6000976,204.276245 C45.4187268,204.744566 45.1531982,205.707398 45.3094482,206.839966 C45.3094482,206.839966 46.6726074,209.22937 50.565674,207.180542 C50.5544005,206.843852 50.4102733,205.293622 50.3989998,204.956932 Z" id="Shape" opacity="0.502" fill="#644E41" sketch:type="MSShapeGroup"></path>
            <path d="M57.0476088,122 C57.0476088,122 56.7970941,122.662606 56.7222251,123.225062 C56.6689172,123.625539 56.7046556,123.975244 56.9832708,123.998846 C57.6531908,124.055596 57.0476088,122 57.0476088,122 Z" id="Path-224" fill="#FFFFFF" sketch:type="MSShapeGroup"></path>
        </g>
        <path d="M29.0476088,117 C29.0476088,117 28.7970941,117.662606 28.7222251,118.225062 C28.6689172,118.625539 28.7046556,118.975244 28.9832708,118.998846 C29.6531908,119.055596 29.0476088,117 29.0476088,117 Z" id="Path" fill="#FFFFFF" sketch:type="MSShapeGroup"></path>
    </g>
</svg>