<?xml version="1.0" encoding="utf-8"?><!DOCTYPE svg PUBLIC "-//W3C//DTD SVG 1.1//EN" "http://www.w3.org/Graphics/SVG/1.1/DTD/svg11.dtd"><svg version="1.1" baseProfile="full" xmlns="http://www.w3.org/2000/svg" xmlns:xlink="http://www.w3.org/1999/xlink" xmlns:ev="http://www.w3.org/2001/xml-events"   height="41px"   width="41px" ><defs><linearGradient id="PSgrad_0" x1="0%" x2="0%" y1="100%" y2="0%">  <stop offset="0%" stop-color="rgb(243,234,186)" stop-opacity="1" />  <stop offset="100%" stop-color="rgb(246,240,204)" stop-opacity="1" /></linearGradient><linearGradient id="PSgrad_1" x1="0%" x2="0%" y1="100%" y2="0%">  <stop offset="0%" stop-color="rgb(189,139,89)" stop-opacity="1" />  <stop offset="100%" stop-color="rgb(204,165,126)" stop-opacity="1" /></linearGradient></defs><path fill="rgb( 243, 234, 185 )" d="M20.5,0 C31.8219999999999,0 41,9.178 41,20.5 C41,31.822 31.8219999999999,41 20.5,41 C9.17800000000011,41 0,31.822 0,20.5 C0,9.178 9.17800000000011,0 20.5,0 Z "/><path fill="url(#PSgrad_0)" d="M20.5,0 C31.8219999999999,0 41,9.178 41,20.5 C41,31.822 31.8219999999999,41 20.5,41 C9.17800000000011,41 0,31.822 0,20.5 C0,9.178 9.17800000000011,0 20.5,0 Z "/><path fill="rgb( 186, 134, 82 )" d="M34.0070000000001,19.99 C34.0070000000001,19.99 22.7660000000001,8.99099999999999 22.7660000000001,8.99099999999999 C22.7660000000001,8.99099999999999 22.7660000000001,15.978 22.7660000000001,15.978 C22.7660000000001,15.978 8,15.978 8,15.978 C8,15.978 10.047,19.99 10.047,19.99 C10.047,19.99 8,24.003 8,24.003 C8,24.003 22.7660000000001,24.003 22.7660000000001,24.003 C22.7660000000001,24.003 22.7660000000001,30.99 22.7660000000001,30.99 C22.7660000000001,30.99 34.0070000000001,19.99 34.0070000000001,19.99 Z "/><path fill="url(#PSgrad_1)" d="M34.0070000000001,19.99 C34.0070000000001,19.99 22.7660000000001,8.99099999999999 22.7660000000001,8.99099999999999 C22.7660000000001,8.99099999999999 22.7660000000001,15.978 22.7660000000001,15.978 C22.7660000000001,15.978 8,15.978 8,15.978 C8,15.978 10.047,19.99 10.047,19.99 C10.047,19.99 8,24.003 8,24.003 C8,24.003 22.7660000000001,24.003 22.7660000000001,24.003 C22.7660000000001,24.003 22.7660000000001,30.99 22.7660000000001,30.99 C22.7660000000001,30.99 34.0070000000001,19.99 34.0070000000001,19.99 Z "/></svg>