<?xml version="1.0" encoding="utf-8"?><!DOCTYPE svg PUBLIC "-//W3C//DTD SVG 1.1//EN" "http://www.w3.org/Graphics/SVG/1.1/DTD/svg11.dtd"><svg version="1.1" baseProfile="full" xmlns="http://www.w3.org/2000/svg" xmlns:xlink="http://www.w3.org/1999/xlink" xmlns:ev="http://www.w3.org/2001/xml-events"   height="115px"   width="243px" ><defs><linearGradient id="PSgrad_0" x1="0%" x2="0%" y1="100%" y2="0%">  <stop offset="0%" stop-color="rgb(255,199,43)" stop-opacity="1" />  <stop offset="67%" stop-color="rgb(255,231,114)" stop-opacity="1" />  <stop offset="100%" stop-color="rgb(255,237,126)" stop-opacity="1" /></linearGradient></defs><path fill="rgb( 24, 126, 171 )" d="M237.401,69.017 C234.803,71.429 231.643,72.716 227.921,72.878 C224.386,73.032 221.488,72.317 219.229,70.733 C218.909,70.509 218.616,70.272 218.339,70.027 C217.928,70.579 217.059,71.217 215.666,71.953 C213.661,73.012 211.759,73.581 209.961,73.659 C205.091,73.871 202.526,70.974 202.265,64.967 C202.265,64.967 200.936,34.425 200.936,34.425 C200.936,34.425 199.308,34.496 199.308,34.496 C198.594,34.527 198.224,34.235 198.197,33.619 C198.197,33.619 198.097,31.308 198.097,31.308 C198.069,30.661 198.384,30.062 199.044,29.508 C199.915,28.822 200.457,28.066 200.67,27.238 C200.882,26.412 200.948,25.074 200.868,23.225 C200.868,23.225 200.538,15.648 200.538,15.648 C200.506,14.908 200.983,14.456 201.971,14.289 C201.971,14.289 207.62,13.441 207.62,13.441 C208.113,13.359 208.438,13.313 208.593,13.307 C209.027,13.288 209.26,13.648 209.293,14.387 C209.293,14.387 209.93,29.034 209.93,29.034 C209.93,29.034 214.675,28.828 214.675,28.828 C215.574,28.789 216.04,29.124 216.07,29.832 C216.07,29.832 216.193,32.65 216.193,32.65 C216.225,33.39 215.884,33.775 215.171,33.806 C215.171,33.806 210.147,34.024 210.147,34.024 C210.147,34.024 211.369,62.117 211.369,62.117 C211.502,65.167 212.514,66.651 214.406,66.568 C214.84,66.549 215.303,66.468 215.794,66.323 C215.851,66.304 215.894,66.296 215.947,66.28 C215.792,65.709 215.698,65.108 215.67,64.476 C215.609,63.06 215.99,61.817 216.813,60.746 C217.636,59.677 218.87,59.106 220.514,59.035 C223.491,58.905 225.041,60.242 225.163,63.045 C225.183,63.507 225.114,64.112 224.957,64.859 C224.796,65.546 224.722,66.027 224.734,66.304 C224.8,67.814 225.919,68.521 228.093,68.426 C229.739,68.355 231.082,67.78 232.125,66.7 C233.167,65.621 233.659,64.419 233.601,63.094 C233.538,61.647 233.007,60.335 232.009,59.159 C231.009,57.984 229.084,56.409 226.233,54.434 C222.388,51.762 219.661,49.435 218.053,47.453 C216.444,45.471 215.577,43.047 215.452,40.182 C215.293,36.517 216.466,33.488 218.972,31.094 C221.478,28.702 224.406,27.432 227.755,27.287 C230.795,27.154 233.332,27.801 235.367,29.224 C237.402,30.648 238.47,32.514 238.57,34.825 C238.628,36.149 238.22,37.309 237.347,38.304 C236.473,39.299 235.308,39.827 233.85,39.891 C232.671,39.942 231.61,39.641 230.665,38.988 C229.72,38.335 229.219,37.361 229.163,36.067 C229.14,35.544 229.256,34.952 229.512,34.293 C229.683,33.854 229.763,33.526 229.754,33.31 C229.707,32.232 228.86,31.729 227.213,31.801 C226.033,31.852 225.002,32.321 224.123,33.208 C223.244,34.096 222.837,35.294 222.903,36.803 C222.959,38.096 223.431,39.303 224.319,40.421 C225.206,41.54 227.489,43.3 231.167,45.702 C234.717,48.017 237.219,50.183 238.674,52.203 C240.129,54.223 240.914,56.543 241.028,59.16 C241.208,63.319 240,66.605 237.401,69.017 ZM200.161,49.921 C200.194,50.66 199.822,51.047 199.047,51.08 C199.047,51.08 184.532,51.712 184.532,51.712 C184.532,51.712 184.697,55.501 184.697,55.501 C184.878,59.659 185.42,62.83 186.324,65.013 C187.227,67.195 188.689,68.243 190.707,68.155 C193.066,68.052 194.599,65.733 195.304,61.196 C195.304,61.196 200.306,61.812 200.306,61.812 C199.947,70.006 196.419,74.249 189.72,74.54 C185.285,74.733 181.684,73.023 178.917,69.409 C176.149,65.795 174.604,60.276 174.281,52.852 C173.968,45.644 174.954,39.923 177.24,35.688 C179.526,31.453 182.746,29.245 186.903,29.064 C190.593,28.903 193.64,30.376 196.044,33.481 C198.447,36.586 199.763,40.772 199.993,46.04 C199.993,46.04 200.161,49.921 200.161,49.921 ZM190.779,39.959 C190.586,35.524 189.342,33.356 187.047,33.456 C184.845,33.551 183.867,36.434 184.114,42.101 C184.114,42.101 184.311,46.629 184.311,46.629 C184.311,46.629 191.057,46.336 191.057,46.336 C191.057,46.336 190.779,39.959 190.779,39.959 ZM176.863,11.58 C176.863,11.58 167.452,74.035 167.452,74.035 C167.308,74.993 166.881,75.487 166.17,75.518 C166.17,75.518 164.272,75.601 164.272,75.601 C163.561,75.632 163.092,75.17 162.866,74.216 C162.866,74.216 147.896,13.21 147.896,13.21 C147.335,11.013 146.289,9.47000000000001 144.759,8.581 C143.929,8.093 143.5,7.495 143.469,6.787 C143.469,6.787 143.376,4.663 143.376,4.663 C143.346,3.95500000000001 143.734,3.58300000000001 144.543,3.54799999999999 C144.543,3.54799999999999 158.958,2.921 158.958,2.921 C159.704,2.888 160.094,3.257 160.128,4.026 C160.128,4.026 160.228,6.33300000000001 160.228,6.33300000000001 C160.254,6.918 159.885,7.45800000000001 159.123,7.954 C158.09,8.677 157.596,9.562 157.642,10.607 C157.659,11.007 157.726,11.482 157.844,12.032 C157.844,12.032 165.833,44.629 165.833,44.629 C165.833,44.629 170.804,12.208 170.804,12.208 C170.905,11.68 170.948,11.231 170.932,10.861 C170.876,9.569 170.13,8.584 168.695,7.907 C167.609,7.36900000000001 167.051,6.746 167.02,6.038 C167.02,6.038 166.92,3.73 166.92,3.73 C166.887,2.96100000000001 167.305,2.558 168.177,2.52 C168.177,2.52 179.193,2.04 179.193,2.04 C180.126,2.00000000000001 180.61,2.364 180.644,3.13400000000001 C180.644,3.13400000000001 180.744,5.443 180.744,5.443 C180.778,6.212 180.369,6.832 179.52,7.30099999999999 C178.065,8.135 177.179,9.562 176.863,11.58 ZM87.832,78.973 C84.296,79.127 81.399,78.412 79.139,76.828 C78.819,76.604 78.526,76.367 78.249,76.122 C77.838,76.674 76.969,77.312 75.576,78.048 C73.572,79.107 71.669,79.676 69.871,79.754 C65.002,79.966 62.437,77.069 62.175,71.062 C62.175,71.062 60.846,40.52 60.846,40.52 C60.846,40.52 59.218,40.591 59.218,40.591 C58.504,40.622 58.135,40.33 58.108,39.714 C58.108,39.714 58.007,37.403 58.007,37.403 C57.979,36.756 58.295,36.157 58.954,35.603 C59.826,34.917 60.367,34.161 60.58,33.333 C60.793,32.507 60.859,31.169 60.779,29.32 C60.779,29.32 60.449,21.743 60.449,21.743 C60.417,21.003 60.894,20.551 61.881,20.384 C61.881,20.384 67.531,19.537 67.531,19.537 C68.024,19.454 68.348,19.408 68.504,19.402 C68.938,19.383 69.171,19.743 69.203,20.482 C69.203,20.482 69.84,35.129 69.84,35.129 C69.84,35.129 74.586,34.923 74.586,34.923 C75.485,34.884 75.95,35.219 75.981,35.927 C75.981,35.927 76.104,38.745 76.104,38.745 C76.136,39.485 75.795,39.87 75.082,39.901 C75.082,39.901 70.058,40.12 70.058,40.12 C70.058,40.12 71.28,68.213 71.28,68.213 C71.412,71.262 72.425,72.746 74.317,72.663 C74.751,72.645 75.213,72.563 75.704,72.418 C75.762,72.4 75.804,72.391 75.858,72.376 C75.702,71.804 75.608,71.203 75.581,70.571 C75.519,69.155 75.9,67.912 76.724,66.841 C77.547,65.772 78.78,65.201 80.425,65.13 C83.402,65 84.952,66.337 85.074,69.14 C85.094,69.602 85.025,70.207 84.867,70.954 C84.706,71.641 84.632,72.122 84.644,72.399 C84.71,73.909 85.83,74.616 88.004,74.521 C89.649,74.45 90.993,73.875 92.035,72.795 C93.077,71.716 93.57,70.514 93.512,69.19 C93.449,67.742 92.918,66.431 91.919,65.254 C90.92,64.079 88.995,62.504 86.144,60.529 C82.299,57.858 79.571,55.531 77.963,53.548 C76.354,51.566 75.488,49.142 75.363,46.277 C75.203,42.612 76.377,39.583 78.883,37.189 C81.389,34.797 84.316,33.527 87.666,33.382 C90.705,33.249 93.242,33.896 95.278,35.319 C97.312,36.743 98.38,38.61 98.481,40.92 C98.539,42.245 98.13,43.405 97.257,44.399 C96.384,45.394 95.218,45.923 93.761,45.986 C92.582,46.037 91.52,45.736 90.575,45.083 C89.63,44.43 89.13,43.456 89.073,42.162 C89.051,41.639 89.167,41.047 89.423,40.388 C89.593,39.949 89.674,39.621 89.664,39.405 C89.617,38.328 88.77,37.824 87.124,37.896 C85.943,37.947 84.913,38.416 84.034,39.303 C83.154,40.191 82.748,41.389 82.813,42.898 C82.869,44.191 83.341,45.398 84.229,46.516 C85.117,47.635 87.399,49.395 91.077,51.797 C94.627,54.112 97.129,56.278 98.585,58.298 C100.039,60.318 100.824,62.638 100.938,65.256 C101.119,69.414 99.91,72.7 97.312,75.112 C94.714,77.524 91.554,78.811 87.832,78.973 ZM60.072,56.016 C60.104,56.755 59.732,57.142 58.957,57.175 C58.957,57.175 44.443,57.807 44.443,57.807 C44.443,57.807 44.607,61.596 44.607,61.596 C44.788,65.754 45.331,68.925 46.235,71.108 C47.138,73.29 48.599,74.338 50.617,74.25 C52.977,74.147 54.509,71.828 55.214,67.291 C55.214,67.291 60.216,67.907 60.216,67.907 C59.858,76.101 56.33,80.344 49.631,80.635 C45.195,80.828 41.595,79.118 38.827,75.504 C36.06,71.89 34.515,66.371 34.192,58.947 C33.878,51.739 34.864,46.018 37.15,41.783 C39.436,37.548 42.657,35.34 46.813,35.159 C50.504,34.999 53.551,36.471 55.954,39.576 C58.357,42.681 59.674,46.867 59.903,52.135 C59.903,52.135 60.072,56.016 60.072,56.016 ZM50.69,46.054 C50.497,41.619 49.252,39.451 46.958,39.551 C44.755,39.646 43.778,42.529 44.024,48.196 C44.024,48.196 44.222,52.724 44.222,52.724 C44.222,52.724 50.967,52.431 50.967,52.431 C50.967,52.431 50.69,46.054 50.69,46.054 ZM15.443,48.051 C15.443,48.051 16.507,72.494 16.507,72.494 C16.576,74.096 17.217,75.271 18.431,76.021 C19.26,76.51 19.69,77.108 19.721,77.816 C19.721,77.816 19.812,79.896 19.812,79.896 C19.842,80.605 19.454,80.976 18.648,81.011 C18.648,81.011 4.13400000000001,81.642 4.13400000000001,81.642 C3.45099999999996,81.672 3.096,81.364 3.06799999999998,80.717 C3.06799999999998,80.717 2.97399999999999,78.545 2.97399999999999,78.545 C2.94399999999996,77.868 3.31999999999999,77.234 4.10300000000001,76.644 C5.245,75.761 5.78199999999998,74.534 5.714,72.963 C5.714,72.963 3.33299999999997,18.256 3.33299999999997,18.256 C3.26499999999999,16.685 2.62399999999997,15.525 1.411,14.775 C0.58099999999996,14.287 0.15100000000001,13.673 0.11899999999997,12.933 C0.11899999999997,12.933 0.02999999999997,10.9 0.02999999999997,10.9 C0,10.192 0.387,9.82 1.19399999999996,9.785 C1.19399999999996,9.785 13.754,9.23800000000001 13.754,9.23800000000001 C20.577,8.941 25.934,10.476 29.825,13.84 C33.715,17.205 35.788,21.813 36.043,27.665 C36.607,40.634 29.74,47.429 15.443,48.051 ZM24.991,28.609 C24.82,24.666 24.334,21.733 23.536,19.807 C22.737,17.883 21.607,16.551 20.146,15.812 C18.684,15.073 16.633,14.715 13.994,14.737 C13.994,14.737 15.206,42.599 15.206,42.599 C17.997,42.477 20.022,42.073 21.282,41.385 C22.541,40.698 23.518,39.39 24.211,37.462 C24.903,35.534 25.164,32.583 24.991,28.609 Z "/><path fill="rgb( 255, 255, 255 )" d="M238.401,67.017 C235.803,69.429 232.643,70.716 228.921,70.878 C225.386,71.032 222.488,70.317 220.229,68.733 C219.909,68.509 219.616,68.272 219.339,68.027 C218.928,68.579 218.059,69.217 216.666,69.953 C214.661,71.012 212.759,71.581 210.961,71.659 C206.091,71.871 203.526,68.974 203.265,62.967 C203.265,62.967 201.936,32.425 201.936,32.425 C201.936,32.425 200.308,32.496 200.308,32.496 C199.594,32.527 199.224,32.235 199.197,31.619 C199.197,31.619 199.097,29.308 199.097,29.308 C199.069,28.661 199.384,28.062 200.044,27.508 C200.915,26.822 201.457,26.066 201.67,25.238 C201.882,24.412 201.948,23.074 201.868,21.225 C201.868,21.225 201.538,13.648 201.538,13.648 C201.506,12.908 201.983,12.456 202.971,12.289 C202.971,12.289 208.62,11.441 208.62,11.441 C209.113,11.359 209.438,11.313 209.593,11.307 C210.027,11.288 210.26,11.648 210.293,12.387 C210.293,12.387 210.93,27.034 210.93,27.034 C210.93,27.034 215.675,26.828 215.675,26.828 C216.574,26.789 217.04,27.124 217.07,27.832 C217.07,27.832 217.193,30.65 217.193,30.65 C217.225,31.39 216.884,31.775 216.171,31.806 C216.171,31.806 211.147,32.024 211.147,32.024 C211.147,32.024 212.369,60.117 212.369,60.117 C212.502,63.167 213.514,64.651 215.406,64.568 C215.84,64.549 216.303,64.468 216.794,64.323 C216.851,64.304 216.894,64.296 216.947,64.28 C216.792,63.709 216.698,63.108 216.67,62.476 C216.609,61.06 216.99,59.817 217.813,58.746 C218.636,57.677 219.87,57.106 221.514,57.035 C224.491,56.905 226.041,58.242 226.163,61.045 C226.183,61.507 226.114,62.112 225.957,62.859 C225.796,63.546 225.722,64.027 225.734,64.304 C225.8,65.814 226.919,66.521 229.093,66.426 C230.739,66.355 232.082,65.78 233.125,64.7 C234.167,63.621 234.659,62.419 234.601,61.094 C234.538,59.647 234.007,58.335 233.009,57.159 C232.009,55.984 230.084,54.409 227.233,52.434 C223.388,49.762 220.661,47.435 219.053,45.453 C217.444,43.471 216.577,41.047 216.452,38.182 C216.293,34.517 217.466,31.488 219.972,29.094 C222.478,26.702 225.406,25.432 228.755,25.287 C231.795,25.154 234.332,25.801 236.367,27.224 C238.402,28.648 239.47,30.514 239.57,32.825 C239.628,34.149 239.22,35.309 238.347,36.304 C237.473,37.299 236.308,37.827 234.85,37.891 C233.671,37.942 232.61,37.641 231.665,36.988 C230.72,36.335 230.219,35.361 230.163,34.067 C230.14,33.544 230.256,32.952 230.512,32.293 C230.683,31.854 230.763,31.526 230.754,31.31 C230.707,30.232 229.86,29.729 228.213,29.801 C227.033,29.852 226.002,30.321 225.123,31.208 C224.244,32.096 223.837,33.294 223.903,34.803 C223.959,36.096 224.431,37.303 225.319,38.421 C226.206,39.54 228.489,41.3 232.167,43.702 C235.717,46.017 238.219,48.183 239.674,50.203 C241.129,52.223 241.914,54.543 242.028,57.16 C242.208,61.319 241,64.605 238.401,67.017 ZM201.161,47.921 C201.194,48.66 200.822,49.047 200.047,49.08 C200.047,49.08 185.532,49.712 185.532,49.712 C185.532,49.712 185.697,53.501 185.697,53.501 C185.878,57.659 186.42,60.83 187.324,63.013 C188.227,65.195 189.689,66.243 191.707,66.155 C194.066,66.052 195.599,63.733 196.304,59.196 C196.304,59.196 201.306,59.812 201.306,59.812 C200.947,68.006 197.419,72.249 190.72,72.54 C186.285,72.733 182.684,71.023 179.917,67.409 C177.149,63.795 175.604,58.276 175.281,50.852 C174.968,43.644 175.954,37.923 178.24,33.688 C180.526,29.453 183.746,27.245 187.903,27.064 C191.593,26.903 194.64,28.376 197.044,31.481 C199.447,34.586 200.763,38.772 200.993,44.04 C200.993,44.04 201.161,47.921 201.161,47.921 ZM191.779,37.959 C191.586,33.524 190.342,31.356 188.047,31.456 C185.845,31.551 184.867,34.434 185.114,40.101 C185.114,40.101 185.311,44.629 185.311,44.629 C185.311,44.629 192.057,44.336 192.057,44.336 C192.057,44.336 191.779,37.959 191.779,37.959 ZM177.863,9.58000000000001 C177.863,9.58000000000001 168.452,72.035 168.452,72.035 C168.308,72.993 167.881,73.487 167.17,73.518 C167.17,73.518 165.272,73.601 165.272,73.601 C164.561,73.632 164.092,73.17 163.866,72.216 C163.866,72.216 148.896,11.21 148.896,11.21 C148.335,9.013 147.289,7.47000000000001 145.759,6.581 C144.929,6.093 144.5,5.495 144.469,4.787 C144.469,4.787 144.376,2.663 144.376,2.663 C144.346,1.95500000000001 144.734,1.58300000000001 145.543,1.54799999999999 C145.543,1.54799999999999 159.958,0.921 159.958,0.921 C160.704,0.888 161.094,1.257 161.128,2.026 C161.128,2.026 161.228,4.33300000000001 161.228,4.33300000000001 C161.254,4.918 160.885,5.45800000000001 160.123,5.954 C159.09,6.677 158.596,7.562 158.642,8.60700000000001 C158.659,9.007 158.726,9.48200000000001 158.844,10.032 C158.844,10.032 166.833,42.629 166.833,42.629 C166.833,42.629 171.804,10.208 171.804,10.208 C171.905,9.68 171.948,9.231 171.932,8.861 C171.876,7.569 171.13,6.584 169.695,5.907 C168.609,5.36900000000001 168.051,4.746 168.02,4.038 C168.02,4.038 167.92,1.73 167.92,1.73 C167.887,0.961 168.305,0.558 169.177,0.52 C169.177,0.52 180.193,0.04 180.193,0.04 C181.126,0 181.61,0.364 181.644,1.134 C181.644,1.134 181.744,3.443 181.744,3.443 C181.778,4.212 181.369,4.832 180.52,5.30099999999999 C179.065,6.135 178.179,7.562 177.863,9.58000000000001 ZM88.832,76.973 C85.296,77.127 82.399,76.412 80.139,74.828 C79.819,74.604 79.526,74.367 79.249,74.122 C78.838,74.674 77.969,75.312 76.576,76.048 C74.572,77.107 72.669,77.676 70.871,77.754 C66.002,77.966 63.437,75.069 63.175,69.062 C63.175,69.062 61.846,38.52 61.846,38.52 C61.846,38.52 60.218,38.591 60.218,38.591 C59.504,38.622 59.135,38.33 59.108,37.714 C59.108,37.714 59.007,35.403 59.007,35.403 C58.979,34.756 59.295,34.157 59.954,33.603 C60.826,32.917 61.367,32.161 61.58,31.333 C61.793,30.507 61.859,29.169 61.779,27.32 C61.779,27.32 61.449,19.743 61.449,19.743 C61.417,19.003 61.894,18.551 62.881,18.384 C62.881,18.384 68.531,17.537 68.531,17.537 C69.024,17.454 69.348,17.408 69.504,17.402 C69.938,17.383 70.171,17.743 70.203,18.482 C70.203,18.482 70.84,33.129 70.84,33.129 C70.84,33.129 75.586,32.923 75.586,32.923 C76.485,32.884 76.95,33.219 76.981,33.927 C76.981,33.927 77.104,36.745 77.104,36.745 C77.136,37.485 76.795,37.87 76.082,37.901 C76.082,37.901 71.058,38.12 71.058,38.12 C71.058,38.12 72.28,66.213 72.28,66.213 C72.412,69.262 73.425,70.746 75.317,70.663 C75.751,70.645 76.213,70.563 76.704,70.418 C76.762,70.4 76.804,70.391 76.858,70.376 C76.702,69.804 76.608,69.203 76.581,68.571 C76.519,67.155 76.9,65.912 77.724,64.841 C78.547,63.772 79.78,63.201 81.425,63.13 C84.402,63 85.952,64.337 86.074,67.14 C86.094,67.602 86.025,68.207 85.867,68.954 C85.706,69.641 85.632,70.122 85.644,70.399 C85.71,71.909 86.83,72.616 89.004,72.521 C90.649,72.45 91.993,71.875 93.035,70.795 C94.077,69.716 94.57,68.514 94.512,67.19 C94.449,65.742 93.918,64.431 92.919,63.254 C91.92,62.079 89.995,60.504 87.144,58.529 C83.299,55.858 80.571,53.531 78.963,51.548 C77.354,49.566 76.488,47.142 76.363,44.277 C76.203,40.612 77.377,37.583 79.883,35.189 C82.389,32.797 85.316,31.527 88.666,31.382 C91.705,31.249 94.242,31.896 96.278,33.319 C98.312,34.743 99.38,36.61 99.481,38.92 C99.539,40.245 99.13,41.405 98.257,42.399 C97.384,43.394 96.218,43.923 94.761,43.986 C93.582,44.037 92.52,43.736 91.575,43.083 C90.63,42.43 90.13,41.456 90.073,40.162 C90.051,39.639 90.167,39.047 90.423,38.388 C90.593,37.949 90.674,37.621 90.664,37.405 C90.617,36.328 89.77,35.824 88.124,35.896 C86.943,35.947 85.913,36.416 85.034,37.303 C84.154,38.191 83.748,39.389 83.813,40.898 C83.869,42.191 84.341,43.398 85.229,44.516 C86.117,45.635 88.399,47.395 92.077,49.797 C95.627,52.112 98.129,54.278 99.585,56.298 C101.039,58.318 101.824,60.638 101.938,63.256 C102.119,67.414 100.91,70.7 98.312,73.112 C95.714,75.524 92.554,76.811 88.832,76.973 ZM61.072,54.016 C61.104,54.755 60.732,55.142 59.957,55.175 C59.957,55.175 45.443,55.807 45.443,55.807 C45.443,55.807 45.607,59.596 45.607,59.596 C45.788,63.754 46.331,66.925 47.235,69.108 C48.138,71.29 49.599,72.338 51.617,72.25 C53.977,72.147 55.509,69.828 56.214,65.291 C56.214,65.291 61.216,65.907 61.216,65.907 C60.858,74.101 57.33,78.344 50.631,78.635 C46.195,78.828 42.595,77.118 39.827,73.504 C37.06,69.89 35.515,64.371 35.192,56.947 C34.878,49.739 35.864,44.018 38.15,39.783 C40.436,35.548 43.657,33.34 47.813,33.159 C51.504,32.999 54.551,34.471 56.954,37.576 C59.357,40.681 60.674,44.867 60.903,50.135 C60.903,50.135 61.072,54.016 61.072,54.016 ZM51.69,44.054 C51.497,39.619 50.252,37.451 47.958,37.551 C45.755,37.646 44.778,40.529 45.024,46.196 C45.024,46.196 45.222,50.724 45.222,50.724 C45.222,50.724 51.967,50.431 51.967,50.431 C51.967,50.431 51.69,44.054 51.69,44.054 ZM16.443,46.051 C16.443,46.051 17.507,70.494 17.507,70.494 C17.576,72.096 18.217,73.271 19.431,74.021 C20.26,74.51 20.69,75.108 20.721,75.816 C20.721,75.816 20.812,77.896 20.812,77.896 C20.842,78.605 20.454,78.976 19.648,79.011 C19.648,79.011 5.13400000000001,79.642 5.13400000000001,79.642 C4.45099999999996,79.672 4.096,79.364 4.06799999999998,78.717 C4.06799999999998,78.717 3.97399999999999,76.545 3.97399999999999,76.545 C3.94399999999996,75.868 4.31999999999999,75.234 5.10300000000001,74.644 C6.245,73.761 6.78199999999998,72.534 6.714,70.963 C6.714,70.963 4.33299999999997,16.256 4.33299999999997,16.256 C4.26499999999999,14.685 3.62399999999997,13.525 2.411,12.775 C1.58099999999996,12.287 1.15100000000001,11.673 1.11899999999997,10.933 C1.11899999999997,10.933 1.02999999999997,8.9 1.02999999999997,8.9 C1,8.192 1.387,7.82 2.19399999999996,7.785 C2.19399999999996,7.785 14.754,7.23800000000001 14.754,7.23800000000001 C21.577,6.941 26.934,8.47600000000001 30.825,11.84 C34.715,15.205 36.788,19.813 37.043,25.665 C37.607,38.634 30.74,45.429 16.443,46.051 ZM25.991,26.609 C25.82,22.666 25.334,19.733 24.536,17.807 C23.737,15.883 22.607,14.551 21.146,13.812 C19.684,13.073 17.633,12.715 14.994,12.737 C14.994,12.737 16.206,40.599 16.206,40.599 C18.997,40.477 21.022,40.073 22.282,39.385 C23.541,38.698 24.518,37.39 25.211,35.462 C25.903,33.534 26.164,30.583 25.991,26.609 Z "/><path fill="rgb( 24, 126, 171 )" d="M106.316,50.624 C105.019,53.706 104.449,57.033 104.604,60.606 C104.823,65.627 106.306,69.714 109.053,72.865 C111.8,76.017 115.251,77.502 119.407,77.321 C123.284,77.153 127.188,75.101 131.118,71.164 C134.515,74.967 137.826,76.798 141.052,76.657 C143.471,76.552 145.76,75.249 147.92,72.748 C147.92,72.748 147.763,69.144 147.763,69.144 C146.991,69.27 146.342,69.344 145.815,69.367 C142.652,69.505 139.651,67.321 136.814,62.815 C138.604,58.972 140.093,54.263 141.28,48.687 C141.794,46.227 142.259,44.586 142.674,43.765 C143.088,42.945 143.937,42.275 145.22,41.756 C146.289,41.34 146.808,40.777 146.777,40.068 C146.777,40.068 146.673,37.666 146.673,37.666 C146.641,36.926 146.268,36.572 145.555,36.603 C145.555,36.603 131.831,37.2 131.831,37.2 C131.242,37.226 130.961,37.547 130.987,38.163 C130.987,38.163 131.1,40.751 131.1,40.751 C131.125,41.336 131.496,41.659 132.214,41.72 C133.056,41.776 133.847,42.12 134.589,42.751 C135.331,43.383 135.728,44.284 135.779,45.454 C135.928,48.873 135.131,52.704 133.389,56.946 C130.041,50.703 126.964,43.554 124.16,35.497 C128.347,31.766 131.353,28.534 133.176,25.8 C134.999,23.067 135.842,20.114 135.704,16.941 C135.552,13.46 134.26,10.539 131.827,8.175 C129.393,5.812 126.424,4.707 122.92,4.859 C118.95,5.032 115.891,6.685 113.744,9.818 C111.596,12.952 110.622,16.813 110.822,21.403 C111,25.5 112.242,31.109 114.549,38.23 C110.357,43.412 107.612,47.544 106.316,50.624 ZM119.59,16.164 C119.406,11.942 120.632,9.773 123.268,9.65799999999999 C126.06,9.537 127.551,11.664 127.741,16.041 C127.943,20.695 126.185,25.265 122.465,29.75 C120.693,24.021 119.735,19.493 119.59,16.164 C119.59,16.164 119.59,16.164 119.59,16.164 ZM127.703,66.591 C126.377,68.254 124.892,69.12 123.249,69.192 C120.705,69.303 118.437,67.696 116.444,64.373 C114.45,61.05 113.376,57.601 113.22,54.028 C113.08,50.793 114.212,47.534 116.617,44.251 C120.748,54.935 124.444,62.381 127.703,66.591 C127.703,66.591 127.703,66.591 127.703,66.591 Z "/><path fill="rgb( 255, 255, 255 )" d="M107.316,48.624 C106.019,51.706 105.449,55.033 105.604,58.606 C105.823,63.627 107.306,67.714 110.053,70.865 C112.8,74.017 116.251,75.502 120.407,75.321 C124.284,75.153 128.188,73.101 132.118,69.164 C135.515,72.967 138.826,74.798 142.052,74.657 C144.471,74.552 146.76,73.249 148.92,70.748 C148.92,70.748 148.763,67.144 148.763,67.144 C147.991,67.27 147.342,67.344 146.815,67.367 C143.652,67.505 140.651,65.321 137.814,60.815 C139.604,56.972 141.093,52.263 142.28,46.687 C142.794,44.227 143.259,42.586 143.674,41.765 C144.088,40.945 144.937,40.275 146.22,39.756 C147.289,39.34 147.808,38.777 147.777,38.068 C147.777,38.068 147.673,35.666 147.673,35.666 C147.641,34.926 147.268,34.572 146.555,34.603 C146.555,34.603 132.831,35.2 132.831,35.2 C132.242,35.226 131.961,35.547 131.987,36.163 C131.987,36.163 132.1,38.751 132.1,38.751 C132.125,39.336 132.496,39.659 133.214,39.72 C134.056,39.776 134.847,40.12 135.589,40.751 C136.331,41.383 136.728,42.284 136.779,43.454 C136.928,46.873 136.131,50.704 134.389,54.946 C131.041,48.703 127.964,41.554 125.16,33.497 C129.347,29.766 132.353,26.534 134.176,23.8 C135.999,21.067 136.842,18.114 136.704,14.941 C136.552,11.46 135.26,8.53899999999999 132.827,6.175 C130.393,3.812 127.424,2.707 123.92,2.859 C119.95,3.032 116.891,4.685 114.744,7.818 C112.596,10.952 111.622,14.813 111.822,19.403 C112,23.5 113.242,29.109 115.549,36.23 C111.357,41.412 108.612,45.544 107.316,48.624 ZM120.59,14.164 C120.406,9.942 121.632,7.773 124.268,7.65799999999999 C127.06,7.537 128.551,9.66399999999999 128.741,14.041 C128.943,18.695 127.185,23.265 123.465,27.75 C121.693,22.021 120.735,17.493 120.59,14.164 C120.59,14.164 120.59,14.164 120.59,14.164 ZM128.703,64.591 C127.377,66.254 125.892,67.12 124.249,67.192 C121.705,67.303 119.437,65.696 117.444,62.373 C115.45,59.05 114.376,55.601 114.22,52.028 C114.08,48.793 115.212,45.534 117.617,42.251 C121.748,52.935 125.444,60.381 128.703,64.591 C128.703,64.591 128.703,64.591 128.703,64.591 Z "/><path fill="url(#PSgrad_0)" d="M107.316,48.624 C106.019,51.706 105.449,55.033 105.604,58.606 C105.823,63.627 107.306,67.714 110.053,70.865 C112.8,74.017 116.251,75.502 120.407,75.321 C124.284,75.153 128.188,73.101 132.118,69.164 C135.515,72.967 138.826,74.798 142.052,74.657 C144.471,74.552 146.76,73.249 148.92,70.748 C148.92,70.748 148.763,67.144 148.763,67.144 C147.991,67.27 147.342,67.344 146.815,67.367 C143.652,67.505 140.651,65.321 137.814,60.815 C139.604,56.972 141.093,52.263 142.28,46.687 C142.794,44.227 143.259,42.586 143.674,41.765 C144.088,40.945 144.937,40.275 146.22,39.756 C147.289,39.34 147.808,38.777 147.777,38.068 C147.777,38.068 147.673,35.666 147.673,35.666 C147.641,34.926 147.268,34.572 146.555,34.603 C146.555,34.603 132.831,35.2 132.831,35.2 C132.242,35.226 131.961,35.547 131.987,36.163 C131.987,36.163 132.1,38.751 132.1,38.751 C132.125,39.336 132.496,39.659 133.214,39.72 C134.056,39.776 134.847,40.12 135.589,40.751 C136.331,41.383 136.728,42.284 136.779,43.454 C136.928,46.873 136.131,50.704 134.389,54.946 C131.041,48.703 127.964,41.554 125.16,33.497 C129.347,29.766 132.353,26.534 134.176,23.8 C135.999,21.067 136.842,18.114 136.704,14.941 C136.552,11.46 135.26,8.53899999999999 132.827,6.175 C130.393,3.812 127.424,2.707 123.92,2.859 C119.95,3.032 116.891,4.685 114.744,7.818 C112.596,10.952 111.622,14.813 111.822,19.403 C112,23.5 113.242,29.109 115.549,36.23 C111.357,41.412 108.612,45.544 107.316,48.624 ZM120.59,14.164 C120.406,9.942 121.632,7.773 124.268,7.65799999999999 C127.06,7.537 128.551,9.66399999999999 128.741,14.041 C128.943,18.695 127.185,23.265 123.465,27.75 C121.693,22.021 120.735,17.493 120.59,14.164 C120.59,14.164 120.59,14.164 120.59,14.164 ZM128.703,64.591 C127.377,66.254 125.892,67.12 124.249,67.192 C121.705,67.303 119.437,65.696 117.444,62.373 C115.45,59.05 114.376,55.601 114.22,52.028 C114.08,48.793 115.212,45.534 117.617,42.251 C121.748,52.935 125.444,60.381 128.703,64.591 C128.703,64.591 128.703,64.591 128.703,64.591 Z "/><path fill="rgb( 255, 255, 255 )" d="M115.563,7.341 C115.563,7.341 111.184,9.84200000000001 112.563,16.341 C112.563,16.341 114.788,8.892 115.563,7.341 Z "/><path opacity="0.4" fill="rgb( 185, 224, 243 )" d="M221.563,86.341 C221.563,86.341 167.316,90.002 115.899,91.576 C69.583,92.994 25.563,94.341 25.563,94.341 C25.563,94.341 72.335,97.506 121.224,97.192 C128.417,97.146 139.447,99.828 137.563,109.341 C136.449,114.967 142.191,108.464 141.159,103.906 C139.216,95.32 151.352,96.284 154.878,95.492 C181.186,89.58 206.149,91.455 221.563,86.341 Z "/></svg>