<?xml version="1.0" encoding="UTF-8" standalone="no"?>
<svg width="554px" height="14px" viewBox="0 0 554 14" version="1.1" xmlns="http://www.w3.org/2000/svg" xmlns:xlink="http://www.w3.org/1999/xlink" xmlns:sketch="http://www.bohemiancoding.com/sketch/ns">
    <title>sticky</title>
    <description>Created with Sketch (http://www.bohemiancoding.com/sketch)</description>
    <defs></defs>
    <g id="Page-1" stroke="none" stroke-width="1" fill="none" fill-rule="evenodd" sketch:type="MSPage">
        <g id="blogunderline" sketch:type="MSLayerGroup">
            <g id="Page-1" sketch:type="MSShapeGroup">
                <g id="underlinegrey" transform="translate(277.000000, 7.000000) scale(-1, 1) translate(-277.000000, -7.000000) ">
                    <path d="M524.778857,1.13321075 C517.19549,0.475491737 508.182629,0 497.973156,0 C477.832668,0 453.034938,6 425.368484,6 C404.631824,6 382.283003,0 359.076346,0 C335.519844,0 311.077709,6 286.539727,6 C262.018038,6 237.399543,1 213.470194,1 C173.858235,1 136.134478,8 103.866374,8 C44.3247924,8 2.39619377,1 2.39619377,1 C1.07253633,1 0,2.119 0,3.5 L0,4.5 C0,5.881 1.07253633,7 2.39619377,7 C2.39619377,7 44.2212768,14 103.639215,14 C135.905401,14 173.640661,7 213.273706,7 C237.262481,7 261.946152,12 286.533017,12 C311.059498,12 335.489173,6 359.035131,6 C382.213993,6 404.537893,12 425.254426,12 C453.079028,12 478.005194,6 498.217567,6 C531.180567,6 551.603806,11 551.603806,11 C552.927464,11 554,9.881 554,8.5 L554,7.5 C554,6.119 552.927464,5 551.603806,5 C551.603806,5 541.786457,2.60831027 524.778857,1.13321075 L524.778857,1.13321075 Z" id="Shape" fill="#D5C29A"></path>
                    <path d="M535.640363,8.285 L536.133979,2.36 C546.069557,3.655 551.603806,5 551.603806,5 C552.927464,5 554,6.119 554,7.5 L554,8.5 C554,9.881 552.927464,11 551.603806,11 C551.603806,11 545.892239,9.603 535.640363,8.285 L535.640363,8.285 Z M501.371917,6.016 L500.849547,0.013 C508.902675,0.084 516.161225,0.446 522.505388,0.946 L521.747232,6.878 C515.722242,6.42 508.902675,6.089 501.371917,6.016 L501.371917,6.016 L501.371917,6.016 Z M456.838176,3.914 C464.948813,2.986 472.688519,1.93 479.993076,1.149 L481.400121,7.021 C473.838692,7.798 465.801858,8.895 457.355754,9.862 L456.838176,3.914 L456.838176,3.914 Z M411.632543,11.282 L412.344692,5.338 C416.749855,5.743 421.093675,6 425.368484,6 C427.812602,6 430.232758,5.951 432.630869,5.866 L433.772415,11.819 C430.965035,11.933 428.126024,12 425.254426,12 C420.786003,12 416.24282,11.72 411.632543,11.282 L411.632543,11.282 L411.632543,11.282 Z M22.0449827,9.589 C9.52151557,8.191 2.39619377,7 2.39619377,7 C1.07253633,7 0,5.881 0,4.5 L0,3.5 C0,2.119 1.07253633,1 2.39619377,1 C2.39619377,1 9.52055709,2.188 22.0449827,3.584 L22.0449827,9.589 L22.0449827,9.589 Z M92.6358927,7.916 C96.3030277,7.97 100.046841,8 103.866374,8 C107.727121,8 111.667422,7.898 115.678651,7.721 L115.198453,13.731 C111.275405,13.901 107.418491,14 103.639215,14 C99.7554637,14 95.9522249,13.969 92.2256644,13.913 L92.6358927,7.916 L92.6358927,7.916 Z M373.248394,0.657 C380.246239,1.257 387.148235,2.187 393.934256,3.106 L393.934256,9.117 C386.918201,8.166 379.777543,7.201 372.536246,6.601 L373.248394,0.657 L373.248394,0.657 Z M335.306104,7.548 L334.101298,1.685 C340.987,0.906 347.821903,0.273 354.589713,0.07 L355.663208,6.044 C348.939488,6.198 342.147716,6.79 335.306104,7.548 L335.306104,7.548 L335.306104,7.548 Z M297.35327,11.646 L296.538564,5.695 C302.820426,5.333 309.088869,4.687 315.330474,3.953 L316.454768,9.818 C310.111564,10.574 303.739606,11.253 297.35327,11.646 L297.35327,11.646 L297.35327,11.646 Z M278.916955,11.849 C271.976619,11.588 265.034367,11.012 258.109367,10.344 L258.466879,4.371 C265.273986,5.027 272.095471,5.59 278.916955,5.848 L278.916955,11.849 L278.916955,11.849 Z M216.234443,7.028 L215.850093,1.017 C222.765509,1.109 229.736516,1.59 236.743945,2.22 L236.743945,8.232 C229.866869,7.614 223.024298,7.139 216.234443,7.028 L216.234443,7.028 L216.234443,7.028 Z M135.416578,6.392 C141.523038,5.874 147.761768,5.276 154.110723,4.672 L155.314571,10.536 C148.714495,11.164 142.23327,11.789 135.891024,12.332 L135.416578,6.392 L135.416578,6.392 Z M172.234574,3.015 C179.164367,2.428 186.199592,1.912 193.319163,1.548 L194.03227,7.501 C187.113979,7.841 180.274284,8.328 173.533311,8.887 L172.234574,3.015 L172.234574,3.015 Z M39.8467855,11.328 L41.0592595,5.423 C48.7807543,6.062 57.4798962,6.656 67.0014118,7.113 L65.7803114,13.059 C56.2357924,12.586 47.5385675,11.978 39.8467855,11.328 L39.8467855,11.328 Z" id="Shape" fill="#B7A883"></path>
                </g>
            </g>
        </g>
    </g>
</svg>