<?xml version="1.0" encoding="utf-8"?>
<!-- Generator: Adobe Illustrator 16.0.0, SVG Export Plug-In . SVG Version: 6.00 Build 0)  -->
<!DOCTYPE svg PUBLIC "-//W3C//DTD SVG 1.1//EN" "http://www.w3.org/Graphics/SVG/1.1/DTD/svg11.dtd">
<svg version="1.1" id="Layer_1" xmlns:ev="http://www.w3.org/2001/xml-events"
	 xmlns="http://www.w3.org/2000/svg" xmlns:xlink="http://www.w3.org/1999/xlink" x="0px" y="0px" width="1196px"
	 height="129.002px" viewBox="0 0 1196 129.002" enable-background="new 0 0 1196 129.002" xml:space="preserve">
<pattern  x="206" y="368.5" width="72" height="72" patternUnits="userSpaceOnUse" id="USGS_17_Sandy_Dry_Lake" viewBox="0 -72 72 72" overflow="visible">
	<g>
		<polygon fill="none" points="0,-72 72,-72 72,0 0,0 		"/>
		<path fill="#231F20" d="M20.997-69c-0.06,0-0.12-0.02-0.17-0.07c-0.05-0.05-0.08-0.109-0.08-0.18s0.03-0.131,0.08-0.18
			c0.09-0.09,0.25-0.09,0.351,0c0.05,0.049,0.069,0.109,0.069,0.18c0,0.061-0.02,0.119-0.069,0.17C21.127-69.02,21.067-69,20.997-69
			z"/>
		<path fill="#231F20" d="M19.997-63.75c-0.06,0-0.13-0.03-0.18-0.07c-0.04-0.05-0.07-0.109-0.07-0.18s0.03-0.131,0.07-0.18
			c0.1-0.09,0.26-0.09,0.36,0c0.04,0.049,0.069,0.109,0.069,0.18s-0.029,0.13-0.069,0.18C20.127-63.77,20.067-63.75,19.997-63.75z"
			/>
		<path fill="#231F20" d="M20.247-61.5c-0.06,0-0.13-0.03-0.17-0.07c-0.05-0.05-0.08-0.109-0.08-0.18s0.03-0.131,0.07-0.18
			c0.1-0.09,0.27-0.09,0.36,0c0.04,0.049,0.069,0.109,0.069,0.18s-0.029,0.14-0.08,0.18C20.377-61.53,20.317-61.5,20.247-61.5z"/>
		<path fill="#231F20" d="M17.997-59.25c-0.06,0-0.12-0.03-0.17-0.07c-0.05-0.05-0.08-0.109-0.08-0.18s0.03-0.131,0.07-0.18
			c0.11-0.09,0.26-0.09,0.36,0c0.05,0.049,0.069,0.109,0.069,0.18s-0.02,0.13-0.069,0.18C18.127-59.28,18.067-59.25,17.997-59.25z"
			/>
		<path fill="#231F20" d="M15.247-61.5c-0.06,0-0.12-0.02-0.17-0.07c-0.05-0.05-0.08-0.119-0.08-0.18c0-0.07,0.03-0.131,0.07-0.18
			c0.12-0.101,0.26-0.09,0.36,0c0.05,0.049,0.069,0.109,0.069,0.18c0,0.061-0.02,0.13-0.069,0.17
			C15.377-61.52,15.317-61.5,15.247-61.5z"/>
		<path fill="#231F20" d="M22.747-52c-0.06,0-0.12-0.02-0.17-0.07c-0.05-0.05-0.08-0.109-0.08-0.18c0-0.061,0.03-0.131,0.07-0.17
			c0.11-0.11,0.27-0.1,0.36-0.01c0.05,0.06,0.069,0.119,0.069,0.18s-0.02,0.13-0.069,0.18C22.877-52.03,22.817-52,22.747-52z"/>
		<path fill="#231F20" d="M15.247-49c-0.06,0-0.12-0.02-0.17-0.07c-0.05-0.05-0.08-0.109-0.08-0.18c0-0.061,0.03-0.12,0.07-0.17
			c0.12-0.11,0.26-0.1,0.36-0.01c0.05,0.049,0.069,0.119,0.069,0.18c0,0.07-0.02,0.13-0.069,0.18C15.377-49.02,15.317-49,15.247-49z
			"/>
		<path fill="#231F20" d="M13.997-48c-0.069,0-0.13-0.03-0.18-0.08c-0.04-0.04-0.07-0.1-0.07-0.17s0.03-0.131,0.07-0.18
			c0.11-0.101,0.26-0.09,0.36,0c0.05,0.049,0.069,0.119,0.069,0.18c0,0.07-0.02,0.13-0.069,0.18C14.127-48.03,14.067-48,13.997-48z"
			/>
		<path fill="#231F20" d="M23.997-45c-0.06,0-0.12-0.02-0.17-0.07c-0.05-0.05-0.08-0.109-0.08-0.18s0.03-0.131,0.07-0.17
			c0.11-0.11,0.26-0.1,0.36-0.01c0.05,0.06,0.069,0.119,0.069,0.18c0,0.07-0.02,0.13-0.069,0.18C24.127-45.02,24.067-45,23.997-45z"
			/>
		<path fill="#231F20" d="M30.747-46.25c-0.06,0-0.12-0.02-0.17-0.07c-0.05-0.05-0.08-0.109-0.08-0.18s0.03-0.131,0.08-0.18
			c0.101-0.09,0.25-0.09,0.351,0c0.05,0.049,0.069,0.119,0.069,0.18s-0.02,0.13-0.069,0.18C30.877-46.27,30.817-46.25,30.747-46.25z
			"/>
		<path fill="#231F20" d="M31.247-48.75c-0.06,0-0.12-0.03-0.17-0.07c-0.05-0.05-0.08-0.109-0.08-0.18c0-0.061,0.03-0.131,0.07-0.17
			c0.11-0.11,0.26-0.1,0.36-0.01c0.05,0.06,0.069,0.119,0.069,0.18c0,0.07-0.02,0.13-0.069,0.18
			C31.377-48.78,31.317-48.75,31.247-48.75z"/>
		<path fill="#231F20" d="M29.247-53.75c-0.06,0-0.12-0.02-0.17-0.07c-0.05-0.05-0.08-0.109-0.08-0.18s0.03-0.131,0.08-0.18
			c0.101-0.09,0.25-0.09,0.351,0c0.05,0.049,0.069,0.109,0.069,0.18s-0.029,0.13-0.069,0.18C29.377-53.77,29.308-53.75,29.247-53.75
			z"/>
		<path fill="#231F20" d="M32.247-53.75c-0.06,0-0.12-0.02-0.17-0.07c-0.05-0.05-0.08-0.109-0.08-0.18s0.03-0.131,0.07-0.18
			c0.11-0.09,0.26-0.09,0.36,0c0.04,0.049,0.069,0.109,0.069,0.18s-0.029,0.13-0.069,0.18C32.377-53.77,32.317-53.75,32.247-53.75z"
			/>
		<path fill="#231F20" d="M32.497-58.25c-0.06,0-0.13-0.03-0.17-0.07c-0.05-0.05-0.08-0.109-0.08-0.18s0.03-0.131,0.08-0.18
			c0.09-0.09,0.26-0.09,0.351,0c0.05,0.049,0.069,0.119,0.069,0.18s-0.02,0.119-0.069,0.17C32.627-58.28,32.567-58.25,32.497-58.25z
			"/>
		<path fill="#231F20" d="M31.747-60.25c-0.06,0-0.12-0.02-0.17-0.07c-0.05-0.05-0.08-0.109-0.08-0.18s0.03-0.131,0.08-0.18
			c0.101-0.09,0.25-0.09,0.351,0c0.05,0.049,0.069,0.109,0.069,0.18s-0.029,0.13-0.069,0.18C31.877-60.27,31.817-60.25,31.747-60.25
			z"/>
		<path fill="#231F20" d="M29.247-61.25c-0.069,0-0.13-0.03-0.18-0.07c-0.04-0.05-0.07-0.109-0.07-0.18s0.03-0.131,0.08-0.18
			c0.101-0.09,0.25-0.09,0.351,0c0.05,0.049,0.069,0.109,0.069,0.18s-0.02,0.13-0.069,0.18C29.377-61.28,29.317-61.25,29.247-61.25z
			"/>
		<path fill="#231F20" d="M32.247-65c-0.06,0-0.12-0.02-0.17-0.07c-0.05-0.05-0.08-0.109-0.08-0.18s0.03-0.131,0.07-0.18
			c0.11-0.09,0.26-0.09,0.36,0c0.05,0.049,0.069,0.109,0.069,0.18s-0.029,0.13-0.069,0.18C32.377-65.02,32.317-65,32.247-65z"/>
		<path fill="#231F20" d="M31.997-69c-0.06,0-0.12-0.03-0.17-0.07c-0.05-0.05-0.08-0.109-0.08-0.18s0.03-0.131,0.08-0.18
			c0.101-0.09,0.25-0.09,0.351,0c0.05,0.049,0.069,0.119,0.069,0.18s-0.02,0.13-0.069,0.18C32.127-69.03,32.067-69,31.997-69z"/>
		<path fill="#231F20" d="M29.247-68.75c-0.06,0-0.12-0.02-0.17-0.07c-0.05-0.05-0.08-0.109-0.08-0.18s0.03-0.131,0.08-0.18
			c0.09-0.09,0.25-0.09,0.351,0c0.05,0.049,0.069,0.109,0.069,0.18c0,0.061-0.02,0.13-0.069,0.17
			C29.377-68.77,29.317-68.75,29.247-68.75z"/>
		<path fill="#231F20" d="M33.997-70.75c-0.06,0-0.13-0.03-0.17-0.07c-0.05-0.05-0.08-0.109-0.08-0.18s0.03-0.141,0.08-0.18
			c0.09-0.09,0.26-0.09,0.351,0c0.05,0.049,0.069,0.109,0.069,0.18c0,0.061-0.02,0.119-0.069,0.17
			C34.127-70.78,34.067-70.75,33.997-70.75z"/>
		<path fill="#231F20" d="M41.497-65c-0.06,0-0.13-0.03-0.17-0.07c-0.05-0.05-0.08-0.109-0.08-0.18s0.03-0.131,0.08-0.18
			c0.09-0.09,0.24-0.09,0.34,0c0.061,0.06,0.08,0.119,0.08,0.18s-0.02,0.119-0.069,0.17C41.627-65.02,41.567-65,41.497-65z"/>
		<path fill="#231F20" d="M45.497-65.25c-0.06,0-0.12-0.02-0.17-0.07c-0.05-0.05-0.08-0.109-0.08-0.18s0.03-0.131,0.08-0.18
			c0.09-0.09,0.25-0.09,0.351,0c0.05,0.049,0.069,0.119,0.069,0.18s-0.02,0.13-0.069,0.18C45.627-65.27,45.558-65.25,45.497-65.25z"
			/>
		<path fill="#231F20" d="M40.247-61.75c-0.06,0-0.12-0.02-0.17-0.07c-0.05-0.05-0.08-0.119-0.08-0.18c0-0.07,0.03-0.131,0.07-0.18
			c0.11-0.09,0.26-0.09,0.36,0c0.05,0.049,0.069,0.109,0.069,0.18c0,0.061-0.02,0.13-0.069,0.17
			C40.377-61.77,40.317-61.75,40.247-61.75z"/>
		<path fill="#231F20" d="M44.997-60.25c-0.06,0-0.12-0.02-0.17-0.07c-0.05-0.05-0.08-0.109-0.08-0.18s0.03-0.131,0.08-0.18
			c0.101-0.09,0.25-0.09,0.351,0c0.04,0.049,0.069,0.109,0.069,0.18s-0.02,0.13-0.069,0.18C45.127-60.27,45.067-60.25,44.997-60.25z
			"/>
		<path fill="#231F20" d="M44.997-58.5c-0.06,0-0.12-0.02-0.17-0.07c-0.05-0.05-0.08-0.109-0.08-0.18s0.03-0.131,0.08-0.18
			c0.08-0.09,0.26-0.09,0.351,0.01c0.05,0.039,0.069,0.1,0.069,0.17s-0.02,0.13-0.069,0.18C45.127-58.52,45.067-58.5,44.997-58.5z"
			/>
		<path fill="#231F20" d="M46.997-57.75c-0.06,0-0.12-0.02-0.17-0.07c-0.05-0.05-0.08-0.109-0.08-0.18s0.03-0.131,0.08-0.18
			c0.09-0.09,0.25-0.09,0.351,0c0.05,0.049,0.069,0.119,0.069,0.18s-0.02,0.13-0.069,0.18C47.127-57.77,47.067-57.75,46.997-57.75z"
			/>
		<path fill="#231F20" d="M46.997-55.75c-0.06,0-0.13-0.03-0.17-0.07c-0.05-0.05-0.08-0.109-0.08-0.18s0.03-0.131,0.08-0.18
			c0.08-0.08,0.26-0.09,0.351,0.01c0.05,0.039,0.069,0.109,0.069,0.17s-0.02,0.13-0.069,0.18
			C47.127-55.78,47.067-55.75,46.997-55.75z"/>
		<path fill="#231F20" d="M47.247-49.25c-0.06,0-0.13-0.03-0.17-0.07c-0.05-0.04-0.08-0.109-0.08-0.18s0.03-0.131,0.08-0.18
			c0.08-0.08,0.25-0.09,0.351,0c0.05,0.049,0.069,0.109,0.069,0.18s-0.029,0.13-0.069,0.18C47.377-49.27,47.317-49.25,47.247-49.25z
			"/>
		<path fill="#231F20" d="M38.997-51.25c-0.06,0-0.12-0.02-0.17-0.07c-0.05-0.05-0.08-0.109-0.08-0.18s0.03-0.131,0.08-0.18
			c0.101-0.09,0.25-0.09,0.351,0c0.04,0.049,0.069,0.109,0.069,0.18s-0.029,0.13-0.069,0.18C39.127-51.27,39.067-51.25,38.997-51.25
			z"/>
		<path fill="#231F20" d="M50.247-58.5c-0.06,0-0.13-0.03-0.17-0.07c-0.05-0.05-0.08-0.109-0.08-0.18s0.03-0.131,0.08-0.18
			c0.101-0.09,0.26-0.09,0.351,0c0.05,0.049,0.069,0.119,0.069,0.18s-0.02,0.13-0.069,0.18C50.377-58.53,50.317-58.5,50.247-58.5z"
			/>
		<path fill="#231F20" d="M52.247-60c-0.06,0-0.12-0.02-0.17-0.07c-0.05-0.05-0.08-0.109-0.08-0.18s0.03-0.131,0.08-0.18
			c0.09-0.09,0.25-0.09,0.351,0c0.05,0.049,0.069,0.119,0.069,0.18s-0.02,0.13-0.069,0.18C52.377-60.02,52.317-60,52.247-60z"/>
		<path fill="#231F20" d="M54.747-61c-0.06,0-0.13-0.03-0.17-0.07c-0.05-0.05-0.08-0.119-0.08-0.18c0-0.07,0.03-0.131,0.08-0.18
			c0.09-0.09,0.25-0.09,0.351,0c0.05,0.049,0.069,0.109,0.069,0.18c0,0.061-0.02,0.13-0.069,0.18C54.877-61.03,54.817-61,54.747-61z
			"/>
		<path fill="#231F20" d="M54.747-65.25c-0.069,0-0.13-0.03-0.17-0.07c-0.05-0.061-0.08-0.119-0.08-0.18s0.03-0.12,0.07-0.17
			c0.1-0.1,0.26-0.1,0.36-0.01c0.05,0.06,0.069,0.119,0.069,0.18s-0.02,0.119-0.069,0.17C54.877-65.28,54.817-65.25,54.747-65.25z"
			/>
		<path fill="#231F20" d="M56.497-71.25c-0.06,0-0.13-0.03-0.17-0.07c-0.05-0.05-0.08-0.119-0.08-0.18s0.03-0.131,0.07-0.18
			c0.1-0.09,0.26-0.09,0.36,0c0.05,0.06,0.069,0.119,0.069,0.18s-0.02,0.119-0.069,0.17C56.627-71.28,56.567-71.25,56.497-71.25z"/>
		<path fill="#231F20" d="M63.997-65.5c-0.06,0-0.13-0.03-0.17-0.07c-0.05-0.05-0.08-0.119-0.08-0.18s0.03-0.131,0.07-0.17
			c0.1-0.1,0.26-0.1,0.36-0.01c0.05,0.06,0.069,0.119,0.069,0.18s-0.02,0.119-0.069,0.17C64.127-65.53,64.067-65.5,63.997-65.5z"/>
		<path fill="#231F20" d="M64.997-69.5c-0.06,0-0.13-0.03-0.17-0.07c-0.05-0.05-0.08-0.109-0.08-0.18s0.03-0.131,0.08-0.18
			c0.09-0.09,0.25-0.09,0.351,0c0.05,0.049,0.069,0.109,0.069,0.18s-0.02,0.13-0.069,0.17C65.127-69.52,65.067-69.5,64.997-69.5z"/>
		<path fill="#231F20" d="M67.997-69c-0.06,0-0.13-0.03-0.17-0.07c-0.05-0.05-0.08-0.109-0.08-0.18s0.03-0.131,0.07-0.18
			c0.1-0.09,0.27-0.09,0.36,0c0.05,0.049,0.069,0.119,0.069,0.18s-0.02,0.13-0.069,0.18C68.127-69.03,68.067-69,67.997-69z"/>
		<path fill="#231F20" d="M67.997-61.75c-0.06,0-0.13-0.03-0.17-0.07c-0.05-0.05-0.08-0.109-0.08-0.18s0.03-0.131,0.07-0.18
			c0.1-0.09,0.26-0.09,0.36,0c0.05,0.049,0.069,0.119,0.069,0.18s-0.02,0.13-0.069,0.18C68.127-61.78,68.067-61.75,67.997-61.75z"/>
		<path fill="#231F20" d="M64.247-59.75c-0.06,0-0.13-0.03-0.17-0.07c-0.05-0.05-0.08-0.119-0.08-0.18s0.03-0.131,0.07-0.17
			c0.09-0.1,0.25-0.1,0.35-0.01c0.061,0.049,0.08,0.119,0.08,0.18s-0.02,0.13-0.069,0.17C64.377-59.77,64.317-59.75,64.247-59.75z"
			/>
		<path fill="#231F20" d="M65.247-56.25c-0.069,0-0.13-0.03-0.17-0.07c-0.05-0.05-0.08-0.109-0.08-0.18s0.03-0.131,0.08-0.18
			c0.07-0.08,0.26-0.09,0.351,0.01c0.05,0.039,0.069,0.109,0.069,0.17s-0.02,0.119-0.069,0.17
			C65.388-56.28,65.317-56.25,65.247-56.25z"/>
		<path fill="#231F20" d="M63.997-52.25c-0.06,0-0.13-0.03-0.17-0.07c-0.05-0.05-0.08-0.109-0.08-0.18s0.03-0.131,0.08-0.18
			c0.08-0.09,0.25-0.09,0.351,0c0.05,0.049,0.069,0.119,0.069,0.18s-0.02,0.13-0.069,0.18C64.127-52.28,64.067-52.25,63.997-52.25z"
			/>
		<path fill="#231F20" d="M66.247-52.25c-0.069,0-0.13-0.03-0.18-0.08c-0.04-0.04-0.07-0.1-0.07-0.17c0-0.061,0.03-0.131,0.07-0.17
			c0.09-0.1,0.26-0.1,0.36-0.01c0.05,0.049,0.069,0.119,0.069,0.18c0,0.07-0.02,0.13-0.069,0.18
			C66.377-52.28,66.317-52.25,66.247-52.25z"/>
		<path fill="#231F20" d="M67.997-50.75c-0.06,0-0.13-0.03-0.17-0.07c-0.05-0.05-0.08-0.119-0.08-0.18s0.03-0.12,0.07-0.17
			c0.1-0.1,0.27-0.1,0.36-0.01c0.05,0.06,0.069,0.119,0.069,0.18s-0.02,0.119-0.069,0.17C68.127-50.78,68.067-50.75,67.997-50.75z"
			/>
		<path fill="#231F20" d="M69.247-51.75c-0.06,0-0.12-0.02-0.17-0.07c-0.05-0.05-0.08-0.109-0.08-0.18s0.03-0.131,0.08-0.18
			c0.09-0.09,0.25-0.09,0.351,0c0.05,0.049,0.069,0.109,0.069,0.18s-0.02,0.13-0.069,0.18C69.377-51.77,69.317-51.75,69.247-51.75z"
			/>
		<path fill="#231F20" d="M69.497-54c-0.06,0-0.12-0.02-0.17-0.07c-0.05-0.05-0.08-0.109-0.08-0.18s0.03-0.131,0.08-0.18
			c0.09-0.09,0.25-0.09,0.351,0c0.05,0.049,0.069,0.109,0.069,0.18s-0.02,0.13-0.069,0.18C69.627-54.02,69.567-54,69.497-54z"/>
		<path fill="#231F20" d="M71.247-54.5c-0.06,0-0.13-0.03-0.17-0.07c-0.05-0.05-0.08-0.119-0.08-0.18s0.03-0.12,0.07-0.17
			c0.11-0.1,0.26-0.1,0.36-0.01c0.05,0.06,0.069,0.119,0.069,0.18s-0.02,0.119-0.069,0.17C71.377-54.53,71.317-54.5,71.247-54.5z"/>
		<path fill="#231F20" d="M7.997-25c-0.06,0-0.13-0.03-0.18-0.07c-0.04-0.061-0.07-0.119-0.07-0.18c0-0.07,0.03-0.131,0.07-0.18
			c0.09-0.09,0.26-0.09,0.36,0c0.05,0.049,0.069,0.109,0.069,0.18c0,0.061-0.02,0.13-0.069,0.17C8.127-25.02,8.067-25,7.997-25z"/>
		<path fill="#231F20" d="M6.997-19.75c-0.06,0-0.12-0.02-0.17-0.07c-0.05-0.05-0.08-0.109-0.08-0.18s0.03-0.131,0.07-0.18
			c0.11-0.09,0.26-0.09,0.36,0c0.05,0.049,0.069,0.119,0.069,0.18c0,0.07-0.02,0.13-0.069,0.18C7.127-19.77,7.067-19.75,6.997-19.75
			z"/>
		<path fill="#231F20" d="M7.247-17.5c-0.06,0-0.13-0.03-0.17-0.07c-0.05-0.05-0.08-0.109-0.08-0.18c0-0.061,0.03-0.131,0.07-0.18
			c0.1-0.09,0.26-0.09,0.36,0c0.04,0.049,0.069,0.109,0.069,0.18s-0.029,0.13-0.069,0.18C7.377-17.53,7.317-17.5,7.247-17.5z"/>
		<path fill="#231F20" d="M4.997-15.25c-0.06,0-0.13-0.03-0.17-0.07c-0.05-0.05-0.08-0.109-0.08-0.18s0.03-0.131,0.07-0.17
			c0.1-0.1,0.26-0.1,0.36-0.01c0.05,0.049,0.069,0.109,0.069,0.18s-0.029,0.13-0.069,0.18C5.127-15.27,5.058-15.25,4.997-15.25z"/>
		<path fill="#231F20" d="M2.247-17.5c-0.06,0-0.12-0.02-0.17-0.07c-0.05-0.05-0.08-0.109-0.08-0.18c0-0.061,0.03-0.131,0.07-0.17
			c0.11-0.11,0.26-0.1,0.35-0.01c0.061,0.06,0.08,0.119,0.08,0.18s-0.02,0.13-0.069,0.18C2.367-17.52,2.308-17.5,2.247-17.5z"/>
		<path fill="#231F20" d="M9.747-8c-0.06,0-0.12-0.02-0.17-0.07c-0.05-0.05-0.08-0.109-0.08-0.18s0.03-0.131,0.07-0.18
			c0.11-0.09,0.26-0.09,0.36,0c0.05,0.049,0.069,0.109,0.069,0.18s-0.02,0.13-0.069,0.18C9.877-8.02,9.817-8,9.747-8z"/>
		<path fill="#231F20" d="M2.247-5c-0.06,0-0.12-0.03-0.17-0.07c-0.05-0.05-0.08-0.109-0.08-0.18s0.03-0.131,0.07-0.18
			c0.1-0.09,0.26-0.09,0.36,0c0.05,0.049,0.069,0.109,0.069,0.18c0,0.061-0.02,0.13-0.069,0.18C2.367-5.02,2.308-5,2.247-5z"/>
		<path fill="#231F20" d="M0.997-4c-0.06,0-0.13-0.03-0.18-0.07c-0.04-0.05-0.07-0.109-0.07-0.18c0-0.061,0.03-0.131,0.07-0.18
			c0.1-0.09,0.27-0.09,0.36,0c0.05,0.049,0.069,0.119,0.069,0.18s-0.02,0.13-0.069,0.18C1.127-4.03,1.067-4,0.997-4z"/>
		<path fill="#231F20" d="M10.997-1c-0.06,0-0.12-0.02-0.17-0.07c-0.05-0.05-0.08-0.109-0.08-0.18s0.03-0.131,0.07-0.18
			c0.11-0.09,0.26-0.09,0.36,0c0.05,0.049,0.069,0.119,0.069,0.18s-0.02,0.13-0.069,0.18C11.127-1.02,11.058-1,10.997-1z"/>
		<path fill="#231F20" d="M17.747-2.25c-0.06,0-0.12-0.02-0.17-0.07c-0.05-0.05-0.08-0.109-0.08-0.18s0.03-0.131,0.07-0.18
			c0.11-0.09,0.26-0.09,0.36,0c0.05,0.049,0.069,0.109,0.069,0.18s-0.029,0.13-0.069,0.18C17.877-2.27,17.808-2.25,17.747-2.25z"/>
		<path fill="#231F20" d="M18.247-4.75c-0.06,0-0.12-0.03-0.17-0.07c-0.05-0.061-0.08-0.119-0.08-0.18c0-0.07,0.03-0.131,0.07-0.18
			c0.11-0.09,0.26-0.09,0.36,0c0.05,0.049,0.069,0.109,0.069,0.18c0,0.061-0.02,0.13-0.069,0.17
			C18.377-4.78,18.317-4.75,18.247-4.75z"/>
		<path fill="#231F20" d="M16.247-9.75c-0.069,0-0.13-0.03-0.18-0.08c-0.04-0.04-0.07-0.1-0.07-0.17s0.03-0.131,0.07-0.18
			c0.1-0.09,0.26-0.09,0.36,0c0.05,0.049,0.069,0.109,0.069,0.18s-0.02,0.13-0.069,0.18C16.377-9.78,16.317-9.75,16.247-9.75z"/>
		<path fill="#231F20" d="M19.247-9.75c-0.06,0-0.13-0.03-0.17-0.07c-0.05-0.05-0.08-0.109-0.08-0.18s0.03-0.131,0.07-0.18
			c0.1-0.09,0.27-0.09,0.36,0c0.04,0.039,0.069,0.109,0.069,0.18s-0.029,0.14-0.08,0.18C19.377-9.78,19.317-9.75,19.247-9.75z"/>
		<path fill="#231F20" d="M19.497-14.25c-0.06,0-0.12-0.02-0.17-0.07c-0.05-0.05-0.08-0.109-0.08-0.18c0-0.061,0.03-0.131,0.07-0.17
			c0.11-0.11,0.26-0.1,0.36-0.01c0.05,0.06,0.069,0.119,0.069,0.18s-0.02,0.13-0.069,0.18C19.627-14.27,19.567-14.25,19.497-14.25z"
			/>
		<path fill="#231F20" d="M18.747-16.25c-0.06,0-0.12-0.02-0.17-0.07c-0.05-0.05-0.08-0.109-0.08-0.18s0.03-0.131,0.08-0.18
			c0.101-0.09,0.26-0.09,0.351,0c0.05,0.049,0.069,0.119,0.069,0.18s-0.02,0.119-0.069,0.17C18.877-16.28,18.817-16.25,18.747-16.25
			z"/>
		<path fill="#231F20" d="M16.247-17.25c-0.06,0-0.13-0.03-0.18-0.07c-0.04-0.05-0.07-0.109-0.07-0.18c0-0.061,0.03-0.12,0.07-0.17
			c0.1-0.1,0.26-0.1,0.36-0.01c0.05,0.049,0.069,0.119,0.069,0.18c0,0.07-0.02,0.13-0.069,0.18
			C16.377-17.27,16.317-17.25,16.247-17.25z"/>
		<path fill="#231F20" d="M19.247-21c-0.06,0-0.13-0.03-0.17-0.07c-0.05-0.05-0.08-0.119-0.08-0.18c0-0.07,0.03-0.131,0.07-0.18
			c0.1-0.09,0.27-0.09,0.36,0c0.04,0.039,0.069,0.109,0.069,0.18s-0.02,0.13-0.069,0.18C19.377-21.03,19.317-21,19.247-21z"/>
		<path fill="#231F20" d="M18.997-25c-0.06,0-0.13-0.03-0.17-0.07c-0.05-0.05-0.08-0.119-0.08-0.18c0-0.07,0.03-0.131,0.07-0.18
			c0.1-0.09,0.26-0.09,0.36,0c0.04,0.049,0.069,0.109,0.069,0.18c0,0.061-0.02,0.13-0.069,0.17C19.127-25.02,19.067-25,18.997-25z"
			/>
		<path fill="#231F20" d="M16.247-24.75c-0.069,0-0.13-0.03-0.18-0.07c-0.04-0.05-0.07-0.119-0.07-0.18c0-0.07,0.03-0.131,0.07-0.18
			c0.09-0.09,0.26-0.09,0.36,0c0.05,0.049,0.069,0.109,0.069,0.18c0,0.061-0.02,0.13-0.069,0.18
			C16.377-24.77,16.317-24.75,16.247-24.75z"/>
		<path fill="#231F20" d="M20.997-26.75c-0.06,0-0.12-0.02-0.17-0.07c-0.05-0.05-0.08-0.109-0.08-0.18s0.03-0.131,0.08-0.18
			c0.101-0.09,0.25-0.09,0.351,0c0.05,0.049,0.069,0.119,0.069,0.18s-0.02,0.119-0.069,0.17C21.127-26.77,21.067-26.75,20.997-26.75
			z"/>
		<path fill="#231F20" d="M28.497-21c-0.06,0-0.13-0.03-0.17-0.07c-0.05-0.05-0.08-0.109-0.08-0.18s0.03-0.131,0.08-0.18
			c0.09-0.09,0.26-0.09,0.351,0c0.05,0.06,0.069,0.119,0.069,0.18s-0.02,0.13-0.069,0.18C28.627-21.03,28.567-21,28.497-21z"/>
		<path fill="#231F20" d="M32.497-21.25c-0.06,0-0.13-0.03-0.17-0.07c-0.05-0.05-0.08-0.109-0.08-0.18s0.03-0.131,0.08-0.18
			c0.09-0.09,0.25-0.09,0.351,0c0.05,0.049,0.069,0.119,0.069,0.18s-0.02,0.13-0.069,0.18C32.627-21.28,32.567-21.25,32.497-21.25z"
			/>
		<path fill="#231F20" d="M27.247-17.75c-0.069,0-0.13-0.03-0.18-0.08c-0.04-0.04-0.07-0.1-0.07-0.17s0.03-0.141,0.08-0.18
			c0.09-0.09,0.26-0.09,0.351,0c0.05,0.049,0.069,0.109,0.069,0.18c0,0.061-0.02,0.13-0.069,0.18
			C27.388-17.78,27.317-17.75,27.247-17.75z"/>
		<path fill="#231F20" d="M31.997-16.25c-0.06,0-0.12-0.03-0.17-0.07c-0.05-0.05-0.08-0.109-0.08-0.18c0-0.061,0.03-0.131,0.07-0.17
			c0.11-0.11,0.26-0.1,0.36-0.01c0.05,0.06,0.069,0.119,0.069,0.18c0,0.07-0.02,0.13-0.069,0.18
			C32.127-16.28,32.067-16.25,31.997-16.25z"/>
		<path fill="#231F20" d="M31.997-14.5c-0.06,0-0.12-0.02-0.17-0.07c-0.05-0.05-0.08-0.109-0.08-0.18c0-0.061,0.03-0.131,0.07-0.17
			c0.11-0.11,0.26-0.1,0.36-0.01c0.05,0.06,0.069,0.119,0.069,0.18s-0.02,0.13-0.069,0.18C32.127-14.52,32.067-14.5,31.997-14.5z"/>
		<path fill="#231F20" d="M33.997-13.75c-0.069,0-0.13-0.03-0.18-0.08c-0.04-0.04-0.07-0.1-0.07-0.17s0.03-0.141,0.08-0.18
			c0.09-0.09,0.26-0.09,0.351,0c0.05,0.049,0.069,0.109,0.069,0.18c0,0.061-0.02,0.13-0.069,0.18
			C34.138-13.78,34.067-13.75,33.997-13.75z"/>
		<path fill="#231F20" d="M33.997-11.75c-0.06,0-0.12-0.02-0.17-0.07c-0.05-0.05-0.08-0.109-0.08-0.18s0.03-0.131,0.08-0.18
			c0.09-0.09,0.26-0.09,0.351,0c0.05,0.06,0.069,0.119,0.069,0.18s-0.02,0.13-0.069,0.18C34.127-11.78,34.067-11.75,33.997-11.75z"
			/>
		<path fill="#231F20" d="M34.247-5.25c-0.06,0-0.13-0.03-0.17-0.07c-0.05-0.05-0.08-0.109-0.08-0.18s0.03-0.131,0.08-0.18
			c0.09-0.09,0.25-0.09,0.351,0c0.05,0.049,0.069,0.119,0.069,0.18s-0.02,0.13-0.069,0.18C34.377-5.28,34.317-5.25,34.247-5.25z"/>
		<path fill="#231F20" d="M25.997-7.25c-0.06,0-0.12-0.02-0.17-0.07c-0.05-0.05-0.08-0.109-0.08-0.18s0.03-0.131,0.08-0.18
			c0.09-0.09,0.26-0.09,0.351,0.01c0.05,0.039,0.069,0.109,0.069,0.17c0,0.07-0.02,0.13-0.069,0.18
			C26.127-7.27,26.067-7.25,25.997-7.25z"/>
		<path fill="#231F20" d="M37.247-14.5c-0.06,0-0.13-0.03-0.17-0.07c-0.05-0.05-0.08-0.109-0.08-0.18s0.03-0.131,0.08-0.18
			c0.09-0.09,0.25-0.09,0.34,0c0.061,0.049,0.08,0.119,0.08,0.18s-0.02,0.119-0.069,0.17C37.377-14.52,37.317-14.5,37.247-14.5z"/>
		<path fill="#231F20" d="M39.247-16c-0.06,0-0.13-0.03-0.17-0.07c-0.05-0.05-0.08-0.109-0.08-0.18s0.03-0.131,0.08-0.18
			c0.09-0.09,0.25-0.09,0.351,0c0.05,0.049,0.069,0.119,0.069,0.18s-0.02,0.119-0.069,0.17C39.377-16.02,39.317-16,39.247-16z"/>
		<path fill="#231F20" d="M41.747-17c-0.06,0-0.13-0.03-0.17-0.07c-0.05-0.05-0.08-0.109-0.08-0.18s0.03-0.141,0.08-0.18
			c0.09-0.09,0.26-0.09,0.351,0c0.05,0.049,0.069,0.109,0.069,0.18c0,0.061-0.02,0.119-0.069,0.17C41.877-17.03,41.817-17,41.747-17
			z"/>
		<path fill="#231F20" d="M41.747-21.25c-0.06,0-0.12-0.02-0.17-0.07c-0.05-0.05-0.08-0.109-0.08-0.18s0.03-0.131,0.08-0.18
			c0.09-0.09,0.26-0.09,0.351,0c0.05,0.049,0.069,0.109,0.069,0.18c0,0.061-0.02,0.13-0.069,0.18
			C41.877-21.28,41.817-21.25,41.747-21.25z"/>
		<path fill="#231F20" d="M43.497-27.25c-0.06,0-0.12-0.03-0.17-0.07c-0.05-0.05-0.08-0.109-0.08-0.18s0.03-0.131,0.08-0.18
			c0.09-0.09,0.25-0.09,0.351,0c0.05,0.049,0.069,0.119,0.069,0.18s-0.02,0.13-0.069,0.18C43.627-27.27,43.558-27.25,43.497-27.25z"
			/>
		<path fill="#231F20" d="M50.997-21.5c-0.06,0-0.12-0.03-0.17-0.07c-0.05-0.05-0.08-0.109-0.08-0.18s0.03-0.131,0.08-0.18
			c0.09-0.09,0.25-0.09,0.351,0c0.05,0.049,0.069,0.109,0.069,0.18s-0.02,0.13-0.069,0.18C51.127-21.52,51.067-21.5,50.997-21.5z"/>
		<path fill="#231F20" d="M51.997-25.5c-0.06,0-0.13-0.03-0.17-0.07c-0.05-0.05-0.08-0.109-0.08-0.18s0.03-0.131,0.08-0.18
			c0.09-0.09,0.25-0.09,0.351,0c0.05,0.06,0.069,0.119,0.069,0.18s-0.02,0.119-0.069,0.17C52.127-25.52,52.067-25.5,51.997-25.5z"/>
		<path fill="#231F20" d="M54.997-25c-0.06,0-0.12-0.02-0.17-0.07c-0.05-0.05-0.08-0.109-0.08-0.18s0.03-0.131,0.08-0.18
			c0.09-0.09,0.25-0.09,0.351,0c0.05,0.049,0.069,0.119,0.069,0.18s-0.02,0.13-0.069,0.18C55.127-25.02,55.067-25,54.997-25z"/>
		<path fill="#231F20" d="M54.997-17.75c-0.06,0-0.12-0.03-0.17-0.07c-0.05-0.05-0.08-0.109-0.08-0.18s0.03-0.131,0.08-0.18
			c0.09-0.09,0.25-0.09,0.351,0c0.05,0.049,0.069,0.119,0.069,0.18s-0.02,0.13-0.069,0.18C55.127-17.77,55.067-17.75,54.997-17.75z"
			/>
		<path fill="#231F20" d="M51.247-15.75c-0.06,0-0.13-0.03-0.17-0.07c-0.05-0.05-0.08-0.109-0.08-0.18s0.03-0.131,0.08-0.18
			c0.09-0.09,0.25-0.09,0.351,0c0.05,0.049,0.069,0.109,0.069,0.18s-0.02,0.13-0.069,0.18C51.377-15.78,51.317-15.75,51.247-15.75z"
			/>
		<path fill="#231F20" d="M52.247-12.25c-0.06,0-0.12-0.02-0.17-0.07c-0.05-0.05-0.08-0.109-0.08-0.18s0.03-0.131,0.08-0.18
			c0.09-0.09,0.25-0.09,0.351,0c0.05,0.06,0.069,0.119,0.069,0.18s-0.02,0.119-0.069,0.17C52.377-12.27,52.317-12.25,52.247-12.25z"
			/>
		<path fill="#231F20" d="M50.997-8.25c-0.06,0-0.13-0.03-0.17-0.07c-0.05-0.05-0.08-0.109-0.08-0.18s0.03-0.131,0.08-0.18
			c0.09-0.09,0.25-0.09,0.351,0c0.05,0.049,0.069,0.119,0.069,0.18s-0.02,0.13-0.069,0.17C51.127-8.27,51.067-8.25,50.997-8.25z"/>
		<path fill="#231F20" d="M53.247-8.25c-0.06,0-0.13-0.03-0.17-0.07c-0.05-0.05-0.08-0.119-0.08-0.18s0.03-0.131,0.07-0.17
			c0.1-0.1,0.26-0.1,0.36-0.01c0.05,0.06,0.069,0.119,0.069,0.18s-0.02,0.119-0.069,0.17C53.377-8.28,53.317-8.25,53.247-8.25z"/>
		<path fill="#231F20" d="M54.997-6.75c-0.06,0-0.12-0.03-0.17-0.07c-0.05-0.05-0.08-0.109-0.08-0.18s0.03-0.131,0.08-0.18
			c0.09-0.09,0.25-0.09,0.351,0c0.05,0.049,0.069,0.119,0.069,0.18s-0.02,0.13-0.069,0.18C55.127-6.77,55.067-6.75,54.997-6.75z"/>
		<path fill="#231F20" d="M56.247-7.75c-0.06,0-0.12-0.03-0.17-0.07c-0.05-0.05-0.08-0.109-0.08-0.18s0.03-0.131,0.08-0.18
			c0.09-0.09,0.25-0.09,0.351,0c0.05,0.049,0.069,0.119,0.069,0.18c0,0.07-0.02,0.13-0.069,0.18
			C56.377-7.77,56.317-7.75,56.247-7.75z"/>
		<path fill="#231F20" d="M56.497-10c-0.06,0-0.13-0.03-0.17-0.07c-0.05-0.061-0.08-0.119-0.08-0.18c0-0.07,0.03-0.131,0.08-0.18
			c0.07-0.08,0.26-0.09,0.351,0.01c0.05,0.039,0.069,0.109,0.069,0.17s-0.02,0.119-0.069,0.17C56.627-10.03,56.567-10,56.497-10z"/>
		<path fill="#231F20" d="M58.247-10.5c-0.06,0-0.13-0.03-0.17-0.07c-0.05-0.05-0.08-0.119-0.08-0.18s0.03-0.131,0.07-0.17
			c0.1-0.1,0.27-0.1,0.36-0.01c0.05,0.06,0.069,0.119,0.069,0.18s-0.02,0.119-0.069,0.17C58.388-10.53,58.317-10.5,58.247-10.5z"/>
		<path fill="#231F20" d="M20.997-45c-0.06,0-0.12-0.02-0.17-0.07c-0.05-0.05-0.08-0.109-0.08-0.18s0.03-0.131,0.08-0.18
			c0.101-0.09,0.25-0.09,0.351,0c0.05,0.049,0.069,0.119,0.069,0.18s-0.02,0.13-0.069,0.18C21.127-45.02,21.058-45,20.997-45z"/>
		<path fill="#231F20" d="M22.747-48c-0.069,0-0.13-0.03-0.18-0.07c-0.04-0.05-0.07-0.109-0.07-0.18s0.03-0.131,0.08-0.18
			c0.101-0.09,0.26-0.09,0.351,0c0.05,0.049,0.069,0.119,0.069,0.18s-0.02,0.13-0.069,0.18C22.888-48.03,22.817-48,22.747-48z"/>
		<path fill="#231F20" d="M25.247-47.5c-0.06,0-0.12-0.03-0.17-0.07c-0.05-0.05-0.08-0.109-0.08-0.18s0.03-0.131,0.08-0.18
			c0.101-0.09,0.25-0.09,0.351,0c0.05,0.049,0.069,0.119,0.069,0.18s-0.02,0.13-0.069,0.18C25.377-47.53,25.317-47.5,25.247-47.5z"
			/>
		<path fill="#231F20" d="M35.247-48.75c-0.06,0-0.12-0.02-0.17-0.07c-0.05-0.05-0.08-0.109-0.08-0.18s0.03-0.131,0.08-0.18
			c0.101-0.09,0.25-0.09,0.351,0c0.05,0.049,0.069,0.109,0.069,0.18s-0.029,0.13-0.069,0.18C35.377-48.77,35.317-48.75,35.247-48.75
			z"/>
		<path fill="#231F20" d="M38.997-47.25c-0.06,0-0.12-0.02-0.17-0.07c-0.05-0.05-0.08-0.109-0.08-0.18s0.03-0.131,0.08-0.18
			c0.101-0.09,0.25-0.09,0.351,0c0.05,0.049,0.069,0.109,0.069,0.18s-0.029,0.13-0.069,0.18C39.127-47.27,39.058-47.25,38.997-47.25
			z"/>
		<path fill="#231F20" d="M44.997-42.5c-0.06,0-0.12-0.02-0.17-0.07c-0.05-0.05-0.08-0.109-0.08-0.18s0.03-0.131,0.08-0.18
			c0.101-0.09,0.25-0.09,0.351,0c0.05,0.049,0.069,0.109,0.069,0.18s-0.02,0.13-0.069,0.18C45.127-42.52,45.058-42.5,44.997-42.5z"
			/>
		<path fill="#231F20" d="M46.247-43c-0.06,0-0.13-0.03-0.17-0.07c-0.05-0.05-0.08-0.109-0.08-0.18s0.03-0.131,0.08-0.18
			c0.09-0.09,0.25-0.09,0.34,0c0.061,0.06,0.08,0.119,0.08,0.18s-0.02,0.119-0.069,0.17C46.377-43.02,46.317-43,46.247-43z"/>
		<path fill="#231F20" d="M55.247-44c-0.06,0-0.13-0.03-0.17-0.07c-0.05-0.05-0.08-0.109-0.08-0.18s0.03-0.131,0.08-0.18
			c0.09-0.09,0.25-0.09,0.351,0c0.05,0.049,0.069,0.119,0.069,0.18s-0.02,0.13-0.069,0.18C55.377-44.03,55.317-44,55.247-44z"/>
		<path fill="#231F20" d="M51.247-46.75c-0.06,0-0.12-0.02-0.17-0.07c-0.05-0.05-0.08-0.109-0.08-0.18s0.03-0.131,0.08-0.18
			c0.09-0.09,0.25-0.09,0.351,0c0.05,0.049,0.069,0.109,0.069,0.18s-0.029,0.13-0.069,0.18C51.377-46.77,51.317-46.75,51.247-46.75z
			"/>
		<path fill="#231F20" d="M51.997-42.5c-0.06,0-0.13-0.03-0.17-0.07c-0.05-0.05-0.08-0.109-0.08-0.18s0.03-0.131,0.08-0.18
			c0.09-0.09,0.25-0.09,0.351,0c0.05,0.06,0.069,0.119,0.069,0.18s-0.02,0.119-0.069,0.17C52.127-42.52,52.067-42.5,51.997-42.5z"/>
		<path fill="#231F20" d="M62.497-36.5c-0.06,0-0.13-0.03-0.17-0.07c-0.05-0.05-0.08-0.109-0.08-0.18s0.03-0.131,0.08-0.18
			c0.08-0.08,0.24-0.09,0.34,0c0.061,0.049,0.08,0.119,0.08,0.18s-0.02,0.13-0.069,0.18C62.627-36.52,62.558-36.5,62.497-36.5z"/>
		<path fill="#231F20" d="M58.247-33.75c-0.069,0-0.13-0.03-0.17-0.07c-0.05-0.05-0.08-0.119-0.08-0.18s0.03-0.131,0.07-0.17
			c0.1-0.1,0.27-0.1,0.36-0.01c0.05,0.06,0.069,0.119,0.069,0.18s-0.02,0.119-0.069,0.17C58.388-33.78,58.317-33.75,58.247-33.75z"
			/>
		<path fill="#231F20" d="M48.997-33c-0.069,0-0.13-0.03-0.17-0.07c-0.05-0.05-0.08-0.119-0.08-0.18s0.03-0.131,0.07-0.17
			c0.1-0.1,0.26-0.1,0.36-0.01c0.05,0.06,0.069,0.119,0.069,0.18s-0.02,0.119-0.069,0.17C49.127-33.03,49.067-33,48.997-33z"/>
		<path fill="#231F20" d="M47.997-30.75c-0.06,0-0.12-0.02-0.17-0.07c-0.05-0.05-0.08-0.109-0.08-0.18s0.03-0.131,0.08-0.18
			c0.09-0.09,0.24-0.09,0.34,0c0.061,0.049,0.08,0.119,0.08,0.18s-0.02,0.119-0.069,0.17C48.117-30.77,48.067-30.75,47.997-30.75z"
			/>
		<path fill="#231F20" d="M51.997-29c-0.069,0-0.13-0.03-0.18-0.08c-0.04-0.04-0.07-0.1-0.07-0.17s0.03-0.131,0.08-0.18
			c0.09-0.09,0.25-0.09,0.351,0c0.05,0.049,0.069,0.119,0.069,0.18s-0.02,0.13-0.069,0.18C52.127-29.03,52.067-29,51.997-29z"/>
		<path fill="#231F20" d="M53.497-27c-0.06,0-0.13-0.03-0.17-0.07c-0.05-0.05-0.08-0.109-0.08-0.18s0.03-0.131,0.08-0.18
			c0.08-0.09,0.25-0.09,0.351,0c0.05,0.049,0.069,0.119,0.069,0.18s-0.02,0.13-0.069,0.18C53.627-27.03,53.567-27,53.497-27z"/>
		<path fill="#231F20" d="M62.247-24c-0.06,0-0.13-0.03-0.17-0.07c-0.05-0.05-0.08-0.119-0.08-0.18s0.03-0.131,0.07-0.17
			c0.1-0.1,0.26-0.1,0.36-0.01c0.05,0.06,0.069,0.119,0.069,0.18s-0.02,0.119-0.069,0.17C62.377-24.03,62.317-24,62.247-24z"/>
		<path fill="#231F20" d="M64.997-20.25c-0.06,0-0.12-0.03-0.17-0.07c-0.05-0.05-0.08-0.109-0.08-0.18s0.03-0.141,0.08-0.18
			c0.09-0.08,0.25-0.09,0.351,0c0.04,0.049,0.069,0.109,0.069,0.18s-0.02,0.13-0.069,0.18C65.127-20.27,65.067-20.25,64.997-20.25z"
			/>
		<path fill="#231F20" d="M66.997-20.25c-0.06,0-0.13-0.03-0.17-0.07c-0.05-0.05-0.08-0.109-0.08-0.18s0.03-0.131,0.08-0.18
			c0.08-0.08,0.25-0.09,0.351,0c0.05,0.049,0.069,0.109,0.069,0.18s-0.02,0.13-0.069,0.18C67.127-20.27,67.067-20.25,66.997-20.25z"
			/>
		<path fill="#231F20" d="M69.497-27c-0.06,0-0.12-0.03-0.17-0.07c-0.05-0.05-0.08-0.109-0.08-0.18s0.03-0.131,0.08-0.18
			c0.09-0.09,0.25-0.09,0.351,0c0.05,0.049,0.069,0.109,0.069,0.18s-0.02,0.13-0.069,0.18C69.627-27.02,69.567-27,69.497-27z"/>
		<path fill="#231F20" d="M59.997-33c-0.06,0-0.12-0.02-0.17-0.07c-0.05-0.05-0.08-0.109-0.08-0.18s0.03-0.131,0.08-0.18
			c0.09-0.09,0.25-0.09,0.351,0c0.04,0.049,0.069,0.109,0.069,0.18s-0.029,0.13-0.069,0.18C60.127-33.02,60.067-33,59.997-33z"/>
		<path fill="#231F20" d="M47.247-24.25c-0.06,0-0.13-0.03-0.17-0.07c-0.05-0.05-0.08-0.109-0.08-0.18s0.03-0.141,0.08-0.18
			c0.08-0.08,0.25-0.09,0.351,0c0.04,0.049,0.069,0.109,0.069,0.18s-0.02,0.13-0.069,0.18C47.377-24.27,47.317-24.25,47.247-24.25z"
			/>
		<path fill="#231F20" d="M32.497-25c-0.06,0-0.12-0.03-0.17-0.07c-0.05-0.05-0.08-0.109-0.08-0.18s0.03-0.131,0.08-0.18
			c0.09-0.09,0.26-0.09,0.351,0c0.05,0.049,0.069,0.119,0.069,0.18s-0.02,0.13-0.069,0.18C32.627-25.03,32.567-25,32.497-25z"/>
		<path fill="#231F20" d="M36.997-27.5c-0.06,0-0.12-0.03-0.17-0.07c-0.05-0.05-0.08-0.119-0.08-0.18c0-0.07,0.03-0.131,0.07-0.17
			c0.11-0.11,0.26-0.1,0.36-0.01c0.05,0.049,0.069,0.119,0.069,0.18s-0.02,0.13-0.069,0.17C37.127-27.53,37.067-27.5,36.997-27.5z"
			/>
		<path fill="#231F20" d="M26.247-34.25c-0.06,0-0.12-0.03-0.17-0.07c-0.05-0.05-0.08-0.109-0.08-0.18s0.03-0.131,0.08-0.18
			c0.101-0.09,0.25-0.09,0.351,0c0.05,0.049,0.069,0.119,0.069,0.18s-0.02,0.13-0.069,0.18C26.377-34.28,26.317-34.25,26.247-34.25z
			"/>
		<path fill="#231F20" d="M29.747-36.5c-0.06,0-0.12-0.02-0.17-0.07c-0.05-0.05-0.08-0.109-0.08-0.18s0.03-0.131,0.08-0.18
			c0.101-0.09,0.25-0.09,0.351,0c0.05,0.049,0.069,0.119,0.069,0.18s-0.02,0.119-0.069,0.17C29.877-36.52,29.817-36.5,29.747-36.5z"
			/>
		<path fill="#231F20" d="M16.997-43.5c-0.06,0-0.12-0.02-0.17-0.07c-0.05-0.05-0.08-0.109-0.08-0.18c0-0.061,0.03-0.12,0.07-0.17
			c0.11-0.11,0.26-0.1,0.36-0.01c0.05,0.049,0.069,0.119,0.069,0.18c0,0.07-0.02,0.13-0.069,0.18
			C17.127-43.52,17.067-43.5,16.997-43.5z"/>
		<path fill="#231F20" d="M10.497-42.5c-0.06,0-0.12-0.02-0.17-0.07c-0.05-0.05-0.08-0.109-0.08-0.18c0-0.061,0.03-0.12,0.07-0.17
			c0.11-0.11,0.26-0.1,0.36-0.01c0.05,0.06,0.069,0.119,0.069,0.18s-0.02,0.13-0.069,0.18C10.627-42.52,10.567-42.5,10.497-42.5z"/>
		<path fill="#231F20" d="M5.997-40.5c-0.06,0-0.12-0.02-0.17-0.07c-0.05-0.05-0.08-0.109-0.08-0.18c0-0.061,0.03-0.12,0.07-0.17
			c0.12-0.11,0.26-0.1,0.36-0.01c0.05,0.06,0.069,0.119,0.069,0.18c0,0.07-0.02,0.13-0.069,0.18C6.127-40.52,6.067-40.5,5.997-40.5z
			"/>
		<path fill="#231F20" d="M2.497-36.75c-0.069,0-0.13-0.03-0.17-0.07c-0.05-0.05-0.08-0.119-0.08-0.18c0-0.07,0.03-0.131,0.08-0.18
			c0.08-0.09,0.24-0.09,0.34,0c0.061,0.049,0.08,0.109,0.08,0.18c0,0.061-0.02,0.13-0.069,0.17C2.627-36.77,2.567-36.75,2.497-36.75
			z"/>
		<path fill="#231F20" d="M11.247-35.25c-0.069,0-0.13-0.03-0.18-0.07c-0.04-0.05-0.07-0.119-0.07-0.18c0-0.07,0.03-0.131,0.07-0.18
			c0.1-0.09,0.25-0.09,0.36,0c0.05,0.049,0.069,0.109,0.069,0.18s-0.02,0.13-0.069,0.18C11.377-35.27,11.317-35.25,11.247-35.25z"/>
		<path fill="#231F20" d="M16.997-30c-0.06,0-0.12-0.02-0.17-0.07c-0.05-0.05-0.08-0.109-0.08-0.18c0-0.061,0.03-0.131,0.07-0.18
			c0.11-0.09,0.26-0.09,0.36,0c0.05,0.049,0.069,0.109,0.069,0.18s-0.029,0.13-0.069,0.18C17.127-30.02,17.067-30,16.997-30z"/>
		<path fill="#231F20" d="M12.747-36c-0.06,0-0.13-0.03-0.17-0.07c-0.05-0.05-0.08-0.109-0.08-0.18c0-0.061,0.03-0.131,0.07-0.17
			c0.1-0.1,0.26-0.1,0.36-0.01c0.05,0.049,0.069,0.109,0.069,0.18s-0.02,0.13-0.069,0.18C12.877-36.02,12.808-36,12.747-36z"/>
		<path fill="#231F20" d="M26.497-41.75c-0.06,0-0.12-0.02-0.17-0.07c-0.05-0.05-0.08-0.109-0.08-0.18s0.03-0.131,0.08-0.18
			c0.101-0.09,0.25-0.09,0.351,0c0.05,0.049,0.069,0.119,0.069,0.18s-0.02,0.13-0.069,0.18C26.627-41.77,26.567-41.75,26.497-41.75z
			"/>
		<path fill="#231F20" d="M37.747-41c-0.06,0-0.12-0.02-0.17-0.07c-0.05-0.05-0.08-0.109-0.08-0.18s0.03-0.131,0.08-0.18
			c0.101-0.09,0.25-0.09,0.351,0c0.05,0.049,0.069,0.109,0.069,0.18s-0.02,0.13-0.069,0.18C37.877-41.02,37.808-41,37.747-41z"/>
		<path fill="#231F20" d="M39.497-39.5c-0.06,0-0.12-0.02-0.17-0.07c-0.05-0.05-0.08-0.109-0.08-0.18s0.03-0.131,0.08-0.18
			c0.08-0.09,0.26-0.09,0.351,0.01c0.05,0.039,0.069,0.109,0.069,0.17s-0.02,0.13-0.069,0.18C39.627-39.53,39.567-39.5,39.497-39.5z
			"/>
		<path fill="#231F20" d="M27.997-30c-0.06,0-0.12-0.03-0.17-0.07c-0.05-0.05-0.08-0.119-0.08-0.18s0.03-0.12,0.07-0.17
			c0.11-0.1,0.26-0.1,0.35-0.01c0.061,0.06,0.08,0.119,0.08,0.18s-0.02,0.13-0.069,0.17C28.127-30.02,28.067-30,27.997-30z"/>
		<path fill="#231F20" d="M6.497-51.5c-0.06,0-0.13-0.03-0.17-0.07c-0.05-0.05-0.08-0.119-0.08-0.18c0-0.07,0.03-0.131,0.07-0.18
			c0.1-0.09,0.26-0.09,0.36,0c0.05,0.049,0.069,0.109,0.069,0.18c0,0.061-0.02,0.13-0.069,0.17C6.627-51.52,6.567-51.5,6.497-51.5z"
			/>
		<path fill="#231F20" d="M10.247-51.75c-0.06,0-0.13-0.03-0.17-0.07c-0.05-0.05-0.08-0.109-0.08-0.18s0.03-0.131,0.07-0.18
			c0.1-0.09,0.26-0.09,0.36,0c0.05,0.049,0.069,0.109,0.069,0.18s-0.02,0.13-0.069,0.18C10.377-51.77,10.317-51.75,10.247-51.75z"/>
		<path fill="#231F20" d="M11.747-48.5c-0.06,0-0.12-0.02-0.17-0.07c-0.05-0.05-0.08-0.109-0.08-0.18c0-0.061,0.03-0.12,0.07-0.17
			c0.11-0.11,0.26-0.1,0.36-0.01c0.05,0.06,0.069,0.119,0.069,0.18s-0.02,0.13-0.069,0.18C11.877-48.52,11.808-48.5,11.747-48.5z"/>
		<path fill="#231F20" d="M2.997-46.25c-0.06,0-0.13-0.03-0.17-0.07c-0.05-0.05-0.08-0.109-0.08-0.18s0.03-0.131,0.07-0.18
			c0.1-0.09,0.26-0.09,0.36,0c0.05,0.049,0.069,0.109,0.069,0.18s-0.02,0.13-0.069,0.18C3.127-46.27,3.058-46.25,2.997-46.25z"/>
		<path fill="#231F20" d="M64.247-42.5c-0.06,0-0.13-0.03-0.17-0.07c-0.05-0.05-0.08-0.119-0.08-0.18s0.03-0.131,0.07-0.17
			c0.1-0.1,0.25-0.1,0.35-0.01c0.061,0.049,0.08,0.119,0.08,0.18s-0.02,0.13-0.069,0.17C64.377-42.52,64.317-42.5,64.247-42.5z"/>
		<path fill="#231F20" d="M67.497-41.25c-0.06,0-0.13-0.03-0.17-0.07c-0.05-0.05-0.08-0.109-0.08-0.18c0-0.061,0.03-0.131,0.07-0.17
			c0.1-0.1,0.26-0.1,0.36-0.01c0.05,0.06,0.069,0.119,0.069,0.18s-0.02,0.13-0.069,0.18C67.627-41.28,67.567-41.25,67.497-41.25z"/>
		<path fill="#231F20" d="M69.497-42.25c-0.06,0-0.13-0.03-0.17-0.07c-0.05-0.05-0.08-0.109-0.08-0.18s0.03-0.131,0.08-0.18
			c0.09-0.09,0.25-0.09,0.351,0c0.05,0.049,0.069,0.109,0.069,0.18s-0.02,0.13-0.069,0.18C69.627-42.28,69.567-42.25,69.497-42.25z"
			/>
		<path fill="#231F20" d="M7.247-56.25c-0.069,0-0.13-0.03-0.18-0.08c-0.04-0.04-0.07-0.1-0.07-0.17s0.03-0.131,0.07-0.18
			c0.1-0.09,0.26-0.09,0.36,0c0.04,0.049,0.069,0.109,0.069,0.18s-0.029,0.13-0.069,0.18C7.377-56.28,7.317-56.25,7.247-56.25z"/>
		<path fill="#231F20" d="M1.497-63c-0.06,0-0.13-0.03-0.18-0.07c-0.04-0.05-0.07-0.109-0.07-0.18s0.03-0.131,0.07-0.18
			c0.09-0.09,0.26-0.09,0.36,0c0.05,0.049,0.069,0.119,0.069,0.18s-0.02,0.13-0.069,0.18C1.627-63.03,1.567-63,1.497-63z"/>
		<path fill="#231F20" d="M14.497-65.5c-0.06,0-0.12-0.02-0.17-0.07c-0.05-0.05-0.08-0.109-0.08-0.18c0-0.061,0.03-0.131,0.07-0.17
			c0.11-0.11,0.26-0.1,0.36-0.01c0.05,0.049,0.069,0.109,0.069,0.18s-0.02,0.13-0.069,0.18C14.627-65.52,14.567-65.5,14.497-65.5z"
			/>
		<path fill="#231F20" d="M8.497-66.75c-0.06,0-0.12-0.02-0.17-0.07c-0.05-0.05-0.08-0.109-0.08-0.18s0.03-0.131,0.07-0.18
			c0.1-0.09,0.27-0.09,0.36,0.01c0.05,0.039,0.069,0.1,0.069,0.17c0,0.061-0.02,0.13-0.069,0.18
			C8.627-66.77,8.567-66.75,8.497-66.75z"/>
		<path fill="#231F20" d="M3.497-69.5c-0.069,0-0.13-0.03-0.18-0.08c-0.04-0.04-0.07-0.1-0.07-0.17s0.03-0.131,0.08-0.18
			c0.08-0.09,0.25-0.09,0.351,0c0.04,0.049,0.069,0.109,0.069,0.18s-0.029,0.13-0.069,0.18C3.627-69.53,3.567-69.5,3.497-69.5z"/>
		<path fill="#231F20" d="M3.747-66c-0.06,0-0.13-0.03-0.17-0.07c-0.05-0.05-0.08-0.109-0.08-0.18c0-0.061,0.03-0.131,0.07-0.18
			c0.09-0.09,0.26-0.09,0.36,0c0.05,0.049,0.069,0.109,0.069,0.18s-0.02,0.13-0.069,0.18C3.877-66.02,3.808-66,3.747-66z"/>
		<path fill="#231F20" d="M12.747-57.75c-0.06,0-0.13-0.03-0.17-0.07c-0.05-0.05-0.08-0.119-0.08-0.18c0-0.07,0.03-0.131,0.07-0.18
			c0.1-0.09,0.26-0.09,0.36,0c0.05,0.049,0.069,0.109,0.069,0.18c0,0.061-0.02,0.13-0.069,0.17
			C12.877-57.77,12.817-57.75,12.747-57.75z"/>
		<path fill="#231F20" d="M18.497-52.75c-0.06,0-0.12-0.02-0.17-0.07c-0.05-0.05-0.08-0.109-0.08-0.18c0-0.061,0.03-0.131,0.07-0.17
			c0.11-0.11,0.27-0.1,0.36-0.01c0.05,0.06,0.069,0.119,0.069,0.18c0,0.07-0.02,0.13-0.069,0.18
			C18.627-52.78,18.567-52.75,18.497-52.75z"/>
		<path fill="#231F20" d="M21.247-35c-0.06,0-0.12-0.02-0.17-0.07c-0.05-0.05-0.08-0.119-0.08-0.18c0-0.07,0.03-0.131,0.07-0.18
			c0.11-0.09,0.26-0.09,0.36,0c0.05,0.049,0.069,0.109,0.069,0.18c0,0.061-0.02,0.13-0.069,0.17C21.377-35.02,21.317-35,21.247-35z"
			/>
		<path fill="#231F20" d="M0.747-27.75c-0.06,0-0.13-0.03-0.17-0.07c-0.05-0.05-0.08-0.109-0.08-0.18s0.03-0.131,0.08-0.18
			c0.07-0.08,0.25-0.09,0.351,0.01c0.04,0.039,0.069,0.1,0.069,0.17s-0.029,0.13-0.069,0.18C0.877-27.78,0.817-27.75,0.747-27.75z"
			/>
		<path fill="#231F20" d="M66.497-34.75c-0.06,0-0.13-0.03-0.17-0.07c-0.05-0.05-0.08-0.109-0.08-0.18s0.03-0.131,0.08-0.18
			c0.09-0.09,0.25-0.09,0.351,0c0.05,0.049,0.069,0.119,0.069,0.18s-0.02,0.13-0.069,0.18C66.627-34.78,66.567-34.75,66.497-34.75z"
			/>
		<path fill="#231F20" d="M67.997-6c-0.06,0-0.13-0.03-0.17-0.07c-0.05-0.05-0.08-0.119-0.08-0.18c0-0.07,0.03-0.131,0.07-0.18
			c0.1-0.09,0.26-0.09,0.36,0c0.05,0.049,0.069,0.119,0.069,0.18s-0.02,0.119-0.069,0.17C68.127-6.03,68.067-6,67.997-6z"/>
		<path fill="#231F20" d="M59.747-2.25c-0.069,0-0.13-0.03-0.18-0.08c-0.04-0.04-0.07-0.1-0.07-0.17s0.03-0.131,0.08-0.18
			c0.09-0.09,0.25-0.09,0.351,0c0.05,0.049,0.069,0.119,0.069,0.18c0,0.07-0.02,0.13-0.069,0.18
			C59.877-2.28,59.817-2.25,59.747-2.25z"/>
		<path fill="#231F20" d="M40.497-4c-0.06,0-0.12-0.02-0.17-0.07c-0.05-0.05-0.08-0.109-0.08-0.18s0.03-0.131,0.08-0.18
			c0.09-0.09,0.25-0.09,0.351,0c0.05,0.049,0.069,0.119,0.069,0.18s-0.02,0.13-0.069,0.18C40.627-4.02,40.558-4,40.497-4z"/>
		<path fill="#231F20" d="M43.997-9c-0.06,0-0.12-0.02-0.17-0.07c-0.05-0.04-0.08-0.109-0.08-0.18s0.03-0.131,0.08-0.18
			c0.09-0.09,0.25-0.09,0.351,0c0.05,0.049,0.069,0.119,0.069,0.18c0,0.07-0.02,0.13-0.069,0.18C44.127-9.02,44.067-9,43.997-9z"/>
		<path fill="#231F20" d="M25.747-2c-0.06,0-0.12-0.02-0.17-0.07c-0.05-0.05-0.08-0.109-0.08-0.18s0.03-0.131,0.08-0.18
			c0.09-0.09,0.25-0.09,0.351,0c0.05,0.049,0.069,0.109,0.069,0.18c0,0.061-0.02,0.119-0.069,0.17C25.877-2.02,25.817-2,25.747-2z"
			/>
		<path fill="#231F20" d="M4.497-12c-0.06,0-0.12-0.02-0.17-0.07c-0.05-0.05-0.08-0.109-0.08-0.18c0-0.061,0.03-0.131,0.07-0.17
			c0.11-0.11,0.26-0.1,0.36-0.01c0.05,0.06,0.069,0.119,0.069,0.18s-0.02,0.13-0.069,0.18C4.627-12.02,4.558-12,4.497-12z"/>
		<path fill="#231F20" d="M26.497-12.5c-0.06,0-0.12-0.02-0.17-0.07c-0.05-0.05-0.08-0.109-0.08-0.18s0.03-0.131,0.08-0.18
			c0.101-0.09,0.25-0.09,0.351,0c0.05,0.049,0.069,0.109,0.069,0.18c0,0.061-0.02,0.13-0.069,0.18
			C26.627-12.52,26.567-12.5,26.497-12.5z"/>
		<path fill="#231F20" d="M37.247-23.5c-0.06,0-0.12-0.03-0.17-0.07c-0.05-0.05-0.08-0.109-0.08-0.18s0.03-0.131,0.08-0.18
			c0.09-0.09,0.24-0.09,0.34,0c0.061,0.049,0.08,0.119,0.08,0.18s-0.02,0.13-0.069,0.18C37.367-23.52,37.308-23.5,37.247-23.5z"/>
		<path fill="#231F20" d="M21.997-30.25c-0.06,0-0.12-0.02-0.17-0.07c-0.05-0.05-0.08-0.109-0.08-0.18s0.03-0.131,0.08-0.18
			c0.101-0.09,0.25-0.09,0.351,0c0.05,0.049,0.069,0.119,0.069,0.18s-0.02,0.13-0.069,0.18C22.127-30.27,22.058-30.25,21.997-30.25z
			"/>
		<path fill="#231F20" d="M8.747-31.75c-0.06,0-0.13-0.03-0.17-0.07c-0.05-0.05-0.08-0.119-0.08-0.18c0-0.07,0.03-0.131,0.08-0.18
			c0.09-0.09,0.25-0.09,0.351,0c0.04,0.049,0.069,0.109,0.069,0.18s-0.02,0.13-0.069,0.18C8.877-31.77,8.817-31.75,8.747-31.75z"/>
		<path fill="#231F20" d="M23.997-43c-0.06,0-0.12-0.02-0.17-0.07c-0.05-0.05-0.08-0.109-0.08-0.18s0.03-0.131,0.08-0.18
			c0.101-0.09,0.25-0.09,0.351,0c0.05,0.049,0.069,0.119,0.069,0.18s-0.02,0.119-0.069,0.17C24.127-43.02,24.067-43,23.997-43z"/>
		<path fill="#231F20" d="M41.497-37.5c-0.06,0-0.13-0.03-0.17-0.07c-0.05-0.05-0.08-0.109-0.08-0.18s0.03-0.131,0.08-0.18
			c0.09-0.09,0.25-0.09,0.34,0c0.061,0.06,0.08,0.119,0.08,0.18s-0.02,0.119-0.069,0.17C41.627-37.52,41.567-37.5,41.497-37.5z"/>
		<path fill="#231F20" d="M51.497-34.5c-0.06,0-0.13-0.03-0.17-0.07c-0.05-0.05-0.08-0.109-0.08-0.18s0.03-0.131,0.08-0.18
			c0.09-0.09,0.25-0.09,0.351,0c0.05,0.049,0.069,0.119,0.069,0.18s-0.02,0.13-0.069,0.17C51.627-34.52,51.567-34.5,51.497-34.5z"/>
		<path fill="#231F20" d="M60.747-26c-0.06,0-0.12-0.03-0.17-0.07c-0.05-0.05-0.08-0.109-0.08-0.18s0.03-0.141,0.08-0.18
			c0.09-0.09,0.25-0.09,0.351,0c0.05,0.049,0.069,0.109,0.069,0.18s-0.02,0.13-0.069,0.18C60.877-26.03,60.817-26,60.747-26z"/>
		<path fill="#231F20" d="M67.497-28.25c-0.06,0-0.13-0.03-0.17-0.07c-0.05-0.05-0.08-0.109-0.08-0.18s0.03-0.131,0.08-0.18
			c0.08-0.08,0.25-0.09,0.351,0c0.05,0.049,0.069,0.119,0.069,0.18s-0.02,0.13-0.069,0.18C67.627-28.28,67.567-28.25,67.497-28.25z"
			/>
		<path fill="#231F20" d="M51.247-5.75c-0.06,0-0.12-0.02-0.17-0.07c-0.05-0.05-0.08-0.109-0.08-0.18s0.03-0.131,0.08-0.18
			c0.09-0.09,0.25-0.09,0.351,0c0.05,0.049,0.069,0.109,0.069,0.18s-0.029,0.13-0.069,0.18C51.377-5.77,51.317-5.75,51.247-5.75z"/>
		<path fill="#231F20" d="M39.997-34.25c-0.06,0-0.13-0.03-0.17-0.07c-0.05-0.05-0.08-0.109-0.08-0.18s0.03-0.131,0.08-0.18
			c0.09-0.09,0.26-0.09,0.351,0c0.05,0.049,0.069,0.119,0.069,0.18s-0.02,0.119-0.069,0.17C40.127-34.28,40.067-34.25,39.997-34.25z
			"/>
		<path fill="#231F20" d="M53.247-57c-0.06,0-0.13-0.03-0.17-0.07c-0.05-0.05-0.08-0.109-0.08-0.18s0.03-0.131,0.08-0.18
			c0.07-0.08,0.26-0.09,0.351,0.01c0.05,0.039,0.069,0.109,0.069,0.17s-0.02,0.13-0.069,0.18C53.377-57.03,53.317-57,53.247-57z"/>
		<path fill="#231F20" d="M33.997-56c-0.069,0-0.13-0.03-0.18-0.08c-0.04-0.04-0.07-0.1-0.07-0.17s0.03-0.141,0.08-0.18
			c0.09-0.09,0.26-0.09,0.351,0c0.05,0.049,0.069,0.109,0.069,0.18c0,0.061-0.02,0.13-0.069,0.18C34.127-56.03,34.067-56,33.997-56z
			"/>
		<path fill="#231F20" d="M27.497-58.5c-0.06,0-0.12-0.02-0.17-0.07c-0.05-0.05-0.08-0.109-0.08-0.18s0.03-0.131,0.07-0.17
			c0.11-0.11,0.26-0.1,0.36-0.01c0.05,0.049,0.069,0.119,0.069,0.18c0,0.07-0.02,0.13-0.069,0.18
			C27.627-58.52,27.567-58.5,27.497-58.5z"/>
		<path fill="#231F20" d="M12.747-52.75c-0.06,0-0.13-0.03-0.17-0.07c-0.05-0.05-0.08-0.109-0.08-0.18c0-0.061,0.03-0.12,0.07-0.17
			c0.1-0.1,0.26-0.1,0.36-0.01c0.05,0.049,0.069,0.119,0.069,0.18c0,0.07-0.02,0.13-0.069,0.18
			C12.877-52.77,12.817-52.75,12.747-52.75z"/>
		<path fill="#231F20" d="M19.747-45.5c-0.06,0-0.12-0.02-0.17-0.07c-0.05-0.05-0.08-0.109-0.08-0.18c0-0.061,0.03-0.12,0.07-0.17
			c0.11-0.11,0.26-0.1,0.36-0.01c0.05,0.049,0.069,0.119,0.069,0.18c0,0.07-0.02,0.13-0.069,0.18
			C19.877-45.52,19.808-45.5,19.747-45.5z"/>
		<path fill="#231F20" d="M49.497-67.5c-0.06,0-0.13-0.03-0.17-0.07c-0.05-0.04-0.08-0.109-0.08-0.18s0.03-0.141,0.08-0.18
			c0.08-0.08,0.25-0.09,0.351,0c0.05,0.049,0.069,0.119,0.069,0.18s-0.02,0.13-0.069,0.18C49.627-67.53,49.567-67.5,49.497-67.5z"/>
		<path fill="#231F20" d="M11.747-70.25c-0.06,0-0.12-0.02-0.17-0.07c-0.05-0.05-0.08-0.109-0.08-0.18c0-0.061,0.03-0.131,0.07-0.18
			c0.1-0.09,0.27-0.09,0.36,0c0.05,0.049,0.069,0.119,0.069,0.18s-0.02,0.13-0.069,0.18C11.877-70.27,11.817-70.25,11.747-70.25z"/>
		<path fill="#231F20" d="M55.247-68.25c-0.06,0-0.13-0.03-0.17-0.07c-0.05-0.05-0.08-0.109-0.08-0.18s0.03-0.131,0.08-0.18
			c0.08-0.09,0.25-0.09,0.351,0c0.05,0.049,0.069,0.119,0.069,0.18s-0.02,0.13-0.069,0.18C55.377-68.28,55.317-68.25,55.247-68.25z"
			/>
		<path fill="#231F20" d="M58.997-51.25c-0.06,0-0.13-0.03-0.17-0.07c-0.05-0.05-0.08-0.109-0.08-0.18s0.03-0.131,0.08-0.18
			c0.08-0.09,0.25-0.09,0.351,0c0.05,0.06,0.069,0.119,0.069,0.18s-0.02,0.119-0.069,0.17C59.127-51.27,59.067-51.25,58.997-51.25z"
			/>
		<path fill="#231F20" d="M67.497-14.75c-0.06,0-0.13-0.03-0.17-0.07c-0.05-0.05-0.08-0.119-0.08-0.18c0-0.07,0.03-0.131,0.08-0.18
			c0.09-0.09,0.25-0.09,0.351,0c0.05,0.049,0.069,0.119,0.069,0.18s-0.02,0.119-0.069,0.17C67.627-14.78,67.567-14.75,67.497-14.75z
			"/>
		<path fill="#231F20" d="M47.247-2.25c-0.06,0-0.13-0.03-0.17-0.07c-0.05-0.04-0.08-0.109-0.08-0.18s0.03-0.141,0.08-0.18
			c0.08-0.08,0.25-0.09,0.351,0c0.04,0.049,0.069,0.109,0.069,0.18s-0.029,0.13-0.069,0.18C47.377-2.27,47.317-2.25,47.247-2.25z"/>
		<path fill="#231F20" d="M5.247-2.25c-0.06,0-0.13-0.03-0.17-0.07c-0.05-0.05-0.08-0.109-0.08-0.18c0-0.061,0.03-0.12,0.07-0.17
			c0.1-0.1,0.26-0.1,0.36-0.01c0.05,0.049,0.069,0.119,0.069,0.18c0,0.07-0.02,0.13-0.069,0.18C5.377-2.27,5.308-2.25,5.247-2.25z"
			/>
		<path fill="#231F20" d="M4.747-31.75c-0.06,0-0.13-0.03-0.18-0.07c-0.04-0.05-0.07-0.109-0.07-0.18s0.03-0.131,0.07-0.18
			c0.09-0.09,0.26-0.09,0.36,0c0.05,0.049,0.069,0.119,0.069,0.18s-0.02,0.13-0.069,0.18C4.877-31.78,4.817-31.75,4.747-31.75z"/>
		<path fill="#231F20" d="M69.747-59.25c-0.069,0-0.13-0.03-0.17-0.07c-0.05-0.05-0.08-0.109-0.08-0.18s0.03-0.131,0.08-0.18
			c0.09-0.09,0.25-0.09,0.351,0c0.05,0.049,0.069,0.119,0.069,0.18s-0.02,0.13-0.069,0.18C69.877-59.28,69.817-59.25,69.747-59.25z"
			/>
		<path fill="#231F20" d="M23.247-58c-0.06,0-0.12-0.02-0.17-0.07c-0.05-0.05-0.08-0.109-0.08-0.18s0.03-0.131,0.07-0.17
			c0.11-0.11,0.26-0.1,0.36-0.01c0.05,0.06,0.069,0.119,0.069,0.18s-0.02,0.13-0.069,0.18C23.377-58.02,23.317-58,23.247-58z"/>
		<path fill="#231F20" d="M20.497-54.75c-0.06,0-0.13-0.03-0.17-0.07c-0.05-0.04-0.08-0.109-0.08-0.18s0.03-0.141,0.08-0.18
			c0.07-0.08,0.26-0.09,0.351,0.01c0.05,0.039,0.069,0.109,0.069,0.17s-0.02,0.13-0.069,0.18
			C20.627-54.78,20.567-54.75,20.497-54.75z"/>
		<path fill="#231F20" d="M14.747-54.75c-0.06,0-0.12-0.02-0.17-0.07c-0.05-0.05-0.08-0.109-0.08-0.18c0-0.061,0.03-0.131,0.07-0.18
			c0.11-0.09,0.26-0.09,0.36,0c0.05,0.049,0.069,0.119,0.069,0.18s-0.02,0.13-0.069,0.18C14.877-54.77,14.817-54.75,14.747-54.75z"
			/>
		<path fill="#231F20" d="M2.747-58.75c-0.069,0-0.13-0.03-0.17-0.07c-0.05-0.05-0.08-0.119-0.08-0.18c0-0.07,0.03-0.131,0.08-0.18
			c0.09-0.09,0.25-0.09,0.351,0c0.04,0.049,0.069,0.109,0.069,0.18s-0.02,0.13-0.069,0.18C2.877-58.78,2.817-58.75,2.747-58.75z"/>
		<path fill="#231F20" d="M5.997-60.25c-0.06,0-0.12-0.02-0.17-0.07c-0.05-0.05-0.08-0.119-0.08-0.18c0-0.07,0.03-0.131,0.07-0.18
			c0.12-0.101,0.26-0.09,0.36,0c0.05,0.049,0.069,0.109,0.069,0.18c0,0.061-0.02,0.119-0.069,0.17
			C6.127-60.27,6.067-60.25,5.997-60.25z"/>
		<path fill="#231F20" d="M6.997-69.25c-0.06,0-0.12-0.02-0.17-0.07c-0.05-0.05-0.08-0.119-0.08-0.18c0-0.07,0.03-0.131,0.07-0.18
			c0.11-0.09,0.26-0.09,0.36,0c0.05,0.049,0.069,0.119,0.069,0.18s-0.02,0.119-0.069,0.17C7.127-69.27,7.067-69.25,6.997-69.25z"/>
		<path fill="#231F20" d="M9.997-63.75c-0.069,0-0.13-0.03-0.18-0.07c-0.04-0.05-0.07-0.119-0.07-0.18c0-0.07,0.03-0.131,0.07-0.18
			c0.09-0.09,0.26-0.09,0.36,0c0.05,0.049,0.069,0.109,0.069,0.18c0,0.061-0.02,0.13-0.069,0.17
			C10.127-63.77,10.067-63.75,9.997-63.75z"/>
		<path fill="#231F20" d="M15.997-63.75c-0.06,0-0.13-0.03-0.18-0.07c-0.04-0.05-0.07-0.109-0.07-0.18s0.03-0.131,0.08-0.18
			c0.101-0.09,0.25-0.09,0.351,0c0.05,0.049,0.069,0.119,0.069,0.18s-0.02,0.13-0.069,0.18C16.127-63.78,16.067-63.75,15.997-63.75z
			"/>
		<path fill="#231F20" d="M16.497-68.75c-0.06,0-0.12-0.02-0.17-0.07c-0.05-0.05-0.08-0.109-0.08-0.18s0.03-0.131,0.07-0.18
			c0.11-0.101,0.26-0.09,0.36,0c0.05,0.049,0.069,0.109,0.069,0.18s-0.02,0.13-0.069,0.18C16.627-68.77,16.558-68.75,16.497-68.75z"
			/>
		<path fill="#231F20" d="M25.747-65c-0.06,0-0.12-0.02-0.17-0.07c-0.05-0.05-0.08-0.109-0.08-0.18s0.03-0.131,0.08-0.18
			c0.101-0.09,0.25-0.09,0.351,0c0.05,0.049,0.069,0.119,0.069,0.18s-0.02,0.13-0.069,0.18C25.877-65.02,25.817-65,25.747-65z"/>
		<path fill="#231F20" d="M36.997-64.5c-0.06,0-0.12-0.02-0.17-0.07c-0.05-0.05-0.08-0.109-0.08-0.18s0.03-0.131,0.08-0.18
			c0.09-0.09,0.26-0.09,0.351,0c0.05,0.049,0.069,0.109,0.069,0.18s-0.02,0.13-0.069,0.18C37.127-64.52,37.058-64.5,36.997-64.5z"/>
		<path fill="#231F20" d="M40.497-67.5c-0.06,0-0.13-0.03-0.17-0.07c-0.05-0.04-0.08-0.109-0.08-0.18s0.03-0.131,0.08-0.18
			c0.09-0.09,0.25-0.09,0.351,0c0.05,0.06,0.069,0.119,0.069,0.18c0,0.07-0.02,0.13-0.069,0.18
			C40.627-67.53,40.567-67.5,40.497-67.5z"/>
		<path fill="#231F20" d="M37.497-67.75c-0.06,0-0.13-0.03-0.17-0.07c-0.05-0.04-0.08-0.109-0.08-0.18s0.03-0.131,0.08-0.18
			c0.08-0.09,0.25-0.09,0.351,0c0.05,0.06,0.069,0.119,0.069,0.18s-0.02,0.13-0.069,0.18C37.627-67.77,37.567-67.75,37.497-67.75z"
			/>
		<path fill="#231F20" d="M43.247-69.75c-0.069,0-0.13-0.03-0.18-0.08c-0.04-0.04-0.07-0.1-0.07-0.17s0.03-0.131,0.08-0.18
			c0.09-0.09,0.25-0.09,0.351,0c0.05,0.049,0.069,0.119,0.069,0.18s-0.02,0.13-0.069,0.18C43.377-69.78,43.317-69.75,43.247-69.75z"
			/>
		<path fill="#231F20" d="M49.497-63.75c-0.06,0-0.13-0.03-0.17-0.07c-0.05-0.04-0.08-0.109-0.08-0.18s0.03-0.141,0.08-0.18
			c0.08-0.09,0.25-0.09,0.351,0c0.05,0.049,0.069,0.119,0.069,0.18s-0.02,0.13-0.069,0.18C49.627-63.78,49.567-63.75,49.497-63.75z"
			/>
		<path fill="#231F20" d="M45.997-62.75c-0.06,0-0.13-0.03-0.17-0.07c-0.05-0.05-0.08-0.109-0.08-0.18s0.03-0.131,0.08-0.18
			c0.08-0.08,0.25-0.09,0.351,0c0.05,0.049,0.069,0.119,0.069,0.18s-0.02,0.13-0.069,0.18C46.127-62.78,46.067-62.75,45.997-62.75z"
			/>
		<path fill="#231F20" d="M35.747-61c-0.06,0-0.13-0.03-0.17-0.07c-0.05-0.05-0.08-0.109-0.08-0.18s0.03-0.131,0.08-0.18
			c0.09-0.09,0.25-0.09,0.351,0c0.05,0.049,0.069,0.119,0.069,0.18s-0.02,0.13-0.069,0.18C35.877-61.03,35.817-61,35.747-61z"/>
		<path fill="#231F20" d="M39.247-57c-0.06,0-0.12-0.02-0.17-0.07c-0.05-0.05-0.08-0.109-0.08-0.18s0.03-0.131,0.08-0.18
			c0.09-0.09,0.25-0.09,0.351,0c0.05,0.06,0.069,0.119,0.069,0.18s-0.02,0.13-0.069,0.18C39.377-57.02,39.317-57,39.247-57z"/>
		<path fill="#231F20" d="M24.747-54c-0.06,0-0.12-0.02-0.17-0.07c-0.05-0.05-0.08-0.109-0.08-0.18s0.03-0.131,0.07-0.18
			c0.1-0.09,0.27-0.09,0.36,0c0.05,0.049,0.069,0.109,0.069,0.18s-0.02,0.13-0.069,0.18C24.877-54.02,24.817-54,24.747-54z"/>
		<path fill="#231F20" d="M8.247-44.75c-0.06,0-0.12-0.02-0.17-0.07c-0.05-0.05-0.08-0.109-0.08-0.18s0.03-0.131,0.07-0.18
			c0.12-0.101,0.26-0.09,0.36,0c0.05,0.049,0.069,0.119,0.069,0.18c0,0.07-0.02,0.13-0.069,0.18
			C8.377-44.78,8.317-44.75,8.247-44.75z"/>
		<path fill="#231F20" d="M15.997-40.25c-0.06,0-0.13-0.03-0.18-0.07c-0.04-0.05-0.07-0.109-0.07-0.18s0.03-0.131,0.08-0.18
			c0.101-0.09,0.25-0.09,0.351,0c0.05,0.049,0.069,0.119,0.069,0.18s-0.02,0.13-0.069,0.18C16.127-40.28,16.067-40.25,15.997-40.25z
			"/>
		<path fill="#231F20" d="M10.497-38.5c-0.06,0-0.12-0.02-0.17-0.07c-0.05-0.05-0.08-0.119-0.08-0.18c0-0.07,0.03-0.131,0.07-0.18
			c0.11-0.101,0.26-0.09,0.36,0c0.05,0.049,0.069,0.119,0.069,0.18s-0.02,0.119-0.069,0.17C10.627-38.52,10.567-38.5,10.497-38.5z"
			/>
		<path fill="#231F20" d="M5.247-35c-0.06,0-0.13-0.03-0.17-0.07c-0.05-0.05-0.08-0.109-0.08-0.18c0-0.061,0.03-0.12,0.07-0.17
			c0.1-0.1,0.26-0.1,0.36-0.01c0.05,0.049,0.069,0.119,0.069,0.18c0,0.07-0.02,0.13-0.069,0.18C5.377-35.02,5.308-35,5.247-35z"/>
		<path fill="#231F20" d="M2.747-40c-0.06,0-0.13-0.03-0.17-0.07c-0.05-0.05-0.08-0.119-0.08-0.18c0-0.07,0.03-0.131,0.08-0.18
			c0.09-0.09,0.25-0.09,0.351,0c0.04,0.049,0.069,0.109,0.069,0.18s-0.02,0.13-0.069,0.18C2.877-40.03,2.817-40,2.747-40z"/>
		<path fill="#231F20" d="M7.497-47c-0.069,0-0.13-0.03-0.18-0.07c-0.04-0.05-0.07-0.109-0.07-0.18s0.03-0.131,0.07-0.18
			c0.11-0.09,0.25-0.09,0.35,0c0.061,0.049,0.08,0.119,0.08,0.18s-0.02,0.13-0.069,0.18C7.627-47.03,7.567-47,7.497-47z"/>
		<path fill="#231F20" d="M3.247-51.5c-0.06,0-0.13-0.03-0.17-0.07c-0.05-0.05-0.08-0.109-0.08-0.18c0-0.061,0.03-0.131,0.07-0.17
			c0.1-0.1,0.26-0.1,0.36-0.01c0.05,0.049,0.069,0.119,0.069,0.18c0,0.07-0.02,0.13-0.069,0.18C3.377-51.52,3.308-51.5,3.247-51.5z"
			/>
		<path fill="#231F20" d="M20.497-41.25c-0.06,0-0.13-0.03-0.17-0.07c-0.05-0.05-0.08-0.109-0.08-0.18s0.03-0.131,0.08-0.18
			c0.09-0.09,0.25-0.09,0.351,0c0.05,0.06,0.069,0.119,0.069,0.18s-0.02,0.119-0.069,0.17C20.627-41.28,20.567-41.25,20.497-41.25z"
			/>
		<path fill="#231F20" d="M17.497-36.5c-0.06,0-0.12-0.03-0.17-0.07c-0.05-0.061-0.08-0.119-0.08-0.18c0-0.07,0.03-0.131,0.07-0.18
			c0.11-0.09,0.26-0.09,0.36,0c0.05,0.049,0.069,0.109,0.069,0.18c0,0.061-0.02,0.13-0.069,0.17
			C17.627-36.53,17.567-36.5,17.497-36.5z"/>
		<path fill="#231F20" d="M15.997-33c-0.06,0-0.12-0.02-0.17-0.07c-0.05-0.05-0.08-0.109-0.08-0.18s0.03-0.131,0.08-0.18
			c0.09-0.09,0.25-0.09,0.351,0c0.05,0.049,0.069,0.119,0.069,0.18s-0.02,0.13-0.069,0.18C16.127-33.02,16.058-33,15.997-33z"/>
		<path fill="#231F20" d="M12.747-30.75c-0.06,0-0.13-0.03-0.17-0.07c-0.05-0.05-0.08-0.109-0.08-0.18c0-0.061,0.03-0.131,0.07-0.18
			c0.1-0.09,0.26-0.09,0.36,0c0.05,0.049,0.069,0.109,0.069,0.18s-0.02,0.13-0.069,0.18C12.877-30.78,12.817-30.75,12.747-30.75z"/>
		<path fill="#231F20" d="M12.747-25.5c-0.069,0-0.13-0.03-0.17-0.07c-0.05-0.05-0.08-0.119-0.08-0.18c0-0.07,0.03-0.131,0.07-0.18
			c0.1-0.09,0.26-0.09,0.36,0c0.05,0.049,0.069,0.109,0.069,0.18s-0.02,0.13-0.069,0.18C12.877-25.52,12.817-25.5,12.747-25.5z"/>
		<path fill="#231F20" d="M3.997-25.25c-0.06,0-0.13-0.03-0.17-0.07c-0.05-0.05-0.08-0.109-0.08-0.18c0-0.061,0.03-0.131,0.07-0.18
			c0.1-0.09,0.26-0.09,0.35,0c0.061,0.049,0.08,0.119,0.08,0.18c0,0.07-0.02,0.13-0.069,0.18C4.127-25.27,4.058-25.25,3.997-25.25z"
			/>
		<path fill="#231F20" d="M5.747-23.5c-0.069,0-0.13-0.03-0.18-0.08c-0.04-0.04-0.07-0.1-0.07-0.17s0.03-0.131,0.07-0.18
			c0.1-0.09,0.26-0.09,0.36,0c0.05,0.049,0.069,0.109,0.069,0.18s-0.02,0.13-0.069,0.18C5.877-23.53,5.817-23.5,5.747-23.5z"/>
		<path fill="#231F20" d="M10.997-21.5c-0.06,0-0.12-0.02-0.17-0.07c-0.05-0.05-0.08-0.109-0.08-0.18c0-0.061,0.03-0.131,0.07-0.17
			c0.11-0.11,0.26-0.1,0.36-0.01c0.05,0.06,0.069,0.119,0.069,0.18s-0.02,0.13-0.069,0.18C11.127-21.52,11.058-21.5,10.997-21.5z"/>
		<path fill="#231F20" d="M10.997-17.5c-0.06,0-0.13-0.03-0.18-0.07c-0.04-0.05-0.07-0.109-0.07-0.18s0.03-0.131,0.07-0.18
			c0.11-0.09,0.26-0.09,0.36,0c0.05,0.049,0.069,0.119,0.069,0.18s-0.02,0.13-0.069,0.18C11.127-17.53,11.067-17.5,10.997-17.5z"/>
		<path fill="#231F20" d="M15.497-13.5c-0.06,0-0.12-0.03-0.17-0.07c-0.05-0.05-0.08-0.109-0.08-0.18s0.03-0.131,0.07-0.18
			c0.11-0.09,0.26-0.09,0.36,0c0.05,0.049,0.069,0.119,0.069,0.18s-0.02,0.13-0.069,0.18C15.627-13.53,15.567-13.5,15.497-13.5z"/>
		<path fill="#231F20" d="M9.997-12.25c-0.069,0-0.13-0.03-0.18-0.07c-0.04-0.05-0.07-0.119-0.07-0.18c0-0.07,0.03-0.131,0.07-0.18
			c0.1-0.09,0.25-0.09,0.36,0c0.05,0.049,0.069,0.109,0.069,0.18c0,0.061-0.02,0.13-0.069,0.18
			C10.127-12.27,10.067-12.25,9.997-12.25z"/>
		<path fill="#231F20" d="M5.997-8.5c-0.06,0-0.12-0.02-0.17-0.07c-0.05-0.05-0.08-0.119-0.08-0.18c0-0.07,0.03-0.131,0.07-0.18
			c0.12-0.101,0.26-0.09,0.36,0c0.05,0.049,0.069,0.109,0.069,0.18c0,0.061-0.02,0.119-0.069,0.17C6.127-8.52,6.067-8.5,5.997-8.5z"
			/>
		<path fill="#231F20" d="M2.247-10c-0.06,0-0.12-0.02-0.17-0.07c-0.05-0.05-0.08-0.109-0.08-0.18s0.03-0.131,0.07-0.18
			c0.11-0.09,0.25-0.09,0.35,0c0.061,0.049,0.08,0.119,0.08,0.18s-0.02,0.13-0.069,0.18C2.367-10.02,2.308-10,2.247-10z"/>
		<path fill="#231F20" d="M7.247-4.25c-0.06,0-0.13-0.03-0.17-0.07c-0.05-0.05-0.08-0.119-0.08-0.18c0-0.07,0.03-0.131,0.07-0.18
			c0.1-0.09,0.26-0.09,0.36,0C7.468-4.631,7.497-4.57,7.497-4.5s-0.02,0.13-0.069,0.17C7.377-4.27,7.317-4.25,7.247-4.25z"/>
		<path fill="#231F20" d="M13.497-2.5c-0.06,0-0.12-0.02-0.17-0.07c-0.05-0.05-0.08-0.119-0.08-0.18c0-0.07,0.03-0.131,0.07-0.18
			c0.11-0.09,0.26-0.09,0.36,0c0.05,0.049,0.069,0.119,0.069,0.18s-0.02,0.119-0.069,0.17C13.627-2.52,13.567-2.5,13.497-2.5z"/>
		<path fill="#231F20" d="M13.497-6.25c-0.06,0-0.12-0.02-0.17-0.07c-0.05-0.05-0.08-0.109-0.08-0.18c0-0.061,0.03-0.131,0.07-0.17
			c0.11-0.11,0.26-0.1,0.36-0.01c0.05,0.06,0.069,0.119,0.069,0.18s-0.02,0.13-0.069,0.18C13.627-6.27,13.567-6.25,13.497-6.25z"/>
		<path fill="#231F20" d="M21.497-3.5c-0.06,0-0.12-0.02-0.17-0.07c-0.05-0.05-0.08-0.109-0.08-0.18s0.03-0.131,0.08-0.18
			c0.09-0.09,0.25-0.09,0.351,0c0.05,0.049,0.069,0.119,0.069,0.18s-0.02,0.119-0.069,0.17C21.627-3.52,21.567-3.5,21.497-3.5z"/>
		<path fill="#231F20" d="M22.997-6.25c-0.06,0-0.12-0.02-0.17-0.07c-0.05-0.05-0.08-0.109-0.08-0.18c0-0.061,0.03-0.12,0.07-0.17
			c0.11-0.11,0.26-0.1,0.36-0.01c0.05,0.049,0.069,0.119,0.069,0.18c0,0.07-0.02,0.13-0.069,0.18
			C23.127-6.27,23.067-6.25,22.997-6.25z"/>
		<path fill="#231F20" d="M22.247-12c-0.06,0-0.12-0.02-0.17-0.07c-0.05-0.05-0.08-0.109-0.08-0.18c0-0.061,0.03-0.12,0.07-0.17
			c0.11-0.11,0.26-0.1,0.36-0.01c0.05,0.049,0.069,0.119,0.069,0.18c0,0.07-0.02,0.13-0.069,0.18C22.377-12.02,22.308-12,22.247-12z
			"/>
		<path fill="#231F20" d="M24.247-14.5c-0.06,0-0.12-0.02-0.17-0.07c-0.05-0.05-0.08-0.109-0.08-0.18s0.03-0.131,0.08-0.18
			c0.101-0.09,0.25-0.09,0.351,0c0.05,0.049,0.069,0.119,0.069,0.18s-0.02,0.13-0.069,0.18C24.377-14.52,24.317-14.5,24.247-14.5z"
			/>
		<path fill="#231F20" d="M21.997-18.75c-0.06,0-0.12-0.02-0.17-0.07c-0.05-0.05-0.08-0.109-0.08-0.18s0.03-0.131,0.07-0.17
			c0.11-0.11,0.26-0.1,0.36-0.01c0.05,0.06,0.069,0.119,0.069,0.18s-0.02,0.13-0.069,0.18C22.127-18.77,22.067-18.75,21.997-18.75z"
			/>
		<path fill="#231F20" d="M26.247-24.25c-0.06,0-0.12-0.02-0.17-0.07c-0.05-0.05-0.08-0.109-0.08-0.18s0.03-0.131,0.08-0.18
			c0.09-0.09,0.25-0.09,0.351,0c0.05,0.049,0.069,0.119,0.069,0.18s-0.02,0.13-0.069,0.18C26.377-24.27,26.317-24.25,26.247-24.25z"
			/>
		<path fill="#231F20" d="M25.747-28.5c-0.06,0-0.12-0.02-0.17-0.07c-0.05-0.05-0.08-0.109-0.08-0.18s0.03-0.131,0.07-0.18
			c0.11-0.09,0.26-0.09,0.36,0c0.05,0.06,0.069,0.119,0.069,0.18c0,0.07-0.02,0.13-0.069,0.18C25.877-28.52,25.817-28.5,25.747-28.5
			z"/>
		<path fill="#231F20" d="M31.247-34.5c-0.06,0-0.12-0.03-0.17-0.07c-0.05-0.05-0.08-0.119-0.08-0.18s0.03-0.131,0.07-0.17
			c0.11-0.11,0.26-0.1,0.36-0.01c0.05,0.06,0.069,0.119,0.069,0.18s-0.02,0.119-0.069,0.17C31.377-34.53,31.317-34.5,31.247-34.5z"
			/>
		<path fill="#231F20" d="M32.247-41c-0.06,0-0.12-0.02-0.17-0.07c-0.05-0.05-0.08-0.109-0.08-0.18c0-0.061,0.03-0.12,0.07-0.17
			c0.11-0.11,0.26-0.1,0.36-0.01c0.05,0.049,0.069,0.119,0.069,0.18c0,0.07-0.029,0.13-0.069,0.18C32.377-41.02,32.317-41,32.247-41
			z"/>
		<path fill="#231F20" d="M25.997-38c-0.06,0-0.12-0.02-0.17-0.07c-0.05-0.05-0.08-0.109-0.08-0.18s0.03-0.131,0.08-0.18
			c0.101-0.09,0.25-0.09,0.351,0c0.05,0.049,0.069,0.119,0.069,0.18s-0.02,0.13-0.069,0.18C26.127-38.02,26.067-38,25.997-38z"/>
		<path fill="#231F20" d="M34.247-44.25c-0.06,0-0.13-0.03-0.17-0.07c-0.05-0.05-0.08-0.109-0.08-0.18s0.03-0.131,0.08-0.18
			c0.09-0.09,0.25-0.09,0.351,0c0.05,0.06,0.069,0.119,0.069,0.18s-0.02,0.13-0.069,0.18C34.377-44.28,34.317-44.25,34.247-44.25z"
			/>
		<path fill="#231F20" d="M37.247-43.5c-0.06,0-0.13-0.03-0.17-0.07c-0.05-0.05-0.08-0.109-0.08-0.18s0.03-0.131,0.08-0.18
			c0.09-0.09,0.25-0.09,0.34,0c0.061,0.049,0.08,0.119,0.08,0.18s-0.02,0.119-0.069,0.17C37.377-43.52,37.317-43.5,37.247-43.5z"/>
		<path fill="#231F20" d="M41.747-46.25c-0.06,0-0.12-0.03-0.17-0.07c-0.05-0.05-0.08-0.109-0.08-0.18s0.03-0.131,0.08-0.18
			c0.09-0.09,0.26-0.09,0.351,0c0.05,0.06,0.069,0.119,0.069,0.18s-0.02,0.119-0.069,0.17C41.877-46.28,41.817-46.25,41.747-46.25z"
			/>
		<path fill="#231F20" d="M42.997-51.25c-0.06,0-0.12-0.02-0.17-0.07c-0.05-0.05-0.08-0.109-0.08-0.18s0.03-0.131,0.08-0.18
			c0.09-0.09,0.25-0.09,0.351,0c0.05,0.049,0.069,0.119,0.069,0.18s-0.02,0.13-0.069,0.18C43.127-51.27,43.058-51.25,42.997-51.25z"
			/>
		<path fill="#231F20" d="M36.497-52.75c-0.06,0-0.13-0.03-0.17-0.07c-0.05-0.04-0.08-0.109-0.08-0.18s0.03-0.141,0.08-0.18
			c0.08-0.08,0.25-0.09,0.351,0c0.05,0.049,0.069,0.119,0.069,0.18s-0.02,0.13-0.069,0.18C36.627-52.77,36.567-52.75,36.497-52.75z"
			/>
		<path fill="#231F20" d="M27.747-49.75c-0.06,0-0.12-0.03-0.17-0.07c-0.05-0.05-0.08-0.119-0.08-0.18s0.03-0.131,0.07-0.17
			c0.11-0.11,0.26-0.1,0.36-0.01c0.05,0.049,0.069,0.109,0.069,0.18s-0.02,0.13-0.069,0.18C27.877-49.78,27.817-49.75,27.747-49.75z
			"/>
		<path fill="#231F20" d="M51.997-50c-0.06,0-0.13-0.03-0.17-0.07c-0.05-0.05-0.08-0.109-0.08-0.18s0.03-0.131,0.08-0.18
			c0.09-0.09,0.25-0.09,0.351,0c0.05,0.06,0.069,0.119,0.069,0.18s-0.02,0.119-0.069,0.17C52.127-50.03,52.067-50,51.997-50z"/>
		<path fill="#231F20" d="M43.247-54.25c-0.06,0-0.13-0.03-0.17-0.07c-0.05-0.05-0.08-0.109-0.08-0.18c0-0.061,0.03-0.131,0.07-0.18
			c0.11-0.09,0.26-0.09,0.36,0c0.05,0.06,0.069,0.119,0.069,0.18s-0.02,0.119-0.069,0.17C43.377-54.27,43.317-54.25,43.247-54.25z"
			/>
		<path fill="#231F20" d="M50.497-54c-0.06,0-0.13-0.03-0.17-0.07c-0.05-0.05-0.08-0.109-0.08-0.18s0.03-0.131,0.08-0.18
			c0.08-0.09,0.25-0.09,0.351,0c0.05,0.06,0.069,0.119,0.069,0.18s-0.02,0.119-0.069,0.17C50.627-54.03,50.567-54,50.497-54z"/>
		<path fill="#231F20" d="M59.497-54.75c-0.06,0-0.13-0.03-0.17-0.07c-0.05-0.05-0.08-0.109-0.08-0.18s0.03-0.131,0.08-0.18
			c0.08-0.09,0.25-0.09,0.351,0c0.05,0.049,0.069,0.119,0.069,0.18s-0.02,0.13-0.069,0.18C59.627-54.78,59.567-54.75,59.497-54.75z"
			/>
		<path fill="#231F20" d="M58.247-58c-0.06,0-0.13-0.03-0.17-0.07c-0.05-0.05-0.08-0.109-0.08-0.18s0.03-0.131,0.08-0.18
			c0.08-0.09,0.26-0.09,0.351,0c0.05,0.049,0.069,0.109,0.069,0.18c0,0.061-0.02,0.13-0.069,0.18C58.377-58.03,58.317-58,58.247-58z
			"/>
		<path fill="#231F20" d="M61.497-61c-0.06,0-0.12-0.02-0.17-0.07c-0.05-0.05-0.08-0.109-0.08-0.18s0.03-0.141,0.08-0.18
			c0.09-0.09,0.25-0.09,0.351,0c0.04,0.049,0.069,0.109,0.069,0.18s-0.029,0.13-0.069,0.18C61.627-61.02,61.567-61,61.497-61z"/>
		<path fill="#231F20" d="M58.747-64.5c-0.06,0-0.12-0.02-0.17-0.07c-0.05-0.05-0.08-0.109-0.08-0.18s0.03-0.131,0.08-0.18
			c0.09-0.09,0.25-0.09,0.351,0c0.05,0.049,0.069,0.109,0.069,0.18s-0.02,0.13-0.069,0.18C58.877-64.52,58.817-64.5,58.747-64.5z"/>
		<path fill="#231F20" d="M59.997-67.25c-0.06,0-0.13-0.03-0.17-0.07c-0.05-0.05-0.08-0.109-0.08-0.18s0.03-0.131,0.07-0.18
			c0.11-0.09,0.26-0.09,0.36,0c0.05,0.049,0.069,0.109,0.069,0.18s-0.02,0.13-0.069,0.17C60.127-67.27,60.067-67.25,59.997-67.25z"
			/>
		<path fill="#231F20" d="M67.497-66c-0.06,0-0.13-0.03-0.17-0.07c-0.05-0.05-0.08-0.119-0.08-0.18s0.03-0.131,0.07-0.17
			c0.1-0.1,0.26-0.1,0.36-0.01c0.05,0.06,0.069,0.119,0.069,0.18s-0.02,0.119-0.069,0.17C67.627-66.03,67.567-66,67.497-66z"/>
		<path fill="#231F20" d="M69.497-64c-0.06,0-0.12-0.03-0.17-0.07c-0.05-0.05-0.08-0.109-0.08-0.18c0-0.061,0.03-0.131,0.07-0.18
			c0.11-0.09,0.26-0.09,0.36,0c0.05,0.049,0.069,0.119,0.069,0.18c0,0.07-0.02,0.13-0.069,0.18C69.627-64.02,69.567-64,69.497-64z"
			/>
		<path fill="#231F20" d="M65.747-62.25c-0.06,0-0.13-0.03-0.17-0.07c-0.05-0.05-0.08-0.109-0.08-0.18s0.03-0.131,0.08-0.18
			c0.08-0.09,0.26-0.09,0.351,0c0.05,0.049,0.069,0.119,0.069,0.18s-0.02,0.13-0.069,0.18C65.877-62.28,65.817-62.25,65.747-62.25z"
			/>
		<path fill="#231F20" d="M61.747-55.5c-0.06,0-0.13-0.03-0.17-0.07c-0.05-0.05-0.08-0.109-0.08-0.18s0.03-0.131,0.08-0.18
			c0.09-0.09,0.25-0.09,0.351,0c0.05,0.049,0.069,0.119,0.069,0.18s-0.02,0.13-0.069,0.17C61.877-55.52,61.817-55.5,61.747-55.5z"/>
		<path fill="#231F20" d="M60.247-48.25c-0.06,0-0.12-0.03-0.17-0.07c-0.05-0.05-0.08-0.109-0.08-0.18s0.03-0.131,0.08-0.18
			c0.09-0.09,0.25-0.09,0.351,0c0.04,0.049,0.069,0.109,0.069,0.18s-0.02,0.13-0.069,0.18C60.377-48.27,60.317-48.25,60.247-48.25z"
			/>
		<path fill="#231F20" d="M55.497-48.25c-0.06,0-0.13-0.03-0.17-0.07c-0.05-0.05-0.08-0.119-0.08-0.18s0.03-0.131,0.08-0.18
			c0.09-0.09,0.25-0.09,0.351,0c0.05,0.049,0.069,0.119,0.069,0.18s-0.02,0.13-0.069,0.18C55.627-48.28,55.567-48.25,55.497-48.25z"
			/>
		<path fill="#231F20" d="M55.497-53.25c-0.06,0-0.13-0.03-0.17-0.07c-0.05-0.05-0.08-0.119-0.08-0.18s0.03-0.131,0.08-0.18
			c0.09-0.09,0.25-0.09,0.351,0c0.05,0.049,0.069,0.119,0.069,0.18s-0.02,0.13-0.069,0.18C55.627-53.28,55.567-53.25,55.497-53.25z"
			/>
		<path fill="#231F20" d="M64.997-46.25c-0.06,0-0.12-0.03-0.17-0.07c-0.05-0.05-0.08-0.109-0.08-0.18s0.03-0.131,0.08-0.18
			c0.09-0.09,0.25-0.09,0.351,0c0.05,0.049,0.069,0.119,0.069,0.18c0,0.07-0.02,0.13-0.069,0.18
			C65.127-46.27,65.067-46.25,64.997-46.25z"/>
		<path fill="#231F20" d="M61.247-45c-0.06,0-0.13-0.03-0.17-0.07c-0.05-0.05-0.08-0.109-0.08-0.18s0.03-0.131,0.08-0.18
			c0.09-0.09,0.25-0.09,0.351,0c0.05,0.049,0.069,0.109,0.069,0.18s-0.029,0.13-0.069,0.18C61.377-45.03,61.317-45,61.247-45z"/>
		<path fill="#231F20" d="M57.747-41.25c-0.06,0-0.12-0.02-0.17-0.07c-0.05-0.05-0.08-0.109-0.08-0.18s0.03-0.131,0.08-0.18
			c0.09-0.09,0.25-0.09,0.351,0c0.05,0.049,0.069,0.109,0.069,0.18s-0.02,0.13-0.069,0.17C57.877-41.27,57.817-41.25,57.747-41.25z"
			/>
		<path fill="#231F20" d="M52.747-39.25c-0.06,0-0.13-0.03-0.17-0.07c-0.05-0.05-0.08-0.109-0.08-0.18s0.03-0.131,0.08-0.18
			c0.09-0.09,0.25-0.09,0.351,0c0.05,0.049,0.069,0.119,0.069,0.18s-0.02,0.13-0.069,0.17C52.877-39.27,52.817-39.25,52.747-39.25z"
			/>
		<path fill="#231F20" d="M47.497-38.25c-0.06,0-0.12-0.03-0.17-0.07c-0.05-0.05-0.08-0.109-0.08-0.18s0.03-0.131,0.08-0.18
			c0.09-0.09,0.25-0.09,0.34,0c0.061,0.06,0.08,0.119,0.08,0.18s-0.02,0.119-0.069,0.17C47.617-38.27,47.567-38.25,47.497-38.25z"/>
		<path fill="#231F20" d="M44.247-32.75c-0.06,0-0.12-0.03-0.17-0.07c-0.05-0.05-0.08-0.109-0.08-0.18s0.03-0.131,0.08-0.18
			c0.09-0.09,0.25-0.09,0.351,0c0.05,0.049,0.069,0.109,0.069,0.18s-0.02,0.13-0.069,0.18C44.377-32.77,44.308-32.75,44.247-32.75z"
			/>
		<path fill="#231F20" d="M33.997-30.5c-0.06,0-0.12-0.02-0.17-0.07c-0.05-0.05-0.08-0.109-0.08-0.18s0.03-0.131,0.08-0.18
			c0.09-0.09,0.25-0.09,0.351,0c0.05,0.049,0.069,0.119,0.069,0.18s-0.02,0.13-0.069,0.18C34.127-30.53,34.067-30.5,33.997-30.5z"/>
		<path fill="#231F20" d="M40.747-24c-0.06,0-0.12-0.02-0.17-0.07c-0.05-0.05-0.08-0.109-0.08-0.18s0.03-0.131,0.08-0.18
			c0.101-0.09,0.25-0.09,0.351,0c0.04,0.049,0.069,0.109,0.069,0.18s-0.029,0.13-0.069,0.18C40.877-24.02,40.817-24,40.747-24z"/>
		<path fill="#231F20" d="M45.747-19.75c-0.06,0-0.12-0.02-0.17-0.07c-0.05-0.05-0.08-0.109-0.08-0.18s0.03-0.131,0.08-0.18
			c0.09-0.09,0.25-0.09,0.351,0c0.05,0.049,0.069,0.109,0.069,0.18s-0.029,0.13-0.069,0.18C45.877-19.77,45.817-19.75,45.747-19.75z
			"/>
		<path fill="#231F20" d="M46.497-15.25c-0.06,0-0.12-0.03-0.17-0.07c-0.05-0.05-0.08-0.109-0.08-0.18s0.03-0.131,0.08-0.18
			c0.09-0.09,0.25-0.09,0.351,0c0.05,0.049,0.069,0.119,0.069,0.18s-0.02,0.13-0.069,0.17C46.627-15.27,46.567-15.25,46.497-15.25z"
			/>
		<path fill="#231F20" d="M41.997-12.5c-0.06,0-0.12-0.02-0.17-0.07c-0.05-0.05-0.08-0.109-0.08-0.18s0.03-0.131,0.08-0.18
			c0.101-0.09,0.25-0.09,0.351,0c0.04,0.049,0.069,0.109,0.069,0.18s-0.02,0.13-0.069,0.18C42.127-12.52,42.058-12.5,41.997-12.5z"
			/>
		<path fill="#231F20" d="M39.997-9.25c-0.06,0-0.12-0.03-0.17-0.07c-0.05-0.05-0.08-0.109-0.08-0.18s0.03-0.141,0.08-0.18
			c0.09-0.09,0.26-0.09,0.351,0c0.05,0.049,0.069,0.109,0.069,0.18c0,0.061-0.02,0.13-0.069,0.18
			C40.127-9.28,40.067-9.25,39.997-9.25z"/>
		<path fill="#231F20" d="M35.997-9.25c-0.06,0-0.12-0.02-0.17-0.07c-0.05-0.05-0.08-0.109-0.08-0.18s0.03-0.131,0.08-0.18
			c0.101-0.09,0.26-0.09,0.351,0c0.05,0.06,0.069,0.119,0.069,0.18s-0.02,0.13-0.069,0.18C36.127-9.28,36.067-9.25,35.997-9.25z"/>
		<path fill="#231F20" d="M36.497-19.25c-0.069,0-0.13-0.03-0.17-0.07c-0.05-0.05-0.08-0.109-0.08-0.18s0.03-0.131,0.08-0.18
			c0.09-0.09,0.25-0.09,0.351,0c0.05,0.06,0.069,0.119,0.069,0.18s-0.02,0.119-0.069,0.17C36.627-19.28,36.567-19.25,36.497-19.25z"
			/>
		<path fill="#231F20" d="M29.997-8.5c-0.06,0-0.13-0.03-0.17-0.07c-0.05-0.05-0.08-0.109-0.08-0.18s0.03-0.131,0.08-0.18
			c0.09-0.09,0.25-0.09,0.351,0c0.05,0.049,0.069,0.119,0.069,0.18s-0.02,0.13-0.069,0.17C30.127-8.53,30.067-8.5,29.997-8.5z"/>
		<path fill="#231F20" d="M31.497-3.5c-0.069,0-0.13-0.03-0.18-0.08c-0.04-0.04-0.07-0.1-0.07-0.17s0.03-0.141,0.08-0.18
			c0.09-0.08,0.25-0.09,0.34,0c0.061,0.049,0.08,0.109,0.08,0.18c0,0.061-0.02,0.13-0.069,0.18C31.627-3.53,31.567-3.5,31.497-3.5z"
			/>
		<path fill="#231F20" d="M36.997-1c-0.06,0-0.12-0.02-0.17-0.07c-0.05-0.05-0.08-0.109-0.08-0.18s0.03-0.131,0.08-0.18
			c0.101-0.09,0.25-0.09,0.351,0c0.05,0.049,0.069,0.109,0.069,0.18s-0.02,0.13-0.069,0.18C37.127-1.02,37.067-1,36.997-1z"/>
		<path fill="#231F20" d="M58.747-15c-0.06,0-0.12-0.02-0.17-0.07c-0.05-0.05-0.08-0.109-0.08-0.18s0.03-0.131,0.08-0.18
			c0.09-0.09,0.25-0.09,0.351,0c0.05,0.049,0.069,0.109,0.069,0.18s-0.02,0.13-0.069,0.18C58.877-15.02,58.817-15,58.747-15z"/>
		<path fill="#231F20" d="M62.997-15c-0.06,0-0.12-0.03-0.17-0.07c-0.05-0.05-0.08-0.109-0.08-0.18s0.03-0.131,0.08-0.18
			c0.09-0.09,0.25-0.09,0.351,0c0.05,0.049,0.069,0.109,0.069,0.18s-0.02,0.13-0.069,0.17C63.127-15.02,63.067-15,62.997-15z"/>
		<path fill="#231F20" d="M59.997-21.25c-0.06,0-0.12-0.03-0.17-0.07c-0.05-0.05-0.08-0.109-0.08-0.18s0.03-0.141,0.08-0.18
			c0.09-0.09,0.25-0.09,0.351,0c0.04,0.049,0.069,0.109,0.069,0.18s-0.02,0.13-0.069,0.18C60.127-21.28,60.067-21.25,59.997-21.25z"
			/>
		<path fill="#231F20" d="M54.497-21.5c-0.069,0-0.13-0.03-0.17-0.07c-0.05-0.05-0.08-0.119-0.08-0.18s0.03-0.131,0.07-0.17
			c0.1-0.1,0.26-0.1,0.36-0.01c0.05,0.06,0.069,0.119,0.069,0.18s-0.02,0.119-0.069,0.17C54.627-21.53,54.567-21.5,54.497-21.5z"/>
		<path fill="#231F20" d="M59.247-27.75c-0.06,0-0.13-0.03-0.17-0.07c-0.05-0.05-0.08-0.119-0.08-0.18s0.03-0.131,0.07-0.17
			c0.1-0.1,0.27-0.1,0.36-0.01c0.05,0.06,0.069,0.119,0.069,0.18s-0.02,0.119-0.069,0.17C59.388-27.78,59.317-27.75,59.247-27.75z"
			/>
		<path fill="#231F20" d="M54.747-30.25c-0.06,0-0.13-0.03-0.17-0.07c-0.05-0.05-0.08-0.119-0.08-0.18s0.03-0.131,0.08-0.18
			c0.08-0.09,0.25-0.09,0.351,0c0.05,0.049,0.069,0.119,0.069,0.18s-0.02,0.13-0.069,0.18C54.877-30.28,54.817-30.25,54.747-30.25z"
			/>
		<path fill="#231F20" d="M55.747-36.5c-0.06,0-0.12-0.02-0.17-0.07c-0.05-0.05-0.08-0.109-0.08-0.18s0.03-0.131,0.08-0.18
			c0.09-0.09,0.25-0.09,0.351,0c0.05,0.049,0.069,0.109,0.069,0.18s-0.02,0.13-0.069,0.18C55.877-36.52,55.817-36.5,55.747-36.5z"/>
		<path fill="#231F20" d="M62.497-29.75c-0.06,0-0.13-0.03-0.17-0.07c-0.05-0.05-0.08-0.109-0.08-0.18s0.03-0.131,0.08-0.18
			c0.08-0.08,0.24-0.09,0.34,0c0.061,0.049,0.08,0.119,0.08,0.18s-0.02,0.13-0.069,0.18C62.627-29.77,62.558-29.75,62.497-29.75z"/>
		<path fill="#231F20" d="M66.997-24.5c-0.06,0-0.13-0.03-0.17-0.07c-0.05-0.05-0.08-0.109-0.08-0.18s0.03-0.131,0.08-0.18
			c0.08-0.08,0.25-0.09,0.351,0c0.05,0.049,0.069,0.109,0.069,0.18s-0.029,0.13-0.069,0.18C67.127-24.52,67.067-24.5,66.997-24.5z"
			/>
		<path fill="#231F20" d="M69.497-17.75c-0.06,0-0.13-0.03-0.17-0.07c-0.05-0.05-0.08-0.109-0.08-0.18s0.03-0.131,0.08-0.18
			c0.09-0.09,0.25-0.09,0.351,0c0.05,0.049,0.069,0.109,0.069,0.18s-0.02,0.13-0.069,0.18C69.627-17.78,69.567-17.75,69.497-17.75z"
			/>
		<path fill="#231F20" d="M63.497-10.25c-0.06,0-0.13-0.03-0.17-0.07c-0.05-0.05-0.08-0.119-0.08-0.18c0-0.07,0.03-0.131,0.08-0.18
			c0.07-0.08,0.25-0.101,0.351,0c0.05,0.049,0.069,0.119,0.069,0.18s-0.02,0.119-0.069,0.17C63.627-10.27,63.567-10.25,63.497-10.25
			z"/>
		<path fill="#231F20" d="M69.247-8.5c-0.06,0-0.12-0.02-0.17-0.07c-0.05-0.05-0.08-0.109-0.08-0.18s0.03-0.131,0.08-0.18
			c0.09-0.09,0.25-0.09,0.351,0c0.05,0.049,0.069,0.119,0.069,0.18s-0.02,0.13-0.069,0.17C69.377-8.52,69.317-8.5,69.247-8.5z"/>
		<path fill="#231F20" d="M64.747-6.5c-0.069,0-0.13-0.03-0.17-0.07c-0.05-0.05-0.08-0.119-0.08-0.18s0.03-0.12,0.07-0.17
			c0.1-0.1,0.27-0.1,0.36-0.01c0.05,0.06,0.069,0.119,0.069,0.18s-0.02,0.119-0.069,0.17C64.888-6.53,64.817-6.5,64.747-6.5z"/>
		<path fill="#231F20" d="M65.747-3.75c-0.06,0-0.13-0.03-0.17-0.07c-0.05-0.05-0.08-0.109-0.08-0.18s0.03-0.131,0.08-0.18
			c0.08-0.09,0.26-0.09,0.351,0c0.05,0.049,0.069,0.119,0.069,0.18c0,0.07-0.02,0.13-0.069,0.18
			C65.877-3.78,65.817-3.75,65.747-3.75z"/>
		<path fill="#231F20" d="M69.247-1.5c-0.06,0-0.13-0.03-0.17-0.07c-0.05-0.05-0.08-0.119-0.08-0.18c0-0.07,0.03-0.131,0.08-0.18
			c0.09-0.09,0.25-0.09,0.351,0c0.05,0.049,0.069,0.109,0.069,0.18c0,0.061-0.02,0.13-0.069,0.17C69.377-1.52,69.317-1.5,69.247-1.5
			z"/>
		<path fill="#231F20" d="M62.497-1.75c-0.06,0-0.13-0.03-0.17-0.07c-0.05-0.05-0.08-0.109-0.08-0.18s0.03-0.131,0.08-0.18
			c0.08-0.08,0.24-0.101,0.34,0c0.061,0.049,0.08,0.119,0.08,0.18s-0.02,0.13-0.069,0.18C62.617-1.77,62.558-1.75,62.497-1.75z"/>
		<path fill="#231F20" d="M60.747-6.25c-0.06,0-0.13-0.03-0.17-0.07c-0.05-0.05-0.08-0.109-0.08-0.18s0.03-0.131,0.08-0.18
			c0.09-0.09,0.25-0.09,0.351,0c0.05,0.049,0.069,0.119,0.069,0.18s-0.02,0.13-0.069,0.17C60.877-6.27,60.817-6.25,60.747-6.25z"/>
		<path fill="#231F20" d="M52.747-2.25c-0.06,0-0.13-0.03-0.17-0.07c-0.05-0.05-0.08-0.109-0.08-0.18s0.03-0.131,0.08-0.18
			c0.09-0.09,0.25-0.09,0.351,0c0.05,0.049,0.069,0.119,0.069,0.18s-0.02,0.13-0.069,0.17C52.877-2.27,52.817-2.25,52.747-2.25z"/>
		<path fill="#231F20" d="M44.747-5.5c-0.069,0-0.13-0.03-0.17-0.07c-0.05-0.05-0.08-0.109-0.08-0.18s0.03-0.131,0.08-0.18
			c0.09-0.09,0.25-0.09,0.351,0c0.05,0.049,0.069,0.109,0.069,0.18c0,0.061-0.02,0.13-0.069,0.17C44.877-5.53,44.817-5.5,44.747-5.5
			z"/>
		<path fill="#231F20" d="M44.497-0.75c-0.06,0-0.12-0.03-0.17-0.07c-0.05-0.05-0.08-0.109-0.08-0.18s0.03-0.131,0.08-0.18
			c0.09-0.09,0.25-0.09,0.351,0c0.05,0.049,0.069,0.109,0.069,0.18s-0.02,0.13-0.069,0.18C44.627-0.77,44.558-0.75,44.497-0.75z"/>
		<path fill="#231F20" d="M28.497-0.75c-0.069,0-0.13-0.03-0.18-0.08c-0.04-0.04-0.07-0.1-0.07-0.17s0.03-0.131,0.08-0.18
			c0.09-0.09,0.25-0.09,0.351,0c0.05,0.049,0.069,0.119,0.069,0.18s-0.02,0.13-0.069,0.18C28.638-0.78,28.567-0.75,28.497-0.75z"/>
		<path fill="#231F20" d="M0.747-42.5c-0.06,0-0.13-0.03-0.17-0.07c-0.05-0.05-0.08-0.119-0.08-0.18c0-0.07,0.03-0.131,0.08-0.18
			c0.08-0.09,0.24-0.09,0.351,0c0.04,0.049,0.069,0.109,0.069,0.18s-0.02,0.13-0.069,0.18C0.877-42.52,0.817-42.5,0.747-42.5z"/>
		<path fill="#231F20" d="M24.497-71c-0.06,0-0.12-0.02-0.17-0.07c-0.05-0.05-0.08-0.119-0.08-0.18c0-0.07,0.03-0.131,0.07-0.18
			c0.11-0.09,0.26-0.09,0.36,0c0.04,0.049,0.069,0.109,0.069,0.18s-0.02,0.13-0.069,0.17C24.627-71.02,24.567-71,24.497-71z"/>
		<path fill="#231F20" d="M13.247-67c-0.069,0-0.13-0.03-0.18-0.07c-0.04-0.05-0.07-0.119-0.07-0.18c0-0.07,0.03-0.131,0.07-0.18
			c0.09-0.09,0.26-0.09,0.36,0c0.05,0.049,0.069,0.109,0.069,0.18c0,0.061-0.02,0.13-0.069,0.17C13.377-67.02,13.317-67,13.247-67z"
			/>
		<path fill="#231F20" d="M70.997-36.75c-0.06,0-0.13-0.03-0.17-0.07c-0.05-0.05-0.08-0.109-0.08-0.18s0.03-0.131,0.08-0.18
			c0.08-0.08,0.25-0.09,0.351,0c0.05,0.049,0.069,0.109,0.069,0.18s-0.02,0.13-0.069,0.18C71.127-36.77,71.067-36.75,70.997-36.75z"
			/>
	</g>
</pattern>
<path fill="#131523" d="M1073.223,0c1.767,55.444,0.971,94-6.526,94c0,0-19.143,2.045-51.596,5.068
	c-0.58,0.054-1.165-0.823-1.753-2.064c-1.34-2.822-10.704-13.131-12.087-13.004c-0.501,0.046,3.75,6.262,4.337,8.77
	c0.771,3.297,0.816,3.102,0.142,3.164c-0.515,0.047-0.819-0.009-2.062-3.012c-1.202-2.902-3.343-4.755-3.851-4.709
	c-0.766,0.07,2.066,3.354,2.022,6.523c-0.021,1.443-0.496-0.139-1.065,0.945c-0.117,0.225,0.002,0.85-0.957-0.797
	c-1.323-2.275-3.845-4.07-4.139-3.877c-0.339,0.225,1.635,3.623,2.469,6.317c0.225,0.722-1.088-0.729-2.745-1.531
	c-2.479-1.198-5.732-2.176-5.779-2.172c-0.496,0.045,2.441,2.132,4.229,4.056c0.465,0.5-7.701-0.011-7.433,0.428
	c0.607,1,9.254,2.74,8.956,2.768c-1.611,0.145-3.245,0.291-4.901,0.439C890.957,110.191,710.699,124,552.034,124
	c-24.816,0-53.616-0.346-77.406-0.965c-0.722-0.02-5.084-0.467-5.077-2.165c0.011-2.535,2.463-5.688,1.821-5.706
	c-0.63-0.018-2.612,1.818-3.889,4.292c-0.896,1.739-1.154,2.05-1.593,2.037c-0.363-0.011-0.745-0.484-0.284-3.397
	c0.698-4.408,3.584-4.783,3.112-5.785c-0.399-0.848-3.611,2.073-5.033,4.721c-1.23,2.287-1.83,4.371-2.174,3.64
	c-0.358-0.761-1.108-3.321-1.964-4.823c-1.646-2.886-2.546-3.842-2.977-3.854c-0.965-0.031,0.861,2.399,1.748,5.618
	c0.827,2.998-2.448,4.58-3.896,4.529c-104.785-3.785-197.625-12.611-255.216-19.564c-0.911-0.11-4.657-2.122-5.554-4.376
	c-1.155-2.914,0.543-6.234-0.587-6.373C192.769,91.79,192.06,99.721,190,96c-3.212-5.803,1.405-7.771-2.843-13
	c-0.953-1.172,0.077,3.717-0.688,8.711c-0.72,4.695-3.249,9.482-3.787,9.414C145.711,96.488,129.303,93,129.303,93
	c-7.51,0-8.296-37.005-6.517-93H1073.223z"/>
<path opacity="0.29" fill="#5C7B22" enable-background="new    " d="M0,94c0,0,4.127-2.259,7-5c0,0,2.697,3.707,7,1
	c0,0,7.964,1.592,11-2c0,0,3.474,5.855,8,0c0,0,4.188,3.473,6,1c0,0,5.985,1.971,8,0l-1,3c0,0-10.307-0.465-22.189,0.053
	C12.721,92.534,0,94,0,94z"/>
<path opacity="0.29" fill="#5C7B22" enable-background="new    " d="M1196,94c0,0-4.127-2.259-7-5c0,0-2.698,3.707-7,1
	c0,0-7.965,1.592-11-2c0,0-3.475,5.855-8,0c0,0-4.189,3.473-6,1c0,0-5.986,1.971-8,0l1,3c0,0,10.307-0.465,22.188,0.053
	C1183.279,92.534,1196,94,1196,94z"/>
<path opacity="0.169" enable-background="new    " d="M42,104c0,0,59,38,126,12c0,0,81.868-12.159,22.293-16.042
	C183.697,99.527,182.367,84.199,172,84c0,0-9.197,15.089-13.004,15.244C134.32,100.247,42,104,42,104z"/>
<path opacity="0.169" enable-background="new    " d="M1026.256,94.411c0,0,54.838,43.793,124.131,24.729
	c0,0,102.001-4.67-1.259-17.217c0,0-69.007-4.22-103.592-6.334c-3.001-0.184-9.122-10.441-11.536-10.59
	C1027.109,84.579,1026.256,94.411,1026.256,94.411z"/>
<path fill="#D7DADB" stroke="#676767" stroke-width="1.5" d="M141,114h5l7,1l8-2l12-4l3-2l-3,1l-1-7l-3-5l-3-4l-14-4l-5,8l-11,9
	L141,114z"/>
<g>
	<path fill="#CDCDCD" d="M42,100l1,3c0,0,6,5.5,18,10l5,1l2,2l23,2l10,2c0,0,4.5-1.25,11,1h9l6-2l14-6l-1-4l12-16
		c0,0,4.771-2.727,12.796-1.249c0.393,0.073,0.795,0.155,1.204,0.249l1,2l4,7l-4-33l-4-2l-1-14l-3-8c0,0-2.25-4-10-8
		c0,0-3.25-3.75-8-5l-7-1c0,0-38.25-10.25-62,11c0,0-3.03,4.315-5.045,8.596C64.97,53.814,64,58,64,58S45.5,72.25,44,78s0,17,0,17
		s-1.56,0.398-2.086,1.716C41.444,97.891,42,100,42,100z"/>
	<path fill="none" stroke="#6F6F6F" stroke-width="1.5" d="M42,100l1,3c0,0,6,5.5,18,10l5,1l2,2l23,2l10,2c0,0,4.5-1.25,11,1h9l6-2
		l14-6l-1-4l12-16c0,0,4.771-2.727,12.796-1.249c0.393,0.073,0.795,0.155,1.204,0.249l1,2l4,7l-4-33l-4-2l-1-14l-3-8
		c0,0-2.25-4-10-8c0,0-3.25-3.75-8-5l-7-1c0,0-38.25-10.25-62,11c0,0-3.03,4.315-5.045,8.596C64.97,53.814,64,58,64,58
		S45.5,72.25,44,78s0,17,0,17s-1.56,0.398-2.086,1.716C41.444,97.891,42,100,42,100z"/>
	<path opacity="0.3" fill="url(#USGS_17_Sandy_Dry_Lake)" d="M42,100l1,3c0,0,6,5.5,18,10l5,1l2,2l23,2l10,2c0,0,4.5-1.25,11,1h9
		l6-2l14-6l-1-4l12-16c0,0,4.771-2.727,12.796-1.249c0.393,0.073,0.795,0.155,1.204,0.249l1,2l4,7l-4-33l-4-2l-1-14l-3-8
		c0,0-2.25-4-10-8c0,0-3.25-3.75-8-5l-7-1c0,0-38.25-10.25-62,11c0,0-3.03,4.315-5.045,8.596C64.97,53.814,64,58,64,58
		S45.5,72.25,44,78s0,17,0,17s-1.56,0.398-2.086,1.716C41.444,97.891,42,100,42,100z"/>
</g>
<path fill="#A9A9A9" d="M102,120c0,0,30.279-9.275,33-16c0,0,3.67-14.514,3-19c0,0,2.655-7.676,16-13c0,0,5.018-27.644-3-35
	c0,0,11.164-1.496,12,29l4,2l5,34v7l-10,3l4-5l2-10l-2-4l-8-1l-5,1l-6,6l-6,10l1,4l-17,7C125,120,124.803,123.312,102,120z"/>
<path fill="none" stroke="#6F6F6F" stroke-width="1.5" d="M42,100l1,3c0,0,6,5.5,18,10l5,1l2,2l23,2l10,2c0,0,4.5-1.25,11,1h9l6-2
	l14-6l-1-4l12-16c0,0,4.771-2.727,12.796-1.249c0.393,0.073,0.795,0.155,1.204,0.249l1,2l4,7l-4-33l-4-2l-1-14l-3-8c0,0-2.25-4-10-8
	c0,0-3.25-3.75-8-5l-7-1c0,0-38.25-10.25-62,11c0,0-3.03,4.315-5.045,8.596C64.97,53.814,64,58,64,58S45.5,72.25,44,78s0,17,0,17
	s-1.56,0.398-2.086,1.716C41.444,97.891,42,100,42,100z"/>
<path opacity="0.302" fill="none" stroke="#767676" enable-background="new    " d="M103,120c0,0,24.207-6.367,32.26-16.037
	c0.265-0.316,0.512-0.638,0.74-0.963c0,0,2.865-10.98,2-18"/>
<path opacity="0.302" fill="none" stroke="#767676" enable-background="new    " d="M140,80c0,0,15.714-7.701,15-11
	s2.171-19.661-2-26"/>
<path opacity="0.302" fill="none" stroke="#434343" enable-background="new    " d="M142,61c0,0-15.476-21.448-51-15"/>
<path opacity="0.302" fill="none" stroke="#434343" enable-background="new    " d="M117,49c0,0-28.915-3.277-46,11"/>
<path opacity="0.302" fill="none" stroke="#434343" enable-background="new    " d="M63,58c0,0,6.426-2.202,9-3 M167,77
	c0,0-8.075,5.758-14,6 M168,101l-1,5l-4,6 M63,58c0,0,6.426-2.202,9-3"/>
<path opacity="0.302" fill="none" stroke="#434343" enable-background="new    " d="M167,80.835c0,0-6.906,5.916-11.974,6.165"/>
<path opacity="0.302" fill="none" stroke="#434343" enable-background="new    " d="M168.225,85.309c0,0-6.608,4.739-11.128,4.555"
	/>
<path opacity="0.302" fill="none" stroke="#434343" enable-background="new    " d="M167.503,66.769c0,0-5.069,5.471-8.996,5.82"/>
<path opacity="0.302" fill="none" stroke="#434343" enable-background="new    " d="M163.003,61.727c0,0-4.46,5.893-7.914,6.267"/>
<path opacity="0.302" fill="none" stroke="#434343" enable-background="new    " d="M44,91c0,0-0.069,2.454,2,3c0,0-0.264,2.92,1,3"
	/>
<path opacity="0.302" fill="none" stroke="#434343" enable-background="new    " d="M52,98c0,0-2.194,6.497,6,10"/>
<g>
	<path fill="#CDCDCD" d="M1085.695,110.661c0,0-22.942,5.005-33.141-4.412c0,0-8.527-1.069-7.462-3.997c0,0-5.355-3.031-3.737-5.531
		c0,0-2.94-3.373-1.665-4.814c0,0-2.43-8.494,0.815-8.195l0.813-8.193c0,0,3.011-15.322,33.094-23.858
		c0,0,14.004-5.511,44.747,9.843c0,0,7.948,5.695,8.721,12.908l11.733-0.646c0,0,5.196,4.012,6.201,8.698
		c0.107,0.498,0.166,1.003,0.167,1.513c0,0,8.422,0.326,9.813,6.694c0,0,11.448-6.159,15.039-5.151l14.656,13.08
		c0,0,5.394,5.045,0.571,11.028c-4.822,5.981-13.654,7.985-13.654,7.985l-8.009-0.889l-10.36-3.588l-1.793,1.264
		c0,0-10.342,7.014-17.391,2.453c0,0-25.633,6.9-35.888,4.055C1088.711,118.062,1086.426,114.092,1085.695,110.661z"/>
	<path fill="none" stroke="#6F6F6F" stroke-width="1.5" d="M1085.695,110.661c0,0-22.942,5.005-33.141-4.412
		c0,0-8.527-1.069-7.462-3.997c0,0-5.355-3.031-3.737-5.531c0,0-2.94-3.373-1.665-4.814c0,0-2.43-8.494,0.815-8.195l0.813-8.193
		c0,0,3.011-15.322,33.094-23.858c0,0,14.004-5.511,44.747,9.843c0,0,7.948,5.695,8.721,12.908l11.733-0.646
		c0,0,5.196,4.012,6.201,8.698c0.107,0.498,0.166,1.003,0.167,1.513c0,0,8.422,0.326,9.813,6.694c0,0,11.448-6.159,15.039-5.151
		l14.656,13.08c0,0,5.394,5.045,0.571,11.028c-4.822,5.981-13.654,7.985-13.654,7.985l-8.009-0.889l-10.36-3.588l-1.793,1.264
		c0,0-10.342,7.014-17.391,2.453c0,0-25.633,6.9-35.888,4.055C1088.711,118.062,1086.426,114.092,1085.695,110.661z"/>
	<path opacity="0.3" fill="url(#USGS_17_Sandy_Dry_Lake)" d="M1085.695,110.661c0,0-22.942,5.005-33.141-4.412
		c0,0-8.527-1.069-7.462-3.997c0,0-5.355-3.031-3.737-5.531c0,0-2.94-3.373-1.665-4.814c0,0-2.43-8.494,0.815-8.195l0.813-8.193
		c0,0,3.011-15.322,33.094-23.858c0,0,14.004-5.511,44.747,9.843c0,0,7.948,5.695,8.721,12.908l11.733-0.646
		c0,0,5.196,4.012,6.201,8.698c0.107,0.498,0.166,1.003,0.167,1.513c0,0,8.422,0.326,9.813,6.694c0,0,11.448-6.159,15.039-5.151
		l14.656,13.08c0,0,5.394,5.045,0.571,11.028c-4.822,5.981-13.654,7.985-13.654,7.985l-8.009-0.889l-10.36-3.588l-1.793,1.264
		c0,0-10.342,7.014-17.391,2.453c0,0-25.633,6.9-35.888,4.055C1088.711,118.062,1086.426,114.092,1085.695,110.661z"/>
</g>
<path fill="#B1B1B1" d="M1127,69c0,0-10.52-10.539-22,1c-9.058,9.104-6,18-6,18s18.816-13.012,29-14L1127,69z"/>
<path fill="#B1B1B1" d="M1136,105c0,0-7.281,13.658-24,15c0,0-15.747,0.018-21-7c0,0-3.424,1.854-5,0c0,0,7.009,12.16,29,8
	c21.99-4.16,19-4,19-4s-0.859-2,1-3c1.858-1,5-6,5-6l3,2v-2l5,4c0,0,2.837-18.791,8.361-21.736c0.209-0.111,0.421-0.199,0.639-0.264
	c5.943-1.762-1-1-1-1s-5.625-5.016-10-6c0,0-6.727,8.852-12.733,4.216c-0.089-0.069-0.178-0.141-0.267-0.216c0,0,0.816,5.611,3,7
	C1136,94,1137.059,104.868,1136,105z"/>
<path fill="none" stroke="#6F6F6F" stroke-width="1.5" d="M1085.695,110.661c0,0-22.942,5.005-33.141-4.412
	c0,0-8.527-1.069-7.462-3.997c0,0-5.355-3.031-3.737-5.531c0,0-2.94-3.373-1.665-4.814c0,0-2.43-8.494,0.815-8.195l0.813-8.193
	c0,0,3.011-15.322,33.094-23.858c0,0,14.004-5.511,44.747,9.843c0,0,7.948,5.695,8.721,12.908l11.733-0.646
	c0,0,5.196,4.012,6.201,8.698c0.107,0.498,0.166,1.003,0.167,1.513c0,0,8.422,0.326,9.813,6.694c0,0,11.448-6.159,15.039-5.151
	l14.656,13.08c0,0,5.394,5.045,0.571,11.028c-4.822,5.981-13.654,7.985-13.654,7.985l-8.009-0.889l-10.36-3.588l-1.793,1.264
	c0,0-10.342,7.014-17.391,2.453c0,0-25.633,6.9-35.888,4.055C1088.711,118.062,1086.426,114.092,1085.695,110.661z"/>
<path fill="none" stroke="#767676" stroke-width="0.5" d="M1083.411,66.547c0,0,7.453-1.052,14.098,9.12l1.816,12.872
	c0,0-3.475-13.648,5.354-17.924"/>
<path fill="none" stroke="#767676" stroke-width="0.5" d="M1126.913,74.547c0,0-26.161,6.145-42.057,30.174l0.978,6.93"/>
<path fill="none" stroke="#767676" stroke-width="0.5" d="M1132.595,86.874c0,0,0.576,2.083,1.665,4.813
	c1.089,2.732,2.819,0.035,2.771,5.67c-0.05,5.633,0.013,7.066,0.013,7.066l-1.793,1.264"/>
<path fill="none" stroke="#767676" stroke-width="0.5" d="M1132.91,110.057c0,0-8.132,8.217-13.515,8.978
	c-5.383,0.759-18.414,4.185-28.45-6.084"/>
<path fill="none" stroke="#767676" stroke-width="0.5" d="M1166.028,100.334c0,0-8.241,13.426,4.309,16.561"/>
<path fill="none" stroke="#767676" stroke-width="0.5" d="M1165.9,106.411c0,0,1.907-15.417,17.38-9.522"/>
<path fill="none" stroke="#767676" stroke-width="0.5" d="M1051.436,98.327c0,0,0.842,7.961,3.33,9.629"/>
<path fill="none" stroke="#767676" stroke-width="0.5" d="M1046.033,87.98c0,0-1.326,8.555,4.576,11.474"/>
<path fill="none" stroke="#767676" stroke-width="0.5" d="M1140.361,106.986c0,0-0.017,1.877-2.34,4.369"/>
<path fill="none" stroke="#767676" stroke-width="0.5" d="M1134.855,116.852c0,0-1.251-4.873,9.103-5.324"/>
<path fill="none" stroke="#767676" stroke-width="0.5" d="M1150.314,114.671c0,0-0.774-2.487-3.318-2.562"/>
<path fill="none" stroke="#767676" stroke-width="0.5" d="M1141.886,110.811c0,0,1.831-1.99,1.513-3.244"/>
<path fill="none" stroke="#767676" stroke-width="0.5" d="M1179.858,114.541c0,0,6.361-5.803,0.675-9.186"/>
<path fill="none" stroke="#767676" stroke-width="0.5" d="M1046.174,88.971c0,0,5.234,5.176,11.326,3.451"/>
<path fill="none" stroke="#767676" stroke-width="0.5" d="M1082.026,63.713c0,0-1.636,0.375-1.513,3.243"/>
<path fill="none" stroke="#767676" stroke-width="0.5" d="M1078.988,63.132c0,0-2.345,1.341-2.34,4.37"/>
<path fill="none" stroke="#767676" stroke-width="0.5" d="M1075.949,62.551c0,0-2.975,1.862-4.831,0.681"/>
<path fill="none" stroke="#767676" stroke-width="0.5" d="M1041.738,78.488c0,0,1.898,2.473,5.25,2.287"/>
<path fill="none" stroke="#767676" stroke-width="0.5" d="M1053.648,100.035c0,0,2.43,2.254,10.081,1.607"/>
<path fill="none" stroke="#767676" stroke-width="0.5" d="M1121.931,67.171c0,0-2.489-2.679-5.11-1.299"/>
<path fill="#5C7B22" d="M132,119c0,0,0.667-12.667-4-16c0,0,0,10.333-1,15c0,0-5.333-6-11-8c0,0,7.333,6.333,8,11
	c0,0-3.667-4.667-8-4c0,0,5.333,3,4,6C120,123,132.667,124,132,119z"/>
<path fill="#5C7B22" d="M136,122l8-1c0,0-3.333-2-9-3c0,0,1.333-7.333,4-8c0,0-5,1.333-10,11c0,0-1,2.667,5,1"/>
<path fill="#5C7B22" d="M1119.655,119.721c0,0-1.093-3.729-5.055-2.336c-0.586,0.206-1.1-0.019-1.737,0.19
	c-4.4,1.448,1.069-3.738,7.694-0.812c0,0,0.027-10.346-1.688-11.101c0,0,3.714,0.856,4.736,10.254c0,0,3.472-9.169,6.452-8.683
	c0,0-3.002,4.854-3.404,7.836c0,0,4.75-4.764,6.947-3.65c0,0-7.032,5.314-6.401,7.684l3.191,1.42c0,0-3.681,2.188-7.412,2.379
	c-3.833,0.195-7.717-1.605-7.717-1.605L1119.655,119.721z"/>
<path fill="#FFFFFF" d="M1115.087,120.342c0,0-8.304-2.422-6.438-6.43S1113.699,117.311,1115.087,120.342z"/>
<path fill="#FFFFFF" d="M1115.258,120.238c0,0-5.078-7.057-1.135-9.018C1118.068,109.258,1116.028,117.012,1115.258,120.238z"/>
<path fill="#FFFFFF" d="M1114.901,120.428c0,0,1.689-8.4,5.794-6.895C1124.799,115.04,1117.772,118.805,1114.901,120.428z"/>
<path fill="#FFFFFF" d="M1115.017,120.586c0,0,6.526-5.602,8.79-1.872S1118.26,121.077,1115.017,120.586z"/>
<path fill="#FFFFFF" d="M1116.396,119.423c0,0,8.426,2.461,6.535,6.529C1121.039,130.02,1117.804,122.501,1116.396,119.423z"/>
<path fill="#FFFFFF" d="M1116.223,119.527c0,0,5.154,7.166,1.152,9.156S1115.443,122.803,1116.223,119.527z"/>
<path fill="#FFFFFF" d="M1116.584,119.337c0,0-1.711,8.526-5.877,6.996S1113.672,120.984,1116.584,119.337z"/>
<path fill="#FFFFFF" d="M1116.467,119.175c0,0-6.621,5.685-8.919,1.897C1105.248,117.286,1113.175,118.676,1116.467,119.175z"/>
<path fill="#D8AA3C" d="M1117.543,120.053c-0.605,1.004-0.274,0.723-1.43,1.389c-1.156,0.668-1.731,0.865-2.406-0.303
	s-0.703-2.414,0.452-3.082c0.688-0.396,1.281-0.927,1.917-0.543C1116.526,117.785,1117.732,119.738,1117.543,120.053z"/>
<path fill="#FFFFFF" d="M1132.698,117.043c0,0,1.874-6.326,4.976-4.906C1140.775,113.559,1135.045,115.986,1132.698,117.043z"/>
<path fill="#FFFFFF" d="M1132.779,117.173c0,0,5.46-3.868,6.979-0.864C1141.276,119.314,1135.275,117.759,1132.779,117.173z"/>
<path fill="#FFFFFF" d="M1132.634,116.9c0,0,6.499,1.287,5.333,4.414C1136.802,124.441,1133.89,119.088,1132.634,116.9z"/>
<path fill="#FFFFFF" d="M1132.51,116.988c0,0,4.335,4.973,1.449,6.697C1131.073,125.411,1132.13,119.46,1132.51,116.988z"/>
<path fill="#FFFFFF" d="M1133.41,118.04c0,0-1.904,6.42-5.053,4.979C1125.211,121.578,1131.028,119.113,1133.41,118.04z"/>
<path fill="#FFFFFF" d="M1133.329,117.908c0,0-5.545,3.927-7.085,0.878C1124.704,115.738,1130.795,117.312,1133.329,117.908z"/>
<path fill="#FFFFFF" d="M1133.477,118.184c0,0-6.598-1.304-5.413-4.478C1129.248,110.531,1132.202,115.964,1133.477,118.184z"/>
<path fill="#FFFFFF" d="M1133.602,118.094c0,0-4.399-5.044-1.468-6.796C1135.064,109.547,1133.988,115.586,1133.602,118.094z"/>
<path fill="#D8AA3C" d="M1132.923,118.914c-0.777-0.461-0.56-0.209-1.075-1.089s-0.669-1.32,0.234-1.834
	c0.904-0.515,1.868-0.535,2.385,0.345c0.307,0.523,0.718,0.977,0.42,1.461C1134.678,118.139,1133.166,119.059,1132.923,118.914z"/>
<path fill="#FFFFFF" d="M129.087,102.342c0,0-8.303-2.422-6.438-6.43C124.514,91.904,127.7,99.311,129.087,102.342z"/>
<path fill="#FFFFFF" d="M129.258,102.238c0,0-5.078-7.057-1.134-9.018C132.068,91.258,130.027,99.012,129.258,102.238z"/>
<path fill="#FFFFFF" d="M128.901,102.428c0,0,1.689-8.4,5.794-6.894C138.799,97.04,131.772,100.805,128.901,102.428z"/>
<path fill="#FFFFFF" d="M129.017,102.586c0,0,6.526-5.602,8.79-1.872S132.26,103.077,129.017,102.586z"/>
<path fill="#FFFFFF" d="M130.396,101.423c0,0,8.426,2.461,6.535,6.529C135.039,112.02,131.805,104.501,130.396,101.423z"/>
<path fill="#FFFFFF" d="M130.223,101.527c0,0,5.154,7.166,1.153,9.156C127.374,112.674,129.443,104.803,130.223,101.527z"/>
<path fill="#FFFFFF" d="M130.584,101.337c0,0-1.711,8.526-5.877,6.996S127.672,102.984,130.584,101.337z"/>
<path fill="#FFFFFF" d="M130.467,101.175c0,0-6.621,5.685-8.919,1.897C119.249,99.286,127.175,100.676,130.467,101.175z"/>
<path fill="#D8AA3C" d="M131.543,102.053c-0.605,1.004-0.274,0.723-1.43,1.389c-1.155,0.668-1.731,0.865-2.406-0.303
	c-0.674-1.168-0.703-2.414,0.453-3.082c0.687-0.396,1.28-0.927,1.917-0.543C130.526,99.785,131.732,101.738,131.543,102.053z"/>
</svg>
