<?xml version="1.0" encoding="utf-8"?>
<!-- Generator: Adobe Illustrator 16.0.0, SVG Export Plug-In . SVG Version: 6.00 Build 0)  -->
<!DOCTYPE svg PUBLIC "-//W3C//DTD SVG 1.1//EN" "http://www.w3.org/Graphics/SVG/1.1/DTD/svg11.dtd">
<svg version="1.1" xmlns="http://www.w3.org/2000/svg" xmlns:xlink="http://www.w3.org/1999/xlink" x="0px" y="0px"
	 width="493.425px" height="182.322px" viewBox="0 0 493.425 182.322" enable-background="new 0 0 493.425 182.322"
	 xml:space="preserve">
<g id="Layer_1" display="none">
</g>
<g id="Layer_2">
	<g>
		<g>
			<path fill-rule="evenodd" clip-rule="evenodd" fill="#101218" d="M487.231,182.322c0.65-83.4,4.833-180.375,4.833-180.375
				c0-0.351-0.018-0.691-0.047-1.023c-0.312-0.532-0.592-1.567-1.004-1.513c-0.589,0.077-0.726-0.189-1.549,0.637
				c-0.401,0.402-1.639,0.189-2.131,0.519c-0.936,0.629-1.143,1.592-1.597,1.037c-0.744-0.908-1.614-0.287-2.739-0.402
				c-0.618-0.063-0.935-1.073-2.234-0.986c-0.641,0.043-2.379,0.731-3.048,1.034c-0.442,0.2-1.434-0.579-1.888-0.259
				c-0.83,0.583-1.681,1.61-2.55,1.659c-1.11,0.062-0.687-0.454-2.496-1.004c-1.051-0.319-1.076,0.502-2.621,0.424
				c-0.454-0.023-2.629-0.496-3.301-0.466c-0.944,0.042-1.927,0.601-2.942,0.638c-8.395,0.307-19.084-1.1-29.397-0.958
				c-29.476,0.404-18.617,1.708-57.255,1.747c-44.228,0.043-90.834-1.25-131.524-1.945C183.359,0.053,110.63,3.681,59.508,3.901
				c-14.084,0.061-26.364-0.05-36.311-0.432c-1.389-0.054-2.723,0.469-3.487,0.828C19.042,4.61,17.701,3.156,16.99,3.1
				c-1.872-0.151-3.635,0.191-5.285-0.015c-1.178-0.147-2.297-0.828-3.358-1.008C7.395,1.916,6.49,1.223,5.635,1.034
				C4.986,0.89,4.364,1.257,3.772,1.096C3.518,1.026,3.27,1.994,3.027,1.922C2.67,1.816,2.326,0.671,1.995,0.56
				c-0.21-0.07-0.722,1.116-0.921,1.043C0.996,1.575,0.907,1.452,0.814,1.29c-0.012,0.218-0.03,0.432-0.03,0.657
				c0,0,4.699,96.975,4.909,180.375H487.231z"/>
		</g>
	</g>
</g>
</svg>
