<?xml version="1.0" encoding="utf-8"?><!DOCTYPE svg PUBLIC "-//W3C//DTD SVG 1.1//EN" "http://www.w3.org/Graphics/SVG/1.1/DTD/svg11.dtd"><svg version="1.1" baseProfile="full" xmlns="http://www.w3.org/2000/svg" xmlns:xlink="http://www.w3.org/1999/xlink" xmlns:ev="http://www.w3.org/2001/xml-events"   height="14px"   width="578px" ><path fill="rgb( 206, 191, 226 )" d="M575.5,5 C575.5,5 554.087,0 519.546,0 C498.533,0 472.661,6 443.796,6 C422.161,6 398.844,0 374.632,0 C350.055,0 324.554,6 298.953,6 C273.369,6 247.684,1 222.718,1 C181.39,1 142.032,8 108.366,8 C46.245,8 2.5,1 2.5,1 C1.119,1 0,2.119 0,3.5 C0,3.5 0,4.5 0,4.5 C0,5.881 1.119,7 2.5,7 C2.5,7 46.137,14 108.129,14 C141.793,14 181.163,7 222.513,7 C247.541,7 273.294,12 298.946,12 C324.535,12 350.023,6 374.589,6 C398.772,6 422.063,12 443.677,12 C472.707,12 498.713,6 519.801,6 C554.192,6 575.5,11 575.5,11 C576.881,11 578,9.881 578,8.5 C578,8.5 578,7.5 578,7.5 C578,6.119 576.881,5 575.5,5 Z "/><path fill="rgb( 189, 173, 210 )" d="M575.5,11 C575.5,11 569.541,9.603 558.845,8.285 C558.845,8.285 559.36,2.36 559.36,2.36 C569.726,3.655 575.5,5 575.5,5 C576.881,5 578,6.119 578,7.5 C578,7.5 578,8.5 578,8.5 C578,9.881 576.881,11 575.5,11 ZM523.092,6.016 C523.092,6.016 522.547,0.013 522.547,0.013 C530.949,0.084 538.522,0.446 545.141,0.946 C545.141,0.946 544.35,6.878 544.35,6.878 C538.064,6.42 530.949,6.089 523.092,6.016 ZM476.629,3.914 C485.091,2.986 493.166,1.93 500.787,1.149 C500.787,1.149 502.255,7.021 502.255,7.021 C494.366,7.798 485.981,8.895 477.169,9.862 C477.169,9.862 476.629,3.914 476.629,3.914 ZM429.465,11.282 C429.465,11.282 430.208,5.338 430.208,5.338 C434.804,5.743 439.336,6 443.796,6 C446.346,6 448.871,5.951 451.373,5.866 C451.373,5.866 452.564,11.819 452.564,11.819 C449.635,11.933 446.673,12 443.677,12 C439.015,12 434.275,11.72 429.465,11.282 ZM23,9.589 C9.934,8.191 2.5,7 2.5,7 C1.119,7 0,5.881 0,4.5 C0,4.5 0,3.5 0,3.5 C0,2.119 1.119,1 2.5,1 C2.5,1 9.933,2.188 23,3.584 C23,3.584 23,9.589 23,9.589 ZM96.649,7.916 C100.475,7.97 104.381,8 108.366,8 C112.394,8 116.505,7.898 120.69,7.721 C120.69,7.721 120.189,13.731 120.189,13.731 C116.096,13.901 112.072,14 108.129,14 C104.077,14 100.109,13.969 96.221,13.913 C96.221,13.913 96.649,7.916 96.649,7.916 ZM389.418,0.657 C396.719,1.257 403.92,2.187 411,3.106 C411,3.106 411,9.117 411,9.117 C403.68,8.166 396.23,7.201 388.675,6.601 C388.675,6.601 389.418,0.657 389.418,0.657 ZM349.832,7.548 C349.832,7.548 348.575,1.685 348.575,1.685 C355.759,0.906 362.89,0.273 369.951,0.07 C369.951,0.07 371.071,6.044 371.071,6.044 C364.056,6.198 356.97,6.79 349.832,7.548 ZM310.235,11.646 C310.235,11.646 309.385,5.695 309.385,5.695 C315.939,5.333 322.479,4.687 328.991,3.953 C328.991,3.953 330.164,9.818 330.164,9.818 C323.546,10.574 316.898,11.253 310.235,11.646 ZM291,11.849 C283.759,11.588 276.516,11.012 269.291,10.344 C269.291,10.344 269.664,4.371 269.664,4.371 C276.766,5.027 283.883,5.59 291,5.848 C291,5.848 291,11.849 291,11.849 ZM225.602,7.028 C225.602,7.028 225.201,1.017 225.201,1.017 C232.416,1.109 239.689,1.59 247,2.22 C247,2.22 247,8.232 247,8.232 C239.825,7.614 232.686,7.139 225.602,7.028 ZM141.283,6.392 C147.654,5.874 154.163,5.276 160.787,4.672 C160.787,4.672 162.043,10.536 162.043,10.536 C155.157,11.164 148.395,11.789 141.778,12.332 C141.778,12.332 141.283,6.392 141.283,6.392 ZM179.696,3.015 C186.926,2.428 194.266,1.912 201.694,1.548 C201.694,1.548 202.438,7.501 202.438,7.501 C195.22,7.841 188.084,8.328 181.051,8.887 C181.051,8.887 179.696,3.015 179.696,3.015 ZM68.63,13.059 C58.672,12.586 49.598,11.978 41.573,11.328 C41.573,11.328 42.838,5.423 42.838,5.423 C50.894,6.062 59.97,6.656 69.904,7.113 C69.904,7.113 68.63,13.059 68.63,13.059 Z "/></svg>