<?xml version="1.0" encoding="UTF-8" standalone="no"?>
<svg width="860px" height="14px" viewBox="0 0 860 14" version="1.1" xmlns="http://www.w3.org/2000/svg" xmlns:xlink="http://www.w3.org/1999/xlink" xmlns:sketch="http://www.bohemiancoding.com/sketch/ns">
    <title>Slice 1</title>
    <description>Created with Sketch (http://www.bohemiancoding.com/sketch)</description>
    <defs></defs>
    <g id="Page-1" stroke="none" stroke-width="1" fill="none" fill-rule="evenodd" sketch:type="MSPage">
        <g id="underlinegreywide" sketch:type="MSLayerGroup">
            <path d="M856.280277,5 C856.280277,5 824.420104,0 773.02692,0 C741.761903,0 703.267232,6 660.319308,6 C628.128824,6 593.435709,0 557.410934,0 C520.84308,0 482.900415,6 444.808962,6 C406.742803,6 368.526367,1 331.379723,1 C269.888235,1 211.327889,8 161.236609,8 C68.8074394,8 3.71972318,1 3.71972318,1 C1.6649481,1 0,2.119 0,3.5 L0,4.5 C0,5.881 1.6649481,7 3.71972318,7 C3.71972318,7 68.6467474,14 160.883979,14 C210.972284,14 269.550484,7 331.074706,7 C368.313599,7 406.631211,12 444.798547,12 C482.872145,12 520.795467,6 557.346955,6 C593.328581,6 627.98301,12 660.142249,12 C703.335675,12 742.029723,6 773.406332,6 C824.576332,6 856.280277,11 856.280277,11 C858.335052,11 860,9.881 860,8.5 L860,7.5 C860,6.119 858.335052,5 856.280277,5 L856.280277,5 Z" id="Shape" fill="#CEBFE2" sketch:type="MSShapeGroup"></path>
            <path d="M856.280277,11 C856.280277,11 847.413945,9.603 831.499481,8.285 L832.265744,2.36 C847.689204,3.655 856.280277,5 856.280277,5 C858.335052,5 860,6.119 860,7.5 L860,8.5 C860,9.881 858.335052,11 856.280277,11 L856.280277,11 Z M778.302976,6.016 L777.492076,0.013 C789.993322,0.084 801.261107,0.446 811.109446,0.946 L809.932526,6.878 C800.579654,6.42 789.993322,6.089 778.302976,6.016 L778.302976,6.016 Z M709.171176,3.914 C721.761696,2.986 733.776401,1.93 745.115606,1.149 L747.299827,7.021 C735.561869,7.798 723.085917,8.895 709.974637,9.862 L709.171176,3.914 L709.171176,3.914 Z M638.996367,11.282 L640.101869,5.338 C646.940208,5.743 653.683322,6 660.319308,6 C664.113426,6 667.870346,5.951 671.593045,5.866 L673.365121,11.819 C669.007093,11.933 664.599965,12 660.142249,12 C653.205709,12 646.153114,11.72 638.996367,11.282 L638.996367,11.282 Z M34.2214533,9.589 C14.780692,8.191 3.71972318,7 3.71972318,7 C1.6649481,7 0,5.881 0,4.5 L0,3.5 C0,2.119 1.6649481,1 3.71972318,1 C3.71972318,1 14.7792042,2.188 34.2214533,3.584 L34.2214533,9.589 L34.2214533,9.589 Z M143.80301,7.916 C149.495675,7.97 155.30737,8 161.236609,8 C167.229827,8 173.34654,7.898 179.573356,7.721 L178.827924,13.731 C172.737993,13.901 166.750727,14 160.883979,14 C154.855052,14 148.951107,13.969 143.166194,13.913 L143.80301,7.916 L143.80301,7.916 Z M579.410865,0.657 C590.273945,1.257 600.988235,2.187 611.522491,3.106 L611.522491,9.117 C600.631142,8.166 589.546367,7.201 578.305363,6.601 L579.410865,0.657 L579.410865,0.657 Z M520.51128,7.548 L518.641003,1.685 C529.33,0.906 539.940138,0.273 550.446125,0.07 L552.112561,6.044 C541.675017,6.198 531.131834,6.79 520.51128,7.548 L520.51128,7.548 Z M461.595329,11.646 L460.330623,5.695 C470.082249,5.333 479.813045,4.687 489.50218,3.953 L491.247474,9.818 C481.400623,10.574 471.509135,11.253 461.595329,11.646 L461.595329,11.646 Z M432.975779,11.849 C422.201972,11.588 411.42519,11.012 400.67519,10.344 L401.230173,4.371 C411.797163,5.027 422.386471,5.59 432.975779,5.848 L432.975779,11.849 L432.975779,11.849 Z M335.670796,7.028 L335.074152,1.017 C345.809273,1.109 356.630692,1.59 367.508651,2.22 L367.508651,8.232 C356.833045,7.614 346.211003,7.139 335.670796,7.028 L335.670796,7.028 Z M210.21346,6.392 C219.692803,5.874 229.377474,5.276 239.233253,4.672 L241.102042,10.536 C230.856436,11.164 220.795329,11.789 210.949965,12.332 L210.21346,6.392 L210.21346,6.392 Z M267.367751,3.015 C278.12519,2.428 289.046298,1.912 300.098339,1.548 L301.205329,7.501 C290.465744,7.841 279.848166,8.328 269.383841,8.887 L267.367751,3.015 L267.367751,3.015 Z M102.113841,13.059 C87.2974394,12.586 73.7963322,11.978 61.8560208,11.328 L63.7382007,5.423 C75.7246367,6.062 89.2287197,6.656 104.009412,7.113 L102.113841,13.059 L102.113841,13.059 Z" id="Shape" fill="#BDADD2" sketch:type="MSShapeGroup"></path>
        </g>
    </g>
</svg>